<svg width="100" height="100" viewBox="0 0 100 100" fill="none" xmlns="http://www.w3.org/2000/svg">
<path d="M31.6433 33.896L31.6419 27.3538C31.6427 22.1579 31.6636 21.4973 37.2212 21.5003L44.8687 21.5032C47.9804 21.504 48.7617 21.6065 51.7222 20.7112L55.7416 19.473C56.5527 19.2197 57.3207 18.9475 58.1613 18.8118C59.9691 18.6671 60.9113 19.9362 61.305 21.5022C63.014 21.495 65.242 21.1507 66.424 22.6214C67.557 24.0311 68.6548 25.4536 69.7609 26.8811L79.3173 39.4927C79.6427 39.9292 80.4464 40.9618 80.6371 41.402C80.5199 42.0251 80.273 42.7895 80.1023 43.4216L74.0377 66.5688C73.7209 67.7983 73.5576 69.4489 73.0464 70.5807C72.6218 71.5212 71.213 72.5376 70.1136 72.4307C66.3363 72.0641 63.5322 72.0372 59.981 73.1456L40.1136 79.3221L36.965 80.3153C31.7951 81.9596 31.7142 80.887 30.1726 75.6915L19.9375 42.3464C19.4586 40.7706 18.6036 38.5489 20.6584 37.5261C21.7041 37.0055 23.1562 36.6331 24.2898 36.2679L31.6433 33.896ZM58.1613 20.7561C57.3105 21.0395 56.4455 21.2358 55.5964 21.5022C55.9623 21.5005 56.4636 21.5247 56.808 21.5022C57.2193 21.5026 58.89 21.5518 59.1835 21.5046L59.2295 21.4473C59.1203 20.8766 58.6996 20.7138 58.1613 20.7561ZM35.0597 23.4722C34.1099 23.4821 33.5767 23.5884 33.5693 24.7044L33.5792 66.8987C33.5808 70.4677 33.4607 70.3409 37.3437 70.3634L70.1175 70.3639C71.8898 70.1927 71.3666 67.3106 71.3662 66.0005L71.3668 39.9378C64.6976 38.0821 64.0226 36.5827 64.0228 29.98L64.0238 23.4722H35.0597ZM65.9826 25.1737L65.9816 30.0725C65.9816 32.8095 65.6822 35.6882 68.7656 37.0968C70.5164 37.8966 75.0837 39.1264 77.0193 39.6796C74.0121 35.5259 70.8377 31.4524 67.7039 27.3911C67.4609 27.0761 66.147 25.3091 65.9826 25.1737ZM31.6433 35.8909C28.3863 36.8214 25.1451 38.1288 21.8751 39.0555C21.3992 39.1905 21.2955 39.4952 21.1646 39.9378C21.8453 42.3653 22.7724 44.9319 23.525 47.3638L29.5064 66.7764C30.1509 68.8805 32.3607 77.3112 33.2044 78.8196C33.455 78.9942 33.7058 79.1823 33.9759 79.3221C36.2349 78.285 40.1966 77.2022 42.6882 76.4843C47.1103 75.1948 51.4535 73.6651 55.8545 72.3179L37.1033 72.3194C31.6113 72.321 31.638 71.0663 31.6443 65.9825L31.6433 37.2554C31.6455 36.9903 31.7332 35.9981 31.6433 35.8909ZM73.3046 40.5653L73.3066 59.0608C73.3095 59.7643 73.3545 60.7747 73.3046 61.4495C73.6785 60.1411 74.0863 58.672 74.4156 57.3532C75.657 52.3024 77.1043 47.227 78.3836 42.1634L73.3046 40.5653Z" fill="#1C2833"/>
<path d="M38.4137 38.0915C38.5789 37.4436 38.6596 37.2632 39.3442 37.1042C40.4703 37.046 49.9717 37.045 50.4367 37.2153C51.418 37.5747 50.9799 38.7532 50.2045 39.0444C49.6645 39.0794 48.8293 39.0493 48.266 39.0479L41.0742 39.0473C40.4319 39.0509 39.5846 39.0829 38.9586 39.0444C38.5951 38.6608 38.5522 38.595 38.4137 38.0915Z" fill="#1C2833"/>
<path d="M66.1395 46.0798C65.7149 46.1222 65.0534 46.0863 64.604 46.0823L43.745 46.0798C42.6049 46.08 39.8624 46.1544 38.876 45.9685C38.1962 45.5066 38.3249 44.4435 39.1655 44.1409C39.1835 44.1396 39.2866 44.1318 39.3008 44.132L60.5811 44.14C61.3372 44.1402 66.0028 43.9489 66.4624 44.3577C67.0864 44.9126 66.9344 45.7195 66.1395 46.0798Z" fill="#1C2833"/>
<path d="M65.9826 53.1077C65.0004 53.1624 63.4904 53.1083 62.4711 53.1081L39.7758 53.105C37.8383 52.9702 38.0576 51.4968 39.3441 51.1241C40.5787 51.0732 42.266 51.1235 43.5367 51.1235L65.4654 51.1204C67.0052 51.1349 67.3566 52.823 65.9826 53.1077Z" fill="#1C2833"/>
<path d="M38.4137 58.7979C39.8334 58.2358 42.6615 58.0303 44.2106 57.9075C45.9672 57.8667 53.0897 58.0458 54.0182 59.2807C54.4444 59.8475 53.9555 60.8442 53.2412 60.8218C52.3998 60.7952 49.3957 60.0936 48.4362 59.8917C47.8594 59.9975 46.3414 59.855 45.6912 59.868C43.5194 59.9118 41.0514 60.0471 38.9586 60.6253C38.669 59.776 38.5258 59.7958 38.4137 58.7979Z" fill="#1C2833"/>
</svg>
