<svg width="100" height="100" viewBox="0 0 100 100" fill="none" xmlns="http://www.w3.org/2000/svg">
<path d="M46.1195 20.968C46.1589 19.3122 46.5962 18.0264 48.508 17.8347C51.8775 17.8236 53.3591 17.2749 53.9876 20.968C55.7533 21.3106 57.6613 22.2262 59.1962 23.184C60.6871 21.9252 61.7093 21.2719 63.4371 22.7965C65.9724 25.034 66.7957 26.0477 64.633 28.5729C65.6738 30.5108 66.1435 31.6703 66.7292 33.7908C70.3966 33.6275 69.9992 35.7018 70.0601 38.3893C70.1166 40.8865 69.0212 41.3832 66.7292 41.3846C65.9404 43.2713 65.7181 44.2654 64.633 46.202C66.4359 49.3201 66.5646 48.4963 63.7669 51.4238C62.2119 53.051 60.7835 53.1504 59.1962 51.6594C57.3818 52.7818 56.0335 53.25 54.071 53.9395C54.0939 55.7838 53.7906 56.6977 51.9101 57.2746C48.8322 57.5395 46.6179 57.4992 46.1195 53.9395C44.2236 53.2469 42.8822 52.8498 40.9788 51.8916C39.9402 52.8979 38.4019 53.3451 37.1462 52.3293C34.473 49.8609 33.0386 49.432 35.6275 46.202C34.7529 45.1637 33.8656 42.6582 33.4566 41.3846C31.2685 40.8514 30.1904 41.2434 30.2031 38.3801C30.2148 35.6918 29.7531 33.4729 33.4566 33.7908C33.7595 31.9539 34.599 30.1145 35.6275 28.5729C35.5001 28.3916 35.3228 28.1617 35.1703 28.0139C32.9771 25.9492 35.3537 24.202 36.8269 22.7641C38.3105 21.3162 39.6038 21.7928 40.8029 23.184C41.9523 22.2139 44.6345 21.0793 46.1195 20.968ZM48.1425 19.6983C47.7789 22.469 47.9656 22.5502 45.2031 23.077C43.8123 23.342 41.6539 25.085 40.6078 25.0899C40.1642 25.092 39.1749 24.052 38.6382 23.7227C38.0167 24.0791 36.4874 25.6535 36.1214 26.2891C36.4121 26.7127 36.8744 27.1471 37.247 27.5137C38.3009 28.5209 37.0953 29.4287 36.6642 30.3609C36.2429 31.2719 35.4615 32.7936 35.3132 33.7781C34.9472 36.2098 34.0005 35.2287 31.9904 35.8236C31.9951 36.9955 32.0443 38.1377 31.9904 39.3051C35.8089 39.3793 34.5378 39.5846 35.7443 42.3693C36.115 43.2248 36.4183 43.9801 36.8847 44.7996C38.4837 47.6088 37.6908 45.9186 36.1214 48.6883C39.2958 52.5151 38.5419 50.6063 40.9788 49.6045L41.0372 49.6322C43.5335 50.8418 44.1906 51.485 47.2894 52.1188C47.5683 52.1758 47.8792 52.241 48.1425 52.3549C48.2933 55.1252 47.5425 55.3881 50.7755 55.3779C52.3138 55.394 52.2023 55.075 52.0943 53.6436C51.9468 51.6877 53.8646 52.1004 55.1265 51.5846C56.4595 51.0397 59.3003 49.1143 60.1693 50.0561C61.7646 51.7856 62.507 49.8584 63.9095 48.6883C62.5169 45.8656 61.8107 47.4348 63.5441 44.2799C63.9931 43.4627 65.0677 39.902 65.4087 39.6914C65.9912 39.3318 67.9453 39.907 68.1064 39.2096C68.246 38.6065 68.279 36.5902 68.098 35.9459C67.7308 35.0678 65.3984 36.1797 65.1591 35.2289C64.6746 33.3037 64.1496 31.4705 63.0837 29.7381C61.798 27.6486 62.788 27.9748 64.1099 26.2891C63.4781 25.4742 62.4384 24.1908 61.5453 23.7227C58.5949 25.5471 60.0964 25.6504 56.8363 23.9467C53.6283 22.2699 52.1134 23.8168 51.9101 19.6983H48.1425Z" fill="#1C001F"/>
<path d="M53.6472 43.8666L47.6689 43.868C44.6587 43.8692 42.1837 44.2541 42.1546 40.4313L42.1505 35.2117C42.1415 31.2484 41.9267 29.9055 46.764 29.9088L52.69 29.9068C57.9703 29.9063 58.1386 30.3428 58.1421 35.2154L58.1417 40.1506C58.1388 43.6912 56.7994 43.8949 53.6472 43.8666ZM54.3331 31.7787L48.0888 31.7766C47.0531 31.7768 44.0439 31.2965 44.0363 32.7108C44.022 35.3965 44.0289 38.0943 44.0271 40.7824C44.0261 42.2379 45.031 42.0203 46.1195 41.9943L52.6119 41.9955C53.7445 41.9963 55.5937 42.3613 56.2138 41.3846L56.2154 35.5092C56.2175 34.3359 56.6105 32.4236 55.6578 31.7787C55.2441 31.7494 54.7499 31.7463 54.3331 31.7787Z" fill="#1C001F"/>
<path d="M53.4603 35.8236C51.224 35.8473 48.9753 35.8143 46.7382 35.825C45.7396 35.8297 45.3443 34.2637 46.764 33.9324C47.6908 33.9326 53.3072 33.7953 53.8156 34.0693C54.6876 34.5395 54.333 35.6518 53.4603 35.8236Z" fill="#1C001F"/>
<path d="M51.3513 39.3051C50.8349 39.3588 49.3001 39.3473 48.8357 39.2203C47.8718 38.9566 47.8693 37.8084 48.8724 37.3863C49.6931 37.3596 51.9898 37.0947 52.0857 38.1719C52.1363 38.7404 51.8355 39.0834 51.3513 39.3051Z" fill="#1C001F"/>
<path d="M65.3037 61.4213C65.7831 61.1074 66.4117 60.5977 66.8787 60.2424L74.1619 54.7689C75.313 53.9184 75.2769 53.2637 75.304 51.9744C75.3646 49.1061 74.8078 44.8906 78.963 44.7912C80.6966 44.1461 82.7751 46.2022 83.0238 47.8193C83.1382 48.5635 83.1175 49.3178 83.1175 50.0725L83.1154 57.457C83.1179 59.2486 83.2044 60.7432 82.8148 62.5203C81.4904 68.4695 76.7287 73.1037 71.6111 76.0557C70.1824 76.8799 68.491 77.5121 67.1187 78.3736C66.082 79.1951 66.4056 81.2809 65.463 82.0311C65.1142 82.3088 62.9623 81.675 62.4742 81.5567L57.6816 80.3795C56.8441 80.1695 52.3205 79.1959 51.9203 78.8078C51.4706 78.3715 54.0896 69.5281 54.3878 68.5527C55.9792 63.3473 60.2658 61.3383 65.3037 61.4213ZM78.963 46.6889C75.4554 47.0008 78.3863 53.0285 76.2113 55.3779C77.1767 55.9197 77.9437 56.584 78.2572 57.684C79.0484 60.4596 75.8474 61.932 74.0345 63.274C73.1652 63.9176 67.9445 67.9596 67.2912 68.168C66.5449 68.4061 65.8636 67.4225 66.2779 66.7711C67.3486 65.0871 74.6136 61.2055 76.163 59.2656C77.0365 58.1721 75.754 56.7809 74.5435 57.068C73.7349 57.2598 72.4285 58.4535 71.7331 58.9813L68.1365 61.6672C67.605 62.0705 66.4179 63.0274 65.8859 63.3344C63.4757 63.3174 62.0048 63.1082 59.7486 64.5006C56.863 66.3594 56.1749 68.6857 55.4585 71.8094C55.0501 73.5897 54.1939 75.7555 53.9876 77.5311C55.681 78.0078 57.4445 78.3951 59.1605 78.8035L64.2736 80.0504C64.8843 77.2543 65.9455 76.6697 68.4513 75.5342C73.9664 73.0352 79.4843 68.3963 80.9156 62.2744C81.2935 60.6574 81.2019 58.9807 81.2001 57.3516L81.2039 49.9002C81.2041 48.5584 81.2011 46.0092 78.963 46.6889Z" fill="#1C001F"/>
<path d="M42.9318 80.1918C40.407 80.833 37.8195 81.3998 35.28 81.9895C33.3136 82.4553 34.3076 78.4961 32.3724 77.8111C25.0749 75.2281 18.4021 69.6039 17.0069 61.6639C16.8069 60.5254 16.8657 59.1568 16.8649 57.9885L16.865 50.3352C16.8682 47.6834 17.073 45.2699 20.4232 44.7912C25.6617 44.265 24.279 50.185 24.6613 52.8717C24.9345 54.7916 27.5806 56.2649 29.0912 57.3705L34.4749 61.3346C36.8345 61.14 39.0035 61.5143 41.046 62.7311C45.1027 65.1473 45.5785 68.2713 46.6822 72.4315C47.1431 74.1527 47.673 75.8602 48.1349 77.5811C48.5925 79.2856 47.2271 79.157 45.8513 79.4826L42.9318 80.1918ZM20.5816 46.6889C18.5824 47.0662 18.7538 48.6039 18.7483 50.1832L18.7451 57.4574C18.7458 58.9906 18.687 60.5717 19.0068 62.0688C20.2986 68.1131 25.3771 72.741 30.848 75.1699C33.3273 76.2707 35.3775 76.6035 35.6275 80.0504C37.0595 79.5635 39.4843 79.1117 41.0523 78.7418L44.0587 78.0104C44.7042 77.8496 45.4736 77.6348 46.1195 77.5311C45.8052 76.1186 45.3884 74.7162 45.0054 73.3231C43.9224 69.3844 43.54 66.2568 39.608 64.1277C36.9078 62.841 36.4468 63.3875 34.0216 63.1926C33.3079 62.8846 32.5218 62.2451 31.8806 61.7748L28.2759 59.1272C27.5236 58.5633 25.8191 57.1637 25.0181 56.9736C24.498 57.0965 24.188 57.1984 23.7968 57.5877C22.4613 58.9162 25.4064 60.4742 26.2974 61.1412L31.6583 65.144C32.1984 65.5469 33.4066 66.3508 33.7775 66.8668C34.2706 67.5529 33.199 68.8348 32.3757 68.117C30.3898 66.5416 28.3632 65.0412 26.3425 63.5166L24.0247 61.7922C23.4841 61.3973 22.8064 60.9512 22.3443 60.4836C20.5904 58.7084 21.8216 56.4254 23.739 55.3779C21.3367 52.382 24.514 46.44 20.5816 46.6889Z" fill="#1C001F"/>
<path d="M46.1195 20.968C46.1589 19.3122 46.5962 18.0264 48.508 17.8347C51.8775 17.8236 53.3591 17.2749 53.9876 20.968C55.7533 21.3106 57.6613 22.2262 59.1962 23.184C60.6871 21.9252 61.7093 21.2719 63.4371 22.7965C65.9724 25.034 66.7957 26.0477 64.633 28.5729C65.6738 30.5108 66.1435 31.6703 66.7292 33.7908C70.3966 33.6275 69.9992 35.7018 70.0601 38.3893C70.1166 40.8865 69.0212 41.3832 66.7292 41.3846C65.9404 43.2713 65.7181 44.2654 64.633 46.202C66.4359 49.3201 66.5646 48.4963 63.7669 51.4238C62.2119 53.051 60.7835 53.1504 59.1962 51.6594C57.3818 52.7818 56.0335 53.25 54.071 53.9395C54.0939 55.7838 53.7906 56.6977 51.9101 57.2746C48.8322 57.5395 46.6179 57.4992 46.1195 53.9395C44.2236 53.2469 42.8822 52.8498 40.9788 51.8916C39.9402 52.8979 38.4019 53.3451 37.1462 52.3293C34.473 49.8609 33.0386 49.432 35.6275 46.202C34.7529 45.1637 33.8656 42.6582 33.4566 41.3846C31.2685 40.8514 30.1904 41.2434 30.2031 38.3801C30.2148 35.6918 29.7531 33.4729 33.4566 33.7908C33.7595 31.9539 34.599 30.1145 35.6275 28.5729C35.5001 28.3916 35.3228 28.1617 35.1703 28.0139C32.9771 25.9492 35.3537 24.202 36.8269 22.7641C38.3105 21.3162 39.6038 21.7928 40.8029 23.184C41.9523 22.2139 44.6345 21.0793 46.1195 20.968ZM48.1425 19.6983C47.7789 22.469 47.9656 22.5502 45.2031 23.077C43.8123 23.342 41.6539 25.085 40.6078 25.0899C40.1642 25.092 39.1749 24.052 38.6382 23.7227C38.0167 24.0791 36.4874 25.6535 36.1214 26.2891C36.4121 26.7127 36.8744 27.1471 37.247 27.5137C38.3009 28.5209 37.0953 29.4287 36.6642 30.3609C36.2429 31.2719 35.4615 32.7936 35.3132 33.7781C34.9472 36.2098 34.0005 35.2287 31.9904 35.8236C31.9951 36.9955 32.0443 38.1377 31.9904 39.3051C35.8089 39.3793 34.5378 39.5846 35.7443 42.3693C36.115 43.2248 36.4183 43.9801 36.8847 44.7996C38.4837 47.6088 37.6908 45.9186 36.1214 48.6883C39.2958 52.5151 38.5419 50.6063 40.9788 49.6045L41.0372 49.6322C43.5335 50.8418 44.1906 51.485 47.2894 52.1188C47.5683 52.1758 47.8792 52.241 48.1425 52.3549C48.2933 55.1252 47.5425 55.3881 50.7755 55.3779C52.3138 55.394 52.2023 55.075 52.0943 53.6436C51.9468 51.6877 53.8646 52.1004 55.1265 51.5846C56.4595 51.0397 59.3003 49.1143 60.1693 50.0561C61.7646 51.7856 62.507 49.8584 63.9095 48.6883C62.5169 45.8656 61.8107 47.4348 63.5441 44.2799C63.9931 43.4627 65.0677 39.902 65.4087 39.6914C65.9912 39.3318 67.9453 39.907 68.1064 39.2096C68.246 38.6065 68.279 36.5902 68.098 35.9459C67.7308 35.0678 65.3984 36.1797 65.1591 35.2289C64.6746 33.3037 64.1496 31.4705 63.0837 29.7381C61.798 27.6486 62.788 27.9748 64.1099 26.2891C63.4781 25.4742 62.4384 24.1908 61.5453 23.7227C58.5949 25.5471 60.0964 25.6504 56.8363 23.9467C53.6283 22.2699 52.1134 23.8168 51.9101 19.6983H48.1425Z" stroke="#1C001F" stroke-width="0.3"/>
<path d="M53.6472 43.8666L47.6689 43.868C44.6587 43.8692 42.1837 44.2541 42.1546 40.4313L42.1505 35.2117C42.1415 31.2484 41.9267 29.9055 46.764 29.9088L52.69 29.9068C57.9703 29.9063 58.1386 30.3428 58.1421 35.2154L58.1417 40.1506C58.1388 43.6912 56.7994 43.8949 53.6472 43.8666ZM54.3331 31.7787L48.0888 31.7766C47.0531 31.7768 44.0439 31.2965 44.0363 32.7108C44.022 35.3965 44.0289 38.0943 44.0271 40.7824C44.0261 42.2379 45.031 42.0203 46.1195 41.9943L52.6119 41.9955C53.7445 41.9963 55.5937 42.3613 56.2138 41.3846L56.2154 35.5092C56.2175 34.3359 56.6105 32.4236 55.6578 31.7787C55.2441 31.7494 54.7499 31.7463 54.3331 31.7787Z" stroke="#1C001F" stroke-width="0.3"/>
<path d="M53.4603 35.8236C51.224 35.8473 48.9753 35.8143 46.7382 35.825C45.7396 35.8297 45.3443 34.2637 46.764 33.9324C47.6908 33.9326 53.3072 33.7953 53.8156 34.0693C54.6876 34.5395 54.333 35.6518 53.4603 35.8236Z" stroke="#1C001F" stroke-width="0.3"/>
<path d="M51.3513 39.3051C50.8349 39.3588 49.3001 39.3473 48.8357 39.2203C47.8718 38.9566 47.8693 37.8084 48.8724 37.3863C49.6931 37.3596 51.9898 37.0947 52.0857 38.1719C52.1363 38.7404 51.8355 39.0834 51.3513 39.3051Z" stroke="#1C001F" stroke-width="0.3"/>
<path d="M65.3037 61.4213C65.7831 61.1074 66.4117 60.5977 66.8787 60.2424L74.1619 54.7689C75.313 53.9184 75.2769 53.2637 75.304 51.9744C75.3646 49.1061 74.8078 44.8906 78.963 44.7912C80.6966 44.1461 82.7751 46.2022 83.0238 47.8193C83.1382 48.5635 83.1175 49.3178 83.1175 50.0725L83.1154 57.457C83.1179 59.2486 83.2044 60.7432 82.8148 62.5203C81.4904 68.4695 76.7287 73.1037 71.6111 76.0557C70.1824 76.8799 68.491 77.5121 67.1187 78.3736C66.082 79.1951 66.4056 81.2809 65.463 82.0311C65.1142 82.3088 62.9623 81.675 62.4742 81.5567L57.6816 80.3795C56.8441 80.1695 52.3205 79.1959 51.9203 78.8078C51.4706 78.3715 54.0896 69.5281 54.3878 68.5527C55.9792 63.3473 60.2658 61.3383 65.3037 61.4213ZM78.963 46.6889C75.4554 47.0008 78.3863 53.0285 76.2113 55.3779C77.1767 55.9197 77.9437 56.584 78.2572 57.684C79.0484 60.4596 75.8474 61.932 74.0345 63.274C73.1652 63.9176 67.9445 67.9596 67.2912 68.168C66.5449 68.4061 65.8636 67.4225 66.2779 66.7711C67.3486 65.0871 74.6136 61.2055 76.163 59.2656C77.0365 58.1721 75.754 56.7809 74.5435 57.068C73.7349 57.2598 72.4285 58.4535 71.7331 58.9813L68.1365 61.6672C67.605 62.0705 66.4179 63.0274 65.8859 63.3344C63.4757 63.3174 62.0048 63.1082 59.7486 64.5006C56.863 66.3594 56.1749 68.6857 55.4585 71.8094C55.0501 73.5897 54.1939 75.7555 53.9876 77.5311C55.681 78.0078 57.4445 78.3951 59.1605 78.8035L64.2736 80.0504C64.8843 77.2543 65.9455 76.6697 68.4513 75.5342C73.9664 73.0352 79.4843 68.3963 80.9156 62.2744C81.2935 60.6574 81.2019 58.9807 81.2001 57.3516L81.2039 49.9002C81.2041 48.5584 81.2011 46.0092 78.963 46.6889Z" stroke="#1C001F" stroke-width="0.3"/>
<path d="M42.9318 80.1918C40.407 80.833 37.8195 81.3998 35.28 81.9895C33.3136 82.4553 34.3076 78.4961 32.3724 77.8111C25.0749 75.2281 18.4021 69.6039 17.0069 61.6639C16.8069 60.5254 16.8657 59.1568 16.8649 57.9885L16.865 50.3352C16.8682 47.6834 17.073 45.2699 20.4232 44.7912C25.6617 44.265 24.279 50.185 24.6613 52.8717C24.9345 54.7916 27.5806 56.2649 29.0912 57.3705L34.4749 61.3346C36.8345 61.14 39.0035 61.5143 41.046 62.7311C45.1027 65.1473 45.5785 68.2713 46.6822 72.4315C47.1431 74.1527 47.673 75.8602 48.1349 77.5811C48.5925 79.2856 47.2271 79.157 45.8513 79.4826L42.9318 80.1918ZM20.5816 46.6889C18.5824 47.0662 18.7538 48.6039 18.7483 50.1832L18.7451 57.4574C18.7458 58.9906 18.687 60.5717 19.0068 62.0688C20.2986 68.1131 25.3771 72.741 30.848 75.1699C33.3273 76.2707 35.3775 76.6035 35.6275 80.0504C37.0595 79.5635 39.4843 79.1117 41.0523 78.7418L44.0587 78.0104C44.7042 77.8496 45.4736 77.6348 46.1195 77.5311C45.8052 76.1186 45.3884 74.7162 45.0054 73.3231C43.9224 69.3844 43.54 66.2568 39.608 64.1277C36.9078 62.841 36.4468 63.3875 34.0216 63.1926C33.3079 62.8846 32.5218 62.2451 31.8806 61.7748L28.2759 59.1272C27.5236 58.5633 25.8191 57.1637 25.0181 56.9736C24.498 57.0965 24.188 57.1984 23.7968 57.5877C22.4613 58.9162 25.4064 60.4742 26.2974 61.1412L31.6583 65.144C32.1984 65.5469 33.4066 66.3508 33.7775 66.8668C34.2706 67.5529 33.199 68.8348 32.3757 68.117C30.3898 66.5416 28.3632 65.0412 26.3425 63.5166L24.0247 61.7922C23.4841 61.3973 22.8064 60.9512 22.3443 60.4836C20.5904 58.7084 21.8216 56.4254 23.739 55.3779C21.3367 52.382 24.514 46.44 20.5816 46.6889Z" stroke="#1C001F" stroke-width="0.3"/>
</svg>
