<svg width="73" height="83" viewBox="0 0 73 83" fill="none" xmlns="http://www.w3.org/2000/svg">
<path d="M48.8377 82.6688L7.95011 82.6692C4.00202 82.6727 0.315497 83.6901 0.262058 78.3335L0.25201 6.24621C0.25201 5.21629 0.245881 4.17852 0.276768 3.15051C0.387077 -0.522233 6.22733 0.338903 8.60289 0.34008L48.0832 0.337382C52.2779 0.332232 51.2913 -0.132115 54.1515 2.75306L61.3914 10.0366C61.8459 10.489 62.5948 11.1668 62.9786 11.6437L63.0563 11.7416C63.6331 12.4552 63.362 15.6607 63.3615 16.6832L63.3598 50.7964C62.5068 50.5747 61.6409 50.3243 60.7835 50.0973V13.6011L52.893 13.5932C49.327 13.6013 49.7668 11.0829 49.7685 8.48972L49.7727 2.85831C48.9608 2.92591 47.014 2.86177 46.0996 2.86074L7.31694 2.85546C1.74633 2.85507 2.76558 2.39224 2.76436 8.19619V74.0883C2.76436 75.8286 1.97724 80.1445 3.95055 80.1584L45.3476 80.1597C46.5605 81.2519 47.3304 81.9878 48.8377 82.6688ZM52.3348 4.50196V11.025H58.7884C56.9516 9.13979 54.2701 6.09368 52.3348 4.50196Z" fill="#F39C12"/>
<path d="M17.3581 16.1771C19.1144 16.2024 20.8887 16.0398 22.648 16.1023C25.9668 16.2203 28.827 16.1325 32.0801 16.0992C34.3934 15.9211 36.6972 16.2593 39.008 16.285C40.5489 16.3022 47.4521 15.696 48.3529 16.5119C49.0572 17.1497 48.8836 18.583 47.82 18.7071C46.7711 18.8294 45.6182 18.5911 44.5544 18.5845C42.6225 18.5729 40.7019 18.7544 38.7749 18.7512C37.2068 18.7485 35.66 18.5437 34.0873 18.5962C32.7474 18.3755 29.4808 18.7179 28.0095 18.7463C26.448 18.7826 24.887 18.6612 23.3253 18.5859C21.3843 18.4923 19.2693 18.7583 17.3581 18.5962V16.1771Z" fill="#F39C12"/>
<path d="M10.4739 18.5965V16.1774H14.0722C14.0724 16.9901 14.0432 17.7812 14.0722 18.5965H10.4739Z" fill="#F39C12"/>
<path d="M10.4739 30.7229V28.2185H14.0722V30.7229H10.4739Z" fill="#F39C12"/>
<path d="M17.3581 28.2186L44.699 28.2191C47.5504 28.2191 50.5356 28.1705 53.3737 28.2186C54.3079 29.0749 54.2648 29.8939 53.3737 30.723C52.7859 30.7819 51.1116 30.7267 50.429 30.726L26.2433 30.723C23.304 30.723 20.2896 30.7601 17.3581 30.723V28.2186Z" fill="#F39C12"/>
<path d="M17.3581 40.2452H49.0295C49.9522 40.2401 52.9258 40.0218 53.5919 40.5483C54.1613 40.9983 54.1348 41.9446 53.6561 42.4522C52.9526 43.1977 50.2944 42.8605 49.3384 42.859L17.3581 42.8553V40.2452Z" fill="#F39C12"/>
<path d="M10.474 42.8553C10.4233 42.2077 10.4691 40.9262 10.474 40.2452H14.0723V42.8553H10.474Z" fill="#F39C12"/>
<path d="M10.4739 54.905C10.4322 54.0122 10.4202 53.2863 10.4739 52.3984H14.0722C14.0945 53.1993 14.0734 54.0965 14.0722 54.905H10.4739Z" fill="#F39C12"/>
<path d="M17.3581 54.905V52.3984H48.8378C48.2821 52.7508 47.8448 53.0384 47.3111 53.4315C46.752 53.8592 46.1529 54.4298 45.6155 54.905C44.9667 54.9612 43.401 54.9095 42.6965 54.9082L17.3581 54.905Z" fill="#F39C12"/>
<path d="M58.614 82.5264C50.3462 83.0322 43.2357 76.7335 42.7373 68.4623C42.2392 60.1911 48.542 53.0836 56.8108 52.5927C65.069 52.1023 72.1626 58.3975 72.6602 66.6582C73.1581 74.9189 66.8712 82.021 58.614 82.5264ZM56.8735 55.1089C50.0248 55.5589 44.8369 61.4763 45.2845 68.3277C45.7323 75.1789 51.6461 80.3704 58.4951 79.9248C65.347 79.4788 70.5394 73.5597 70.0915 66.7056C69.6437 59.8514 63.7252 54.6589 56.8735 55.1089Z" fill="#F39C12"/>
<path d="M55.1035 71.1647C55.7475 70.3356 57.0454 69.1093 57.8362 68.3211L62.2763 63.8775C63.1333 63.032 64.0528 62.2208 64.857 61.3346C65.0762 61.4347 66.3965 62.8427 66.648 63.1036C63.3524 66.9251 58.7114 70.9869 55.1035 74.6718C53.3168 73.2074 51.4763 71.1959 49.7727 69.5772C49.3094 69.0002 48.5671 68.2549 48.0437 67.6586C48.5906 67.1811 49.2368 66.5313 49.7727 66.0212L53.0108 69.2027C53.6742 69.8494 54.3926 70.5821 55.1035 71.1647Z" fill="#F39C12"/>
<path d="M10.474 66.9493C10.4706 65.8179 10.0112 64.4559 11.0604 64.4363H14.0723C14.0767 65.261 14.4283 66.9476 13.6183 66.9493H10.474Z" fill="#F39C12"/>
<path d="M17.3581 66.9493V64.4363H39.1787V66.9493H17.3581Z" fill="#F39C12"/>
<path d="M48.8377 82.6688L7.95011 82.6692C4.00202 82.6727 0.315497 83.6901 0.262058 78.3335L0.25201 6.24621C0.25201 5.21629 0.245881 4.17852 0.276768 3.15051C0.387077 -0.522233 6.22733 0.338903 8.60289 0.34008L48.0832 0.337382C52.2779 0.332232 51.2913 -0.132115 54.1515 2.75306L61.3914 10.0366C61.8459 10.489 62.5948 11.1668 62.9786 11.6437L63.0563 11.7416C63.6331 12.4552 63.362 15.6607 63.3615 16.6832L63.3598 50.7964C62.5068 50.5747 61.6409 50.3243 60.7835 50.0973V13.6011L52.893 13.5932C49.327 13.6013 49.7668 11.0829 49.7685 8.48972L49.7727 2.85831C48.9608 2.92591 47.014 2.86177 46.0996 2.86074L7.31694 2.85546C1.74633 2.85507 2.76558 2.39224 2.76436 8.19619V74.0883C2.76436 75.8286 1.97724 80.1445 3.95055 80.1584L45.3476 80.1597C46.5605 81.2519 47.3304 81.9878 48.8377 82.6688ZM52.3348 4.50196V11.025H58.7884C56.9516 9.13979 54.2701 6.09368 52.3348 4.50196Z" stroke="#F39C12" stroke-width="0.5"/>
<path d="M17.3581 16.1771C19.1144 16.2024 20.8887 16.0398 22.648 16.1023C25.9668 16.2203 28.827 16.1325 32.0801 16.0992C34.3934 15.9211 36.6972 16.2593 39.008 16.285C40.5489 16.3022 47.4521 15.696 48.3529 16.5119C49.0572 17.1497 48.8836 18.583 47.82 18.7071C46.7711 18.8294 45.6182 18.5911 44.5544 18.5845C42.6225 18.5729 40.7019 18.7544 38.7749 18.7512C37.2068 18.7485 35.66 18.5437 34.0873 18.5962C32.7474 18.3755 29.4808 18.7179 28.0095 18.7463C26.448 18.7826 24.887 18.6612 23.3253 18.5859C21.3843 18.4923 19.2693 18.7583 17.3581 18.5962V16.1771Z" stroke="#F39C12" stroke-width="0.5"/>
<path d="M10.4739 18.5965V16.1774H14.0722C14.0724 16.9901 14.0432 17.7812 14.0722 18.5965H10.4739Z" stroke="#F39C12" stroke-width="0.5"/>
<path d="M10.4739 30.7229V28.2185H14.0722V30.7229H10.4739Z" stroke="#F39C12" stroke-width="0.5"/>
<path d="M17.3581 28.2186L44.699 28.2191C47.5504 28.2191 50.5356 28.1705 53.3737 28.2186C54.3079 29.0749 54.2648 29.8939 53.3737 30.723C52.7859 30.7819 51.1116 30.7267 50.429 30.726L26.2433 30.723C23.304 30.723 20.2896 30.7601 17.3581 30.723V28.2186Z" stroke="#F39C12" stroke-width="0.5"/>
<path d="M17.3581 40.2452H49.0295C49.9522 40.2401 52.9258 40.0218 53.5919 40.5483C54.1613 40.9983 54.1348 41.9446 53.6561 42.4522C52.9526 43.1977 50.2944 42.8605 49.3384 42.859L17.3581 42.8553V40.2452Z" stroke="#F39C12" stroke-width="0.5"/>
<path d="M10.474 42.8553C10.4233 42.2077 10.4691 40.9262 10.474 40.2452H14.0723V42.8553H10.474Z" stroke="#F39C12" stroke-width="0.5"/>
<path d="M10.4739 54.905C10.4322 54.0122 10.4202 53.2863 10.4739 52.3984H14.0722C14.0945 53.1993 14.0734 54.0965 14.0722 54.905H10.4739Z" stroke="#F39C12" stroke-width="0.5"/>
<path d="M17.3581 54.905V52.3984H48.8378C48.2821 52.7508 47.8448 53.0384 47.3111 53.4315C46.752 53.8592 46.1529 54.4298 45.6155 54.905C44.9667 54.9612 43.401 54.9095 42.6965 54.9082L17.3581 54.905Z" stroke="#F39C12" stroke-width="0.5"/>
<path d="M58.614 82.5264C50.3462 83.0322 43.2357 76.7335 42.7373 68.4623C42.2392 60.1911 48.542 53.0836 56.8108 52.5927C65.069 52.1023 72.1626 58.3975 72.6602 66.6582C73.1581 74.9189 66.8712 82.021 58.614 82.5264ZM56.8735 55.1089C50.0248 55.5589 44.8369 61.4763 45.2845 68.3277C45.7323 75.1789 51.6461 80.3704 58.4951 79.9248C65.347 79.4788 70.5394 73.5597 70.0915 66.7056C69.6437 59.8514 63.7252 54.6589 56.8735 55.1089Z" stroke="#F39C12" stroke-width="0.5"/>
<path d="M55.1035 71.1647C55.7475 70.3356 57.0454 69.1093 57.8362 68.3211L62.2763 63.8775C63.1333 63.032 64.0528 62.2208 64.857 61.3346C65.0762 61.4347 66.3965 62.8427 66.648 63.1036C63.3524 66.9251 58.7114 70.9869 55.1035 74.6718C53.3168 73.2074 51.4763 71.1959 49.7727 69.5772C49.3094 69.0002 48.5671 68.2549 48.0437 67.6586C48.5906 67.1811 49.2368 66.5313 49.7727 66.0212L53.0108 69.2027C53.6742 69.8494 54.3926 70.5821 55.1035 71.1647Z" stroke="#F39C12" stroke-width="0.5"/>
<path d="M10.474 66.9493C10.4706 65.8179 10.0112 64.4559 11.0604 64.4363H14.0723C14.0767 65.261 14.4283 66.9476 13.6183 66.9493H10.474Z" stroke="#F39C12" stroke-width="0.5"/>
<path d="M17.3581 66.9493V64.4363H39.1787V66.9493H17.3581Z" stroke="#F39C12" stroke-width="0.5"/>
</svg>
