<svg width="100" height="100" viewBox="0 0 100 100" fill="none" xmlns="http://www.w3.org/2000/svg">
<path d="M81.5413 49.7936C84.8436 30.3674 67.6647 13.4323 48.3264 16.7379C38.2848 18.4544 29.869 25.1979 26.2149 34.782C25.9698 35.3996 25.7671 36.384 24.9268 36.4192C22.8759 36.5047 24.1262 33.9553 24.4999 33.0736C29.2813 21.7891 40.3723 14.2295 52.6552 14.1524C67.5585 13.3594 81.1178 25.2348 83.695 39.7418C86.3405 54.6326 77.6346 68.991 63.3452 73.7514C62.388 74.0701 61.4176 74.3674 60.426 74.5358C59.4116 74.1629 59.1452 72.832 60.153 72.401C61.0141 72.0328 62.0884 71.8445 63.0046 71.5205C72.8268 68.0481 79.627 59.9998 81.5413 49.7936Z" fill="#1C001F"/>
<path d="M38.5774 41.4619L38.5717 41.3236C38.4719 38.3902 40.6268 36.2729 43.4902 36.19C46.1477 35.8481 48.9883 37.4893 48.6977 40.4566C48.2664 45.0553 41.6598 45.0516 41.3354 48.874C42.9807 49.0424 45.6234 48.9006 47.3199 48.85C47.7639 48.8369 48.1244 48.8193 48.5695 48.874C48.7592 51.5645 48.3309 50.8715 45.4363 50.8715L40.3565 50.8686C38.6619 50.8775 38.5096 50.951 38.8336 49.0004C39.7111 43.7191 45.3619 43.7326 46.116 40.6445C46.692 38.2863 43.8779 37.2313 42.1307 38.5313C41.1764 39.2412 41.1293 40.3848 40.9727 41.4619C40.2533 41.4875 39.2967 41.4762 38.5774 41.4619Z" fill="#1C001F"/>
<path d="M55.4541 47.4102C54.4824 47.411 49.8049 47.5244 49.2095 47.309C47.7035 46.7637 52.7931 40.1182 53.1474 39.6018C53.5953 38.9492 54.9912 36.4168 55.624 36.1901C58.4974 36.2432 57.722 36.3813 57.7205 39.5838L57.7193 45.4328C58.1922 45.4184 58.989 45.3358 59.3595 45.5383C59.7228 45.7367 59.6556 47.0276 59.3916 47.2729C59.1277 47.5182 58.0347 47.4207 57.7193 47.4102C57.6705 48.6889 58.2449 50.6471 56.9531 50.8352C55.0625 51.1102 55.4234 49.8278 55.4541 48.3418C55.4343 48.1199 55.4517 47.6508 55.4541 47.4102ZM55.4541 39.3401C54.8507 40.2016 51.7705 45.0973 51.7146 45.3928L51.7943 45.4328H55.4541L55.4576 41.1764C55.4578 40.875 55.4826 39.5448 55.4541 39.3401Z" fill="#1C001F"/>
<path d="M72.0614 38.2058C72.0532 38.8478 72.1007 39.5045 72.0485 40.1564C72.0831 40.7558 69.4931 41.4914 69.7987 39.4695C69.9116 38.723 69.4436 36.4945 70.2325 36.1902C73.0421 36.0972 75.9442 36.256 78.7626 36.1883C79.81 36.1633 80.6973 36.1799 80.1493 37.5047C79.8052 38.3367 79.4302 39.1601 79.062 39.982L74.9028 49.3369C74.727 49.724 74.5456 50.2728 74.3311 50.6215C74.1106 50.9799 72.3442 50.9093 72.0614 50.6974C71.9114 49.9379 72.97 48.2992 73.3065 47.542L75.87 41.7625C76.3954 40.5859 76.9667 39.4035 77.4407 38.2058H72.0614Z" fill="#1C001F"/>
<path d="M59.44 51.132L64.368 34.016C64.522 33.488 64.654 33.4 65.226 33.4H67.096C67.448 33.4 67.602 33.554 67.602 33.796C67.602 33.95 67.58 34.038 67.492 34.324L62.564 51.484C62.41 52.012 62.278 52.1 61.706 52.1H59.836C59.484 52.1 59.33 51.946 59.33 51.704C59.33 51.528 59.352 51.418 59.44 51.132Z" fill="black"/>
<path d="M52.9718 84.3325C50.9904 85.67 48.2234 86.0969 45.9355 85.4145C33.7269 81.7729 22.13 69.3969 17.7869 57.7956C16.0277 53.0704 14.4824 46.9213 17.9042 42.5592C19.9117 40.0001 24.9359 39.1192 28.2005 38.7889C29.5669 38.6225 30.8113 39.636 31.0589 40.9483L32.4284 47.9479C32.7951 49.9139 33.2714 51.9059 33.5316 53.8868C34.1218 58.3807 28.6859 56.6542 28.6372 57.6364C28.6035 58.3168 30.5265 61.2268 30.9949 61.8872C33.3693 65.2358 36.4747 68.3356 39.962 70.5084C43.1443 72.4915 40.2743 68.9354 42.507 67.1835C44.0277 65.9903 49.4423 67.5858 51.348 67.9333C56.7111 68.911 57.1427 68.3008 56.8062 74.4169C56.5831 78.4706 56.7306 81.6323 52.9718 84.3325ZM28.2005 40.9799L24.472 41.712C22.0505 42.187 20.7884 42.235 19.222 44.502C16.2997 48.7313 19.3537 56.3577 21.3478 60.468C24.9884 67.9721 31.0021 74.5377 37.9546 79.1184C41.8661 81.6954 48.1589 85.6604 52.4234 81.9305C54.8878 79.5174 54.7117 74.993 54.8056 71.5954C54.8472 70.0858 50.8015 70.0436 49.3646 69.7788L45.9337 69.1395C41.5097 68.3102 45.096 70.4108 43.04 72.5219C39.4031 76.2532 29.7615 64.1141 28.1689 61.5751C27.2199 60.062 25.8142 57.8489 27.0181 56.1362C28.2659 54.361 29.8449 55.4618 31.3054 54.8741C31.5697 54.7678 31.0577 52.3965 30.9617 51.8717L29.3693 43.2866C29.2165 42.4616 29.2472 40.8137 28.2005 40.9799Z" fill="#1C001F"/>
</svg>
