<svg width="37" height="31" viewBox="0 0 37 31" fill="none" xmlns="http://www.w3.org/2000/svg">
<path d="M16.6442 0L17.2241 1.24237C14.6724 2.26781 12.662 3.37214 11.1928 4.55534C9.76228 5.73855 8.50575 7.27672 7.4232 9.16985C5.83804 11.9701 4.91014 14.7112 4.6395 17.3931C5.72205 17.0382 6.64995 16.8607 7.4232 16.8607C9.54963 16.8607 11.2701 17.5114 12.5846 18.813C13.9378 20.1145 14.6144 21.771 14.6144 23.7824C14.6144 25.7939 13.9378 27.5095 12.5846 28.9294C11.2701 30.3098 9.66562 31 7.77116 31C5.45141 31 3.57628 30.0534 2.14577 28.1603C0.715256 26.2672 0 23.7824 0 20.7061C0 17.6298 0.715256 14.5732 2.14577 11.5363C3.61494 8.49936 5.52874 6.01463 7.88715 4.08206C10.4389 2.03117 13.3579 0.670483 16.6442 0ZM36.4781 0L37 1.24237C34.4483 2.26781 32.4378 3.37214 30.9687 4.55534C29.5381 5.73855 28.3009 7.27672 27.2571 9.16985C25.6332 11.9701 24.686 14.7112 24.4154 17.3931C25.4979 17.0382 26.4258 16.8607 27.1991 16.8607C29.3255 16.8607 31.046 17.5114 32.3605 18.813C33.7137 20.1145 34.3903 21.771 34.3903 23.7824C34.3903 25.7939 33.7137 27.5095 32.3605 28.9294C31.046 30.3098 29.4415 31 27.547 31C25.2273 31 23.3521 30.0534 21.9216 28.1603C20.4911 26.2672 19.7759 23.7824 19.7759 20.7061C19.7759 17.6298 20.4911 14.5732 21.9216 11.5363C23.3908 8.49936 25.3239 6.01463 27.721 4.08206C30.2341 2.03117 33.1531 0.670483 36.4781 0Z" fill="white"/>
</svg>
