<svg width="100" height="100" viewBox="0 0 100 100" fill="none" xmlns="http://www.w3.org/2000/svg">
<path d="M71.9605 84.4651L29.3719 84.4706C28.8336 84.4719 28.2236 84.4966 27.6912 84.4401C23.7502 84.0214 24.2084 79.8782 24.2109 77.0946L24.2098 22.3139C24.2088 19.2433 23.7172 15.6161 28.0697 15.3025C28.6117 15.275 29.3865 15.3002 29.9531 15.3009L57.9314 15.3027C59.9982 15.3027 62.4867 15.2304 64.5084 15.3025C64.8627 15.5897 65.5187 16.281 65.8641 16.6226L68.4785 19.1972C70.8881 21.563 73.4281 23.9653 75.7994 26.362L75.8033 78.6596C75.8137 81.501 75.4539 84.2299 71.9605 84.4651ZM27.8547 17.2382C26.5676 17.6145 26.1369 18.3997 26.1293 19.6778L26.1271 74.5848C26.1271 75.7983 25.9947 80.3147 26.2674 81.1645C26.5586 82.0717 27.5119 82.5464 28.4033 82.561C31.5598 82.6126 34.727 82.5585 37.8848 82.5583L70.6258 82.5622C71.0762 82.5633 71.7975 82.5971 72.2209 82.5585C73.4707 82.0798 73.8439 81.4077 73.8576 80.1069C73.8781 78.1329 73.8654 76.1589 73.8654 74.1846L73.8666 27.6546L70.0938 27.6579C69.1102 27.661 67.8793 27.753 66.9473 27.5132C63.3377 26.5846 63.3271 23.5979 63.3287 20.6647L63.332 17.2382L39.7311 17.2381C35.81 17.238 31.7609 17.1825 27.8547 17.2382ZM65.233 18.7171C65.224 26.02 65.2248 25.7405 72.4902 25.728C70.8525 24.2227 66.842 19.7339 65.233 18.7171Z" fill="#1C001F"/>
<path d="M34.9171 28.7435C35.7509 28.0981 37.4886 25.8253 38.4304 25.728C39.205 25.7269 39.7768 26.4991 39.2333 27.1733C38.7454 27.7782 35.5819 31.1462 34.9952 31.1122C34.3538 31.0749 33.5962 30.0905 33.1632 29.6323C32.8009 29.3079 32.0462 28.7255 32.154 28.2456C32.6444 26.0608 34.4138 28.1198 34.9171 28.7435Z" fill="#1C001F"/>
<path d="M54.6999 30.2245C54.1159 30.2552 53.3292 30.2261 52.7233 30.2261L42.9303 30.2103C41.5989 30.1986 41.5102 28.4697 42.9657 28.3318L50.2823 28.3304C50.9846 28.3304 54.7137 28.1697 55.1339 28.5144C55.8122 29.0714 55.6415 30.1275 54.6999 30.2245Z" fill="#1C001F"/>
<path d="M34.917 39.6342C35.8813 38.8377 37.3191 36.8477 38.4303 36.5791C40.7654 36.9283 38.3783 39.0041 37.791 39.5758L36.0768 41.2748C34.6471 42.6707 34.2182 41.6971 33.1631 40.6078C31.3436 38.8195 32.4662 37.7588 33.4105 38.2691C33.8488 38.5061 34.5199 39.2393 34.917 39.6342Z" fill="#1C001F"/>
<path d="M66.8966 41.213C66.4767 41.2606 65.4628 41.2183 64.9872 41.2167L49.103 41.213C47.9831 41.2136 43.0921 41.3335 42.4575 41.1108C41.6747 40.836 41.7204 39.6575 42.7142 39.3007C44.3989 39.2372 46.5188 39.3007 48.2478 39.3005L64.62 39.2999C65.4124 39.3001 66.2599 39.2677 67.0464 39.3561C68.039 39.596 67.696 40.8126 66.8966 41.213Z" fill="#1C001F"/>
<path d="M34.9169 50.5256C35.5843 49.9013 37.519 47.783 38.1366 47.4189C38.9263 47.3172 39.6725 47.8347 39.3249 48.7437C39.12 49.2797 35.4995 52.6494 35.0304 52.9021C34.6622 53.0605 33.5688 51.9545 33.163 51.6357C32.9122 51.2566 32.1085 50.5672 32.1026 50.0967C32.0934 49.3646 32.8848 48.8422 33.547 49.3101C34.0028 49.6324 34.4784 50.1129 34.9169 50.5256Z" fill="#1C001F"/>
<path d="M66.8968 52.0219C66.2048 52.0801 64.6431 52.0241 63.871 52.0227L43.2524 52.0122C41.7646 51.9975 41.4157 50.3172 42.9657 50.0561L63.7665 50.0557C64.3782 50.0557 66.8399 49.9405 67.3122 50.2555C67.9392 50.6737 67.7595 51.6786 66.8968 52.0219Z" fill="#1C001F"/>
<path d="M34.9169 61.4483C35.5745 60.7471 37.4285 58.6166 38.298 58.3061C41.7396 58.2528 35.8808 63.258 35.3818 63.6891C34.6908 64.2862 33.6277 62.9311 33.163 62.4741C32.8054 62.1215 32.0292 61.4086 32.0644 61.0141C32.2622 58.8008 34.2544 60.7756 34.9169 61.4483Z" fill="#1C001F"/>
<path d="M66.7273 62.727C65.7787 62.7764 64.384 62.7286 63.3931 62.7284L43.3297 62.728C41.4408 62.636 41.7488 60.9264 42.9656 60.7512C44.0383 60.7067 45.4146 60.7494 46.5195 60.7496L66.2761 60.7502C68.2324 60.8682 67.9152 62.4116 66.7273 62.727Z" fill="#1C001F"/>
<path d="M34.9171 72.2151C35.5444 71.5337 37.5644 69.2792 38.2982 69.0454C41.6827 69.2417 36.0693 73.8433 35.4232 74.427C34.6814 75.0974 33.6441 73.7165 33.1632 73.2489C32.5632 72.6454 31.4943 71.8384 32.531 71.0095C33.3818 70.3292 34.3021 71.6657 34.9171 72.2151Z" fill="#1C001F"/>
<path d="M66.8967 73.5377C66.3217 73.5738 65.3665 73.5387 64.7522 73.5387L47.9657 73.5393C46.8325 73.5391 43.804 73.5912 42.5788 73.4734C42.0803 73.4256 41.5319 72.1445 42.7143 71.5672C43.7536 71.5125 45.3934 71.5656 46.4665 71.566L62.8057 71.567C64.1379 71.5668 65.8186 71.5135 67.1219 71.5672C67.8311 72.2822 67.8743 73.0766 66.8967 73.5377Z" fill="#1C001F"/>
</svg>
