<svg width="100" height="100" viewBox="0 0 100 100" fill="none" xmlns="http://www.w3.org/2000/svg">
<path d="M27.8001 26.5031L27.8003 34.3589C27.8011 35.2292 27.872 36.7994 27.7466 37.5749C27.6304 38.2952 25.9306 38.5968 25.9169 37.0915L25.8987 27.7745C25.8919 27.0152 25.7939 25.9992 26.0538 25.2913C26.2702 24.7015 29.9212 23.5953 30.5507 23.3642L44.9358 17.9741C46.4716 17.3949 48.3108 16.6679 49.8571 16.1673C50.219 16.1265 50.5167 16.2376 50.8587 16.363L67.3952 22.5745C68.2542 22.8982 73.1136 24.5995 73.588 24.9536C74.37 25.5374 74.1253 26.9591 74.1247 27.8115L74.123 35.2187C74.1245 35.8396 74.253 37.5029 73.9282 37.9943C73.5497 38.5673 72.3194 38.4058 72.2476 37.5677C72.2118 37.1525 72.2261 36.7247 72.2286 36.2859L72.2316 26.5031C71.3597 26.0769 70.3212 25.7095 69.4044 25.362L57.5495 20.9111C55.1546 20.0011 52.6294 19.0215 50.2069 18.197C49.7546 18.0783 47.2646 19.1588 46.638 19.3872L30.4696 25.4318C29.5776 25.7638 28.6394 26.0613 27.8001 26.5031Z" fill="#1C001F"/>
<path d="M42.8433 38.6251C42.8351 33.7244 43.1948 29.1841 49.1745 28.2882C51.422 28.0644 53.4239 28.7789 55.045 30.3533C57.4421 32.6812 57.0894 35.5736 57.0845 38.6251C62.3081 38.4779 63.3425 42.2437 63.336 46.4212L63.3372 53.1978C63.3386 57.2214 62.3286 60.5373 58.8634 63.071C56.8163 64.5638 53.3103 67.1398 50.9716 67.9623L50.9743 72.0505C50.9782 72.8318 51.1167 74.3433 50.7372 74.9753C48.771 76.5035 49.0472 73.1296 49.047 72.2496L49.0491 67.9623C47.1013 67.4128 45.6999 66.1916 44.0554 65.0562C37.6817 60.6562 36.7972 59.9244 36.8048 51.4621L36.8032 45.3833C36.8022 41.2468 38.3386 38.5734 42.8433 38.6251ZM49.6927 30.147C44.631 30.6316 44.7536 34.7001 44.7632 38.6251H50.5003H55.2271C55.2331 36.096 55.6198 33.449 53.6015 31.5441C52.5431 30.5451 51.1399 30.0525 49.6927 30.147ZM43.414 40.4915C37.9421 40.6318 38.6321 43.4673 38.6212 48.0382C38.6112 52.1195 37.8647 57.8195 41.2739 60.7622C42.254 61.6085 43.8995 62.6429 45.0269 63.4205L46.7798 64.6359C50.4298 67.2156 50.9819 66.0523 54.3513 63.8263C59.4745 60.3275 61.4683 59.1912 61.472 52.7939L61.4708 46.48C61.4659 42.1064 60.8634 40.4802 56.0796 40.4871L43.414 40.4915Z" fill="#1C001F"/>
<path d="M23.0333 42.6614C22.1085 43.2514 21.7798 43.7366 20.6345 43.9676C15.6296 45.0229 14.1031 37.4678 19.2456 36.4916C21.9202 36.126 23.739 38.2024 23.5853 40.7284C24.9966 41.4209 26.8185 42.6307 28.2206 43.444L31.6398 45.4233C32.4134 45.8803 34.1458 46.5495 33.5528 47.6813C32.9394 48.852 31.1579 47.4012 30.3843 46.9348L25.7657 44.2028C24.896 43.6948 23.9257 43.0989 23.0333 42.6614ZM19.5274 38.3502C18.4872 38.5123 17.7734 39.4844 17.9301 40.5256C18.0867 41.5666 19.0549 42.2856 20.0968 42.1346C21.1468 41.9823 21.8724 41.0051 21.7146 39.9561C21.5567 38.9071 20.5755 38.1868 19.5274 38.3502Z" fill="#1C001F"/>
<path d="M76.4232 40.9209C76.3129 38.5104 77.4849 36.8266 79.9361 36.4916C80.8918 36.3947 82.1482 36.7713 82.8074 37.4615C86.5314 41.3621 81.24 46.5229 77.2054 42.6613C74.8078 43.9281 72.5515 45.3281 70.0943 46.5742C69.175 47.05 66.9732 48.8887 66.2974 47.6783C65.9986 47.143 66.099 46.6334 66.641 46.3162C69.8513 44.4373 73.1822 42.7441 76.4232 40.9209ZM80.1008 38.375C79.0609 38.4564 78.2844 39.366 78.3666 40.4059C78.4488 41.4455 79.3588 42.2217 80.3986 42.1387C81.4375 42.0559 82.2127 41.1469 82.1304 40.108C82.0482 39.0691 81.1396 38.2934 80.1008 38.375Z" fill="#1C001F"/>
<path d="M49.1747 45.2459C49.1303 44.3666 48.9575 43.8484 49.8571 43.4109L49.895 43.4082C51.1258 43.3279 50.9676 44.367 50.9717 45.2459C54.5956 46.5404 55.1295 50.4389 52.8411 49.7527C52.5 49.5953 52.3532 48.918 52.25 48.607C51.3455 45.8777 47.0518 46.9133 47.7616 49.8047C48.1649 51.4471 49.5368 51.1277 50.651 51.2603C54.5858 51.8728 55.7498 57.4041 50.9717 59.0754C50.9834 59.7197 51.1272 60.3152 50.5004 60.668C49.1649 60.956 49.0872 60.1275 49.0493 59.0754C46.2778 58.3861 44.8813 54.7406 46.8864 54.4967C47.686 54.4308 47.7938 55.3189 47.9342 55.8765C48.3813 57.6498 50.95 57.7219 51.8926 56.348C52.793 55.0353 51.9375 53.218 50.3493 53.0887C49.8911 53.0515 49.3209 53.1142 48.8778 53.0242C44.6709 52.1701 44.8039 45.9219 49.1747 45.2459Z" fill="#1C001F"/>
<path d="M23.0333 57.4519C24.8979 56.4949 31.1011 52.3752 32.603 52.0107C33.3276 51.7931 33.8149 52.5148 33.6596 53.1791C33.504 53.8457 24.6059 58.8285 23.5852 59.3759C23.6936 63.3461 19.2608 64.6925 16.9038 62.1283C13.48 57.8388 19.7759 53.3912 23.0333 57.4519ZM19.6175 57.6863C18.5614 57.7896 17.7894 58.7298 17.8933 59.7857C17.9973 60.8418 18.9378 61.6132 19.9936 61.5087C21.0487 61.4043 21.8196 60.4646 21.7157 59.4093C21.6118 58.3543 20.6725 57.583 19.6175 57.6863Z" fill="#1C001F"/>
<path d="M76.4232 59.376C73.1531 57.459 69.7544 55.6816 66.4833 53.7646C65.7218 53.3184 65.9759 52.3049 66.8636 52.0107C67.8021 52.082 75.5794 56.6559 76.9326 57.4519C80.6429 53.3859 86.0218 57.643 83.3412 61.8449C80.8072 65.0879 75.9046 62.9627 76.4232 59.376ZM79.8263 57.7266C78.7796 57.9393 78.1037 58.9602 78.3163 60.0068C78.529 61.0535 79.5499 61.7297 80.5966 61.5168C81.6433 61.3041 82.3191 60.2832 82.1064 59.2365C81.8937 58.19 80.873 57.5141 79.8263 57.7266Z" fill="#1C001F"/>
<path d="M73.9249 64.8083C70.8907 72.2944 65.2786 76.7596 58.2104 80.06L54.6831 81.7133C53.9087 82.0719 50.2792 83.9223 49.613 83.6141C40.4161 79.3587 32.0884 76.996 27.1466 67.1383C26.6173 66.0829 24.9001 63.1057 26.42 62.404C27.5438 62.3372 27.7188 63.5733 28.045 64.4317C31.8911 74.5477 40.9862 77.703 50.0458 81.6856C59.6739 77.5225 68.6337 73.9245 72.5138 63.0768C72.8682 62.2106 75.0837 61.9422 73.9249 64.8083Z" fill="#1C001F"/>
</svg>
