<svg width="11" height="15" viewBox="0 0 11 15" fill="none" xmlns="http://www.w3.org/2000/svg">
<path d="M0.00911358 5.38614L0.00337398 5.24605C-0.0977374 2.27425 2.08536 0.129143 4.98632 0.0452461C7.67854 -0.301224 10.5564 1.36147 10.2619 4.36771C9.82503 9.02655 3.13189 9.02279 2.80323 12.8953C4.47008 13.0659 7.14746 12.9222 8.86615 12.871C9.31591 12.8577 9.68118 12.8399 10.1321 12.8953C10.3243 15.6209 9.89032 14.9189 6.9579 14.9189L1.81151 14.9159C0.0947899 14.925 -0.0595479 14.9994 0.268718 13.0233C1.15775 7.67292 6.88251 7.68658 7.64648 4.55806C8.23 2.16898 5.3791 1.10009 3.60895 2.41711C2.64216 3.13636 2.59448 4.29489 2.43578 5.38614C1.70703 5.41206 0.737867 5.40059 0.00911358 5.38614Z" fill="#1C001F"/>
</svg>
