<svg width="100" height="100" viewBox="0 0 100 100" fill="none" xmlns="http://www.w3.org/2000/svg">
<path d="M24.9661 43.5596C21.1101 43.5061 20.9607 44.3781 20.9417 40.7951C20.9187 36.4785 20.2464 37.4336 23.8118 35.3846L45.6152 22.5207C46.7499 21.8404 48.78 20.4924 49.9538 20.0654C50.413 20.0518 67.3952 30.3133 69.24 31.4035L76.3132 35.6C78.806 37.1035 79.0706 36.4359 79.0531 39.3084C79.0249 43.9012 79.6868 43.574 74.9534 43.5596C74.6782 44.9818 75.7144 47.5705 73.8099 47.761V67.3408C75.2734 67.3168 74.9601 68.426 74.9591 69.5611L74.9534 72.102C76.578 72.1037 78.2134 72.1363 79.8343 72.0383C81.3152 71.9488 81.014 73.7375 81.0105 74.7195L81.0068 77.8781C81.8753 77.9615 83.6607 77.6426 84.2671 78.2498C86.2876 80.2719 80.714 79.8274 80.1304 79.8272H49.9538L20.5652 79.8281C19.7609 79.8279 16.2255 80.0283 15.6529 79.566C15.0623 79.0891 15.3424 78.0551 16.0655 77.8871C16.7802 77.7502 18.1302 77.875 18.8953 77.8781L18.8907 74.5529C18.8852 71.9307 18.7875 72.0949 21.3861 72.0992L25.1183 72.102L25.1097 69.6352C25.1068 68.5098 24.8017 67.3324 26.3161 67.3408V47.761C24.2499 47.6809 24.9581 45.4121 24.9661 43.5596ZM49.9538 22.2082C49.0698 22.7791 48.097 23.3026 47.1859 23.8391L28.7952 34.7303C26.8345 35.8822 24.8126 37.1158 22.8333 38.2158V41.6231H49.9538H77.0488V38.4178C75.4958 37.1922 73.145 35.9705 71.4202 34.9527L50.9439 22.7635C50.6382 22.5791 50.2743 22.3443 49.9538 22.2082ZM28.637 43.5596H26.9089V45.7559H30.8839H32.782V43.5596H28.637ZM34.7148 43.5596C34.5335 44.9481 35.3986 47.7604 33.498 47.761V67.3408C35.0698 67.3402 34.7196 68.3031 34.7183 69.5135L34.7148 72.102L43.2927 72.1029C43.5335 72.1033 44.9695 72.234 45.0642 72.102L45.0595 69.5803C45.0556 68.2684 44.7398 67.2623 46.4093 67.3408V47.761C44.4214 47.7121 45.0566 45.3033 45.0642 43.5596H34.7148ZM47.0216 43.5596V45.7559L50.8673 45.7578C51.395 45.7582 52.2243 45.786 52.7322 45.7559C52.7931 45.1819 52.7259 44.193 52.7322 43.5596C50.9812 43.5578 48.7323 43.4871 47.0216 43.5596ZM54.779 43.5596C54.7804 45.5086 55.5355 47.7436 53.4091 47.761V67.3408C54.9909 67.3518 54.6497 68.2162 54.6476 69.46L54.6419 72.102H65.3294C66.0093 71.3291 63.9863 67.4043 66.507 67.3408V47.761C64.5279 47.5791 65.3405 45.4471 65.3294 43.5596H54.779ZM67.3349 43.5596V45.7559H72.982C72.9357 45.1391 72.9863 44.207 72.982 43.5596H67.3349ZM28.198 47.761V67.3408H31.6097V47.761H28.198ZM48.3269 47.761V67.3408H51.8364V47.761C50.679 47.7608 49.4808 47.744 48.3269 47.761ZM69.0491 47.761H68.4577V67.3408H71.3624C71.5937 67.3422 71.6515 67.3844 71.8079 67.2807C71.9486 66.768 71.8575 63.0086 71.8577 62.2274L71.857 47.761H69.0491ZM27.0675 69.2949V72.102H32.782V69.2949C31.4259 69.2377 28.3872 69.1561 27.0675 69.2949ZM67.3349 69.2949V72.102H72.982V69.2949H67.3349ZM47.0216 69.2949V72.102H52.7322V69.2949C51.0267 69.3637 48.7794 69.294 47.0216 69.2949ZM60.9128 74.0621H20.9366V77.8781H39.0382H79.0497V74.0621H60.9128Z" fill="#1C001F"/>
<path d="M49.034 28.2094C49.2231 27.6143 49.2551 27.4617 49.8168 27.1604C50.6504 27.0662 50.8321 27.494 51.0186 28.2094C51.7561 28.2186 53.4953 27.9375 53.6178 29.0074C53.8162 30.7405 49.8768 30.1514 48.5971 30.1668L48.5842 30.1766C46.1819 31.9662 51.8803 31.534 52.5299 32.0733C54.7563 33.9209 53.8871 36.7981 51.0186 37.3549C50.8801 38.135 50.6557 38.4598 49.8168 38.4178C49.2274 38.1592 49.152 37.9483 49.034 37.3549C48.4981 37.3608 46.885 37.4953 46.4756 37.0205C45.01 35.3205 48.2569 35.3821 49.034 35.4121C49.8957 34.9108 50.1744 34.9375 51.0186 35.4121C51.4817 35.2338 51.9762 34.8164 51.8823 34.3063C51.6635 33.1194 49.2688 33.8428 48.401 33.5738C45.2371 32.8924 45.5309 28.2086 49.034 28.2094Z" fill="#1C001F"/>
</svg>
