<svg width="20" height="20" viewBox="0 0 20 20" fill="none" xmlns="http://www.w3.org/2000/svg">
<path fill-rule="evenodd" clip-rule="evenodd" d="M2.85074 9.9776C2.85074 8.08744 3.60161 6.2747 4.93815 4.93815C6.2747 3.60161 8.08744 2.85074 9.9776 2.85074C14.7764 2.85074 17.5007 6.81043 17.114 10.295C17.0066 11.2538 16.732 11.7755 16.522 12.0529C16.2749 12.3798 15.8264 12.6896 15.3969 12.6744C15.0833 12.663 15.1764 12.223 15.1973 12.0197L15.6724 7.26845C15.7001 6.99266 15.6467 6.71479 15.5189 6.46887C15.3911 6.22294 15.1943 6.01961 14.9527 5.88379C14.7111 5.74796 14.4351 5.68552 14.1586 5.70411C13.882 5.7227 13.6169 5.82152 13.3956 5.98846C12.4481 5.18804 11.2474 4.74965 10.0071 4.75124C7.13446 4.75124 4.75124 7.07745 4.75124 9.9776C4.75124 12.8816 7.14396 15.204 10.0137 15.204C11.0619 15.2032 12.0861 14.8903 12.9557 14.305C13.1106 14.515 13.2949 14.7089 13.5106 14.879C14.5635 15.7133 15.9642 15.7047 17.267 15.0538C17.8702 14.7516 18.3941 14.3123 18.7969 13.771C19.3527 13.0355 19.7908 12.013 19.9467 10.6105C20.5092 5.5428 16.5809 0 9.9776 0C4.46711 0 0 4.46712 0 9.9776C0 15.4881 4.46711 19.9552 9.9776 19.9552C11.5683 19.9552 13.0754 19.5818 14.4134 18.9175C14.7519 18.7492 15.0098 18.4532 15.1302 18.0948C15.2506 17.7363 15.2236 17.3447 15.0553 17.0061C14.8869 16.6675 14.5909 16.4097 14.2325 16.2893C13.874 16.1689 13.4824 16.1959 13.1438 16.3642C12.0571 16.9031 10.8509 17.1557 9.63926 17.0981C8.42765 17.0405 7.25079 16.6747 6.22009 16.0351C5.1894 15.3956 4.33899 14.5036 3.74937 13.4436C3.15976 12.3836 2.85045 11.1906 2.85074 9.9776ZM7.60198 9.9776C7.60198 8.67956 8.68051 7.60198 10.0061 7.60198C11.5351 7.60198 12.6744 9.0093 12.3665 10.4679C12.1385 11.5541 11.1502 12.3532 10.0137 12.3532C8.68336 12.3532 7.60198 11.2728 7.60198 9.9776Z" fill="black"/>
</svg>
