<svg width="42" height="47" viewBox="0 0 42 47" fill="none" xmlns="http://www.w3.org/2000/svg">
<path d="M37.1328 45.5961C35.1498 46.9346 32.3807 47.3618 30.0911 46.6789C17.8733 43.0345 6.26758 30.6492 1.92118 19.039C0.160621 14.3102 -1.38586 8.15653 2.03857 3.79111C4.04753 1.22999 9.07557 0.348462 12.3427 0.0179374C13.7101 -0.148595 14.9554 0.865651 15.2033 2.17895L16.5738 9.18387C16.9407 11.1514 17.4174 13.1449 17.6778 15.1272C18.2685 19.6246 12.8284 17.8967 12.7797 18.8797C12.7459 19.5607 14.6704 22.4729 15.1392 23.1337C17.5154 26.4849 20.6232 29.587 24.1131 31.7615C27.2978 33.7461 24.4257 30.1873 26.66 28.434C28.1819 27.24 33.6006 28.8367 35.5077 29.1844C40.8749 30.1629 41.3068 29.5523 40.9701 35.6729C40.7469 39.7297 40.8944 42.8938 37.1328 45.5961ZM12.3427 2.21062L8.61135 2.9432C6.18802 3.41856 4.92496 3.46665 3.35738 5.73536C0.43284 9.96787 3.48912 17.6 5.48476 21.7135C9.12815 29.2233 15.1464 35.7939 22.1042 40.378C26.0187 42.9569 32.3162 46.925 36.5839 43.1923C39.0503 40.7774 38.874 36.2495 38.968 32.8493C39.0096 31.3386 34.9608 31.2963 33.5228 31.0313L30.0894 30.3916C25.662 29.5616 29.251 31.6638 27.1934 33.7766C23.5537 37.5106 13.9048 25.3624 12.311 22.8214C11.3613 21.3071 9.95455 19.0924 11.1594 17.3784C12.4082 15.6018 13.9883 16.7034 15.4499 16.1153C15.7144 16.009 15.2021 13.6359 15.1059 13.1107L13.5123 4.51901C13.3595 3.69338 13.3902 2.04428 12.3427 2.21062Z" fill="#1C001F"/>
</svg>
