<svg width="196" height="185" viewBox="0 0 196 185" fill="none" xmlns="http://www.w3.org/2000/svg">
<path d="M128.585 20.9377C127.916 18.7097 125.657 13.4468 126.653 11.4343C126.955 10.8244 127.483 10.2308 128.102 9.9329C129.036 9.48308 130.079 9.21295 131.065 8.90129C132.715 8.39097 134.359 7.86169 135.996 7.31303C143.38 4.83053 150.782 2.40213 158.201 0.0278427C160.307 -0.216075 161.057 1.17586 161.687 2.90147C162.523 5.19071 163.223 7.64586 164.131 9.89497C164.606 9.77478 165.104 9.57013 165.567 9.40821C169.242 8.12104 172.981 7.01495 176.664 5.74734C177.937 5.3093 179.62 5.67747 180.189 6.99898C180.96 8.78808 181.46 10.7471 182.077 12.6039L184.484 20.0626C185.106 21.9529 185.835 23.9572 186.354 25.8651C170.124 31.4453 153.53 36.5574 137.304 42.1683C134.608 42.9514 131.515 44.0826 128.819 44.9707C125.625 46.0221 122.089 47.0818 118.955 48.237C118.919 48.1372 118.884 48.037 118.85 47.9363C117.459 43.742 116.11 39.5337 114.804 35.312C114.152 33.2472 113.333 30.9761 112.885 28.9153C112.467 26.9918 114.36 25.4025 116.041 25.0046C117.047 24.7664 118.279 24.2783 119.276 23.957L128.585 20.9377Z" fill="#FEAF36"/>
<path d="M182.855 13.506C186.78 12.484 191.698 10.5753 195.717 9.34119V16.5204C192.221 17.7157 188.475 18.8443 184.936 19.9778C184.212 17.9333 183.517 15.5926 182.855 13.506Z" fill="#FA651F"/>
<path d="M185.063 20.3806C186.504 19.9585 188.015 19.3987 189.455 18.9327C191.534 18.2605 193.652 17.6208 195.717 16.9134V35.1376C184.884 38.5348 173.831 42.4608 163.047 46.0639L92.7094 69.3373C93.1109 71.2232 94.0808 74.108 94.6588 76.0267C95.1955 77.8082 95.8747 80.3826 96.4835 82.0642C99.0281 81.4345 102.342 80.1643 104.908 79.3288L123.05 73.4318L195.717 49.7707V63.0697C195.549 62.3983 194.996 60.0511 194.728 59.5877C194.261 59.657 194.207 59.7297 193.876 60.1384C192.893 60.146 192.406 59.9369 191.576 60.6896C191.115 61.1063 190.904 61.7688 190.906 62.3843C190.906 63.141 191.228 63.8619 191.795 64.3647C192.999 65.442 194.327 65.1535 195.317 63.9973C195.183 64.6063 195.052 65.4145 194.602 65.8573C193.866 66.1592 192.492 65.6179 192.392 66.5838C192.73 67.0413 193.502 67.0131 194.057 67.0794C194.742 66.7671 195.136 66.5747 195.717 66.0526V72.8095L131.666 93.4583L109.17 100.735C107.111 101.402 105.049 102.057 102.984 102.701C102.065 102.988 100.443 103.443 99.6027 103.819C100.657 107.004 101.678 110.201 102.664 113.409C105.35 121.835 107.948 130.289 110.459 138.768L118.81 165.93C120.707 172.207 122.592 178.769 124.615 185H110.582L71.657 58.6454C74.1878 57.693 76.9135 56.8595 79.4869 56.0307L92.1875 51.9623C100.326 49.3491 108.947 46.3696 117.102 44.0097C117.674 45.4237 118.173 47.2261 118.732 48.7383L165.901 33.0584C170.5 31.5247 175.107 30.0151 179.723 28.5295C182.026 27.777 184.686 26.9718 186.934 26.1278C186.434 24.3699 185.632 22.1663 185.063 20.3806ZM173.854 66.5603C173.596 66.1163 173.305 64.9347 173.177 64.3982C173.942 64.188 175.44 63.8671 175.989 63.3772C176.085 63.1097 176.052 63.1025 175.988 62.8164C175.606 62.6968 172.695 63.6575 171.986 63.8286C172.374 64.9898 173.706 70.0554 174.281 70.5626L174.436 70.5945C175.319 69.9762 173.943 67.8293 174.263 67.175C174.964 66.9925 176.455 66.7232 176.738 66.0312L176.568 65.8946C175.598 65.7962 174.767 66.2137 173.854 66.5603ZM147.432 74.9142C147.142 74.4866 147.325 74.6431 146.865 74.4205C146.6 74.49 146.727 74.4305 146.523 74.7425C146.46 75.5737 147.077 78.5739 147.608 79.1433C148.014 79.061 148.028 79.1265 148.28 78.8891C148.295 78.1434 147.636 76.8597 147.601 75.6753C147.846 75.2974 148.388 74.7385 148.841 74.8024C150.144 74.9861 150.075 77.6311 150.899 78.1033C151.242 78.0452 151.088 78.1173 151.351 77.8334C151.14 76.6856 150.766 75.2075 149.946 74.3274C149.081 73.4004 148.018 73.9729 147.432 74.9142ZM182.308 60.0683C182.184 60.5201 182.101 60.6633 182.209 61.0971C182.43 61.3595 182.598 61.4573 182.967 61.3898C183.159 61.0608 183.233 60.9943 183.209 60.6114C182.963 60.2001 182.76 60.1671 182.308 60.0683ZM180.228 60.7575C179.92 60.9644 179.822 60.9538 179.688 61.2395C179.954 62.1849 181.302 67.3785 181.639 67.9669L181.988 68.0447L182.442 67.7676C182.459 67.53 182.236 66.6863 182.133 66.4626C181.769 65.6744 180.793 60.9664 180.228 60.7575ZM177.677 61.039C177.554 61.1337 177.257 61.318 177.271 61.418C177.447 62.6171 178.841 67.9058 179.204 68.7205C179.413 68.8306 179.41 68.8355 179.64 68.8827C179.763 68.779 180.062 68.579 180.036 68.4818C179.746 67.4092 178.299 61.8083 177.93 61.1467L177.677 61.039ZM188.151 61.5332C187.135 61.737 187.152 61.6797 186.481 62.453L186.389 62.3813C186.152 62.2 186.056 62.086 185.763 62.0591C185.46 62.1661 185.545 62.0886 185.355 62.3042C185.696 63.743 186.111 64.9646 186.433 66.5235L187.315 66.2197L186.707 63.1961C188.573 60.9891 189.18 64.2119 189.538 65.5924C189.738 65.5365 190.241 65.4087 190.413 65.3426C190.091 63.9183 189.846 61.8971 188.151 61.5332ZM183.016 62.4933C182.793 63.1987 183.672 66.4375 183.989 67.094C184.277 67.1902 184.275 67.1724 184.584 67.1521C184.931 66.4782 183.9 63.627 183.737 62.7543C183.727 62.6988 183.645 62.5951 183.624 62.566C183.349 62.5093 183.296 62.5017 183.016 62.4933ZM167.746 64.3571C167.292 64.5769 167.345 64.4629 167.176 64.8235C167.242 65.784 167.842 67.174 168.126 68.2294C167.223 68.0954 166.433 68.0084 165.67 68.6121C163.968 69.9582 164.709 71.9647 166.46 72.7324C168.748 72.9906 167.823 72.2856 169.06 71.8611C169.321 72.0274 169.368 72.0935 169.69 72.0811C169.973 71.8827 169.878 72.0079 170.009 71.7106C169.808 70.8147 168.159 64.5655 167.746 64.3571ZM161.506 69.9081C160.659 70.1882 160.371 70.7776 160.023 70.754L159.915 70.5298C159.524 70.6408 159.464 70.678 159.102 70.877C159.354 71.8046 159.881 74.2947 160.451 74.8499C160.778 74.943 160.615 74.9472 160.954 74.7984C161.3 74.1442 160.149 72.3245 160.524 71.4893L160.614 71.3975C161.048 70.9613 161.232 70.7826 161.836 70.7187C163.143 71.0611 162.694 73.4056 163.658 73.8411C163.919 73.7562 163.915 73.7758 164.091 73.571C164.126 72.3692 163.425 69.9512 161.925 69.9061C161.785 69.9029 161.646 69.9035 161.506 69.9081ZM155.721 71.556C154.845 71.6736 154.099 72.2532 153.769 73.0738C153.439 73.8944 153.575 74.829 154.126 75.521C154.677 76.213 155.557 76.5554 156.431 76.4176C157.76 76.2078 158.673 74.9677 158.479 73.6362C158.284 72.3047 157.055 71.3773 155.721 71.556ZM137.758 74.2306C137.621 74.7695 137.556 75.2221 138.234 75.4331L138.324 75.4188C138.534 75.0959 138.648 74.9881 138.658 74.6028C138.419 74.1909 138.207 74.234 137.758 74.2306ZM135.24 75.6164C135.054 75.7682 134.881 75.84 134.868 76.0279C134.829 76.6021 135.145 77.268 135.287 77.8452C134.846 78.0959 134.47 78.2115 134.428 78.7586C134.787 79.1966 135.111 78.9718 135.616 78.8199C135.824 79.5398 136.424 81.9594 136.896 82.3454L137.176 82.3715C137.365 82.1659 137.487 82.1264 137.446 81.8642C137.281 80.803 136.775 79.5929 136.467 78.5617C136.849 78.422 137.128 78.3786 137.342 78.0488L137.375 77.795C136.978 77.3917 136.74 77.5748 136.223 77.7311C136.069 77.1384 135.885 76.2004 135.55 75.7302L135.24 75.6164ZM142.496 75.7677C141.24 76.2256 140.594 77.6167 141.056 78.8714C141.518 80.1262 142.911 80.7671 144.164 80.3015C145.412 79.8379 146.05 78.4521 145.59 77.2029C145.13 75.9536 143.746 75.3117 142.496 75.7677ZM139.093 76.8022C138.8 76.877 138.526 76.8972 138.353 77.1212C138.364 77.6301 139.394 81.1722 139.642 81.5799C139.941 81.4527 140.2 81.3978 140.379 81.1708C140.226 80.5563 139.335 77.0431 139.093 76.8022ZM133.109 78.6374C132.642 78.8718 132.582 78.833 132.527 79.4518C131.602 79.2106 131.235 79.0097 130.322 79.4885C128.238 80.581 128.848 83.5285 131.045 84.0414C133.329 83.9771 132.813 82.9721 133.608 82.7794L133.56 82.7656C133.639 82.9407 133.719 83.115 133.802 83.2887C134.114 83.3678 134.388 83.28 134.59 83.0218C134.481 82.4692 133.596 78.9468 133.396 78.6863L133.109 78.6374ZM125.521 79.4873C125.048 79.6578 125.054 79.568 124.819 79.9014C124.803 80.4123 125.015 80.6751 125.137 81.1904C124.819 81.3098 124.52 81.3669 124.342 81.634C124.401 81.9251 124.515 82.0289 124.696 82.2627C124.97 82.2986 124.995 82.2615 125.265 82.1735C125.963 82.6221 125.523 84.5128 126.27 85.3751C126.508 85.457 126.668 85.3639 126.915 85.2803L127.071 85.1453C126.837 83.9913 126.53 82.9865 126.304 81.7712C126.729 81.6546 127.07 81.621 127.345 81.302L127.435 81.0532C127.143 80.6239 126.949 80.7721 126.488 80.8909L126.117 80.9843C126.008 80.5882 125.838 79.6714 125.521 79.4873ZM117.659 80.7328C117.399 80.85 117.282 81.1556 117.399 81.4164C117.515 81.6771 117.821 81.7945 118.082 81.6787C118.344 81.5623 118.462 81.2555 118.345 80.9939C118.228 80.7322 117.921 80.6152 117.659 80.7328ZM121.935 82.0064C121.295 82.349 120.364 83.0575 120.83 83.8823C121.328 84.7626 123.009 84.7364 123.336 85.5027C122.714 86.4802 121.919 85.4742 121.27 86.1035C121.39 86.5958 122.522 86.6889 122.937 86.695C123.403 86.5335 123.949 86.3878 124.172 85.9048C124.958 84.2022 121.94 84.2095 121.488 83.3444C121.842 82.5452 122.998 83.1496 123.359 82.4684C123.046 81.8504 122.519 81.9211 121.935 82.0064ZM118.455 83.0829L118.076 83.4479C118.197 84.0005 119.15 87.3878 119.397 87.7033L119.519 87.7303C119.732 87.5967 119.984 87.5076 119.97 87.2607C119.906 86.1608 119.252 84.2413 118.869 83.2672C118.647 83.0845 118.74 83.1294 118.455 83.0829ZM115.658 83.8959C115.571 84.1161 115.528 84.2804 115.484 84.5132C115.224 84.615 114.9 84.407 114.571 84.276C109.326 85.1529 113.324 91.8923 116.538 87.879C116.798 88.8196 117.077 89.2808 116.335 90.059C115.188 90.6324 113.965 90.068 113.63 90.6177C113.705 90.8532 113.763 91.0008 114.022 91.1052C115.635 91.7527 117.172 90.9639 117.815 89.4375C117.588 88.323 116.77 84.9732 116.379 83.92C116.125 83.812 115.937 83.8647 115.658 83.8959ZM102.17 85.3955C101.451 85.5658 100.735 85.7525 100.023 85.9555C100.28 87.1411 101.31 92.0863 102.016 92.723L102.201 92.7711C102.388 92.6346 102.437 92.5687 102.467 92.3275C102.564 91.5353 100.968 86.84 101.279 86.5755C101.651 86.2594 102.52 86.1222 102.995 86.2035C103.426 86.2776 103.708 86.5621 103.94 86.9133C104.093 88.5902 103.414 88.5383 102.018 89.0592C102.589 89.6489 104.708 91.6429 105.55 91.6211C105.782 91.6151 105.778 91.5744 105.996 91.4592C105.965 91.0739 103.92 89.6318 103.51 89.2981C104.122 88.9849 104.515 88.7465 104.73 88.0425C104.898 87.507 104.841 86.9266 104.574 86.4333C104.291 85.9156 103.806 85.5391 103.234 85.3931C102.929 85.3174 102.482 85.3454 102.17 85.3955ZM108.909 85.903C107.332 86.1664 106.289 87.3421 106.691 88.9789C106.86 89.6595 107.309 90.2369 107.927 90.5679C109.314 91.3112 111.095 90.2102 111.031 88.7435L110.939 88.5902C110.456 88.6668 110.447 88.5792 110.172 88.9314C109.834 89.364 109.64 89.8781 109.048 89.979C108.72 90.0365 108.383 89.9626 108.109 89.7733C107.873 89.6082 107.771 89.4101 107.682 89.1472C107.925 88.1058 110.322 88.4889 110.933 87.6073C110.982 86.6128 109.78 85.998 108.909 85.903Z" fill="#FEFEFE"/>
<path d="M92.7094 69.3374L163.047 46.064C173.831 42.4609 184.884 38.5349 195.717 35.1377V35.5925C192.37 36.5487 188.472 37.977 185.118 39.0867L159.005 47.8248L118.093 61.3568C109.776 64.0289 101.487 66.7874 93.2277 69.6313C93.7375 71.5641 94.3119 73.4794 94.95 75.3737C99.7031 73.727 104.476 72.1363 109.266 70.602C119.919 67.0411 130.602 63.5733 141.316 60.1994C159.501 54.3303 177.635 48.3043 195.717 42.122V42.5369C162.321 54.1317 128.573 64.5776 95.0302 75.7553C95.5537 77.5533 96.1816 79.8715 96.8287 81.5876L195.717 49.3042V49.7708L123.05 73.4319L104.908 79.3289C102.342 80.1644 99.0281 81.4346 96.4835 82.0643C95.8748 80.3826 95.1955 77.8083 94.6589 76.0268C94.0809 74.1081 93.1109 71.2233 92.7094 69.3374Z" fill="black"/>
<path d="M93.2277 69.631C101.487 66.7872 109.776 64.0287 118.092 61.3566L159.005 47.8246L185.118 39.0865C188.472 37.9768 192.37 36.5485 195.717 35.5923V42.1218C177.635 48.3041 159.501 54.3301 141.315 60.1992C130.602 63.5731 119.919 67.0409 109.266 70.6018C104.476 72.1361 99.7031 73.7268 94.9499 75.3735C94.3118 73.4792 93.7374 71.5639 93.2277 69.631Z" fill="#FEAF36"/>
<path d="M102.956 185C102.426 182.862 101.507 180.244 100.855 178.076L95.724 161.059C88.0858 135.463 80.2837 109.917 72.3185 84.4214L64.9828 60.5698C64.3251 58.3541 63.5744 56.1187 62.9663 53.8952C66.377 52.9532 69.8658 51.7665 73.2355 50.669L85.1824 46.8146C94.9839 43.6305 105.136 40.4516 114.864 37.099C115.646 39.2665 116.255 41.4218 116.993 43.5708L86.6012 53.321L76.336 56.5993C75.0414 57.0198 72.2486 57.8749 71.0964 58.3644C78.645 81.9668 86.002 105.63 93.1664 129.352L101.6 157.138C104.353 166.46 107.218 175.748 110.196 185H102.956Z" fill="#FA651F"/>
<path d="M95.0302 75.755C128.573 64.5774 162.321 54.1314 195.717 42.5367V49.304L96.8287 81.5873C96.1816 79.8713 95.5537 77.5531 95.0302 75.755Z" fill="#FEAF36"/>
<path d="M195.317 63.9972C194.327 65.1534 192.999 65.4419 191.795 64.3645C191.228 63.8618 190.906 63.1408 190.906 62.3841C190.904 61.7686 191.114 61.1062 191.576 60.6895C192.406 59.9368 192.893 60.1458 193.876 60.1382C194.207 59.7295 194.261 59.6569 194.728 59.5876C194.996 60.051 195.549 62.3981 195.717 63.0696V66.0524C195.136 66.5745 194.742 66.767 194.057 67.0792C193.502 67.0129 192.73 67.0411 192.392 66.5837C192.492 65.6178 193.866 66.159 194.602 65.8571C195.052 65.4143 195.183 64.6061 195.317 63.9972ZM192.933 60.8189C191.152 61.8758 191.482 64.0762 193.728 64.0297C195.748 63.2874 194.666 60.8173 192.933 60.8189Z" fill="#011147"/>
<path d="M182.967 61.3896C182.598 61.4571 182.43 61.3593 182.209 61.0969C182.101 60.6631 182.184 60.5199 182.308 60.0681C182.76 60.167 182.963 60.1999 183.209 60.6112C183.233 60.9941 183.159 61.0606 182.967 61.3896Z" fill="black"/>
<path d="M181.988 68.0443L181.639 67.9665C181.302 67.3781 179.954 62.1845 179.688 61.2391C179.822 60.9534 179.92 60.964 180.228 60.7571C180.793 60.966 181.77 65.674 182.133 66.4623C182.236 66.6859 182.459 67.5296 182.442 67.7672L181.988 68.0443Z" fill="#011147"/>
<path d="M193.728 64.0296C191.482 64.0762 191.152 61.8758 192.933 60.8188C194.666 60.8172 195.748 63.2873 193.728 64.0296Z" fill="#FEFEFE"/>
<path d="M179.64 68.8826C179.41 68.8355 179.413 68.8305 179.204 68.7205C178.841 67.9057 177.447 62.6171 177.271 61.4179C177.257 61.3179 177.554 61.1336 177.677 61.039L177.93 61.1466C178.299 61.8083 179.746 67.4092 180.036 68.4817C180.062 68.5789 179.763 68.779 179.64 68.8826Z" fill="#011147"/>
<path d="M186.433 66.5236C186.111 64.9647 185.696 63.743 185.355 62.3043C185.545 62.0887 185.46 62.1661 185.763 62.0591C186.056 62.0861 186.152 62.2001 186.389 62.3814L186.481 62.4531C187.152 61.6798 187.135 61.7371 188.151 61.5332C189.846 61.8972 190.091 63.9183 190.413 65.3426C190.241 65.4087 189.738 65.5365 189.538 65.5924C189.18 64.212 188.573 60.9892 186.707 63.1962L187.315 66.2197L186.433 66.5236Z" fill="#011147"/>
<path d="M184.584 67.1521C184.274 67.1724 184.277 67.1902 183.989 67.094C183.672 66.4375 182.793 63.1987 183.016 62.4933C183.296 62.5017 183.349 62.5093 183.624 62.566C183.645 62.5952 183.727 62.6988 183.737 62.7543C183.9 63.627 184.931 66.4782 184.584 67.1521Z" fill="#011147"/>
<path d="M173.177 64.3982C173.305 64.9346 173.596 66.1162 173.854 66.5602C174.767 66.2136 175.598 65.7962 176.568 65.8946L176.738 66.0311C176.455 66.7232 174.964 66.9925 174.263 67.175C173.943 67.8292 175.319 69.9761 174.436 70.5944L174.281 70.5625C173.706 70.0554 172.374 64.9897 171.986 63.8286C172.695 63.6575 175.606 62.6967 175.988 62.8163C176.052 63.1024 176.085 63.1096 175.989 63.3771C175.44 63.8671 173.942 64.1879 173.177 64.3982Z" fill="#011147"/>
<path d="M168.125 68.2291C167.842 67.1737 167.242 65.7837 167.176 64.8232C167.345 64.4626 167.292 64.5766 167.746 64.3568C168.159 64.5652 169.808 70.8144 170.009 71.7103C169.878 72.0075 169.973 71.8824 169.69 72.0808C169.368 72.0932 169.321 72.0271 169.06 71.8608C167.823 72.2853 168.748 72.9902 166.46 72.7321C164.709 71.9644 163.968 69.9579 165.67 68.6118C166.433 68.0081 167.223 68.0951 168.125 68.2291ZM166.791 68.9051C164.728 69.9509 165.648 72.1519 167.592 71.7901C168.461 71.4541 169.12 70.7944 168.636 69.8167C168.437 69.413 168.08 69.1096 167.649 68.9776C167.333 68.8834 167.115 68.8871 166.791 68.9051Z" fill="#011147"/>
<path d="M167.592 71.7902C165.648 72.1519 164.728 69.9509 166.791 68.9052C167.115 68.8872 167.333 68.8834 167.649 68.9776C168.08 69.1096 168.437 69.4131 168.636 69.8168C169.12 70.7945 168.461 71.4541 167.592 71.7902Z" fill="#FEFEFE"/>
<path d="M159.102 70.877C159.464 70.6779 159.524 70.6408 159.915 70.5298L160.023 70.754C160.37 70.7775 160.659 70.1882 161.506 69.908C161.645 69.9035 161.785 69.9029 161.925 69.9061C163.425 69.9512 164.126 72.3692 164.091 73.5709C163.915 73.7758 163.919 73.7562 163.658 73.841C162.694 73.4056 163.143 71.0611 161.836 70.7186C161.232 70.7825 161.048 70.9612 160.614 71.3975L160.524 71.4893C160.149 72.3245 161.3 74.1441 160.954 74.7984C160.615 74.9471 160.778 74.9429 160.451 74.8499C159.881 74.2947 159.354 71.8046 159.102 70.877Z" fill="#011147"/>
<path d="M156.431 76.4177C155.557 76.5555 154.677 76.2131 154.126 75.521C153.575 74.829 153.439 73.8945 153.769 73.0739C154.099 72.2533 154.845 71.6737 155.721 71.5561C157.055 71.3774 158.284 72.3048 158.479 73.6363C158.673 74.9678 157.76 76.2079 156.431 76.4177ZM155.527 72.4743C154.697 72.7351 154.231 73.6135 154.48 74.4469C154.728 75.2801 155.6 75.759 156.437 75.5226C156.989 75.3665 157.414 74.9251 157.55 74.3674C157.685 73.8098 157.51 73.2222 157.091 72.8301C156.672 72.438 156.074 72.302 155.527 72.4743Z" fill="#011147"/>
<path d="M156.437 75.5224C155.6 75.7588 154.728 75.2799 154.48 74.4467C154.231 73.6133 154.697 72.7349 155.527 72.4741C156.074 72.3018 156.672 72.4378 157.091 72.8299C157.51 73.222 157.685 73.8096 157.55 74.3672C157.414 74.9249 156.989 75.3663 156.437 75.5224Z" fill="#FEFEFE"/>
<path d="M99.6027 103.818C100.443 103.443 102.065 102.988 102.984 102.701C105.049 102.057 107.111 101.401 109.17 100.735L131.666 93.4582L195.717 72.8093V73.3021C186.421 76.224 177.144 79.2007 167.884 82.232L100.191 104.035C100.678 105.671 101.269 107.594 101.847 109.207C107.064 107.669 112.337 105.897 117.518 104.233L139.064 97.3379L195.717 79.0537V79.5235C192.131 80.6038 188.559 81.8561 184.997 83.0185L167.022 88.8058L149.925 94.3011C145.203 95.8003 140.076 97.3582 135.417 99.0156C137.465 107.718 140.486 116.397 142.787 125.051C143.118 126.296 143.523 127.692 143.946 128.902C148.661 127.592 154.364 125.522 159.1 123.94L183.348 115.97L192.011 113.124C192.951 112.825 194.808 112.173 195.717 111.968V112.413C178.404 117.884 161.28 123.785 144.021 129.355C144.753 132.209 145.634 135.088 146.483 137.917C148.174 143.557 149.85 149.509 151.743 155.077C163.112 151.509 174.44 147.815 185.727 143.996C189.014 142.881 192.47 141.848 195.717 140.706V141.146L151.869 155.525C153.75 161.584 155.6 167.652 157.419 173.729C158.514 177.336 159.856 181.396 160.788 185H160.34C158.183 177.357 155.679 169.779 153.467 162.148C152.848 160.01 152.175 157.777 151.405 155.695C144.651 157.839 137.86 159.867 131.037 161.778C127.125 162.891 122.933 164.016 119.072 165.254C119.283 166 119.501 166.761 119.738 167.499C121.599 173.283 123.132 179.255 125.096 185H124.615C122.592 178.769 120.707 172.207 118.81 165.93L110.459 138.768C107.948 130.288 105.35 121.835 102.664 113.409C101.678 110.201 100.657 107.004 99.6027 103.818ZM134.623 99.2582C127.796 101.379 120.983 103.548 114.187 105.765C110.405 106.973 105.527 108.343 101.916 109.678C105.093 119.501 108.151 129.362 111.089 139.259C111.476 139.347 126.738 134.729 128.387 134.112C133.222 132.303 138.122 130.4 143.456 129.076C141.8 123.121 140.089 117.181 138.324 111.257C137.898 109.778 135.047 99.4975 134.815 99.244L134.623 99.2582ZM143.391 129.51C140.107 130.464 136.786 131.441 133.551 132.552C132.313 132.978 131.071 133.737 129.78 134.162C123.699 136.165 117.355 137.862 111.277 139.79C111.903 142.1 118.832 164.504 119.037 164.71L119.171 164.733L135.407 160.038C140.737 158.56 146.034 156.966 151.295 155.258L146.709 140.382C146.323 139.109 143.812 129.959 143.478 129.542L143.391 129.51Z" fill="black"/>
<path d="M100.191 104.035L167.884 82.232C177.144 79.2007 186.421 76.224 195.717 73.3021V79.0537L139.064 97.3379L117.518 104.233C112.337 105.897 107.064 107.669 101.847 109.207C101.269 107.594 100.678 105.671 100.191 104.035Z" fill="#FEAF36"/>
<path d="M147.432 74.9143C148.018 73.9729 149.081 73.4005 149.946 74.3275C150.766 75.2076 151.141 76.6856 151.351 77.8334C151.088 78.1173 151.242 78.0452 150.899 78.1033C150.075 77.6312 150.144 74.9861 148.841 74.8025C148.388 74.7386 147.846 75.2974 147.601 75.6753C147.592 75.2898 147.563 75.2667 147.432 74.9143Z" fill="#011147"/>
<path d="M138.324 75.4185L138.234 75.4329C137.556 75.2219 137.621 74.7693 137.758 74.2304C138.207 74.2338 138.419 74.1907 138.658 74.6025C138.647 74.9879 138.534 75.0957 138.324 75.4185Z" fill="black"/>
<path d="M147.601 75.6751C147.636 76.8594 148.295 78.1432 148.28 78.8889C148.028 79.1263 148.014 79.0608 147.608 79.1431C147.077 78.5737 146.46 75.5735 146.523 74.7423C146.727 74.4302 146.6 74.4897 146.865 74.4203C147.325 74.6429 147.142 74.4863 147.432 74.914C147.563 75.2664 147.592 75.2895 147.601 75.6751Z" fill="#011147"/>
<path d="M135.287 77.845C135.145 77.2678 134.829 76.6019 134.868 76.0277C134.881 75.8398 135.054 75.768 135.24 75.6162L135.55 75.73C135.885 76.2002 136.069 77.1382 136.223 77.731C136.74 77.5746 136.978 77.3915 137.375 77.7949L137.342 78.0486C137.128 78.3784 136.849 78.4218 136.467 78.5615C136.775 79.5927 137.281 80.8028 137.446 81.864C137.487 82.1262 137.365 82.1657 137.176 82.3713L136.896 82.3452C136.424 81.9592 135.824 79.5396 135.616 78.8197C135.111 78.9716 134.787 79.1964 134.428 78.7584C134.47 78.2113 134.846 78.0957 135.287 77.845Z" fill="#011147"/>
<path d="M144.164 80.3012C142.911 80.7668 141.518 80.1259 141.056 78.871C140.594 77.6164 141.24 76.2252 142.496 75.7674C143.746 75.3114 145.13 75.9533 145.59 77.2025C146.05 78.4518 145.412 79.8376 144.164 80.3012ZM142.887 76.568C142.094 76.8224 141.648 77.6611 141.88 78.4604C142.112 79.2598 142.938 79.7292 143.743 79.5195C144.285 79.3784 144.707 78.9545 144.845 78.4126C144.984 77.8706 144.817 77.2962 144.41 76.9126C144.003 76.5291 143.419 76.3971 142.887 76.568Z" fill="#011147"/>
<path d="M143.744 79.5196C142.938 79.7293 142.112 79.2599 141.88 78.4605C141.648 77.6612 142.094 76.8225 142.887 76.5681C143.419 76.3972 144.003 76.5292 144.41 76.9127C144.817 77.2963 144.984 77.8707 144.845 78.4127C144.707 78.9546 144.285 79.3785 143.744 79.5196Z" fill="#FEFEFE"/>
<path d="M139.642 81.5796C139.394 81.172 138.364 77.6299 138.353 77.121C138.526 76.897 138.8 76.8768 139.093 76.8019C139.335 77.0429 140.226 80.556 140.379 81.1706C140.2 81.3976 139.941 81.4525 139.642 81.5796Z" fill="#011147"/>
<path d="M131.045 84.0415C128.848 83.5286 128.238 80.5811 130.322 79.4886C131.235 79.0098 131.602 79.2107 132.527 79.4519C132.582 78.8331 132.642 78.8719 133.109 78.6375L133.396 78.6864C133.596 78.9469 134.481 82.4692 134.59 83.0219C134.388 83.28 134.114 83.3679 133.802 83.2888C133.719 83.1151 133.639 82.9408 133.559 82.7657L133.608 82.7795C132.813 82.9722 133.329 83.9772 131.045 84.0415ZM131.269 80.0235C130.704 80.1385 130.246 80.5512 130.074 81.101C129.901 81.6509 130.041 82.251 130.439 82.6681C130.837 83.085 131.43 83.2529 131.987 83.1065C132.816 82.8887 133.321 82.0506 133.127 81.2158C132.932 80.3809 132.109 79.8524 131.269 80.0235Z" fill="#011147"/>
<path d="M125.137 81.19C125.015 80.6747 124.803 80.412 124.819 79.9011C125.054 79.5676 125.048 79.6575 125.521 79.487C125.838 79.6711 126.008 80.5879 126.117 80.984L126.488 80.8905C126.949 80.7718 127.143 80.6236 127.435 81.0529L127.345 81.3016C127.07 81.6207 126.729 81.6542 126.305 81.7708C126.531 82.9861 126.837 83.991 127.071 85.145L126.915 85.28C126.668 85.3636 126.508 85.4566 126.27 85.3748C125.523 84.5125 125.964 82.6217 125.265 82.1731C124.995 82.2612 124.97 82.2983 124.696 82.2624C124.515 82.0286 124.401 81.9248 124.342 81.6337C124.52 81.3665 124.819 81.3094 125.137 81.19Z" fill="#011147"/>
<path d="M135.417 99.0158C140.076 97.3584 145.203 95.8005 149.925 94.3013L167.022 88.806L184.997 83.0186C188.559 81.8562 192.131 80.604 195.717 79.5237V111.969C194.808 112.174 192.951 112.825 192.011 113.125L183.348 115.97L159.1 123.94C154.364 125.522 148.661 127.592 143.946 128.902C143.523 127.693 143.118 126.296 142.787 125.052C140.486 116.397 137.465 107.718 135.417 99.0158ZM193.516 95.0871C191.059 95.7159 188.279 96.7517 185.812 97.5425L167.878 103.392L153.925 107.949C152.02 108.561 147.573 109.856 146.043 110.566C146.193 111.273 147.287 114.73 147.6 115.323L147.758 115.41C151.874 114.215 156.556 112.578 160.63 111.245L178.219 105.529C183.623 103.738 190.096 101.949 195.339 99.9871C195.052 99.0038 194.043 95.8345 193.516 95.0871Z" fill="#FEFEFE"/>
<path d="M131.987 83.1062C131.43 83.2526 130.837 83.0847 130.439 82.6678C130.041 82.2507 129.901 81.6505 130.074 81.1007C130.246 80.5508 130.704 80.1382 131.269 80.0232C132.109 79.852 132.932 80.3805 133.127 81.2155C133.321 82.0502 132.816 82.8884 131.987 83.1062Z" fill="#FEFEFE"/>
<path d="M118.082 81.6786C117.821 81.7944 117.515 81.677 117.399 81.4162C117.282 81.1555 117.399 80.8498 117.659 80.7326C117.921 80.615 118.228 80.732 118.345 80.9938C118.462 81.2553 118.344 81.5622 118.082 81.6786Z" fill="black"/>
<path d="M122.937 86.695C122.522 86.6888 121.39 86.5957 121.27 86.1034C121.919 85.4741 122.715 86.4801 123.336 85.5026C123.009 84.7364 121.328 84.7625 120.83 83.8822C120.364 83.0575 121.295 82.3489 121.935 82.0063C122.519 81.921 123.046 81.8504 123.359 82.4683C122.998 83.1495 121.842 82.5451 121.488 83.3444C121.94 84.2095 124.958 84.2021 124.172 85.9047C123.949 86.3877 123.403 86.5335 122.937 86.695Z" fill="#011147"/>
<path d="M119.519 87.7301L119.397 87.7031C119.15 87.3877 118.197 84.0003 118.076 83.4477L118.455 83.0827C118.74 83.1292 118.647 83.0843 118.869 83.267C119.252 84.2411 119.906 86.1606 119.97 87.2605C119.984 87.5075 119.732 87.5965 119.519 87.7301Z" fill="#011147"/>
<path d="M114.571 84.2757C114.9 84.4067 115.224 84.6147 115.484 84.5129C115.528 84.2801 115.571 84.1158 115.658 83.8955C115.937 83.8644 116.125 83.8117 116.379 83.9197C116.77 84.9729 117.588 88.3227 117.815 89.4372C117.172 90.9635 115.635 91.7524 114.022 91.1049C113.763 91.0005 113.705 90.8529 113.63 90.6173C113.965 90.0677 115.187 90.6321 116.335 90.0587C117.077 89.2804 116.798 88.8192 116.538 87.8787C113.323 91.8919 109.326 85.1526 114.571 84.2757ZM114.284 85.1723C113.73 85.3934 113.365 85.5653 113.101 86.1441C112.938 86.4955 112.927 86.8987 113.071 87.2587C113.227 87.6315 113.525 87.9264 113.899 88.0779C114.211 88.2021 114.542 88.1871 114.871 88.1727C115.365 88.0176 115.713 87.8922 115.98 87.4085C116.167 87.0655 116.207 86.6616 116.092 86.2882C115.82 85.3993 115.131 85.1498 114.284 85.1723Z" fill="#011147"/>
<path d="M114.871 88.173C114.542 88.1874 114.211 88.2024 113.9 88.0782C113.525 87.9267 113.227 87.6318 113.071 87.259C112.927 86.899 112.938 86.4957 113.101 86.1444C113.365 85.5656 113.73 85.3937 114.284 85.1726C115.131 85.1501 115.82 85.3996 116.092 86.2885C116.208 86.6619 116.167 87.0658 115.98 87.4088C115.713 87.8925 115.365 88.0179 114.871 88.173Z" fill="#FEFEFE"/>
<path d="M100.023 85.9555C100.735 85.7525 101.451 85.5658 102.17 85.3955C102.482 85.3454 102.929 85.3174 103.234 85.3931C103.806 85.539 104.291 85.9156 104.574 86.4333C104.841 86.9266 104.898 87.507 104.73 88.0425C104.515 88.7465 104.122 88.9849 103.51 89.2981C103.92 89.6317 105.965 91.0739 105.996 91.4592C105.778 91.5744 105.782 91.6151 105.55 91.6211C104.708 91.6429 102.589 89.6489 102.018 89.0591C103.414 88.5382 104.093 88.5901 103.94 86.9132C103.708 86.5621 103.426 86.2776 102.995 86.2035C102.52 86.1222 101.651 86.2594 101.279 86.5754C100.968 86.84 102.564 91.5353 102.467 92.3275C102.437 92.5687 102.388 92.6346 102.201 92.7711L102.016 92.723C101.31 92.0863 100.281 87.1411 100.023 85.9555Z" fill="#011147"/>
<path d="M110.939 88.59L111.031 88.7433C111.095 90.21 109.314 91.3111 107.927 90.5678C107.309 90.2367 106.86 89.6593 106.691 88.9787C106.289 87.3419 107.332 86.1662 108.909 85.9028C109.78 85.9979 110.982 86.6126 110.933 87.6071C110.322 88.4888 107.925 88.1056 107.682 89.147C107.771 89.41 107.873 89.608 108.109 89.7731C108.383 89.9624 108.721 90.0363 109.048 89.9788C109.641 89.878 109.834 89.3639 110.172 88.9312C110.447 88.579 110.456 88.6667 110.939 88.59ZM108.587 86.6513C108.002 87.0093 107.852 87.172 107.593 87.8036L107.617 88.0575C107.985 88.3191 108.253 88.0927 108.642 87.9086C109.029 87.768 109.415 87.6889 109.646 87.3655L109.702 87.099C109.416 86.6961 109.055 86.6809 108.587 86.6513Z" fill="#011147"/>
<path d="M108.642 87.9088C108.253 88.0928 107.985 88.3192 107.617 88.0577L107.593 87.8037C107.852 87.1722 108.002 87.0095 108.587 86.6515C109.055 86.6811 109.416 86.6963 109.702 87.0992L109.646 87.3657C109.415 87.6891 109.029 87.7682 108.642 87.9088Z" fill="#FEFEFE"/>
<path d="M147.758 115.41L147.6 115.323C147.287 114.73 146.193 111.272 146.043 110.566C147.573 109.856 152.02 108.56 153.925 107.949L167.877 103.391L185.812 97.5423C188.279 96.7515 191.059 95.7157 193.516 95.0869C194.043 95.8343 195.052 99.0036 195.339 99.9869C190.096 101.949 183.623 103.738 178.219 105.529L160.63 111.245C156.556 112.578 151.874 114.215 147.758 115.41ZM193.207 95.5709C190.737 96.2827 188.294 97.2131 185.836 97.9983L162.457 105.597C157.48 107.252 151.459 109.389 146.499 110.797C146.727 111.501 147.644 114.436 147.918 114.863L148.055 114.923C150.797 113.955 153.486 113.14 156.247 112.249C160.257 110.923 164.275 109.624 168.302 108.352C177.132 105.438 185.979 102.578 194.842 99.7704C194.632 99.1333 193.642 95.8462 193.207 95.5709Z" fill="black"/>
<path d="M146.499 110.797C151.459 109.389 157.481 107.252 162.457 105.597L185.836 97.9983C188.294 97.2131 190.737 96.2827 193.207 95.5709C193.642 95.8462 194.632 99.1333 194.842 99.7704C185.979 102.578 177.132 105.438 168.302 108.352C164.275 109.624 160.257 110.923 156.247 112.249C153.486 113.14 150.797 113.955 148.055 114.923L147.918 114.863C147.644 114.436 146.727 111.501 146.499 110.797Z" fill="#FEAF36"/>
<path d="M101.916 109.678C105.527 108.343 110.405 106.973 114.187 105.765C120.984 103.548 127.796 101.379 134.624 99.2581L134.815 99.244C135.047 99.4975 137.898 109.778 138.324 111.257C140.089 117.181 141.8 123.121 143.456 129.076C138.122 130.4 133.222 132.303 128.387 134.112C126.738 134.729 111.476 139.347 111.089 139.259C108.151 129.362 105.093 119.501 101.916 109.678ZM122.514 110.936C116.21 111.783 111.777 117.569 112.6 123.877C113.423 130.185 119.192 134.64 125.503 133.841C131.848 133.038 136.333 127.231 135.505 120.889C134.678 114.546 128.854 110.084 122.514 110.936Z" fill="#FEFEFE"/>
<path d="M125.503 133.841C119.192 134.64 113.423 130.185 112.6 123.877C111.777 117.569 116.21 111.783 122.514 110.935C128.854 110.084 134.678 114.546 135.505 120.888C136.333 127.231 131.848 133.038 125.503 133.841ZM123.301 111.294C117.154 111.706 112.515 117.038 112.958 123.183C113.4 129.327 118.756 133.939 124.898 133.466C130.997 132.996 135.57 127.686 135.13 121.585C134.69 115.484 129.404 110.885 123.301 111.294Z" fill="black"/>
<path d="M124.898 133.466C118.756 133.939 113.4 129.327 112.958 123.183C112.515 117.038 117.154 111.706 123.301 111.294C129.404 110.885 134.69 115.484 135.13 121.585C135.57 127.686 130.997 132.996 124.898 133.466ZM123.47 113.188C118.389 113.457 114.484 117.786 114.74 122.868C114.996 127.949 119.316 131.865 124.398 131.622C129.498 131.378 133.431 127.039 133.174 121.94C132.917 116.84 128.568 112.918 123.47 113.188Z" fill="#FEAF36"/>
<path d="M144.021 129.355C161.28 123.785 178.404 117.884 195.717 112.413V122.451L163.114 133.103C160.774 133.851 158.438 134.613 156.106 135.387C155.069 135.732 153.721 136.253 152.704 136.51C153.228 138.201 153.778 139.883 154.354 141.557C156.262 141.045 158.311 140.35 160.214 139.745L171.797 136.022C177.377 134.278 182.947 132.501 188.507 130.691C190.706 129.975 193.57 129.099 195.717 128.325V140.706C192.47 141.849 189.014 142.881 185.727 143.996C174.44 147.815 163.112 151.509 151.743 155.077C149.85 149.509 148.174 143.557 146.483 137.917C145.634 135.089 144.753 132.209 144.021 129.355Z" fill="#FEFEFE"/>
<path d="M124.398 131.622C119.316 131.865 114.996 127.949 114.74 122.868C114.484 117.786 118.389 113.456 123.47 113.188C128.568 112.918 132.917 116.84 133.174 121.94C133.431 127.039 129.498 131.378 124.398 131.622ZM123.521 113.768C118.968 114.175 115.315 117.156 114.929 121.84C114.841 122.904 122.877 126.959 124.074 127.686C124.744 125.907 127.025 119.043 127.841 117.971C128.121 118.388 125.666 124.22 125.397 125.208C125.228 125.827 124.55 127.612 124.258 128.244C123.384 127.761 122.5 127.294 121.608 126.844C120.363 126.184 119.341 125.626 118.16 124.866C117.23 124.269 115.822 123.203 114.891 122.749C115.292 125.441 116.255 127.362 118.453 129.056C122.419 132.113 128.36 131.653 131.383 127.463C132.682 125.666 133.201 123.421 132.821 121.236C132.421 118.88 131.102 116.779 129.154 115.394C127.502 114.255 125.525 113.685 123.521 113.768Z" fill="black"/>
<path d="M124.074 127.686C122.877 126.959 114.841 122.905 114.929 121.84C115.315 117.157 118.968 114.176 123.522 113.769C125.525 113.685 127.502 114.256 129.154 115.394C131.102 116.779 132.421 118.88 132.821 121.236C133.201 123.421 132.682 125.666 131.384 127.463C128.36 131.653 122.419 132.113 118.453 129.056C116.255 127.362 115.292 125.442 114.891 122.749C115.822 123.203 117.23 124.269 118.16 124.867C119.341 125.626 120.363 126.184 121.608 126.844C122.5 127.294 123.384 127.761 124.258 128.245C124.55 127.612 125.228 125.827 125.397 125.208C125.666 124.22 128.121 118.389 127.841 117.972C127.025 119.043 124.744 125.908 124.074 127.686ZM126.613 118.489C125.662 119.797 124.322 124.665 123.641 126.436C120.93 125.16 118.434 123.784 115.884 122.216C115.671 122.085 115.443 121.943 115.213 122.021C115.272 122.104 115.344 122.219 115.411 122.29C117.177 123.633 121.723 125.971 123.784 126.989C124.383 125.531 126.097 120.539 126.733 118.752C126.749 118.708 126.666 118.54 126.613 118.489Z" fill="#51D083"/>
<path d="M123.641 126.436C124.322 124.665 125.662 119.797 126.613 118.489C126.666 118.54 126.749 118.708 126.733 118.752C126.097 120.539 124.383 125.531 123.784 126.989C121.723 125.971 117.177 123.634 115.411 122.29C115.344 122.219 115.272 122.104 115.213 122.021C115.443 121.943 115.671 122.085 115.884 122.216C118.434 123.784 120.93 125.16 123.641 126.436Z" fill="black"/>
<path d="M36.4981 127.302C36.6839 124.286 38.2806 122.638 41.2319 122.239C44.2433 122.07 46.4518 124.454 46.4904 127.39C51.324 127.323 56.1584 127.314 60.9923 127.361C63.5123 127.378 66.3095 127.452 68.8094 127.345C69.2464 128.53 70.141 130.336 70.6767 131.538C71.8874 134.303 73.1211 137.058 74.3781 139.803C76.5799 144.66 78.9803 150.433 81.4099 155.089C82.8303 155.763 83.4041 155.773 82.7095 157.475C81.3001 160.928 78.3874 163.569 75.0196 165.072C71.2669 166.763 66.9885 166.858 63.1645 165.334C58.5707 163.542 56.0482 160.44 54.1066 156.062C55.1278 155.313 55.7839 155.042 56.964 154.549C57.7207 152.89 58.471 151.215 59.1545 149.525C62.0854 142.276 65.4422 135.088 68.2709 127.811C60.9867 127.75 53.7021 127.741 46.4179 127.782C45.8313 129.672 45.1459 130.603 43.4175 131.62C43.3674 132.916 43.4396 134.612 43.4458 135.937L43.4333 143.94C43.4033 148.359 43.4073 152.779 43.445 157.198C43.4458 159.97 43.3772 162.741 43.4466 165.512C46.6649 166.455 48.1609 168.407 48.9649 171.588C50.9147 172.288 51.416 173.303 52.3125 175.026C49.2887 175.212 45.0459 175.084 41.9327 175.082L34.8709 175.092C33.5951 175.098 31.8842 175.155 30.6482 175.071C31.2591 173.271 31.8844 171.916 33.9722 171.55C34.6215 168.064 36.2561 166.559 39.5234 165.453C39.3178 154.274 39.5795 142.816 39.4927 131.602C39.202 131.455 38.9187 131.295 38.6441 131.12C37.2749 130.256 36.8758 129.243 36.543 127.773C33.5454 127.635 29.61 127.783 26.5612 127.776C22.7928 127.769 18.2862 127.664 14.5486 127.877C15.1478 129.22 15.6956 130.713 16.2812 132.088L21.5411 144.451C22.7668 147.357 24.7116 151.441 25.6798 154.255C27.036 154.767 27.8814 155.074 28.9242 156.078C24.7252 167.815 10.121 170.122 2.21563 160.537C1.57786 159.764 -0.121664 156.859 0.00691377 155.92C0.361241 155.355 1.44417 154.89 2.0745 154.567C2.9288 151.924 5.40248 146.868 6.63281 144.106C9.09102 138.59 11.3552 132.86 13.7991 127.381C16.0399 127.434 18.4157 127.324 20.6766 127.319L36.4981 127.302ZM41.1608 122.628C38.6865 122.8 36.8247 124.953 37.0114 127.426C37.1982 129.9 39.3623 131.749 41.8344 131.547C44.286 131.347 46.1162 129.205 45.9309 126.753C45.7457 124.3 43.6147 122.457 41.1608 122.628ZM68.5756 128.466C67.5276 130.838 57.7191 153.759 57.7113 154.182L57.8835 154.2C61.4455 153.098 65.0604 152.702 68.781 152.757C68.8375 151.053 68.8948 128.88 68.654 128.541C68.6331 128.511 68.6017 128.491 68.5756 128.466ZM14.2587 128.568C14.1966 130.975 14.2673 133.515 14.2731 135.934L14.3424 152.341C18.8318 152.413 20.8567 152.859 25.1303 154.025C23.8649 150.719 22.2819 147.387 20.9148 144.109L16.2968 133.236C16.0155 132.575 14.5594 128.834 14.2587 128.568ZM13.6955 128.784C11.5229 133.923 9.31447 139.046 7.07023 144.154C6.52861 145.377 2.59302 153.899 2.74192 154.317L2.87753 154.299C6.8231 152.895 9.70711 152.365 13.9165 152.334L13.7949 136.112C13.7939 135.267 13.863 129.08 13.6955 128.784ZM69.1827 129.534C69.4125 137.006 69.3338 145.32 69.2226 152.765C73.8714 153.03 76.3188 153.309 80.7725 154.842C80.0381 153.067 78.8346 150.71 78.0016 148.901L72.0763 135.801C71.7299 135.016 69.5259 129.822 69.1827 129.534ZM39.9774 131.756L39.9826 151.067C39.9527 155.822 39.9561 160.577 39.993 165.332C40.8038 165.251 42.7097 165.35 42.9655 165.303C43.0188 154.166 42.8573 142.879 43.0104 131.767C41.8518 132.003 41.1636 132.052 39.9774 131.756ZM11.6882 152.796C8.34762 153.128 3.17533 154.017 0.405205 156.063C5.11959 158.182 12.0997 158.578 17.1759 158.355C20.0984 158.291 25.7654 157.222 28.4751 156.169C24.9259 153.383 16.2126 152.44 11.6882 152.796ZM66.0932 153.197C62.2437 153.494 58.1706 153.976 54.8229 156.074C59.1898 158.312 66.4918 158.701 71.3567 158.535C74.2947 158.276 79.8445 157.737 82.4036 156.27C82.2084 156.113 81.5741 155.6 81.3546 155.508C76.7087 153.576 71.1747 152.988 66.1773 153.186C66.1494 153.19 66.1212 153.193 66.0932 153.197ZM0.517072 156.519C3.53753 164.548 12.2352 167.989 20.1292 164.95C22.1938 164.173 24.0348 162.899 25.4889 161.24C26.6052 159.984 27.6907 158.332 28.2042 156.725C19.2303 159.431 9.4031 159.722 0.517072 156.519ZM54.8213 156.52C57.4284 164.002 66.4247 167.786 73.7676 165.155C76.1155 164.326 78.2233 162.932 79.9053 161.096C81.1077 159.694 82.0451 158.517 82.523 156.695C75.6707 159.464 65.6718 159.474 58.5407 157.77C56.8786 157.373 56.2006 156.954 54.8213 156.52ZM40.4255 165.672C36.8936 166.438 35.1095 168.044 34.4424 171.623L42.6314 171.633C44.5707 171.639 46.5097 171.664 48.4486 171.707C47.6967 167.656 44.5491 165.261 40.4255 165.672ZM33.3004 172.136C32.0709 172.856 31.7477 173.36 31.1982 174.709C36.8189 174.449 43.6175 174.608 49.3448 174.606C50.0895 174.602 50.8997 174.615 51.6387 174.588C50.9814 173.45 50.5933 172.885 49.4445 172.13C45.7992 172.154 42.1539 172.153 38.5086 172.126C37.2713 172.121 34.4398 172.028 33.3004 172.136Z" fill="black"/>
<path d="M152.704 136.51C153.721 136.253 155.069 135.732 156.106 135.387C158.438 134.613 160.774 133.851 163.114 133.103L195.717 122.451V122.914C186.77 125.667 177.539 128.876 168.603 131.798L158.552 135.061C156.9 135.602 154.842 136.184 153.268 136.878C153.712 138.263 154.18 139.641 154.674 141.009C160.096 139.397 165.534 137.551 170.943 135.868C177.253 133.916 183.542 131.899 189.811 129.818C191.701 129.187 193.868 128.523 195.717 127.862V128.325C193.57 129.099 190.706 129.975 188.507 130.691C182.947 132.501 177.377 134.278 171.797 136.022L160.214 139.745C158.311 140.35 156.262 141.045 154.354 141.557C153.778 139.883 153.228 138.201 152.704 136.51Z" fill="black"/>
<path d="M41.8344 131.547C39.3623 131.749 37.1983 129.9 37.0114 127.426C36.8247 124.953 38.6865 122.8 41.1608 122.628C43.6148 122.457 45.7457 124.3 45.9309 126.753C46.1162 129.205 44.286 131.347 41.8344 131.547Z" fill="#FEAF36"/>
<path d="M153.268 136.877C154.843 136.184 156.9 135.602 158.553 135.061L168.603 131.798C177.539 128.876 186.77 125.666 195.717 122.914V127.862C193.868 128.523 191.702 129.186 189.811 129.817C183.542 131.899 177.253 133.916 170.943 135.868C165.534 137.551 160.096 139.396 154.674 141.009C154.18 139.64 153.712 138.263 153.268 136.877Z" fill="#FEAF36"/>
<path d="M111.277 139.79C117.355 137.862 123.699 136.165 129.78 134.162C131.071 133.737 132.313 132.978 133.551 132.552C136.786 131.441 140.107 130.464 143.391 129.51L143.478 129.542C143.812 129.959 146.323 139.109 146.709 140.382L151.295 155.258C146.034 156.966 140.737 158.56 135.407 160.038L119.171 164.733L119.037 164.71C118.832 164.504 111.903 142.1 111.277 139.79ZM131.851 135.679C125.31 135.822 120.124 141.241 120.269 147.782C120.414 154.323 125.835 159.507 132.376 159.359C138.913 159.212 144.094 153.794 143.949 147.257C143.804 140.719 138.388 135.536 131.851 135.679Z" fill="#FEFEFE"/>
<path d="M39.993 165.333C39.9561 160.577 39.9527 155.822 39.9826 151.067L39.9774 131.756C41.1636 132.052 41.8518 132.003 43.0104 131.767C42.8573 142.879 43.0188 154.166 42.9655 165.303C42.7097 165.35 40.8038 165.251 39.993 165.333Z" fill="#FA651F"/>
<path d="M132.376 159.359C125.835 159.507 120.414 154.323 120.269 147.782C120.124 141.241 125.31 135.822 131.85 135.679C138.388 135.537 143.804 140.719 143.949 147.257C144.094 153.794 138.913 159.212 132.376 159.359ZM131.249 136.126C124.957 136.598 120.241 142.083 120.717 148.374C121.193 154.665 126.681 159.377 132.972 158.897C139.257 158.417 143.964 152.936 143.488 146.65C143.013 140.365 137.534 135.654 131.249 136.126Z" fill="black"/>
<path d="M132.972 158.897C126.681 159.377 121.194 154.665 120.718 148.374C120.241 142.083 124.957 136.598 131.249 136.126C137.534 135.654 143.013 140.365 143.489 146.65C143.964 152.935 139.257 158.417 132.972 158.897ZM131.901 138.079C126.735 138.207 122.644 142.486 122.747 147.652C122.85 152.819 127.109 156.931 132.276 156.852C137.478 156.773 141.624 152.479 141.52 147.277C141.416 142.076 137.102 137.951 131.901 138.079Z" fill="#FEAF36"/>
<path d="M132.276 156.852C127.109 156.931 122.85 152.819 122.747 147.652C122.644 142.486 126.735 138.207 131.901 138.079C137.102 137.951 141.416 142.076 141.52 147.277C141.624 152.479 137.478 156.773 132.276 156.852ZM131.654 138.473C126.7 138.736 122.896 142.961 123.15 147.915C123.404 152.869 127.621 156.682 132.576 156.437C137.544 156.192 141.369 151.961 141.115 146.993C140.86 142.025 136.621 138.208 131.654 138.473Z" fill="black"/>
<path d="M132.576 156.437C127.621 156.682 123.404 152.869 123.15 147.915C122.896 142.961 126.7 138.736 131.654 138.472C136.621 138.208 140.86 142.025 141.114 146.993C141.369 151.96 137.544 156.192 132.576 156.437ZM137.204 142.228C136.692 142.994 135.85 145.4 135.475 146.4C134.733 148.342 134.005 150.29 133.291 152.243L128.003 149.442C127.481 149.162 124.99 147.65 124.576 147.741C124.62 148 124.572 147.877 124.787 148.083C127.634 149.718 130.527 151.272 133.463 152.744C134.271 150.724 135.033 148.638 135.834 146.605C136.228 145.602 137.175 143.267 137.388 142.37L137.204 142.228ZM137.081 144.921C136.037 147.588 134.721 150.835 133.862 153.532C132.94 152.992 124.828 148.509 124.219 148.597L124.144 148.714C124.283 148.896 124.218 148.844 124.41 148.961C127.633 150.617 130.839 152.305 134.028 154.026C135.19 151.302 136.109 148.3 137.24 145.547C137.339 145.306 137.292 145.238 137.225 145.017L137.081 144.921Z" fill="#51D083"/>
<path d="M151.869 155.526L195.717 141.146V148.86C193.662 149.41 191.278 150.258 189.217 150.936L177.73 154.723L168.573 157.692C166.537 158.344 164.295 159.002 162.327 159.785C162.672 161.134 163.354 163.51 163.831 164.811C166.557 164.182 170.92 162.607 173.653 161.727L187.563 157.279C190.324 156.392 192.929 155.495 195.717 154.662V185H160.788C159.856 181.396 158.514 177.336 157.419 173.729C155.6 167.652 153.75 161.584 151.869 155.526Z" fill="#FEFEFE"/>
<path d="M133.291 152.242C134.005 150.29 134.734 148.342 135.475 146.4C135.85 145.4 136.692 142.994 137.204 142.228L137.388 142.37C137.176 143.267 136.228 145.602 135.834 146.605C135.033 148.637 134.271 150.724 133.463 152.744C130.527 151.272 127.634 149.718 124.787 148.083C124.572 147.877 124.62 147.999 124.576 147.741C124.99 147.65 127.481 149.162 128.003 149.442L133.291 152.242Z" fill="black"/>
<path d="M133.862 153.531C134.721 150.834 136.037 147.588 137.081 144.92L137.225 145.017C137.292 145.238 137.339 145.305 137.24 145.547C136.109 148.299 135.19 151.302 134.028 154.026C130.839 152.305 127.633 150.616 124.41 148.961C124.218 148.844 124.283 148.895 124.144 148.714L124.219 148.597C124.828 148.509 132.94 152.991 133.862 153.531Z" fill="black"/>
<path d="M162.327 159.785C164.295 159.002 166.537 158.344 168.573 157.692L177.73 154.723L189.217 150.936C191.278 150.258 193.662 149.41 195.717 148.86V149.258L174.213 156.31L167.729 158.427C166.152 158.933 164.348 159.463 162.823 160.075C163.201 161.247 163.744 163.265 164.159 164.302C171.481 162.03 178.787 159.702 186.074 157.32C189.301 156.28 192.462 155.209 195.717 154.239V154.662C192.929 155.495 190.324 156.392 187.563 157.279L173.653 161.727C170.92 162.607 166.557 164.182 163.831 164.811C163.354 163.51 162.672 161.134 162.327 159.785Z" fill="black"/>
<path d="M162.823 160.075C164.348 159.464 166.152 158.933 167.729 158.427L174.213 156.31L195.717 149.258V154.239C192.462 155.209 189.301 156.28 186.074 157.32C178.787 159.702 171.481 162.03 164.159 164.303C163.744 163.265 163.201 161.247 162.823 160.075Z" fill="#FEAF36"/>
<path d="M0.405181 156.063C3.17531 154.017 8.3476 153.128 11.6882 152.796C16.2125 152.44 24.9259 153.383 28.4751 156.169C25.7654 157.222 20.0984 158.291 17.1759 158.355C12.0996 158.578 5.11956 158.182 0.405181 156.063Z" fill="#265BA4"/>
<path d="M54.8229 156.074C58.1705 153.976 62.2437 153.494 66.0932 153.197C66.1212 153.193 66.1493 153.19 66.1773 153.186C71.1746 152.988 76.7086 153.576 81.3546 155.508C81.574 155.6 82.2083 156.113 82.4036 156.27C79.8444 157.737 74.2946 158.276 71.3567 158.535C66.4917 158.701 59.1898 158.312 54.8229 156.074Z" fill="#265BA4"/>
<path d="M125.096 185C123.132 179.255 121.599 173.284 119.738 167.5C119.501 166.761 119.283 166 119.072 165.254C122.933 164.016 127.125 162.891 131.037 161.778C137.86 159.867 144.651 157.839 151.405 155.695C152.175 157.778 152.847 160.01 153.467 162.148C155.679 169.779 158.183 177.357 160.34 185H125.096ZM137.38 161.5C131.196 162.043 126.612 167.481 127.124 173.668C127.636 179.855 133.051 184.465 139.24 183.984C145.473 183.499 150.124 178.038 149.608 171.808C149.093 165.577 143.608 160.954 137.38 161.5Z" fill="#FEFEFE"/>
<path d="M25.4888 161.24C24.0347 162.899 22.1937 164.173 20.1291 164.95C12.2352 167.989 3.53745 164.548 0.516998 156.518C9.40302 159.722 19.2303 159.431 28.2041 156.725C27.6906 158.332 26.6051 159.984 25.4888 161.24Z" fill="#FA651F"/>
<path d="M79.9053 161.096C78.2232 162.932 76.1155 164.325 73.7675 165.154C66.4246 167.786 57.4284 164.002 54.8213 156.52C56.2005 156.954 56.8786 157.373 58.5407 157.77C65.6717 159.474 75.6706 159.463 82.523 156.694C82.045 158.517 81.1076 159.694 79.9053 161.096Z" fill="#FA651F"/>
<path d="M139.24 183.984C133.051 184.465 127.636 179.855 127.124 173.668C126.612 167.481 131.196 162.043 137.38 161.5C143.608 160.954 149.093 165.577 149.608 171.807C150.124 178.038 145.473 183.499 139.24 183.984ZM137.94 161.88C131.96 162.117 127.302 167.152 127.529 173.132C127.757 179.113 132.784 183.78 138.764 183.563C144.759 183.345 149.44 178.303 149.212 172.308C148.984 166.313 143.934 161.641 137.94 161.88Z" fill="black"/>
<path d="M138.764 183.562C132.784 183.78 127.757 179.113 127.529 173.132C127.302 167.152 131.96 162.117 137.94 161.88C143.934 161.641 148.984 166.313 149.212 172.308C149.44 178.303 144.759 183.345 138.764 183.562ZM137.435 163.91C132.595 164.418 129.082 168.754 129.588 173.594C130.095 178.435 134.428 181.949 139.269 181.446C144.114 180.941 147.632 176.605 147.125 171.76C146.618 166.916 142.279 163.4 137.435 163.91Z" fill="#FEAF36"/>
<path d="M139.269 181.446C134.428 181.949 130.095 178.435 129.588 173.594C129.082 168.754 132.595 164.418 137.435 163.91C142.279 163.4 146.618 166.916 147.125 171.76C147.632 176.605 144.114 180.941 139.269 181.446ZM137.175 164.338C132.599 164.998 129.414 169.228 130.045 173.808C130.677 178.389 134.888 181.6 139.472 180.997C144.096 180.388 147.342 176.132 146.705 171.512C146.068 166.891 141.791 163.672 137.175 164.338Z" fill="black"/>
<path d="M139.472 180.997C134.888 181.6 130.677 178.389 130.045 173.809C129.414 169.229 132.599 164.998 137.175 164.338C141.791 163.672 146.068 166.891 146.705 171.512C147.342 176.132 144.096 180.388 139.472 180.997ZM139.918 176.835C140.594 175.515 141.322 173.114 141.951 171.556C142.27 170.742 142.62 169.891 142.894 169.066L142.796 168.933C141.964 169.592 140.215 175.076 139.792 176.314C137.16 174.813 134.117 173.122 131.573 171.498C131.42 171.837 131.264 172.2 131.096 172.53C134.015 174.486 137.188 176.17 140.245 178.227C140.865 177.21 142.434 172.944 142.401 171.844C141.851 172.347 140.711 176.424 140.09 177.686C138.365 176.285 132.527 173.326 131.627 172.279L131.663 172.263C132.535 172.375 138.544 176.081 139.918 176.835Z" fill="#51D083"/>
<path d="M34.4424 171.623C35.1094 168.044 36.8935 166.438 40.4254 165.672C44.5491 165.261 47.6966 167.656 48.4485 171.707C46.5097 171.664 44.5706 171.639 42.6314 171.633L34.4424 171.623Z" fill="#FA651F"/>
<path d="M141.951 171.556C141.322 173.114 140.594 175.515 139.918 176.834C138.544 176.081 132.535 172.375 131.663 172.263L131.627 172.279C132.527 173.326 138.365 176.284 140.09 177.686C140.711 176.424 141.851 172.346 142.401 171.844C142.434 172.944 140.865 177.21 140.246 178.227C137.188 176.17 134.015 174.486 131.096 172.53C131.264 172.199 131.42 171.837 131.573 171.498C134.117 173.122 137.16 174.813 139.792 176.314C140.215 175.076 141.964 169.592 142.796 168.933L142.894 169.066C142.62 169.891 142.27 170.742 141.951 171.556Z" fill="black"/>
<path d="M31.1982 174.709C31.7477 173.36 32.0709 172.856 33.3004 172.136C34.4398 172.028 37.2713 172.121 38.5086 172.126C42.1539 172.153 45.7992 172.154 49.4445 172.13C50.5933 172.885 50.9814 173.45 51.6387 174.588C50.8997 174.615 50.0895 174.602 49.3448 174.606C43.6175 174.608 36.8189 174.449 31.1982 174.709Z" fill="#FA651F"/>
</svg>
