<svg width="216" height="200" viewBox="0 0 216 200" fill="none" xmlns="http://www.w3.org/2000/svg">
<mask id="mask0_2_1144" style="mask-type:alpha" maskUnits="userSpaceOnUse" x="0" y="0" width="200" height="200">
<rect width="200" height="200" rx="10" fill="white"/>
<rect x="0.5" y="0.5" width="199" height="199" rx="9.5" stroke="#1C2833" stroke-opacity="0.2"/>
</mask>
<g mask="url(#mask0_2_1144)">
<path d="M0 0H400V200H0V0Z" fill="#000066"/>
<path fill-rule="evenodd" clip-rule="evenodd" d="M0 0H200V100H0V0Z" fill="#000066"/>
<path d="M0 0V11.1719L177.656 100H200V88.8281L22.3438 0H0ZM200 0V11.1719L22.3438 100H0V88.8281L177.656 0H200Z" fill="white"/>
<path d="M83.3203 0V100H116.68V0H83.3203ZM0 33.3203V66.6797H200V33.3203H0Z" fill="white"/>
<path d="M0 40V60H200V40H0ZM90 0V100H110V0H90ZM0 100L66.6797 66.6797H81.5625L14.9219 100H0ZM0 0L66.6797 33.3203H51.7578L0 7.46094V0ZM118.438 33.3203L185.078 0H200L133.32 33.3203H118.438ZM200 100L133.32 66.6797H148.242L200 92.5391V100Z" fill="#CC0000"/>
<path fill-rule="evenodd" clip-rule="evenodd" d="M100.157 75.625L183.633 75.3125L183.477 149.648C183.477 149.648 186.407 160.977 148.477 178.164C162.11 176.758 176.992 162.188 176.992 162.188C176.992 162.188 183.008 154.453 185.977 158.789C188.907 163.125 191.68 165.273 193.828 166.992C196.016 168.711 197.735 173.359 194.453 176.758C191.172 180.156 186.094 180.625 184.688 176.445C182.539 177.539 169.219 193.633 141.953 194.414C114.219 193.945 99.0628 176.289 99.0628 176.289C99.0628 176.289 95.3518 182.148 90.0784 177.539C85.0003 171.484 88.8675 167.617 88.8675 167.617C88.8675 167.617 93.1643 165.156 94.4143 163.438C96.4456 161.094 97.0706 158.008 100.469 158.008C104.492 158.32 106.055 161.563 106.055 161.563C106.055 161.563 119.961 176.289 135 178.164C101.094 161.875 99.844 151.836 100 149.336L100.157 75.625Z" fill="white"/>
<path fill-rule="evenodd" clip-rule="evenodd" d="M102.148 77.6562L181.758 77.1875V148.711C181.914 158.008 166.289 167.461 141.797 179.57C116.562 166.523 101.992 158.633 101.836 148.555L102.187 77.6562H102.148Z" fill="#006129" stroke="black" stroke-width="1.7"/>
<path d="M111.719 156.484L116.406 149.57L121.172 156.484" stroke="#F7C600" stroke-width="1.7"/>
<path fill-rule="evenodd" clip-rule="evenodd" d="M117.383 153.906C117.383 154.154 117.284 154.393 117.108 154.569C116.932 154.744 116.694 154.843 116.445 154.843C116.197 154.843 115.958 154.744 115.782 154.569C115.607 154.393 115.508 154.154 115.508 153.906C115.508 153.657 115.607 153.419 115.782 153.243C115.958 153.067 116.197 152.968 116.445 152.968C116.694 152.968 116.932 153.067 117.108 153.243C117.284 153.419 117.383 153.657 117.383 153.906Z" fill="#F7C600" stroke="black" stroke-width="0.8"/>
<path fill-rule="evenodd" clip-rule="evenodd" d="M112.617 161.562H119.883C119.883 161.562 120.039 160.664 119.141 160.078C122.969 159.57 121.953 156.171 125.156 156.015C125.781 156.093 123.477 157.421 123.477 157.421C123.477 157.421 121.563 158.789 122.461 159.492C123.125 160.039 123.438 159.14 123.555 158.476C123.633 157.812 126.641 157.382 126.211 155.468C125.508 153.906 121.289 156.523 121.289 156.523H118.36C118.164 156.132 117.344 154.804 116.485 154.804C115.469 154.843 114.766 156.523 114.766 156.523H107.969C107.969 156.523 107.735 158.242 111.172 158.593C111.675 159.324 112.401 159.873 113.242 160.156C112.774 160.546 112.656 160.937 112.656 161.562H112.617Z" fill="#F7C600" stroke="black" stroke-width="0.8"/>
<path d="M113.125 160.078H119.219M110.352 156.523C110.352 156.523 110.859 159.335 113.086 160.039" stroke="black" stroke-width="0.8"/>
<path fill-rule="evenodd" clip-rule="evenodd" d="M109.969 156.473C110.221 155.416 110.623 155.215 111.076 153.856C111.127 152.497 109.969 152.648 110.321 151.793C110.925 150.837 110.623 149.981 109.516 149.276C109.718 150.484 108.006 151.642 108.006 152.648C108.006 153.655 108.912 153.454 108.812 154.963C108.812 155.869 108.56 155.618 108.51 156.473H110.019H109.969Z" fill="url(#paint0_linear_2_1144)" stroke="black" stroke-width="0.77304"/>
<path fill-rule="evenodd" clip-rule="evenodd" d="M117.305 149.765C117.305 149.993 117.214 150.212 117.053 150.373C116.892 150.534 116.673 150.625 116.445 150.625C116.217 150.625 115.999 150.534 115.838 150.373C115.676 150.212 115.586 149.993 115.586 149.765C115.586 149.537 115.676 149.319 115.838 149.157C115.999 148.996 116.217 148.906 116.445 148.906C116.673 148.906 116.892 148.996 117.053 149.157C117.214 149.319 117.305 149.537 117.305 149.765Z" fill="#F7C600" stroke="black" stroke-width="0.8"/>
<path d="M111.484 142.266L116.172 135.391L120.859 142.266" stroke="#F7C600" stroke-width="1.7"/>
<path fill-rule="evenodd" clip-rule="evenodd" d="M117.11 139.687C117.11 139.936 117.011 140.174 116.835 140.35C116.659 140.526 116.421 140.625 116.172 140.625C115.923 140.625 115.685 140.526 115.509 140.35C115.333 140.174 115.235 139.936 115.235 139.687C115.235 139.438 115.333 139.2 115.509 139.024C115.685 138.848 115.923 138.75 116.172 138.75C116.421 138.75 116.659 138.848 116.835 139.024C117.011 139.2 117.11 139.438 117.11 139.687Z" fill="#F7C600" stroke="black" stroke-width="0.8"/>
<path fill-rule="evenodd" clip-rule="evenodd" d="M112.344 147.383H119.649C119.649 147.383 119.766 146.445 118.867 145.859C122.696 145.352 121.68 141.953 124.883 141.797C125.508 141.875 123.242 143.242 123.242 143.242C123.242 143.242 121.289 144.57 122.188 145.273C122.891 145.82 123.164 144.922 123.281 144.258C123.36 143.594 126.406 143.164 125.938 141.25C125.235 139.688 121.016 142.305 121.016 142.305H118.047C117.852 141.953 117.031 140.625 116.172 140.625C115.156 140.625 114.453 142.305 114.453 142.305H107.696C107.696 142.305 107.461 144.063 110.899 144.375C111.391 145.099 112.103 145.647 112.93 145.938C112.461 146.328 112.344 146.758 112.344 147.383Z" fill="#F7C600" stroke="black" stroke-width="0.8"/>
<path d="M112.891 145.898H118.945M110.117 142.304C110.117 142.304 110.586 145.156 112.852 145.82" stroke="black" stroke-width="0.8"/>
<path fill-rule="evenodd" clip-rule="evenodd" d="M109.696 142.255C109.947 141.198 110.35 140.996 110.803 139.637C110.853 138.279 109.696 138.43 110.048 137.574C110.652 136.618 110.35 135.762 109.243 135.058C109.444 136.265 107.733 137.423 107.733 138.43C107.733 139.436 108.639 139.235 108.538 140.745C108.538 141.651 108.287 141.399 108.236 142.255H109.746H109.696Z" fill="url(#paint1_linear_2_1144)" stroke="black" stroke-width="0.77304"/>
<path fill-rule="evenodd" clip-rule="evenodd" d="M117.031 135.546C117.031 135.774 116.941 135.993 116.78 136.154C116.618 136.315 116.4 136.406 116.172 136.406C115.944 136.406 115.725 136.315 115.564 136.154C115.403 135.993 115.313 135.774 115.312 135.546C115.313 135.318 115.403 135.1 115.564 134.939C115.725 134.778 115.944 134.687 116.172 134.687C116.4 134.687 116.618 134.778 116.78 134.939C116.941 135.1 117.031 135.318 117.031 135.546Z" fill="#F7C600" stroke="black" stroke-width="0.8"/>
<path d="M161.367 129.375L166.055 122.461L170.82 129.375" stroke="#F7C600" stroke-width="1.7"/>
<path fill-rule="evenodd" clip-rule="evenodd" d="M167.032 126.797C167.032 127.046 166.933 127.284 166.757 127.46C166.581 127.636 166.343 127.734 166.094 127.734C165.845 127.734 165.607 127.636 165.431 127.46C165.255 127.284 165.156 127.046 165.156 126.797C165.156 126.548 165.255 126.31 165.431 126.134C165.607 125.958 165.845 125.859 166.094 125.859C166.343 125.859 166.581 125.958 166.757 126.134C166.933 126.31 167.032 126.548 167.032 126.797Z" fill="#F7C600" stroke="black" stroke-width="0.8"/>
<path fill-rule="evenodd" clip-rule="evenodd" d="M162.266 134.453H169.531C169.531 134.453 169.648 133.555 168.789 132.969C172.617 132.422 171.602 129.063 174.805 128.867C175.43 128.984 173.125 130.313 173.125 130.313C173.125 130.313 171.211 131.68 172.109 132.383C172.773 132.93 173.086 131.992 173.203 131.367C173.281 130.703 176.289 130.273 175.859 128.359C175.156 126.797 170.937 129.414 170.937 129.414H167.969C167.773 129.023 166.953 127.695 166.094 127.695C165.078 127.734 164.375 129.414 164.375 129.414H157.578C157.578 129.414 157.344 131.133 160.781 131.484C161.284 132.215 162.011 132.764 162.852 133.047C162.383 133.438 162.266 133.828 162.266 134.453Z" fill="#F7C600" stroke="black" stroke-width="0.8"/>
<path d="M162.813 132.969H168.867M160 129.414C160 129.414 160.508 132.227 162.735 132.93" stroke="black" stroke-width="0.8"/>
<path fill-rule="evenodd" clip-rule="evenodd" d="M159.618 129.364C159.869 128.307 160.272 128.106 160.725 126.747C160.775 125.388 159.618 125.539 159.97 124.683C160.574 123.727 160.272 122.872 159.165 122.167C159.366 123.375 157.655 124.532 157.655 125.539C157.655 126.546 158.561 126.344 158.46 127.854C158.46 128.76 158.208 128.508 158.158 129.364H159.668H159.618Z" fill="url(#paint2_linear_2_1144)" stroke="black" stroke-width="0.77304"/>
<path fill-rule="evenodd" clip-rule="evenodd" d="M166.953 122.656C166.953 122.769 166.931 122.881 166.888 122.985C166.845 123.089 166.781 123.184 166.701 123.264C166.622 123.344 166.527 123.407 166.423 123.45C166.318 123.493 166.207 123.516 166.094 123.516C165.981 123.516 165.869 123.493 165.765 123.45C165.661 123.407 165.566 123.344 165.486 123.264C165.406 123.184 165.343 123.089 165.3 122.985C165.257 122.881 165.234 122.769 165.234 122.656C165.234 122.428 165.325 122.21 165.486 122.049C165.647 121.887 165.866 121.797 166.094 121.797C166.322 121.797 166.54 121.887 166.701 122.049C166.863 122.21 166.953 122.428 166.953 122.656Z" fill="#F7C600" stroke="black" stroke-width="0.8"/>
<path d="M112.617 115.546L117.305 108.671L122.07 115.585" stroke="#F7C600" stroke-width="1.7"/>
<path fill-rule="evenodd" clip-rule="evenodd" d="M118.281 112.969C118.281 113.217 118.182 113.456 118.007 113.632C117.831 113.807 117.592 113.906 117.344 113.906C117.095 113.906 116.857 113.807 116.681 113.632C116.505 113.456 116.406 113.217 116.406 112.969C116.406 112.72 116.505 112.482 116.681 112.306C116.857 112.13 117.095 112.031 117.344 112.031C117.592 112.031 117.831 112.13 118.007 112.306C118.182 112.482 118.281 112.72 118.281 112.969Z" fill="#F7C600" stroke="black" stroke-width="0.8"/>
<path fill-rule="evenodd" clip-rule="evenodd" d="M113.516 120.664H120.781C120.781 120.664 120.938 119.727 120.039 119.141C123.867 118.633 122.852 115.234 126.055 115.078C126.68 115.156 124.375 116.523 124.375 116.523C124.375 116.523 122.461 117.852 123.36 118.555C124.024 119.102 124.336 118.242 124.453 117.539C124.531 116.875 127.539 116.445 127.11 114.531C126.406 112.969 122.188 115.586 122.188 115.586H119.219C119.024 115.234 118.203 113.906 117.344 113.906C116.328 113.906 115.625 115.586 115.625 115.586H108.828C108.828 115.586 108.594 117.344 112.031 117.656C112.534 118.387 113.261 118.936 114.102 119.219C113.633 119.609 113.516 120.039 113.516 120.664Z" fill="#F7C600" stroke="black" stroke-width="0.8"/>
<path d="M114.063 119.141H120.117M111.25 115.625C111.25 115.625 111.758 118.438 113.984 119.141" stroke="black" stroke-width="0.8"/>
<path fill-rule="evenodd" clip-rule="evenodd" d="M110.868 115.536C111.119 114.479 111.522 114.278 111.975 112.919C112.025 111.56 110.868 111.711 111.22 110.855C111.824 109.899 111.522 109.043 110.415 108.339C110.616 109.547 108.905 110.704 108.905 111.711C108.905 112.717 109.811 112.516 109.71 114.026C109.71 114.932 109.459 114.68 109.408 115.536H110.918H110.868Z" fill="url(#paint3_linear_2_1144)" stroke="black" stroke-width="0.77304"/>
<path fill-rule="evenodd" clip-rule="evenodd" d="M118.203 108.828C118.203 109.056 118.113 109.275 117.951 109.436C117.79 109.597 117.572 109.687 117.344 109.687C117.116 109.687 116.897 109.597 116.736 109.436C116.575 109.275 116.484 109.056 116.484 108.828C116.484 108.6 116.575 108.382 116.736 108.22C116.897 108.059 117.116 107.969 117.344 107.969C117.572 107.969 117.79 108.059 117.951 108.22C118.113 108.382 118.203 108.6 118.203 108.828Z" fill="#F7C600" stroke="black" stroke-width="0.8"/>
<path d="M112.735 101.953L117.422 95.0781L122.149 101.992" stroke="#F7C600" stroke-width="1.7"/>
<path fill-rule="evenodd" clip-rule="evenodd" d="M118.36 99.4141C118.388 99.5504 118.385 99.6914 118.352 99.8267C118.319 99.962 118.257 100.088 118.169 100.196C118.081 100.304 117.97 100.391 117.844 100.451C117.718 100.511 117.581 100.542 117.442 100.542C117.302 100.542 117.165 100.511 117.039 100.451C116.913 100.391 116.802 100.304 116.715 100.196C116.627 100.088 116.564 99.962 116.531 99.8267C116.498 99.6914 116.495 99.5504 116.524 99.4141C116.524 99.1654 116.622 98.927 116.798 98.7511C116.974 98.5753 117.213 98.4766 117.461 98.4766C117.71 98.4766 117.948 98.5753 118.124 98.7511C118.3 98.927 118.399 99.1654 118.399 99.4141H118.36Z" fill="#F7C600" stroke="black" stroke-width="0.8"/>
<path fill-rule="evenodd" clip-rule="evenodd" d="M113.633 107.07H120.898C120.898 107.07 121.016 106.172 120.117 105.586C123.945 105.078 122.969 101.68 126.172 101.523C126.797 101.602 124.492 102.93 124.492 102.93C124.492 102.93 122.539 104.297 123.437 105C124.141 105.547 124.453 104.648 124.531 103.984C124.648 103.32 127.656 102.891 127.227 100.977C126.484 99.4141 122.305 102.031 122.305 102.031H119.297C119.141 101.641 118.281 100.352 117.461 100.312C116.445 100.352 115.742 102.031 115.742 102.031H108.945C108.945 102.031 108.711 103.75 112.148 104.102C112.641 104.826 113.353 105.374 114.18 105.664C113.75 106.055 113.633 106.445 113.633 107.07Z" fill="#F7C600" stroke="black" stroke-width="0.8"/>
<path d="M114.141 105.625L120.235 105.585M111.367 102.031C111.367 102.031 111.836 104.882 114.102 105.546" stroke="black" stroke-width="0.8"/>
<path fill-rule="evenodd" clip-rule="evenodd" d="M110.985 101.981C111.236 100.924 111.639 100.722 112.092 99.3636C112.142 98.0047 110.985 98.1557 111.337 97.3001C111.941 96.3439 111.639 95.4883 110.532 94.7837C110.733 95.9916 109.022 97.1491 109.022 98.1557C109.022 99.1622 109.928 98.9609 109.827 100.471C109.827 101.377 109.576 101.125 109.525 101.981H111.035H110.985Z" fill="url(#paint4_linear_2_1144)" stroke="black" stroke-width="0.77304"/>
<path fill-rule="evenodd" clip-rule="evenodd" d="M118.32 95.2729C118.32 95.3858 118.298 95.4976 118.255 95.6018C118.212 95.7061 118.148 95.8008 118.069 95.8806C117.989 95.9604 117.894 96.0237 117.79 96.0669C117.686 96.1101 117.574 96.1323 117.461 96.1323C117.348 96.1323 117.236 96.1101 117.132 96.0669C117.028 96.0237 116.933 95.9604 116.853 95.8806C116.773 95.8008 116.71 95.7061 116.667 95.6018C116.624 95.4976 116.602 95.3858 116.602 95.2729C116.602 95.045 116.692 94.8264 116.853 94.6653C117.014 94.5041 117.233 94.4136 117.461 94.4136C117.689 94.4136 117.907 94.5041 118.069 94.6653C118.23 94.8264 118.32 95.045 118.32 95.2729Z" fill="#F7C600" stroke="black" stroke-width="0.8"/>
<path d="M113.008 88.2026L117.695 81.3276L122.383 88.2417" stroke="#F7C600" stroke-width="1.7"/>
<path fill-rule="evenodd" clip-rule="evenodd" d="M118.633 85.625C118.633 85.8736 118.534 86.1121 118.358 86.2879C118.183 86.4637 117.944 86.5625 117.696 86.5625C117.447 86.5625 117.208 86.4637 117.033 86.2879C116.857 86.1121 116.758 85.8736 116.758 85.625C116.758 85.3764 116.857 85.1379 117.033 84.9621C117.208 84.7863 117.447 84.6875 117.696 84.6875C117.944 84.6875 118.183 84.7863 118.358 84.9621C118.534 85.1379 118.633 85.3764 118.633 85.625Z" fill="#F7C600" stroke="black" stroke-width="0.8"/>
<path fill-rule="evenodd" clip-rule="evenodd" d="M113.867 93.3203H121.172C121.172 93.3203 121.289 92.3828 120.391 91.7969C124.219 91.2891 123.242 87.8906 126.406 87.7344C127.031 87.8516 124.766 89.1797 124.766 89.1797C124.766 89.1797 122.812 90.5078 123.711 91.2109C124.414 91.7578 124.727 90.8984 124.805 90.2344C124.883 89.5703 127.93 89.1406 127.461 87.2266C126.758 85.6641 122.539 88.2812 122.539 88.2812H119.57C119.375 87.8906 118.555 86.5625 117.695 86.5625C116.68 86.5625 115.977 88.2812 115.977 88.2812H109.219C109.219 88.2812 108.984 90 112.422 90.3516C112.915 91.076 113.626 91.6235 114.453 91.9141C114.023 92.2656 113.867 92.6953 113.867 93.3203Z" fill="#F7C600" stroke="black" stroke-width="0.8"/>
<path d="M114.414 91.8359H120.469M111.641 88.2422C111.641 88.2422 112.11 91.0937 114.375 91.7578" stroke="black" stroke-width="0.8"/>
<path fill-rule="evenodd" clip-rule="evenodd" d="M111.258 88.192C111.51 87.1352 111.912 86.9338 112.365 85.575C112.416 84.2161 111.258 84.3671 111.611 83.5115C112.214 82.5553 111.912 81.6997 110.805 80.9951C111.007 82.203 109.295 83.3605 109.295 84.3671C109.295 85.3737 110.201 85.1724 110.101 86.6822C110.101 87.5881 109.849 87.3365 109.799 88.192H111.309H111.258Z" fill="url(#paint5_linear_2_1144)" stroke="black" stroke-width="0.77304"/>
<path fill-rule="evenodd" clip-rule="evenodd" d="M118.555 81.4844C118.555 81.5972 118.532 81.709 118.489 81.8132C118.446 81.9175 118.383 82.0122 118.303 82.092C118.223 82.1718 118.128 82.2351 118.024 82.2783C117.92 82.3215 117.808 82.3438 117.695 82.3438C117.582 82.3438 117.471 82.3215 117.366 82.2783C117.262 82.2351 117.167 82.1718 117.088 82.092C117.008 82.0122 116.945 81.9175 116.901 81.8132C116.858 81.709 116.836 81.5972 116.836 81.4844C116.836 81.2565 116.926 81.0379 117.088 80.8767C117.249 80.7155 117.467 80.625 117.695 80.625C117.923 80.625 118.142 80.7155 118.303 80.8767C118.464 81.0379 118.555 81.2565 118.555 81.4844Z" fill="#F7C600" stroke="black" stroke-width="0.8"/>
<path d="M161.758 88.4375L166.446 81.5234L171.172 88.4766" stroke="#F7C600" stroke-width="1.7"/>
<path fill-rule="evenodd" clip-rule="evenodd" d="M167.383 85.8589C167.411 85.9953 167.409 86.1363 167.376 86.2716C167.343 86.4069 167.28 86.5331 167.192 86.6411C167.104 86.7491 166.993 86.8362 166.867 86.896C166.742 86.9558 166.604 86.9868 166.465 86.9868C166.326 86.9868 166.188 86.9558 166.062 86.896C165.937 86.8362 165.826 86.7491 165.738 86.6411C165.65 86.5331 165.587 86.4069 165.554 86.2716C165.521 86.1363 165.519 85.9953 165.547 85.8589C165.591 85.6479 165.706 85.4583 165.873 85.3222C166.04 85.1861 166.249 85.1118 166.465 85.1118C166.68 85.1118 166.889 85.1861 167.057 85.3222C167.224 85.4583 167.339 85.6479 167.383 85.8589Z" fill="#F7C600" stroke="black" stroke-width="0.8"/>
<path fill-rule="evenodd" clip-rule="evenodd" d="M162.656 93.5542H169.922C169.922 93.5542 170.039 92.6167 169.141 92.0308C172.969 91.523 171.992 88.1245 175.195 87.9683C175.82 88.0464 173.516 89.3745 173.516 89.3745C173.516 89.3745 171.562 90.7417 172.461 91.4448C173.164 91.9917 173.477 91.0933 173.555 90.4292C173.672 89.7651 176.68 89.3355 176.25 87.4214C175.508 85.8589 171.328 88.4761 171.328 88.4761H168.32C168.125 88.1245 167.305 86.7964 166.445 86.7964C165.43 86.7964 164.727 88.4761 164.727 88.4761H157.969C157.969 88.4761 157.734 90.2339 161.172 90.5464C161.665 91.2708 162.376 91.8184 163.203 92.1089C162.773 92.4995 162.656 92.9292 162.656 93.5542Z" fill="#F7C600" stroke="black" stroke-width="0.8"/>
<path d="M163.164 92.0698H169.219M160.391 88.4761C160.391 88.4761 160.86 91.3276 163.125 91.9917" stroke="black" stroke-width="0.8"/>
<path fill-rule="evenodd" clip-rule="evenodd" d="M160.008 88.4264C160.26 87.3695 160.662 87.1682 161.115 85.8094C161.166 84.4505 160.008 84.6015 160.361 83.7459C160.964 82.7897 160.662 81.9341 159.555 81.2295C159.757 82.4374 158.045 83.5949 158.045 84.6015C158.045 85.608 158.951 85.4067 158.851 86.9166C158.851 87.8225 158.599 87.5708 158.549 88.4264H160.059H160.008Z" fill="url(#paint6_linear_2_1144)" stroke="black" stroke-width="0.77304"/>
<path fill-rule="evenodd" clip-rule="evenodd" d="M167.305 81.7183C167.305 81.9462 167.214 82.1648 167.053 82.3259C166.892 82.4871 166.673 82.5776 166.446 82.5776C166.218 82.5776 165.999 82.4871 165.838 82.3259C165.677 82.1648 165.586 81.9462 165.586 81.7183C165.586 81.4903 165.677 81.2718 165.838 81.1106C165.999 80.9494 166.218 80.8589 166.446 80.8589C166.673 80.8589 166.892 80.9494 167.053 81.1106C167.214 81.2718 167.305 81.4903 167.305 81.7183Z" fill="#F7C600" stroke="black" stroke-width="0.8"/>
<path d="M161.328 101.953L166.016 95.0391L170.703 101.953" stroke="#F7C600" stroke-width="1.7"/>
<path fill-rule="evenodd" clip-rule="evenodd" d="M166.953 99.3745C166.953 99.6231 166.855 99.8616 166.679 100.037C166.503 100.213 166.265 100.312 166.016 100.312C165.767 100.312 165.529 100.213 165.353 100.037C165.177 99.8616 165.078 99.6231 165.078 99.3745C165.078 99.1259 165.177 98.8874 165.353 98.7116C165.529 98.5358 165.767 98.437 166.016 98.437C166.265 98.437 166.503 98.5358 166.679 98.7116C166.855 98.8874 166.953 99.1259 166.953 99.3745Z" fill="#F7C600" stroke="black" stroke-width="0.8"/>
<path fill-rule="evenodd" clip-rule="evenodd" d="M162.188 107.031L169.492 107.07C169.492 107.07 169.609 106.133 168.711 105.547C172.539 105.039 171.524 101.641 174.727 101.484C175.352 101.563 173.047 102.891 173.047 102.891C173.047 102.891 171.133 104.258 172.031 104.961C172.734 105.508 173.008 104.609 173.125 103.945C173.203 103.281 176.25 102.852 175.781 100.938C175.078 99.375 170.859 101.992 170.859 101.992H167.891C167.695 101.641 166.875 100.312 166.016 100.312C165 100.312 164.297 101.992 164.297 101.992H157.5C157.5 101.992 157.305 103.75 160.742 104.063C161.235 104.787 161.947 105.334 162.774 105.625C162.305 106.016 162.188 106.445 162.188 107.07V107.031Z" fill="#F7C600" stroke="black" stroke-width="0.8"/>
<path d="M162.734 105.585H168.75M159.883 101.992C159.883 101.992 160.391 104.843 162.617 105.507" stroke="black" stroke-width="0.8"/>
<path fill-rule="evenodd" clip-rule="evenodd" d="M159.539 101.942C159.791 100.885 160.194 100.684 160.647 99.325C160.697 97.9661 159.539 98.1171 159.892 97.2615C160.496 96.3053 160.194 95.4497 159.087 94.7451C159.288 95.953 157.577 97.1105 157.577 98.1171C157.577 99.1237 158.483 98.9224 158.382 100.432C158.382 101.338 158.13 101.086 158.08 101.942H159.59H159.539Z" fill="url(#paint7_linear_2_1144)" stroke="black" stroke-width="0.77304"/>
<path fill-rule="evenodd" clip-rule="evenodd" d="M166.875 95.2339C166.875 95.3467 166.853 95.4585 166.81 95.5628C166.767 95.667 166.703 95.7618 166.624 95.8416C166.544 95.9214 166.449 95.9847 166.345 96.0278C166.24 96.071 166.129 96.0933 166.016 96.0933C165.903 96.0933 165.791 96.071 165.687 96.0278C165.583 95.9847 165.488 95.9214 165.408 95.8416C165.328 95.7618 165.265 95.667 165.222 95.5628C165.179 95.4585 165.156 95.3467 165.156 95.2339C165.156 95.006 165.247 94.7874 165.408 94.6262C165.569 94.4651 165.788 94.3745 166.016 94.3745C166.244 94.3745 166.462 94.4651 166.624 94.6262C166.785 94.7874 166.875 95.006 166.875 95.2339Z" fill="#F7C600" stroke="black" stroke-width="0.8"/>
<path d="M160.703 115.781L165.391 108.867L170.117 115.781" stroke="#F7C600" stroke-width="1.7"/>
<path fill-rule="evenodd" clip-rule="evenodd" d="M166.367 113.203C166.367 113.451 166.269 113.69 166.093 113.866C165.917 114.041 165.679 114.14 165.43 114.14C165.181 114.14 164.943 114.041 164.767 113.866C164.591 113.69 164.492 113.451 164.492 113.203C164.492 112.954 164.591 112.716 164.767 112.54C164.943 112.364 165.181 112.265 165.43 112.265C165.679 112.265 165.917 112.364 166.093 112.54C166.269 112.716 166.367 112.954 166.367 113.203Z" fill="#F7C600" stroke="black" stroke-width="0.8"/>
<path fill-rule="evenodd" clip-rule="evenodd" d="M161.602 120.859H168.867C168.867 120.859 168.985 119.961 168.086 119.375C171.914 118.867 170.938 115.469 174.141 115.273C174.766 115.391 172.461 116.719 172.461 116.719C172.461 116.719 170.508 118.086 171.406 118.789C172.11 119.336 172.422 118.437 172.5 117.773C172.617 117.109 175.625 116.68 175.196 114.766C174.492 113.203 170.274 115.82 170.274 115.82H167.266C167.11 115.43 166.25 114.102 165.43 114.102C164.414 114.141 163.711 115.82 163.711 115.82H156.914C156.914 115.82 156.68 117.539 160.117 117.891C160.62 118.622 161.347 119.17 162.188 119.453C161.719 119.844 161.602 120.234 161.602 120.859Z" fill="#F7C600" stroke="black" stroke-width="0.8"/>
<path d="M162.11 119.375H168.203M159.336 115.82C159.336 115.82 159.805 118.632 162.071 119.335" stroke="black" stroke-width="0.8"/>
<path fill-rule="evenodd" clip-rule="evenodd" d="M158.954 115.77C159.205 114.713 159.608 114.512 160.061 113.153C160.111 111.794 158.954 111.945 159.306 111.09C159.91 110.133 159.608 109.278 158.501 108.573C158.702 109.781 156.991 110.939 156.991 111.945C156.991 112.952 157.897 112.75 157.796 114.26C157.796 115.166 157.544 114.915 157.494 115.77H159.004H158.954Z" fill="url(#paint8_linear_2_1144)" stroke="black" stroke-width="0.77304"/>
<path fill-rule="evenodd" clip-rule="evenodd" d="M166.289 109.062C166.289 109.29 166.199 109.509 166.037 109.67C165.876 109.831 165.658 109.921 165.43 109.921C165.202 109.921 164.983 109.831 164.822 109.67C164.661 109.509 164.57 109.29 164.57 109.062C164.57 108.834 164.661 108.616 164.822 108.454C164.983 108.293 165.202 108.203 165.43 108.203C165.658 108.203 165.876 108.293 166.037 108.454C166.199 108.616 166.289 108.834 166.289 109.062Z" fill="#F7C600" stroke="black" stroke-width="0.8"/>
<path d="M161.328 156.641L166.016 149.727L170.703 156.641" stroke="#F7C600" stroke-width="1.3"/>
<path fill-rule="evenodd" clip-rule="evenodd" d="M166.953 154.023C166.953 154.272 166.855 154.51 166.679 154.686C166.503 154.862 166.265 154.96 166.016 154.96C165.767 154.96 165.529 154.862 165.353 154.686C165.177 154.51 165.078 154.272 165.078 154.023C165.078 153.774 165.177 153.536 165.353 153.36C165.529 153.184 165.767 153.085 166.016 153.085C166.265 153.085 166.503 153.184 166.679 153.36C166.855 153.536 166.953 153.774 166.953 154.023Z" fill="#F7C600" stroke="black" stroke-width="0.8"/>
<path fill-rule="evenodd" clip-rule="evenodd" d="M162.188 161.719H169.531C169.531 161.719 169.609 160.781 168.75 160.234C172.578 159.688 171.563 156.328 174.766 156.133C175.391 156.25 173.086 157.578 173.086 157.578C173.086 157.578 171.172 158.945 172.07 159.609C172.734 160.156 173.047 159.297 173.164 158.633C173.242 157.969 176.25 157.539 175.82 155.625C175.117 154.062 170.899 156.68 170.899 156.68L167.93 156.641C167.734 156.289 166.914 154.961 166.055 154.961C165.039 154.961 164.336 156.68 164.336 156.68H157.539C157.539 156.68 157.344 158.398 160.781 158.75C161.274 159.474 161.986 160.022 162.813 160.312C162.344 160.664 162.227 161.094 162.227 161.719H162.188Z" fill="#F7C600" stroke="black" stroke-width="0.8"/>
<path d="M162.734 160.234H168.75M159.883 156.64C159.883 156.64 160.391 159.492 162.617 160.156" stroke="black" stroke-width="0.8"/>
<path fill-rule="evenodd" clip-rule="evenodd" d="M159.57 156.64C159.805 155.546 160.195 155.351 160.664 153.984C160.742 152.617 159.57 152.812 159.883 151.914C160.508 150.976 160.195 150.078 159.102 149.375C159.297 150.625 157.617 151.757 157.617 152.773C157.617 153.789 158.477 153.554 158.398 155.117C158.438 155.976 158.164 155.781 158.086 156.64H159.57Z" fill="url(#paint9_linear_2_1144)" stroke="black" stroke-width="0.8"/>
<path fill-rule="evenodd" clip-rule="evenodd" d="M166.875 149.882C166.875 149.995 166.853 150.107 166.81 150.211C166.767 150.315 166.703 150.41 166.624 150.49C166.544 150.57 166.449 150.633 166.345 150.676C166.24 150.719 166.129 150.742 166.016 150.742C165.903 150.742 165.791 150.719 165.687 150.676C165.583 150.633 165.488 150.57 165.408 150.49C165.328 150.41 165.265 150.315 165.222 150.211C165.179 150.107 165.156 149.995 165.156 149.882C165.156 149.654 165.247 149.436 165.408 149.275C165.569 149.113 165.788 149.023 166.016 149.023C166.244 149.023 166.462 149.113 166.624 149.275C166.785 149.436 166.875 149.654 166.875 149.882Z" fill="#F7C600" stroke="black" stroke-width="0.8"/>
<path d="M161.25 142.968L165.938 136.054L170.625 142.968" stroke="#F7C600" stroke-width="1.7"/>
<path fill-rule="evenodd" clip-rule="evenodd" d="M166.875 140.391C166.875 140.639 166.776 140.878 166.6 141.054C166.425 141.229 166.186 141.328 165.937 141.328C165.689 141.328 165.45 141.229 165.275 141.054C165.099 140.878 165 140.639 165 140.391C165 140.142 165.099 139.904 165.275 139.728C165.45 139.552 165.689 139.453 165.937 139.453C166.186 139.453 166.425 139.552 166.6 139.728C166.776 139.904 166.875 140.142 166.875 140.391Z" fill="#F7C600" stroke="black" stroke-width="0.8"/>
<path fill-rule="evenodd" clip-rule="evenodd" d="M162.11 148.046H169.414C169.414 148.046 169.531 147.109 168.633 146.562C172.461 146.015 171.446 142.656 174.649 142.46C175.274 142.578 173.008 143.906 173.008 143.906C173.008 143.906 171.055 145.273 171.953 145.937C172.656 146.484 172.93 145.625 173.047 144.96C173.125 144.296 176.172 143.867 175.703 141.953C175 140.39 170.781 143.007 170.781 143.007H167.813C167.617 142.617 166.797 141.289 165.938 141.289C164.922 141.328 164.219 143.007 164.219 143.007H157.461C157.461 143.007 157.227 144.726 160.664 145.078C161.157 145.802 161.869 146.35 162.696 146.64C162.227 146.992 162.11 147.421 162.11 148.046Z" fill="#F7C600" stroke="black" stroke-width="0.8"/>
<path d="M162.656 146.563H168.711M159.883 143.008C159.883 143.008 160.352 145.82 162.617 146.523" stroke="black" stroke-width="0.8"/>
<path fill-rule="evenodd" clip-rule="evenodd" d="M159.501 142.958C159.752 141.901 160.155 141.699 160.608 140.341C160.658 138.982 159.501 139.133 159.853 138.277C160.457 137.321 160.155 136.465 159.048 135.761C159.249 136.969 157.538 138.126 157.538 139.133C157.538 140.139 158.444 139.938 158.343 141.448C158.343 142.354 158.091 142.102 158.041 142.958H159.551H159.501Z" fill="url(#paint10_linear_2_1144)" stroke="black" stroke-width="0.77304"/>
<path fill-rule="evenodd" clip-rule="evenodd" d="M166.797 136.211C166.797 136.439 166.707 136.657 166.545 136.819C166.384 136.98 166.166 137.07 165.938 137.07C165.71 137.07 165.491 136.98 165.33 136.819C165.169 136.657 165.078 136.439 165.078 136.211C165.078 135.983 165.169 135.764 165.33 135.603C165.491 135.442 165.71 135.352 165.938 135.352C166.166 135.352 166.384 135.442 166.545 135.603C166.707 135.764 166.797 135.983 166.797 136.211Z" fill="#F7C600" stroke="black" stroke-width="0.8"/>
<path d="M121.523 130.234L126.211 123.359L130.977 130.273" stroke="#F7C600" stroke-width="1.7"/>
<path fill-rule="evenodd" clip-rule="evenodd" d="M127.188 127.656C127.188 127.905 127.089 128.143 126.913 128.319C126.737 128.495 126.499 128.594 126.25 128.594C126.002 128.594 125.763 128.495 125.587 128.319C125.412 128.143 125.313 127.905 125.313 127.656C125.313 127.408 125.412 127.169 125.587 126.993C125.763 126.818 126.002 126.719 126.25 126.719C126.499 126.719 126.737 126.818 126.913 126.993C127.089 127.169 127.188 127.408 127.188 127.656Z" fill="#F7C600" stroke="black" stroke-width="0.8"/>
<path fill-rule="evenodd" clip-rule="evenodd" d="M122.422 135.352H129.687C129.687 135.352 129.805 134.414 128.945 133.867C132.773 133.32 131.758 129.961 134.961 129.766C135.586 129.883 133.281 131.211 133.281 131.211C133.281 131.211 131.367 132.578 132.266 133.242C132.93 133.789 133.242 132.93 133.359 132.266C133.437 131.602 136.445 131.172 136.016 129.258C135.312 127.695 131.094 130.312 131.094 130.312H128.125C127.93 129.922 127.109 128.594 126.25 128.594C125.234 128.594 124.531 130.312 124.531 130.312H117.734C117.734 130.312 117.5 132.031 120.937 132.383C121.44 133.114 122.167 133.662 123.008 133.945C122.539 134.297 122.422 134.727 122.422 135.352Z" fill="#F7C600" stroke="black" stroke-width="0.8"/>
<path d="M122.969 133.867H129.024M120.156 130.273C120.156 130.273 120.664 133.125 122.891 133.789" stroke="black" stroke-width="0.8"/>
<path fill-rule="evenodd" clip-rule="evenodd" d="M119.774 130.224C120.025 129.167 120.428 128.966 120.881 127.607C120.931 126.248 119.774 126.399 120.126 125.543C120.73 124.587 120.428 123.731 119.321 123.027C119.522 124.235 117.811 125.392 117.811 126.399C117.811 127.405 118.717 127.204 118.616 128.714C118.616 129.62 118.365 129.368 118.314 130.224H119.824H119.774Z" fill="url(#paint11_linear_2_1144)" stroke="black" stroke-width="0.77304"/>
<path fill-rule="evenodd" clip-rule="evenodd" d="M127.109 123.516C127.109 123.744 127.019 123.962 126.858 124.123C126.697 124.284 126.478 124.375 126.25 124.375C126.022 124.375 125.803 124.284 125.642 124.123C125.481 123.962 125.391 123.744 125.391 123.516C125.391 123.288 125.481 123.069 125.642 122.908C125.803 122.747 126.022 122.656 126.25 122.656C126.478 122.656 126.697 122.747 126.858 122.908C127.019 123.069 127.109 123.288 127.109 123.516Z" fill="#F7C600" stroke="black" stroke-width="0.8"/>
<path fill-rule="evenodd" clip-rule="evenodd" d="M146.679 163.047C146.679 163.047 148.594 167.422 150.742 164.727C152.89 162.031 152.109 160.898 152.109 160.898L147.265 158.203L145.859 161.211L146.679 163.008V163.047Z" fill="#F7C600" stroke="black" stroke-width="0.8"/>
<path fill-rule="evenodd" clip-rule="evenodd" d="M150.859 162.5C150.859 162.5 151.172 162.5 151.445 162.031C151.718 161.562 150.859 161.367 150.468 160.859L150.078 161.641L150.859 162.461V162.5ZM139.882 161.328L135.586 163.633C135.586 163.633 133.476 164.023 133.32 163.633C133.164 163.242 133.359 162.852 134.492 162.773C135.586 162.734 138.593 160 138.593 160L139.882 161.289V161.328ZM139.922 85.3125L140.078 86.875C140.117 87.3828 139.218 88.4766 139.179 88.4375C139.14 88.3984 138.711 88.4766 138.789 88.8281C138.867 89.1797 139.453 89.2187 139.453 89.2187C139.453 89.2187 139.179 90.3516 139.453 90.3906C139.726 90.4297 138.75 91.8359 139.453 92.1875C140.117 92.5781 141.289 93.0469 141.797 92.9297C142.343 92.8125 141.797 95 141.797 95L140.351 98.125L148.476 97.3437L146.797 94.6094C146.797 94.6094 146.015 94.1016 146.211 92.5391C146.406 91.0156 146.093 84.1016 146.093 84.1016L140.273 83.3203L139.922 85.3125ZM138.437 97.3828C138.437 97.3828 135.781 98.5547 135.898 101.836C135.234 105.039 134.843 108.203 134.843 108.203C134.843 108.203 131.718 111.719 130.781 113.008C129.843 114.258 128.437 116.836 127.89 117.539C127.343 118.242 125.312 120.508 125.351 121.328C125.39 122.188 124.882 125.938 126.914 126.367C127.461 126.562 129.14 122.031 129.14 122.031C129.14 122.031 129.257 120.078 128.672 119.687C128.086 119.297 129.961 118.047 129.961 118.047L134.257 114.844C135.039 114.219 137.226 111.797 137.226 111.797L138.437 97.3437V97.3828Z" fill="#FFC6B5" stroke="black" stroke-width="0.8"/>
<path fill-rule="evenodd" clip-rule="evenodd" d="M141.445 94.8826C141.445 94.8826 142.148 96.7186 143.672 96.4451C145.234 96.0936 146.992 94.6873 146.992 94.6873C146.992 94.6873 148.437 94.6092 148.632 94.8436C148.828 95.0389 152.5 98.5936 152.382 99.6873C152.265 100.781 150.703 100.469 150.117 101.25C149.531 102.031 148.554 103.789 148.828 105.156C149.101 106.523 149.882 108.359 149.804 109.062C149.726 109.765 149.101 109.922 149.101 110.312C149.101 110.703 149.57 111.289 149.57 111.992C149.57 112.695 148.945 113.672 149.062 114.336C149.179 115.039 149.218 117.07 149.218 117.07L149.062 126.367C149.062 126.367 149.57 126.679 149.648 127.187C149.687 127.734 153.242 143.086 153.242 143.086C153.242 143.086 153.086 143.554 152.695 143.476C152.304 143.398 154.14 145.898 154.179 146.601C154.218 147.304 156.015 152.656 155.976 153.398C155.937 154.14 155.664 155.742 155.507 155.82C155.351 155.859 156.679 159.179 156.445 159.726C156.25 160.234 154.101 160.195 154.101 160.195L153.476 160.078C153.476 160.078 153.554 160.781 153.086 160.859C152.617 160.937 149.57 160.664 149.57 160.664C149.57 160.664 148.672 162.031 148.164 161.992C147.617 161.953 146.953 160.976 146.797 161.133C146.64 161.289 147.265 162.187 147.109 162.461C146.953 162.734 144.257 163.32 143.711 162.07C143.203 160.781 144.023 161.094 143.867 160.82C143.711 160.547 142.5 159.883 142.148 160.078C141.797 160.273 143.086 160.625 143.047 161.133C142.968 161.679 141.875 162.461 141.484 162.461C141.093 162.461 140.039 160.508 138.554 160.742C137.07 160.976 136.132 161.289 136.132 161.289C136.132 161.289 134.375 162.07 133.632 161.875C132.89 161.719 132.578 161.133 132.578 160.82C132.578 160.508 133.125 159.14 133.047 158.711C132.968 158.281 132.578 157.89 132.578 157.226C132.864 156.255 133.271 155.323 133.789 154.453L133.75 144.726C133.75 144.726 132.617 144.726 132.578 144.023C132.539 143.32 134.257 128.672 134.531 127.734C134.804 126.758 135.468 123.398 135.468 123.398C135.468 123.398 134.687 123.789 134.648 123.398C134.609 123.008 136.992 114.648 136.992 114.648C136.992 114.648 137.422 110.469 137.422 109.336C137.422 108.203 137.226 106.719 137.226 106.719C137.226 106.719 135.039 105.781 135 104.375C134.804 102.148 137.07 100.898 137.343 100.156L138.398 97.2264C138.398 97.2264 139.57 95.1951 141.445 94.8826Z" fill="white" stroke="black" stroke-width="0.8"/>
<path fill-rule="evenodd" clip-rule="evenodd" d="M140.664 161.953C140.664 161.953 135.547 164.648 134.805 164.843C134.023 165.039 133.594 163.945 134.336 163.75C135.078 163.515 136.211 163.437 136.211 163.437C136.211 163.437 134.492 162.031 134.531 161.992L136.953 161.093C137.031 161.093 137.734 162.46 138.164 162.382C138.594 162.304 140.039 161.21 140.039 161.21L140.664 161.953Z" fill="#F7C600" stroke="black" stroke-width="0.8"/>
<path fill-rule="evenodd" clip-rule="evenodd" d="M147.89 163.398C148.359 164.023 148.554 165.117 149.648 164.492C150.781 163.867 149.101 162.695 149.101 162.695L147.89 163.398Z" fill="#FFC6B5" stroke="black" stroke-width="0.8"/>
<path fill-rule="evenodd" clip-rule="evenodd" d="M149.922 163.281C149.922 163.281 150.429 163.75 150.898 163.281C151.367 162.812 149.961 161.758 149.961 161.758L149.258 162.539L149.883 163.32L149.922 163.281Z" fill="#FFC6B5" stroke="black" stroke-width="0.8"/>
<path d="M148.32 96.9531C148.32 96.9531 143.632 99.9609 143.71 101.016M149.375 97.5L148.281 98.6328M150.781 98.75C150.781 98.75 148.437 100.625 148.828 101.875M139.843 96.6797C139.843 96.6797 139.14 98.0859 139.296 98.5937C139.453 99.0625 140.585 100.859 140.781 101.953C140.937 103.047 140.781 103.867 140.781 103.867M138.593 99.3359C138.593 99.3359 138.828 101.016 139.14 101.289C139.453 101.641 140.312 103.047 140.39 103.633M138.164 106.367C138.164 106.367 139.531 107.031 140.82 104.414M142.89 102.539C142.812 102.539 141.875 105.117 143.554 106.055C145.234 106.992 146.523 106.914 147.265 106.641C148.007 106.406 148.789 105.898 148.789 105.898M142.148 105.703C142.148 105.703 142.226 109.219 147.382 112.617M142.343 108.984C142.343 108.984 142.304 112.031 144.296 113.437M141.289 105.391C141.289 105.391 139.726 109.922 138.554 110.391M140.82 108.711C140.82 108.711 140.781 111.992 140.351 113.164M139.921 113.945C139.921 113.945 140.976 115.273 142.148 115.156C143.32 115.039 143.789 113.672 144.57 113.906C145.351 114.102 146.132 114.727 147.929 114.57M145.312 115.937C145.312 115.937 145.312 118.672 145.781 118.906C146.25 119.141 146.054 121.641 146.054 121.641M138.867 114.688C138.867 114.688 138.828 117.227 138.476 118.125C138.164 119.023 137.539 120.547 137.656 121.875M135.664 123.359C135.898 123.242 136.835 122.461 136.835 122.461M137.265 123.047C137.265 123.047 135 132.734 135.625 138.555M137.812 123.516C137.812 123.516 136.64 130.781 137.187 132.148M137.226 123.281L141.679 123.594M142.304 123.047C142.304 123.047 143.476 123.672 145.195 123.555M141.796 126.562C141.796 126.562 141.601 139.062 141.289 141.797M148.32 129.414C148.32 129.414 149.687 140.352 150.468 141.367M145.664 130.82C145.664 130.82 146.523 140.469 146.992 141.289M133.71 144.687C133.71 144.687 135.312 144.141 136.796 142.578C138.476 144.844 141.093 142.656 141.093 142.656C141.093 142.656 145.078 145.391 146.875 142.344C149.609 144.141 151.015 142.109 151.015 142.109C151.015 142.109 151.992 143.633 152.734 143.477M148.359 144.531C148.359 144.531 150.429 154.18 153.437 156.914M137.734 143.516C137.734 143.516 138.007 151.602 138.515 157.305M137.343 152.617C137.343 152.617 137.109 157.93 136.796 158.281M134.257 158.828C134.257 158.828 134.843 161.094 137.773 158.984C140.664 156.875 140.703 159.766 140.82 160.117C140.898 160.43 141.406 162.695 142.5 160.781M144.843 157.656C144.843 157.656 144.335 162.344 148.515 158.945C152.695 155.508 153.359 158.867 153.476 159.922" stroke="black" stroke-width="0.8"/>
<path fill-rule="evenodd" clip-rule="evenodd" d="M139.765 84.9995C139.765 84.9995 140.937 85.1557 141.562 84.8042C142.187 84.4135 142.929 84.2573 143.476 84.9995C144.023 85.7417 144.374 85.7026 144.374 85.7026C144.374 85.7026 143.593 87.6557 144.374 87.851C145.156 88.0854 145.546 88.0854 145.546 88.3198C145.624 88.5932 144.882 89.1792 145.078 89.4526C145.312 89.687 145.663 90.0385 145.742 90.2338C145.781 90.4292 145.234 91.3276 145.429 91.562C145.585 91.7573 146.054 92.6167 146.367 92.6167C146.679 92.6167 146.484 93.9448 147.421 93.6323C148.359 93.3198 148.32 92.4604 148.32 92.4604C148.32 92.4604 149.335 92.3042 149.57 91.4057C149.843 90.5073 150.468 90.2729 150.468 90.2729C150.468 90.2729 151.757 89.6088 150.078 88.5542C150.078 81.1323 145.195 81.9135 145.195 81.9135C145.195 81.9135 144.609 80.6245 143.632 80.7807C142.734 80.937 142.656 82.0698 141.992 81.9526C141.288 81.8354 141.132 81.3666 141.093 81.4057C141.015 81.4838 140.429 82.5385 140.429 82.7729C140.429 83.0463 138.593 82.4213 138.749 83.7885C138.906 85.1557 139.804 85.1167 139.765 84.9995Z" fill="#9C5100" stroke="black" stroke-width="0.8"/>
<path d="M144.843 83.2026C144.843 83.2026 144.453 85.5464 146.953 85.312C146.64 86.6011 147.578 87.0308 147.578 87.0308M149.414 88.437C149.492 88.437 150.547 89.1401 149.375 89.9995M145.859 90.273C145.859 90.273 146.367 90.937 146.953 90.7808C147.539 90.6245 148.476 91.3276 148.476 91.3276C148.476 91.3276 149.258 91.6011 149.375 91.4448M142.617 92.3042C142.617 92.3042 144.414 92.9683 145.586 90.1167M139.297 89.2964L140.351 89.3354" stroke="black" stroke-width="0.8"/>
<path d="M139.453 90.3511H140.39L139.57 90.7417" stroke="black" stroke-width="0.8" stroke-linejoin="round"/>
<path d="M140.781 87.3828C140.937 87.3828 141.523 87.1875 141.601 87.3438C141.679 87.5 140.976 87.5782 140.781 87.3828Z" stroke="black" stroke-width="1.4" stroke-linejoin="round"/>
<path fill-rule="evenodd" clip-rule="evenodd" d="M152.187 99.9219C152.187 99.9219 153.906 105.156 154.14 106.484C154.336 107.813 155.039 113.086 154.765 113.828C154.492 114.57 151.796 118.125 151.484 118.984C151.171 119.883 149.257 123.32 149.257 123.32C149.257 123.32 148.789 126.719 148.593 126.836C148.359 127.031 149.14 127.852 149.062 128.125C148.945 128.437 147.5 129.922 146.875 129.766C146.25 129.609 145.234 128.867 145.195 128.203C145.156 127.539 145.234 125.234 145.742 124.648C146.25 124.063 148.671 118.203 148.867 117.813C148.984 117.461 151.093 112.852 151.171 112.07C151.211 111.289 150.507 109.453 149.765 108.789C148.086 103.867 148.75 100.938 152.187 99.9219Z" fill="#FFC6B5" stroke="black" stroke-width="0.8"/>
<path d="M127.578 122.578L127.656 124.922M125.39 122.422C125.39 122.422 126.875 124.883 126.757 126.211" stroke="black" stroke-width="0.8"/>
<path d="M145.312 127.578C145.312 127.578 146.406 127.46 146.367 129.335C147.07 127.031 148.515 126.992 148.515 126.992" stroke="black" stroke-width="0.8" stroke-linejoin="round"/>
<path fill-rule="evenodd" clip-rule="evenodd" d="M141.485 180.469C155.404 179.818 168.521 173.764 178.047 163.594C177.891 163.437 180.977 159.102 183.477 159.687C185.938 160.352 189.492 167.617 193.828 169.18C196.016 172.578 193.203 175.664 192.266 176.289C191.367 176.914 187.188 178.633 186.563 176.133C185.938 173.672 184.688 174.102 184.688 174.102C184.688 174.102 164.883 193.477 141.953 192.695C118.281 192.852 98.7501 174.102 98.7501 174.102L97.0705 175.977C97.0705 175.977 95.1955 178.008 94.258 177.851C93.3595 177.695 89.297 175.039 89.0236 172.383C88.7111 169.766 91.4845 168.086 91.4845 168.086C91.4845 168.086 98.2814 162.812 99.0626 160.039C100.625 158.477 103.555 161.094 103.555 161.094C103.555 161.094 121.524 181.719 141.485 180.469Z" fill="#F7C600" stroke="black" stroke-width="1.7"/>
<path d="M91.0159 168.476C91.0159 168.476 92.8518 168.007 93.5549 168.75C95.2891 170.544 97.047 172.315 98.8284 174.062" stroke="black" stroke-width="1.7"/>
<path d="M95.2344 170.625L93.3594 172.031C93.3594 172.031 98.0469 172.929 96.9922 175.976M192.188 168.359C192.188 168.359 191.25 167.89 189.844 168.945C188.359 170.039 184.727 174.101 184.727 174.101" stroke="black" stroke-width="1.7"/>
<path d="M188.047 170.507L190 172.07C190 172.07 185.86 172.343 186.758 176.289" stroke="black" stroke-width="1.7"/>
<path d="M114.609 173.437L114.492 173.593C114.187 173.447 113.84 173.42 113.516 173.515C113.281 173.593 112.734 173.828 112.031 174.257L105.898 177.851L105.742 177.734L107.305 170.546L107.539 168.984C107.539 168.789 107.383 168.593 107.148 168.359L107.266 168.164L110.586 170.507L110.469 170.703L110.352 170.625C110.039 170.429 109.805 170.312 109.648 170.312C109.593 170.312 109.539 170.326 109.491 170.353C109.443 170.381 109.403 170.42 109.375 170.468C109.325 170.54 109.285 170.619 109.258 170.703L109.063 171.562L108.086 176.054L111.602 173.984L112.461 173.437L112.734 173.164L112.852 172.812C112.852 172.695 112.852 172.578 112.734 172.46C112.594 172.275 112.422 172.117 112.227 171.992L112.344 171.796L114.609 173.398M116.836 184.062L116.719 184.257L112.812 182.148L112.93 181.953L113.203 182.07C113.377 182.186 113.58 182.254 113.789 182.265C113.906 182.265 114.023 182.187 114.141 182.109C114.219 182.031 114.375 181.835 114.57 181.445L117.227 176.562C117.384 176.322 117.503 176.058 117.578 175.781C117.578 175.703 117.578 175.546 117.461 175.39C117.383 175.273 117.227 175.156 117.031 175.039L116.797 174.921L116.875 174.726L120.781 176.835L120.664 177.031L120.43 176.914C120.255 176.797 120.053 176.73 119.844 176.718C119.727 176.718 119.609 176.796 119.453 176.875C119.375 176.953 119.219 177.148 119.062 177.539L116.328 182.421C116.185 182.664 116.079 182.928 116.016 183.203L116.133 183.554C116.211 183.71 116.367 183.828 116.562 183.945L116.836 184.062ZM131.016 180.742L130.039 183.554L129.805 183.476C129.849 182.708 129.658 181.945 129.258 181.289C128.9 180.725 128.364 180.299 127.734 180.078C127.194 179.87 126.595 179.87 126.055 180.078C125.51 180.297 125.046 180.679 124.727 181.171C124.35 181.714 124.048 182.306 123.828 182.929C123.555 183.71 123.398 184.375 123.359 185.039C123.32 185.703 123.477 186.21 123.789 186.601C124.113 187.038 124.563 187.365 125.078 187.539C125.281 187.611 125.49 187.664 125.703 187.695C125.924 187.711 126.146 187.711 126.367 187.695L126.992 186.054C127.07 185.742 127.148 185.546 127.109 185.429C127.096 185.299 127.041 185.175 126.953 185.078C126.823 184.947 126.662 184.853 126.484 184.804L126.289 184.726L126.367 184.492L130.273 185.898L130.156 186.093C129.942 186.025 129.716 185.998 129.492 186.015C129.375 186.015 129.258 186.093 129.102 186.21L128.906 186.757L128.281 188.398C127.087 188.473 125.89 188.3 124.766 187.89C124.109 187.683 123.499 187.352 122.969 186.914C122.55 186.544 122.193 186.109 121.914 185.625C121.67 185.176 121.511 184.686 121.445 184.179C121.371 183.519 121.452 182.85 121.68 182.226C122.07 181.054 122.852 180.156 124.023 179.648C124.589 179.383 125.203 179.236 125.828 179.216C126.452 179.196 127.074 179.303 127.656 179.531C128.018 179.632 128.361 179.79 128.672 180C128.867 180.078 129.062 180.273 129.453 180.585C129.634 180.747 129.831 180.891 130.039 181.015H130.391C130.55 180.918 130.684 180.784 130.781 180.625L131.016 180.742ZM136.992 190.351V190.546L132.578 189.882L132.617 189.687H132.891C133.095 189.744 133.311 189.744 133.516 189.687C133.633 189.648 133.711 189.531 133.789 189.414C133.867 189.335 133.906 189.062 133.984 188.632L134.844 183.164C134.883 182.695 134.922 182.421 134.844 182.304C134.844 182.187 134.766 182.109 134.648 181.992C134.487 181.879 134.298 181.811 134.102 181.796L133.828 181.757V181.523L138.242 182.187V182.421L137.93 182.382C137.738 182.333 137.536 182.333 137.344 182.382L137.031 182.656C136.953 182.773 136.914 183.046 136.836 183.437L136.016 188.945C135.949 189.213 135.923 189.489 135.937 189.765C135.977 189.882 136.055 190 136.172 190.078C136.328 190.195 136.484 190.273 136.719 190.273L136.992 190.351ZM148.398 187.578L148.203 190.546L140.703 190.937V190.703H140.977C141.182 190.703 141.384 190.649 141.562 190.546C141.68 190.468 141.758 190.351 141.797 190.234V189.453L141.523 183.867C141.522 183.602 141.482 183.339 141.406 183.085C141.406 182.968 141.289 182.851 141.133 182.773C140.977 182.695 140.781 182.695 140.547 182.695H140.273V182.46L144.766 182.265V182.5H144.414C144.208 182.499 144.006 182.553 143.828 182.656L143.594 182.968C143.556 183.227 143.556 183.49 143.594 183.75L143.828 189.14C143.828 189.609 143.906 189.882 143.945 190C144.023 190.117 144.102 190.195 144.258 190.234H145.742C146.127 190.22 146.502 190.112 146.836 189.921C147.148 189.731 147.404 189.462 147.578 189.14C147.773 188.75 147.969 188.281 148.125 187.578H148.398ZM156.602 186.132L153.75 186.992L153.633 187.89C153.588 188.122 153.588 188.361 153.633 188.593C153.711 188.828 153.867 188.984 154.102 188.984C154.219 189.062 154.492 188.984 154.883 188.945L155 189.14L152.266 189.921L152.227 189.726C152.49 189.618 152.709 189.425 152.852 189.179C152.969 188.906 153.086 188.398 153.164 187.734L154.141 180.39L154.258 180.351L159.18 186.132C159.648 186.679 159.961 186.992 160.195 187.109C160.391 187.187 160.586 187.226 160.859 187.148L160.898 187.382L156.992 188.554L156.914 188.32L157.07 188.281C157.383 188.203 157.617 188.085 157.695 187.968C157.773 187.851 157.773 187.773 157.734 187.656C157.721 187.574 157.695 187.495 157.656 187.421L157.344 187.031L156.602 186.132ZM156.25 185.742L154.219 183.32L153.828 186.484L156.25 185.781M167.109 174.726L168.164 176.757L167.969 176.835C167.715 176.526 167.412 176.262 167.07 176.054C166.803 175.927 166.506 175.873 166.211 175.898C166.016 175.898 165.781 175.976 165.43 176.171L164.844 176.484L167.969 182.226L168.398 182.929C168.516 183.007 168.633 183.046 168.789 183.046C168.981 183.04 169.169 182.986 169.336 182.89L169.609 182.734L169.687 182.929L165.781 185.039L165.703 184.843L165.937 184.726C166.125 184.64 166.287 184.505 166.406 184.335L166.484 183.945C166.42 183.683 166.314 183.432 166.172 183.203L163.047 177.46L162.539 177.734C162.031 178.007 161.719 178.32 161.602 178.632C161.445 179.101 161.484 179.648 161.68 180.234L161.484 180.351L160.391 178.32L167.109 174.726ZM172.187 171.718L174.258 174.453L174.375 174.375C174.805 174.023 175.039 173.671 175 173.242C174.961 172.812 174.844 172.343 174.492 171.796L174.688 171.64L177.344 175.156L177.148 175.312C176.884 175.009 176.566 174.758 176.211 174.57C175.898 174.414 175.625 174.375 175.391 174.414C175.156 174.453 174.883 174.609 174.531 174.843L175.977 176.757C176.136 176.984 176.319 177.194 176.523 177.382C176.641 177.46 176.758 177.46 176.875 177.46C176.992 177.46 177.148 177.382 177.344 177.226L177.734 176.914C178.286 176.535 178.698 175.986 178.906 175.351C179.071 174.701 179.016 174.014 178.75 173.398L178.945 173.242L180.273 175.625L174.414 180.039L174.258 179.843L174.492 179.687C174.662 179.568 174.796 179.406 174.883 179.218C174.961 179.101 174.961 178.984 174.883 178.828C174.787 178.588 174.655 178.364 174.492 178.164L171.133 173.71L170.664 173.164C170.552 173.079 170.413 173.037 170.273 173.046C170.117 173.046 169.883 173.125 169.687 173.281L169.453 173.437L169.297 173.281L174.961 168.984L176.484 171.015L176.289 171.132C175.962 170.797 175.56 170.543 175.117 170.39C174.741 170.298 174.345 170.326 173.984 170.468L172.891 171.21L172.187 171.718Z" fill="black"/>
</g>
<defs>
<linearGradient id="paint0_linear_2_1144" x1="108.974" y1="153.881" x2="105.152" y2="153.323" gradientUnits="userSpaceOnUse">
<stop stop-color="#FF0000"/>
<stop offset="1" stop-color="#FFFF00"/>
</linearGradient>
<linearGradient id="paint1_linear_2_1144" x1="108.7" y1="139.763" x2="104.878" y2="139.204" gradientUnits="userSpaceOnUse">
<stop stop-color="#FF0000"/>
<stop offset="1" stop-color="#FFFF00"/>
</linearGradient>
<linearGradient id="paint2_linear_2_1144" x1="158.22" y1="126.973" x2="154.398" y2="126.414" gradientUnits="userSpaceOnUse">
<stop stop-color="#FF0000"/>
<stop offset="1" stop-color="#FFFF00"/>
</linearGradient>
<linearGradient id="paint3_linear_2_1144" x1="109.872" y1="113.295" x2="106.051" y2="112.737" gradientUnits="userSpaceOnUse">
<stop stop-color="#FF0000"/>
<stop offset="1" stop-color="#FFFF00"/>
</linearGradient>
<linearGradient id="paint4_linear_2_1144" x1="109.989" y1="99.8409" x2="106.167" y2="99.2828" gradientUnits="userSpaceOnUse">
<stop stop-color="#FF0000"/>
<stop offset="1" stop-color="#FFFF00"/>
</linearGradient>
<linearGradient id="paint5_linear_2_1144" x1="110.263" y1="86.153" x2="106.441" y2="85.5949" gradientUnits="userSpaceOnUse">
<stop stop-color="#FF0000"/>
<stop offset="1" stop-color="#FFFF00"/>
</linearGradient>
<linearGradient id="paint6_linear_2_1144" x1="158.61" y1="86.3874" x2="154.788" y2="85.8293" gradientUnits="userSpaceOnUse">
<stop stop-color="#FF0000"/>
<stop offset="1" stop-color="#FFFF00"/>
</linearGradient>
<linearGradient id="paint7_linear_2_1144" x1="158.141" y1="99.8023" x2="154.32" y2="99.2442" gradientUnits="userSpaceOnUse">
<stop stop-color="#FF0000"/>
<stop offset="1" stop-color="#FFFF00"/>
</linearGradient>
<linearGradient id="paint8_linear_2_1144" x1="157.556" y1="113.53" x2="153.734" y2="112.972" gradientUnits="userSpaceOnUse">
<stop stop-color="#FF0000"/>
<stop offset="1" stop-color="#FFFF00"/>
</linearGradient>
<linearGradient id="paint9_linear_2_1144" x1="158.179" y1="154.039" x2="154.357" y2="153.481" gradientUnits="userSpaceOnUse">
<stop stop-color="#FF0000"/>
<stop offset="1" stop-color="#FFFF00"/>
</linearGradient>
<linearGradient id="paint10_linear_2_1144" x1="158.103" y1="140.466" x2="154.281" y2="139.908" gradientUnits="userSpaceOnUse">
<stop stop-color="#FF0000"/>
<stop offset="1" stop-color="#FFFF00"/>
</linearGradient>
<linearGradient id="paint11_linear_2_1144" x1="118.728" y1="127.832" x2="114.906" y2="127.274" gradientUnits="userSpaceOnUse">
<stop stop-color="#FF0000"/>
<stop offset="1" stop-color="#FFFF00"/>
</linearGradient>
</defs>
</svg>
