<svg width="104" height="85" viewBox="0 0 104 85" fill="none" xmlns="http://www.w3.org/2000/svg">
<path d="M22.7313 8.7085C14.7657 13.2709 7.89598 22.0015 5.1008 30.6615C-6.75999 67.4087 36.9116 96.7766 67.9468 73.5461C71.3654 70.9393 71.8677 74.4265 71.0659 75.0594C55.7176 86.9488 34.5521 88.2108 18.3735 77.1183C-2.15242 63.0453 -6.09028 34.3519 10.1574 15.456C18.5354 5.71254 28.7594 0.958869 41.5236 0.1011C60.9783 0.03249 77.8155 10.081 84.5182 28.9504C85.4091 31.4584 85.7688 31.8531 86.119 34.588C87.3305 34.8559 88.6333 35.3665 89.6623 36.0594C93.0182 31.9906 98.9446 33.3254 98.9079 38.1869C98.8915 40.3589 97.7924 41.1953 96.3665 42.6082C97.0841 43.9718 97.5237 44.8857 97.9207 46.3627C104.358 46.0224 105.647 52.7473 101.544 54.985C100.394 55.6117 98.9691 55.7733 97.6851 55.9541C97.3811 57.1763 96.7993 58.4265 96.3665 59.6403C96.3889 59.6552 96.4109 59.6698 96.433 59.6846L96.5421 59.7609C102.273 63.7168 96.3065 72.8202 89.6623 65.9753C88.5694 66.5973 87.2995 67.079 86.119 67.5242C86.1407 69.4548 86.3039 71.1947 84.8636 72.7172C83.1367 74.5429 79.7193 74.5085 77.9422 72.7798C76.4957 71.3729 76.7161 69.3719 76.7209 67.5242C75.2964 67.1595 74.0852 66.7559 72.8328 65.9753C71.2607 66.9789 70.4047 68.4447 68.3473 68.5177C65.7265 68.6107 63.486 66.6106 63.3986 63.988C63.3277 61.859 64.7512 60.6062 66.083 59.185C65.3988 57.9628 65.1208 57.245 64.6436 55.9541C63.1025 55.6289 61.4322 55.7563 60.1265 54.7587C58.1117 53.2195 57.8827 50.2224 59.4336 48.2785C60.697 46.6951 62.5447 46.5739 64.4047 46.3627C64.756 44.8818 65.1572 43.8135 66.083 42.6082C64.0772 39.737 61.8065 37.625 65.4515 34.5203C68.4463 31.9696 70.7596 33.5529 72.8328 36.0594C73.8847 35.1927 75.0193 34.7736 76.3698 34.588C76.5571 30.9945 76.8378 28.7808 81.0056 28.2201C70.7158 4.94862 45.0051 -3.36116 22.7313 8.7085ZM80.824 31.1302C80.2549 31.3809 80.1052 31.4513 79.8195 32.0034C78.5039 37.5795 81.4053 35.7761 75.6731 37.8828C74.4646 38.3271 73.4251 39.0883 72.208 39.3289C70.5267 38.7396 69.5248 35.8797 67.9318 36.4004C64.3611 37.5673 69.7837 40.906 69.4282 42.6629C69.0804 43.5521 68.4651 44.303 68.0571 45.1726C67.5563 46.2395 67.3523 47.4872 66.8978 48.5419C66.2828 49.9691 61.9998 48.9759 61.5879 50.5408C60.7671 53.8575 66.0328 51.6831 66.9655 53.4981C67.3413 54.2291 69.6224 59.6071 69.5436 59.8058C68.911 61.4034 64.5326 63.7047 67.5757 65.3207C69.3948 66.0861 71.247 61.8002 72.8966 62.5718C74.6167 63.3762 76.1318 64.3599 78.0893 64.7071C81.8458 65.373 77.8489 70.214 81.3027 71.1596C84.7016 70.4611 81.737 66.2337 83.7072 65.076C84.3133 64.7198 85.7787 64.4502 86.5804 64.1252C87.6559 63.6895 88.6082 62.898 89.6846 62.5772C91.048 62.2306 92.7477 65.4303 94.7559 65.3644C95.4282 65.3421 95.9767 64.0908 95.7941 63.6435C95.1326 62.0236 93.4104 61.3868 92.8259 59.6403L92.8587 59.5349C93.074 58.8574 95.5495 53.281 95.7756 53.1619C97.0444 52.4943 99.9536 53.0107 100.684 51.512C101.835 48.4727 95.9758 49.8817 95.5409 48.8202C95.1099 47.7688 94.8636 46.6078 94.4186 45.4996C93.9631 44.3653 92.5536 43.136 92.907 41.9812C93.3272 40.4985 96.3903 39.2582 95.8001 37.5932C94.6065 34.2262 91.0083 40.2182 89.4293 39.3607C88.0093 38.5733 86.7035 37.7708 85.0822 37.3951C80.5204 36.338 85.1595 30.8353 80.824 31.1302Z" fill="#F39C12"/>
<path d="M41.7988 12.1398C41.7684 10.4783 41.1949 7.83999 43.0241 7.23052C45.7901 7.2228 45.5202 12.2634 43.7178 12.9426C42.8687 13.049 42.3709 12.716 41.7988 12.1398Z" fill="#F39C12"/>
<path d="M28.1844 17.1626C26.4026 17.1077 23.241 12.2195 26.4947 11.836C27.8703 11.6578 31.2382 16.0254 28.1844 17.1626Z" fill="#F39C12"/>
<path d="M57.817 15.5899C58.0831 14.5946 59.3727 12.3932 60.3057 11.836C64.0918 11.3498 61.4823 16.5012 59.9308 17.1626C58.6375 17.3117 58.0855 16.8032 57.817 15.5899Z" fill="#F39C12"/>
<path d="M16.6472 28.7509C14.6208 28.8234 9.79948 24.8868 13.5038 24.4472C15.0679 23.9622 20.336 27.3583 16.6472 28.7509Z" fill="#F39C12"/>
<path d="M45.584 37.2526L54.9418 28.0521C55.74 27.2754 58.0509 24.8874 58.8809 24.4473C62.7583 24.313 59.9493 27.4884 58.6513 28.7542L55.5682 31.7799C53.0205 34.289 50.5593 36.9794 47.8824 39.3495C50.1855 44.1923 45.3925 48.8726 40.8012 46.3629C34.8999 43.6725 39.5211 34.2501 45.584 37.2526ZM42.6507 39.9257C41.5561 40.2738 40.953 41.4405 41.3046 42.5296C41.6563 43.6191 42.829 44.2172 43.9221 43.8647C45.0123 43.5133 45.6106 42.3496 45.2601 41.2635C44.9094 40.1773 43.742 39.5788 42.6507 39.9257Z" fill="#F39C12"/>
<path d="M11.9601 44.1393C10.5251 44.1492 5.95196 44.7075 7.62369 41.5919C7.8796 41.1149 8.47999 40.999 8.98017 40.9301C9.51971 40.9242 10.3879 40.9575 10.9716 40.9141C14.1773 40.6756 14.1421 43.8706 11.9601 44.1393Z" fill="#F39C12"/>
<path d="M81.7328 60.1616C76.6186 60.4794 72.216 56.6046 71.904 51.5115C71.592 46.4183 75.4893 42.0392 80.6044 41.7359C85.7091 41.433 90.0956 45.3045 90.407 50.3876C90.7183 55.4706 86.8368 59.8444 81.7328 60.1616ZM80.2245 44.9318C76.8673 45.4468 74.5665 48.577 75.0885 51.9193C75.6101 55.2618 78.7565 57.5485 82.1121 57.0246C85.4616 56.5016 87.7528 53.3758 87.232 50.0395C86.7113 46.7032 83.5754 44.4176 80.2245 44.9318Z" fill="#F39C12"/>
<path d="M13.8689 61.1845C10.2113 60.9386 13.2509 57.2889 16.1249 56.5327C19.3282 56.7748 17.3152 60.3273 13.8689 61.1845Z" fill="#F39C12"/>
<path d="M27.1899 73.1781C23.5512 73.8179 25.8561 68.5035 27.5735 67.676C31.2999 67.3516 28.5747 72.525 27.1899 73.1781Z" fill="#F39C12"/>
<path d="M60.8058 73.178C59.0551 73.3883 55.8425 69.0234 58.4499 67.6759C59.8535 67.4674 63.5928 71.3116 60.8058 73.178Z" fill="#F39C12"/>
<path d="M43.7178 77.4483C42.9304 77.4896 42.1878 77.3381 41.8961 76.5124C41.5018 75.3965 41.163 71.7272 43.0241 71.1596C45.8558 71.0765 45.4546 76.712 43.7178 77.4483Z" fill="#F39C12"/>
<path d="M22.7313 8.7085C14.7657 13.2709 7.89598 22.0015 5.1008 30.6615C-6.75999 67.4087 36.9116 96.7766 67.9468 73.5461C71.3654 70.9393 71.8677 74.4265 71.0659 75.0594C55.7176 86.9488 34.5521 88.2108 18.3735 77.1183C-2.15242 63.0453 -6.09028 34.3519 10.1574 15.456C18.5354 5.71254 28.7594 0.958869 41.5236 0.1011C60.9783 0.03249 77.8155 10.081 84.5182 28.9504C85.4091 31.4584 85.7688 31.8531 86.119 34.588C87.3305 34.8559 88.6333 35.3665 89.6623 36.0594C93.0182 31.9906 98.9446 33.3254 98.9079 38.1869C98.8915 40.3589 97.7924 41.1953 96.3665 42.6082C97.0841 43.9718 97.5237 44.8857 97.9207 46.3627C104.358 46.0224 105.647 52.7473 101.544 54.985C100.394 55.6117 98.9691 55.7733 97.6851 55.9541C97.3811 57.1763 96.7993 58.4265 96.3665 59.6403C96.3889 59.6552 96.4109 59.6698 96.433 59.6846L96.5421 59.7609C102.273 63.7168 96.3065 72.8202 89.6623 65.9753C88.5694 66.5973 87.2995 67.079 86.119 67.5242C86.1407 69.4548 86.3039 71.1947 84.8636 72.7172C83.1367 74.5429 79.7193 74.5085 77.9422 72.7798C76.4957 71.3729 76.7161 69.3719 76.7209 67.5242C75.2964 67.1595 74.0852 66.7559 72.8328 65.9753C71.2607 66.9789 70.4047 68.4447 68.3473 68.5177C65.7265 68.6107 63.486 66.6106 63.3986 63.988C63.3277 61.859 64.7512 60.6062 66.083 59.185C65.3988 57.9628 65.1208 57.245 64.6436 55.9541C63.1025 55.6289 61.4322 55.7563 60.1265 54.7587C58.1117 53.2195 57.8827 50.2224 59.4336 48.2785C60.697 46.6951 62.5447 46.5739 64.4047 46.3627C64.756 44.8818 65.1572 43.8135 66.083 42.6082C64.0772 39.737 61.8065 37.625 65.4515 34.5203C68.4463 31.9696 70.7596 33.5529 72.8328 36.0594C73.8847 35.1927 75.0193 34.7736 76.3698 34.588C76.5571 30.9945 76.8378 28.7808 81.0056 28.2201C70.7158 4.94862 45.0051 -3.36116 22.7313 8.7085ZM80.824 31.1302C80.2549 31.3809 80.1052 31.4513 79.8195 32.0034C78.5039 37.5795 81.4053 35.7761 75.6731 37.8828C74.4646 38.3271 73.4251 39.0883 72.208 39.3289C70.5267 38.7396 69.5248 35.8797 67.9318 36.4004C64.3611 37.5673 69.7837 40.906 69.4282 42.6629C69.0804 43.5521 68.4651 44.303 68.0571 45.1726C67.5563 46.2395 67.3523 47.4872 66.8978 48.5419C66.2828 49.9691 61.9998 48.9759 61.5879 50.5408C60.7671 53.8575 66.0328 51.6831 66.9655 53.4981C67.3413 54.2291 69.6224 59.6071 69.5436 59.8058C68.911 61.4034 64.5326 63.7047 67.5757 65.3207C69.3948 66.0861 71.247 61.8002 72.8966 62.5718C74.6167 63.3762 76.1318 64.3599 78.0893 64.7071C81.8458 65.373 77.8489 70.214 81.3027 71.1596C84.7016 70.4611 81.737 66.2337 83.7072 65.076C84.3133 64.7198 85.7787 64.4502 86.5804 64.1252C87.6559 63.6895 88.6082 62.898 89.6846 62.5772C91.048 62.2306 92.7477 65.4303 94.7559 65.3644C95.4282 65.3421 95.9767 64.0908 95.7941 63.6435C95.1326 62.0236 93.4104 61.3868 92.8259 59.6403L92.8587 59.5349C93.074 58.8574 95.5495 53.281 95.7756 53.1619C97.0444 52.4943 99.9536 53.0107 100.684 51.512C101.835 48.4727 95.9758 49.8817 95.5409 48.8202C95.1099 47.7688 94.8636 46.6078 94.4186 45.4996C93.9631 44.3653 92.5536 43.136 92.907 41.9812C93.3272 40.4985 96.3903 39.2582 95.8001 37.5932C94.6065 34.2262 91.0083 40.2182 89.4293 39.3607C88.0093 38.5733 86.7035 37.7708 85.0822 37.3951C80.5204 36.338 85.1595 30.8353 80.824 31.1302Z" stroke="#F39C12" stroke-width="0.2"/>
<path d="M41.7988 12.1398C41.7684 10.4783 41.1949 7.83999 43.0241 7.23052C45.7901 7.2228 45.5202 12.2634 43.7178 12.9426C42.8687 13.049 42.3709 12.716 41.7988 12.1398Z" stroke="#F39C12" stroke-width="0.2"/>
<path d="M28.1844 17.1626C26.4026 17.1077 23.241 12.2195 26.4947 11.836C27.8703 11.6578 31.2382 16.0254 28.1844 17.1626Z" stroke="#F39C12" stroke-width="0.2"/>
<path d="M57.817 15.5899C58.0831 14.5946 59.3727 12.3932 60.3057 11.836C64.0918 11.3498 61.4823 16.5012 59.9308 17.1626C58.6375 17.3117 58.0855 16.8032 57.817 15.5899Z" stroke="#F39C12" stroke-width="0.2"/>
<path d="M16.6472 28.7509C14.6208 28.8234 9.79948 24.8868 13.5038 24.4472C15.0679 23.9622 20.336 27.3583 16.6472 28.7509Z" stroke="#F39C12" stroke-width="0.2"/>
<path d="M45.584 37.2526L54.9418 28.0521C55.74 27.2754 58.0509 24.8874 58.8809 24.4473C62.7583 24.313 59.9493 27.4884 58.6513 28.7542L55.5682 31.7799C53.0205 34.289 50.5593 36.9794 47.8824 39.3495C50.1855 44.1923 45.3925 48.8726 40.8012 46.3629C34.8999 43.6725 39.5211 34.2501 45.584 37.2526ZM42.6507 39.9257C41.5561 40.2738 40.953 41.4405 41.3046 42.5296C41.6563 43.6191 42.829 44.2172 43.9221 43.8647C45.0123 43.5133 45.6106 42.3496 45.2601 41.2635C44.9094 40.1773 43.742 39.5788 42.6507 39.9257Z" stroke="#F39C12" stroke-width="0.2"/>
<path d="M11.9601 44.1393C10.5251 44.1492 5.95196 44.7075 7.62369 41.5919C7.8796 41.1149 8.47999 40.999 8.98017 40.9301C9.51971 40.9242 10.3879 40.9575 10.9716 40.9141C14.1773 40.6756 14.1421 43.8706 11.9601 44.1393Z" stroke="#F39C12" stroke-width="0.2"/>
<path d="M81.7328 60.1616C76.6186 60.4794 72.216 56.6046 71.904 51.5115C71.592 46.4183 75.4893 42.0392 80.6044 41.7359C85.7091 41.433 90.0956 45.3045 90.407 50.3876C90.7183 55.4706 86.8368 59.8444 81.7328 60.1616ZM80.2245 44.9318C76.8673 45.4468 74.5665 48.577 75.0885 51.9193C75.6101 55.2618 78.7565 57.5485 82.1121 57.0246C85.4616 56.5016 87.7528 53.3758 87.232 50.0395C86.7113 46.7032 83.5754 44.4176 80.2245 44.9318Z" stroke="#F39C12" stroke-width="0.2"/>
<path d="M13.8689 61.1845C10.2113 60.9386 13.2509 57.2889 16.1249 56.5327C19.3282 56.7748 17.3152 60.3273 13.8689 61.1845Z" stroke="#F39C12" stroke-width="0.2"/>
<path d="M27.1899 73.1781C23.5512 73.8179 25.8561 68.5035 27.5735 67.676C31.2999 67.3516 28.5747 72.525 27.1899 73.1781Z" stroke="#F39C12" stroke-width="0.2"/>
<path d="M60.8058 73.178C59.0551 73.3883 55.8425 69.0234 58.4499 67.6759C59.8535 67.4674 63.5928 71.3116 60.8058 73.178Z" stroke="#F39C12" stroke-width="0.2"/>
<path d="M43.7178 77.4483C42.9304 77.4896 42.1878 77.3381 41.8961 76.5124C41.5018 75.3965 41.163 71.7272 43.0241 71.1596C45.8558 71.0765 45.4546 76.712 43.7178 77.4483Z" stroke="#F39C12" stroke-width="0.2"/>
</svg>
