<svg width="100" height="100" viewBox="0 0 100 100" fill="none" xmlns="http://www.w3.org/2000/svg">
<path d="M48.9729 25.0242C42.7188 23.781 42.4637 14.799 49.301 13.6382C56.1895 12.9517 58.6643 22.8005 51.074 25.0242V34.0277C54.844 34.1279 57.7139 35.7207 60.6242 37.9167C62.6832 35.7914 64.7795 33.725 66.8758 31.6355C63.6842 26.2494 68.8141 20.6326 74.0781 23.0543C80.7371 26.3267 76.5985 37.2753 68.3652 33.14C66.3361 35.0882 63.9752 37.3609 62.086 39.4291C64.4375 42.572 65.5785 44.9138 65.9279 48.9304C66.7977 48.9722 68.0035 48.9328 68.9082 48.9324L74.8922 48.9304C75.5916 44.8322 80.1352 42.9761 83.6047 45.0998C86.2518 46.7199 87.1744 50.4476 85.4945 53.0669C82.6815 57.4529 75.9459 56.1636 74.8922 51.0371H65.9279C65.607 53.8683 65.0592 55.8523 63.5115 58.3412C63.1527 58.9181 62.3807 59.8984 62.1178 60.4265L62.086 60.4921C62.467 61.073 64.0438 62.5646 64.6389 63.1669L66.8893 65.4509C67.3526 65.9148 67.8522 66.4419 68.3652 66.838C72.6949 63.4189 80.0412 68.8962 76.5193 74.7099C72.0813 81.4806 62.6955 74.9078 66.8758 68.466C64.9047 66.5466 62.5354 63.7001 60.4322 62.071C56.9598 64.1492 55.8045 65.5974 51.074 65.8744V75.021C56.8174 75.9285 57.6072 85.0054 50.868 86.2841C43.8901 87.2316 41.4988 77.0019 48.9729 75.021V65.8744C45.3184 65.7205 42.3832 64.1999 39.5236 62.071C37.7774 63.5853 34.6096 66.7216 33.2045 68.466C36.51 72.5509 31.1834 79.8398 25.4735 76.6828C18.8977 73.0832 24.2283 62.6042 31.661 66.838C33.7709 64.7339 35.9406 62.6341 38.0094 60.4921C35.5602 57.7166 34.2375 54.749 34.0096 51.0371H25.1139C22.7772 59.8937 10.4152 54.73 14.3833 47.1601C16.7639 42.6189 23.5094 43.2837 25.1139 48.9304H34.0096C34.0768 45.932 35.7211 41.4277 38.0094 39.4291C36.1522 37.3253 33.707 35.0628 31.661 33.14C26.1776 36.4806 20.3627 30.6998 23.125 25.5503C26.7264 18.8361 37.4777 23.9474 33.2045 31.6355C34.9703 33.7271 37.5412 35.905 39.5236 37.9167C41.1119 35.7626 46.4699 34.0103 48.9729 34.0277V25.0242ZM49.7451 15.7041C47.7324 15.8347 46.2067 17.5725 46.3377 19.5851C46.4688 21.598 48.2068 23.1232 50.2195 22.9918C52.2317 22.8603 53.7565 21.1228 53.6254 19.1107C53.4944 17.0986 51.7572 15.5735 49.7451 15.7041ZM27.9342 24.556C25.8693 24.7773 24.3748 26.6306 24.5961 28.6955C24.8176 30.7603 26.6711 32.2548 28.736 32.0333C30.8006 31.8117 32.2947 29.9585 32.0735 27.8939C31.852 25.8291 29.9988 24.3347 27.9342 24.556ZM71.1639 24.6279C69.1336 24.8851 67.7016 26.7472 67.9742 28.7755C68.2471 30.8037 70.1199 32.2214 72.1461 31.9333C74.1506 31.6484 75.5498 29.7998 75.2801 27.7931C75.0104 25.7867 73.1725 24.3734 71.1639 24.6279ZM48.8756 36.0662C41.244 36.6556 35.5301 43.3119 36.1031 50.9447C36.6762 58.5775 43.3199 64.3058 50.9539 63.7494C58.6115 63.1912 64.3611 56.5226 63.7863 48.8664C63.2115 41.2101 56.5307 35.4748 48.8756 36.0662ZM19.311 46.3605C17.2912 46.4324 15.715 48.133 15.7963 50.1523C15.8775 52.1718 17.5852 53.7402 19.6043 53.6496C21.6102 53.5597 23.1662 51.8654 23.0856 49.8591C23.0049 47.8527 21.3178 46.2888 19.311 46.3605ZM79.9338 46.3728C77.9496 46.7072 76.6104 48.5843 76.9399 50.5695C77.2692 52.5544 79.1428 53.8986 81.1287 53.5744C83.1219 53.249 84.4721 51.3669 84.1414 49.3746C83.811 47.3822 81.9254 46.0371 79.9338 46.3728ZM28.0412 67.9466C25.9981 68.1072 24.4781 69.9035 24.6578 71.9449C24.8373 73.9865 26.6475 75.4898 28.6873 75.2912C30.7006 75.0955 32.1801 73.3138 32.0027 71.2988C31.8256 69.2839 30.0578 67.788 28.0412 67.9466ZM71.3102 67.966C69.2682 68.1525 67.7647 69.9605 67.9537 72.0023C68.1428 74.0443 69.9526 75.5455 71.9944 75.3539C74.0322 75.1624 75.5301 73.3566 75.3414 71.3183C75.1527 69.28 73.3486 67.7798 71.3102 67.966ZM49.5176 77.1392C47.5863 77.4273 46.2488 79.2189 46.5213 81.1525C46.794 83.0859 48.5746 84.4378 50.5102 84.181C52.4682 83.9212 53.8391 82.1154 53.5633 80.1597C53.2877 78.2039 51.4709 76.8476 49.5176 77.1392Z" fill="#1C001F"/>
<path d="M48.9729 42.1962C48.9373 41.1979 48.719 40.3263 49.8182 39.8956C51.275 39.8638 51.082 41.1437 51.074 42.1962C53.7008 42.8561 56.5725 47.006 53.8309 47.7235C52.8324 47.5091 52.8393 47.2145 52.6604 46.2925C51.819 41.9575 44.8567 45.2237 47.9225 48.2823C48.7918 49.1495 49.9787 48.8251 51.0725 48.9561C55.5848 49.3868 56.357 56.2548 51.074 57.6419C51.1764 58.6083 51.3029 59.2399 50.283 59.6989C48.8129 59.8425 48.8412 58.722 48.9729 57.6419C47.0078 57.2202 45.8326 56.0366 45.1651 54.1505C44.4731 52.1954 46.9174 51.3731 47.2201 53.3124C47.8326 57.2378 54.0313 55.6542 52.3785 52.2132C51.599 50.5401 49.9596 51.1112 48.6246 50.8737C43.9682 50.045 43.8973 43.4364 48.9729 42.1962Z" fill="#1C001F"/>
</svg>
