<svg width="100" height="100" viewBox="0 0 100 100" fill="none" xmlns="http://www.w3.org/2000/svg">
<path d="M40.0848 37.2676C37.9084 33.3903 36.5297 28.2358 36.7545 23.616C36.7828 23.0344 37.7946 22.9192 38.2916 22.8571C42.1362 22.3764 45.8049 20.5322 48.1565 17.3984C48.6325 16.7667 49.0873 15.6953 49.7721 15.2888C50.8174 15.1875 51.0053 16.2338 51.5426 17.0069C53.8922 20.3883 57.8483 22.4647 61.9115 22.8412C62.4016 22.884 63.3362 22.9619 63.3594 23.6367C63.5031 27.8365 62.2196 33.8449 59.8198 37.2676L67.7881 37.266C69.1842 37.2655 72.1479 36.8518 72.9414 37.9709C72.8772 41.2697 72.9412 44.8047 72.944 48.1203L72.9453 50.7832C72.9453 51.2776 73.0375 52.36 72.7582 52.7555C72.4735 53.1713 71.736 53.1846 71.4157 52.8311C71.0354 52.4108 71.1485 51.417 71.1496 50.8666L71.1489 39.0438H58.6594C56.3172 41.9067 53.9854 43.7965 50.6551 45.5008C50.3928 45.6223 50.2983 45.6397 50.0211 45.7028C47.4907 45.1393 42.9701 40.9547 41.3903 39.0438C37.2596 39.0319 32.9346 38.9842 28.8153 39.0438L28.8145 50.06C28.8186 50.7346 29.0379 52.5994 28.0174 52.5461C26.5182 52.4676 27.0461 49.2219 27.0459 48.0106L27.0432 39.7522C27.0233 37.4424 26.6108 37.2594 29.1248 37.2653L40.0848 37.2676ZM50.0211 17.9032C47.2157 21.6578 43.2356 24.1174 38.4914 24.5934C38.4494 25.4615 38.5655 26.4436 38.6664 27.3117C39.4838 34.3406 42.7905 39.568 48.8151 43.1336C49.1203 43.3143 49.6948 43.6924 50.0211 43.7264C50.6658 43.5067 51.1567 43.2211 51.7321 42.8578C58.1334 38.8162 61.6219 32.1401 61.5852 24.5934C57.4143 24.0133 53.2141 22.1178 50.6172 18.7038C50.5344 18.5949 50.0797 17.9342 50.0211 17.9032Z" fill="#1C001F"/>
<path d="M48.5334 34.7797C49.3434 33.9576 53.3153 29.7981 54.2075 29.3985C54.8801 29.3721 55.6645 30.0998 55.0619 30.7295C53.2141 32.6619 51.278 34.5453 49.384 36.4289C48.1022 37.7035 47.1414 36.0135 46.1729 34.9817C45.8795 34.6824 45.1354 34.0063 45.1965 33.6078C45.5549 31.2762 47.909 34.1766 48.5334 34.7797Z" fill="#1C001F"/>
<path d="M44.6834 63.0715C40.7332 58.6721 43.4936 51.7043 49.4983 51.1428C55.9575 50.6672 59.4983 58.569 55.1389 63.0715C55.4922 63.0985 56.3836 63.0912 56.6444 63.2334C58.1903 64.076 59.645 65.2235 61.0961 66.2244C61.9494 66.8131 61.5717 67.7473 61.476 68.6815C60.8037 75.2379 57.528 82.4073 50.6551 84.2987C49.8375 84.4955 49.4258 84.3276 48.658 84.0746C41.6162 81.7541 39.0686 73.7739 38.6176 67.0828C38.6342 66.8199 38.6135 66.5369 38.8448 66.3639C40.6264 65.0315 42.4914 63.2139 44.6834 63.0715ZM49.4983 52.9471C44.6619 53.544 42.8666 59.5377 46.7032 62.4871C47.8516 63.3699 49.2903 63.0602 50.6551 63.0715C51.4178 63.0571 52.0114 63.133 52.7006 62.7412C57.7266 59.8848 54.9313 52.2739 49.4983 52.9471ZM45.0225 64.8069C43.4506 64.8543 41.5313 66.4211 40.3914 67.4451C41.35 73.7307 42.8664 80.678 50.0211 82.6948C51.3186 82.2526 52.3912 81.7901 53.5295 80.9979C57.3528 78.1242 59.8465 72.2135 59.8198 67.4451C55.3461 64.6026 57.2469 64.8049 52.1084 64.8057L45.0225 64.8069Z" fill="#1C001F"/>
<path d="M24.1475 66.0989L24.049 66.0096C20.36 62.6104 22.9168 55.9787 28.0979 55.8276C31.1326 55.2215 34.2821 58.3463 34.5059 61.3282C34.6573 63.3455 34.0531 64.6268 32.8043 66.0989C33.8213 66.5451 36.524 67.9434 37.2348 68.7117C37.3832 70.6428 37.2823 73.418 37.2022 75.3565C37.158 76.4262 35.6512 76.4637 35.5215 75.491C35.4352 74.8438 35.4713 74.0344 35.4719 73.3711L35.4754 69.6067C31.8871 67.6354 33.1141 67.8303 28.744 67.8438C24.8948 67.8305 24.8471 67.5246 21.3971 69.6067C21.3047 71.5334 21.5108 73.5563 21.3711 75.4823C21.2994 76.4715 19.7076 76.4076 19.6865 75.5379C19.6324 73.2991 19.6155 70.9448 19.6475 68.7117C20.1809 67.9489 23.0955 66.7455 24.1475 66.0989ZM28.0237 57.5799C25.6487 57.8063 23.9057 59.9133 24.1283 62.2885C24.351 64.6639 26.4555 66.4102 28.8311 66.191C31.2119 65.9715 32.9627 63.8616 32.7395 61.4811C32.5162 59.1006 30.4037 57.353 28.0237 57.5799Z" fill="#1C001F"/>
<path d="M67.267 66.2117C63.5526 62.7319 65.7578 56.5092 70.9166 55.8276C76.3279 55.0545 79.9799 61.9528 75.8996 66.0989C76.5571 66.2867 80.1742 67.9115 80.2815 68.6994C80.5322 70.5416 80.3793 73.6321 80.3479 75.5918C80.2473 76.586 78.7098 76.7239 78.5897 75.6584C78.5063 74.918 78.5397 74.151 78.5395 73.4176L78.541 69.3951C74.6643 66.9842 75.591 67.9442 72.1035 67.8438C70.6975 68.3014 69.4315 67.475 68.1481 67.7311C66.9617 67.9678 65.6918 69.0756 64.5801 69.5701L64.4971 69.6067L64.5018 73.4336C64.502 73.8364 64.6303 76.1549 64.2137 76.3555C63.2522 76.7953 62.7729 76.3936 62.7645 75.3783C62.7594 74.7487 62.6115 69.0699 62.8074 68.7838C63.2455 68.1442 66.5875 66.3856 67.267 66.2117ZM71.1672 57.5998C68.7811 57.8188 67.0281 59.9362 67.2582 62.3211C67.4883 64.7061 69.6139 66.4492 71.9979 66.208C74.366 65.9684 76.0951 63.8598 75.8666 61.4905C75.6379 59.1213 73.5375 57.3823 71.1672 57.5998Z" fill="#1C001F"/>
<path d="M40.0848 37.2676C37.9084 33.3903 36.5297 28.2358 36.7545 23.616C36.7828 23.0344 37.7946 22.9192 38.2916 22.8571C42.1362 22.3764 45.8049 20.5322 48.1565 17.3984C48.6325 16.7667 49.0873 15.6953 49.7721 15.2888C50.8174 15.1875 51.0053 16.2338 51.5426 17.0069C53.8922 20.3883 57.8483 22.4647 61.9115 22.8412C62.4016 22.884 63.3362 22.9619 63.3594 23.6367C63.5031 27.8365 62.2196 33.8449 59.8198 37.2676L67.7881 37.266C69.1842 37.2655 72.1479 36.8518 72.9414 37.9709C72.8772 41.2697 72.9412 44.8047 72.944 48.1203L72.9453 50.7832C72.9453 51.2776 73.0375 52.36 72.7582 52.7555C72.4735 53.1713 71.736 53.1846 71.4157 52.8311C71.0354 52.4108 71.1485 51.417 71.1496 50.8666L71.1489 39.0438H58.6594C56.3172 41.9067 53.9854 43.7965 50.6551 45.5008C50.3928 45.6223 50.2983 45.6397 50.0211 45.7028C47.4907 45.1393 42.9701 40.9547 41.3903 39.0438C37.2596 39.0319 32.9346 38.9842 28.8153 39.0438L28.8145 50.06C28.8186 50.7346 29.0379 52.5994 28.0174 52.5461C26.5182 52.4676 27.0461 49.2219 27.0459 48.0106L27.0432 39.7522C27.0233 37.4424 26.6108 37.2594 29.1248 37.2653L40.0848 37.2676ZM50.0211 17.9032C47.2157 21.6578 43.2356 24.1174 38.4914 24.5934C38.4494 25.4615 38.5655 26.4436 38.6664 27.3117C39.4838 34.3406 42.7905 39.568 48.8151 43.1336C49.1203 43.3143 49.6948 43.6924 50.0211 43.7264C50.6658 43.5067 51.1567 43.2211 51.7321 42.8578C58.1334 38.8162 61.6219 32.1401 61.5852 24.5934C57.4143 24.0133 53.2141 22.1178 50.6172 18.7038C50.5344 18.5949 50.0797 17.9342 50.0211 17.9032Z" stroke="#1C001F" stroke-width="0.5"/>
<path d="M48.5334 34.7797C49.3434 33.9576 53.3153 29.7981 54.2075 29.3985C54.8801 29.3721 55.6645 30.0998 55.0619 30.7295C53.2141 32.6619 51.278 34.5453 49.384 36.4289C48.1022 37.7035 47.1414 36.0135 46.1729 34.9817C45.8795 34.6824 45.1354 34.0063 45.1965 33.6078C45.5549 31.2762 47.909 34.1766 48.5334 34.7797Z" stroke="#1C001F" stroke-width="0.5"/>
<path d="M44.6834 63.0715C40.7332 58.6721 43.4936 51.7043 49.4983 51.1428C55.9575 50.6672 59.4983 58.569 55.1389 63.0715C55.4922 63.0985 56.3836 63.0912 56.6444 63.2334C58.1903 64.076 59.645 65.2235 61.0961 66.2244C61.9494 66.8131 61.5717 67.7473 61.476 68.6815C60.8037 75.2379 57.528 82.4073 50.6551 84.2987C49.8375 84.4955 49.4258 84.3276 48.658 84.0746C41.6162 81.7541 39.0686 73.7739 38.6176 67.0828C38.6342 66.8199 38.6135 66.5369 38.8448 66.3639C40.6264 65.0315 42.4914 63.2139 44.6834 63.0715ZM49.4983 52.9471C44.6619 53.544 42.8666 59.5377 46.7032 62.4871C47.8516 63.3699 49.2903 63.0602 50.6551 63.0715C51.4178 63.0571 52.0114 63.133 52.7006 62.7412C57.7266 59.8848 54.9313 52.2739 49.4983 52.9471ZM45.0225 64.8069C43.4506 64.8543 41.5313 66.4211 40.3914 67.4451C41.35 73.7307 42.8664 80.678 50.0211 82.6948C51.3186 82.2526 52.3912 81.7901 53.5295 80.9979C57.3528 78.1242 59.8465 72.2135 59.8198 67.4451C55.3461 64.6026 57.2469 64.8049 52.1084 64.8057L45.0225 64.8069Z" stroke="#1C001F" stroke-width="0.5"/>
<path d="M24.1475 66.0989L24.049 66.0096C20.36 62.6104 22.9168 55.9787 28.0979 55.8276C31.1326 55.2215 34.2821 58.3463 34.5059 61.3282C34.6573 63.3455 34.0531 64.6268 32.8043 66.0989C33.8213 66.5451 36.524 67.9434 37.2348 68.7117C37.3832 70.6428 37.2823 73.418 37.2022 75.3565C37.158 76.4262 35.6512 76.4637 35.5215 75.491C35.4352 74.8438 35.4713 74.0344 35.4719 73.3711L35.4754 69.6067C31.8871 67.6354 33.1141 67.8303 28.744 67.8438C24.8948 67.8305 24.8471 67.5246 21.3971 69.6067C21.3047 71.5334 21.5108 73.5563 21.3711 75.4823C21.2994 76.4715 19.7076 76.4076 19.6865 75.5379C19.6324 73.2991 19.6155 70.9448 19.6475 68.7117C20.1809 67.9489 23.0955 66.7455 24.1475 66.0989ZM28.0237 57.5799C25.6487 57.8063 23.9057 59.9133 24.1283 62.2885C24.351 64.6639 26.4555 66.4102 28.8311 66.191C31.2119 65.9715 32.9627 63.8616 32.7395 61.4811C32.5162 59.1006 30.4037 57.353 28.0237 57.5799Z" stroke="#1C001F" stroke-width="0.5"/>
<path d="M67.267 66.2117C63.5526 62.7319 65.7578 56.5092 70.9166 55.8276C76.3279 55.0545 79.9799 61.9528 75.8996 66.0989C76.5571 66.2867 80.1742 67.9115 80.2815 68.6994C80.5322 70.5416 80.3793 73.6321 80.3479 75.5918C80.2473 76.586 78.7098 76.7239 78.5897 75.6584C78.5063 74.918 78.5397 74.151 78.5395 73.4176L78.541 69.3951C74.6643 66.9842 75.591 67.9442 72.1035 67.8438C70.6975 68.3014 69.4315 67.475 68.1481 67.7311C66.9617 67.9678 65.6918 69.0756 64.5801 69.5701L64.4971 69.6067L64.5018 73.4336C64.502 73.8364 64.6303 76.1549 64.2137 76.3555C63.2522 76.7953 62.7729 76.3936 62.7645 75.3783C62.7594 74.7487 62.6115 69.0699 62.8074 68.7838C63.2455 68.1442 66.5875 66.3856 67.267 66.2117ZM71.1672 57.5998C68.7811 57.8188 67.0281 59.9362 67.2582 62.3211C67.4883 64.7061 69.6139 66.4492 71.9979 66.208C74.366 65.9684 76.0951 63.8598 75.8666 61.4905C75.6379 59.1213 73.5375 57.3823 71.1672 57.5998Z" stroke="#1C001F" stroke-width="0.5"/>
</svg>
