<svg width="100" height="100" viewBox="0 0 100 100" fill="none" xmlns="http://www.w3.org/2000/svg">
<path d="M57.8647 27.4758C53.2393 27.4111 54.5485 25.8186 54.2872 22.052C54.196 20.7369 55.0967 19.8477 56.3649 19.6137L65.2671 19.6104C69.7032 19.649 69.2551 20.2785 69.4133 23.9861C69.5294 26.7066 68.7315 27.4322 66.0973 27.4758V30.4719C70.3157 31.1111 73.27 32.6838 76.7764 34.9455C80.1092 31.975 79.0852 31.1437 82.2065 34.2436C82.7385 34.7719 84.2796 35.7848 83.768 36.6674C83.343 37.4008 82.0298 38.4354 81.4214 39.1932L81.3721 39.2551C81.6936 39.8443 82.4215 40.718 82.8274 41.3223C90.4825 52.6109 87.729 67.8469 76.385 75.7164C74.5526 76.9877 72.7264 77.8893 70.6667 78.7271C62.1278 81.9828 52.4085 80.1727 45.4104 74.3109C29.9104 61.3281 35.6799 36.852 54.4022 31.2271C55.5383 30.8857 56.6774 30.5537 57.8647 30.4719V27.4758ZM64.7825 21.6637H56.3649C56.3594 22.8484 56.3327 24.1779 56.3649 25.3512H59.0089C61.7583 25.3518 64.5885 25.3887 67.3307 25.3512C67.344 21.4137 68.1579 21.6658 64.7825 21.6637ZM59.911 27.4758V30.1174H64.0118V27.4758H59.911ZM60.9243 32.1178C48.1508 32.6002 38.1917 43.3539 38.6889 56.1268C39.1862 68.8996 49.9514 78.8465 62.7235 78.3344C75.4749 77.823 85.402 67.0793 84.9055 54.3273C84.409 41.5756 73.6768 31.6359 60.9243 32.1178ZM79.8923 34.9455C79.3163 35.3059 78.9079 35.8176 78.4104 36.2891C78.8501 36.6908 79.4958 37.3783 79.8923 37.7076L81.3721 36.2891C81.0192 35.9328 80.3073 35.1656 79.8923 34.9455Z" fill="#1C001F"/>
<path d="M37.2682 35.5969C36.517 35.6278 28.4557 35.7389 28.0643 35.3998C27.2577 34.7008 27.5461 33.6408 28.71 33.5024C29.9526 33.5018 37.0454 33.3676 37.611 33.6356C38.6145 34.111 38.1922 35.3551 37.2682 35.5969Z" fill="#1C001F"/>
<path d="M62.0557 37.9739C60.0938 38.133 60.3412 34.4576 61.5936 33.9393C62.1674 33.8948 62.4082 34.0924 62.7836 34.4836C62.8617 35.5387 63.0602 37.501 62.0557 37.9739Z" fill="#1C001F"/>
<path d="M48.643 43.064C47.5735 43.271 44.8537 40.6419 47.0496 39.7964C48.1715 39.8374 50.7959 42.5472 48.643 43.064Z" fill="#1C001F"/>
<path d="M75.2776 43.3045C72.9928 43.5344 74.2493 41.0482 75.9844 40.148C78.784 39.7678 76.4778 42.6185 75.2776 43.3045Z" fill="#1C001F"/>
<path d="M32.7271 43.0638L14.7229 43.0556C13.8073 43.0462 12.7769 41.1161 15.4181 40.9808L30.879 40.9798C31.6611 40.98 32.4257 40.9688 33.2122 41.0247C34.3912 40.9599 34.9224 43.0858 32.7271 43.0638Z" fill="#1C001F"/>
<path d="M58.7707 51.5496C58.0226 50.732 57.3293 49.8611 56.6162 49.0051C55.8761 48.0496 53.2982 46.1299 55.2773 45.2203C56.6873 45.164 59.5937 49.348 60.5631 50.5467C65.2293 49.5414 67.8185 53.6 65.8363 57.7349C66.2297 58.3047 66.9654 59.1086 67.4273 59.632L69.3172 61.7933C69.8886 62.4371 71.83 64.099 69.8089 64.7929C69.5765 64.8726 69.2252 64.6767 69.033 64.5342C67.3918 62.9072 65.8685 60.8386 64.2033 59.1267C59.2562 61.7629 54.8463 55.7033 58.7707 51.5496ZM61.5736 52.4693C60.1334 52.6681 59.1312 54.0023 59.3412 55.441C59.5511 56.8797 60.8931 57.8717 62.33 57.6506C63.7513 57.4318 64.7302 56.1076 64.5226 54.6846C64.3148 53.2615 62.9982 52.2724 61.5736 52.4693Z" fill="#1C001F"/>
<path d="M31.5034 50.379C30.4403 50.4079 22.7602 50.4833 22.2807 50.2423C21.3639 49.7814 21.6758 48.5419 22.5719 48.2958C23.7903 48.2907 31.1227 48.1788 31.6944 48.405C32.6473 48.7819 32.3655 50.088 31.5034 50.379Z" fill="#1C001F"/>
<path d="M79.4174 55.1767C79.5551 54.5982 79.6795 54.3887 80.2215 54.1351C80.8064 54.1273 82.133 54.0474 82.623 54.2195C83.6377 54.576 83.465 55.7099 82.5547 56.1535C81.3943 56.2422 79.8144 56.4707 79.4174 55.1767Z" fill="#1C001F"/>
<path d="M43.2527 56.3479C42.1753 56.4335 39.7959 56.5856 40.5757 54.8343C40.7109 54.5307 40.9627 54.4235 41.2873 54.3302C41.8857 54.3212 42.8896 54.2452 43.4236 54.4454C44.4207 54.8192 44.1527 55.9794 43.2527 56.3479Z" fill="#1C001F"/>
<path d="M31.2333 57.5746L14.2073 57.58C12.7146 57.5873 12.3966 55.9181 13.7934 55.5189L24.8872 55.5183C26.5524 55.5177 29.742 55.457 31.4418 55.5939C32.0069 55.6392 32.6899 57.1297 31.2333 57.5746Z" fill="#1C001F"/>
<path d="M31.7178 65.2654C31.357 65.2938 30.7732 65.2686 30.3977 65.2678H27.9439C26.1752 65.2678 24.441 65.2807 22.6424 65.2403C21.0742 65.2049 20.9344 63.4129 22.2705 63.1469C23.6115 63.1393 31.2977 63.0326 31.9197 63.2594C32.998 63.6524 32.6357 64.9152 31.7178 65.2654Z" fill="#1C001F"/>
<path d="M76.7764 70.4618C75.8551 70.5926 73.0244 68.1715 74.9516 67.292C76.0453 67.0608 78.585 69.534 76.7764 70.4618Z" fill="#1C001F"/>
<path d="M47.5076 70.4617C45.1449 70.1336 47.0631 67.8447 48.34 67.292C50.8181 67.3154 48.6461 70.0643 47.5076 70.4617Z" fill="#1C001F"/>
<path d="M36.0487 72.8123C35.8082 72.8416 35.2463 72.8194 34.984 72.8172L29.9231 72.8133C29.4682 72.8133 28.453 72.8674 28.0633 72.7684C27.0098 72.5006 27.0908 71.2719 27.9233 70.7375C28.5313 70.7022 35.6608 70.6486 36.0416 70.7961C36.9963 71.1658 36.9485 72.3207 36.0487 72.8123Z" fill="#1C001F"/>
<path d="M62.0557 76.715C60.0817 76.8389 60.4586 73.3221 61.5936 72.8125C63.2743 73.0355 63.2264 76.2941 62.0557 76.715Z" fill="#1C001F"/>
</svg>
