<svg width="19" height="16" viewBox="0 0 19 16" fill="none" xmlns="http://www.w3.org/2000/svg">
<path fill-rule="evenodd" clip-rule="evenodd" d="M16.7891 0.10946C17.0194 0.012539 17.2714 -0.0208884 17.519 0.0126567C17.7666 0.0462018 18.0006 0.145493 18.1968 0.300197C18.393 0.4549 18.5441 0.659359 18.6345 0.892293C18.7248 1.12523 18.7511 1.37812 18.7106 1.62465L16.5971 14.4441C16.3921 15.6807 15.0353 16.3899 13.9013 15.7739C12.9526 15.2586 11.5437 14.4646 10.2764 13.6362C9.6427 13.2216 7.70166 11.8937 7.94021 10.9488C8.14522 10.1409 11.4067 7.10488 13.2704 5.29988C14.0019 4.59074 13.6683 4.18166 12.8045 4.83395C10.6594 6.45351 7.21523 8.9164 6.07651 9.6097C5.07197 10.221 4.54827 10.3254 3.92206 10.221C2.77961 10.0309 1.7201 9.73643 0.855336 9.37767C-0.313207 8.8931 -0.256364 7.28659 0.854404 6.8188L16.7891 0.10946Z" fill="black"/>
</svg>
