<svg width="11" height="15" viewBox="0 0 11 15" fill="none" xmlns="http://www.w3.org/2000/svg">
<path d="M2.34424 2.08552C2.33588 2.74002 2.38426 3.40945 2.3311 4.07411C2.36634 4.6852 -0.274148 5.43507 0.0374703 3.37381C0.15256 2.61278 -0.324523 0.340856 0.479711 0.0306318C3.34401 -0.064148 6.30269 0.0977354 9.17595 0.0286417C10.2438 0.0031547 11.1484 0.0200778 10.5897 1.37069C10.2388 2.21893 9.85654 3.05841 9.4812 3.89629L5.241 13.4334C5.0618 13.8281 4.87682 14.3876 4.65818 14.743C4.43338 15.1084 2.63256 15.0365 2.34424 14.8205C2.19132 14.0461 3.27054 12.3755 3.61361 11.6035L6.22703 5.71145C6.76265 4.51196 7.34507 3.30651 7.82833 2.08552H2.34424Z" fill="#1C001F"/>
</svg>
