<svg width="232" height="200" viewBox="0 0 232 200" fill="none" xmlns="http://www.w3.org/2000/svg">
<mask id="mask0_2_138" style="mask-type:alpha" maskUnits="userSpaceOnUse" x="16" y="0" width="200" height="200">
<rect x="16" width="200" height="200" rx="10" fill="white"/>
<rect x="16.5" y="0.5" width="199" height="199" rx="9.5" stroke="#1C2833" stroke-opacity="0.2"/>
</mask>
<g mask="url(#mask0_2_138)">
<path fill-rule="evenodd" clip-rule="evenodd" d="M-26.4259 0.195312H141.387V100.195H-26.465L-26.4259 0.195312Z" fill="white"/>
<path d="M-26.4258 0.195312V7.69531L13.6133 32.3828L28.6914 32.8906L-26.3867 0.15625L-26.4258 0.195312Z" fill="#CC0000"/>
<path d="M-9.27747 0.195312L39.2772 30.625V0.15625H-9.27747V0.195312Z" fill="#000066"/>
<path d="M45.7616 0.195312V39.0234H-26.465V61.25H45.8007V100.078H67.9882V61.25H140.137V39.0234H67.9491V0.15625H45.7616V0.195312Z" fill="#CC0000"/>
<path d="M74.4335 0.195312V28.8672L121.894 0.390625L74.4335 0.15625V0.195312Z" fill="#000066"/>
<path d="M75.9178 31.9922L89.2772 31.8359L141.152 0.390625L127.402 0.664063L75.8788 32.0312L75.9178 31.9922Z" fill="#CC0000"/>
<path d="M140.645 8.78906L100.996 32.3828L140.098 32.5391V67.6953H106.816L139.785 89.1797L140.293 100.117L122.676 99.8438L74.4336 71.4062V100.078H39.2773V71.4062L-5.95703 100L-26.3867 100.078V200H306.621V0.15625L140.996 0M-26.4648 11.2891L-26.6211 31.9922L8.45703 32.5391L-26.4258 11.2891H-26.4648ZM-26.4648 67.6953V88.9844L6.85547 67.9297L-26.4648 67.6953Z" fill="#000066"/>
<path d="M101.816 68.5938L87.9492 68.4766L140.293 99.7266L139.941 92.5781L101.855 68.5938H101.816ZM-13.418 100.234L35.6445 69.375L22.7539 69.4922L-26.4258 100.273" fill="#CC0000"/>
<path d="M184.863 96.6016L185.684 97.4219L184.824 96.6016H184.863Z" fill="#58587B"/>
<path d="M179.785 97.4219L180.605 98.2813L179.746 97.4219H179.785Z" fill="#1B1B74"/>
<path d="M155.019 98.9844C155.019 120.859 152.519 145.469 168.808 162.578C172.168 166.094 178.535 174.141 184.004 173.828C189.707 173.477 197.09 165.039 200.332 160.898C214.551 142.187 212.285 119.922 212.754 98.3203C206.347 101.211 203.144 102.148 197.558 102.148C193.418 102.539 187.012 99.8047 183.183 97.9297C179.455 100.479 175.043 101.841 170.527 101.836C163.027 102.148 160.644 100.898 155.019 98.9844Z" fill="#CCCC33"/>
<path d="M179.785 98.2812L180.605 99.1406L179.746 98.2812H179.785Z" fill="#A4A43D"/>
<path d="M211.035 98.2812L211.894 99.1406L211.074 98.2812H211.035Z" fill="#53527C"/>
<path d="M156.738 101.328C156.308 112.812 156.66 125.742 158.457 138.047C160.41 144.453 160.176 147.969 163.144 151.836L204.394 151.523C206.656 147.623 208.204 143.35 208.965 138.906C211.308 126.484 211.308 112.773 211.387 100.547C206.863 103.049 201.689 104.125 196.543 103.633C192.068 103.35 187.72 102.026 183.848 99.7656C179.902 102.109 178.496 103.203 171.973 103.477C166.894 103.75 162.793 104.141 156.738 101.328Z" fill="white"/>
<path d="M184.863 99.1406L185.684 99.9609L184.824 99.1406H184.863Z" fill="#D9D868"/>
<path d="M189.941 99.1406L190.762 99.9609L189.902 99.1406H189.941Z" fill="#49497D"/>
<path d="M159.434 99.9609L160.293 100.82L159.473 99.9609H159.434Z" fill="#A4A43D"/>
<path d="M160.293 100L161.152 100.82L160.293 99.9609V100Z" fill="#99994E"/>
<path d="M161.152 100L162.011 100.82L161.152 99.9609V100Z" fill="#6E6C70"/>
<path d="M162.012 100L162.832 100.82L162.012 99.9609V100Z" fill="#49497D"/>
<path d="M162.832 100L163.691 100.82L162.832 99.9609" fill="#1B1B74"/>
<path d="M174.707 100L175.527 100.82L174.668 99.9609L174.707 100Z" fill="#53527C"/>
<path d="M175.527 100L176.387 100.82L175.527 99.9609V100Z" fill="#8D8D5B"/>
<path d="M176.386 100L177.246 100.82L176.386 99.9609V100Z" fill="#A4A43D"/>
<path d="M180.605 100L181.465 100.82L180.605 99.9609V100Z" fill="#E5E59D"/>
<path d="M181.465 100L182.285 100.82L181.465 99.9609V100Z" fill="#FBFAF2"/>
<path d="M185.684 100L186.543 100.82L185.684 99.9609V100Z" fill="#F2F1D2"/>
<path d="M186.543 100L187.363 100.82L186.543 99.9609V100Z" fill="#D9D868"/>
<path d="M190.762 100L191.621 100.82L190.762 99.9609V100Z" fill="#A4A43D"/>
<path d="M191.621 100L192.441 100.82L191.621 99.9609V100Z" fill="#6E6C70"/>
<path d="M192.441 100L193.301 100.82L192.441 99.9609V100Z" fill="#3A3A7C"/>
<path d="M203.457 100L204.277 100.82L203.457 99.9609V100Z" fill="#0E0E6E"/>
<path d="M204.316 100L205.136 100.82L204.316 99.9609V100Z" fill="#32327B"/>
<path d="M205.176 100L205.957 100.82L205.176 99.9609V100Z" fill="#58587B"/>
<path d="M205.957 100L206.816 100.82L205.996 99.9609L205.957 100Z" fill="#808067"/>
<path d="M207.402 100.234L207.949 100.547L207.402 100.273V100.234Z" fill="#A4A43D"/>
<path d="M163.379 101.094L163.965 101.367L163.418 101.094H163.379Z" fill="#A4A43D"/>
<path d="M179.785 100.82L180.605 101.68L179.746 100.82H179.785Z" fill="#FBFAF2"/>
<path d="M211.035 100.82L211.894 101.68L211.074 100.82H211.035Z" fill="#D0D045"/>
<path d="M189.941 101.68L190.762 102.5L189.902 101.68H189.941Z" fill="#E1E18C"/>
<path d="M174.707 102.5L175.527 103.359L174.668 102.5H174.707Z" fill="#E5E3AF"/>
<path d="M205.957 102.5L206.816 103.359L205.996 102.5H205.957Z" fill="#F6F6E4"/>
<path d="M176.386 103.359L178.066 105.039V103.359H176.386Z" fill="#FEF8F1"/>
<path d="M174.707 104.219L175.527 105.039L174.668 104.219H174.707Z" fill="#FEF8F1"/>
<path d="M174.707 105.078L175.527 105.859L174.668 105.078H174.707Z" fill="#FBC477"/>
<path d="M174.707 105.898L175.527 106.758L174.668 105.898H174.707Z" fill="#FE9F11"/>
<path d="M179.785 107.578L180.605 108.438L179.746 107.578H179.785Z" fill="#FBC477"/>
<path d="M189.941 108.438L190.762 109.297L189.902 108.438H189.941Z" fill="#F8DCBB"/>
<path d="M172.988 110.938L173.848 111.797L172.988 110.977V110.938Z" fill="#FEF8F1"/>
<path d="M173.847 110.938L174.707 111.797L173.847 110.977V110.938Z" fill="#FE9F11"/>
<path d="M197.52 110.938L198.379 111.797L197.52 110.977V110.938Z" fill="#FDAB33"/>
<path d="M198.379 110.938L199.199 111.797L198.379 110.977V110.938Z" fill="#FCB144"/>
<path d="M199.238 110.938L200.058 111.797L199.238 110.977V110.938Z" fill="#FBC477"/>
<path d="M200.098 110.938L201.777 112.656L200.059 110.977L200.098 110.938Z" fill="#F9D6AA"/>
<path d="M200.879 110.938L201.738 111.797L200.918 110.977L200.879 110.938Z" fill="#FEF8F1"/>
<path d="M184.863 111.836L185.684 112.656L184.824 111.836H184.863Z" fill="#FDAB33"/>
<path d="M189.941 111.836L190.762 112.656L189.902 111.836H189.941Z" fill="#FEA522"/>
<path d="M156.074 116.016L156.933 116.875L156.074 116.055V116.016Z" fill="#F6F6E4"/>
<path d="M171.308 116.016L172.168 116.875L171.308 116.055V116.016Z" fill="#FEA522"/>
<path d="M180.605 116.016L181.465 116.875L180.605 116.055V116.016Z" fill="#FBEAD6"/>
<path d="M194.16 116.016L194.98 116.875L194.16 116.055V116.016Z" fill="#FCF1E4"/>
<path d="M196.699 116.016L197.519 116.875L196.699 116.055V116.016Z" fill="#FEF8F1"/>
<path d="M179.785 116.914L180.605 117.734L179.746 116.914H179.785Z" fill="#FBBE66"/>
<path d="M179.785 117.734L180.605 118.594L179.746 117.734H179.785Z" fill="#FCF1E4"/>
<path d="M184.863 117.734L185.684 118.594L184.824 117.734H184.863Z" fill="#FEA522"/>
<path d="M170.449 118.594L169.629 121.094L170.449 118.555V118.594Z" fill="#FACA88"/>
<path d="M179.785 118.594L180.605 119.414L179.746 118.594H179.785Z" fill="#FEF8F1"/>
<path d="M184.863 119.414L185.684 120.273L184.824 119.414H184.863Z" fill="#FE9F11"/>
<path d="M189.941 119.414L190.762 120.273L189.902 119.414H189.941Z" fill="#FBC477"/>
<path d="M184.863 120.273L185.684 121.133L184.824 120.273H184.863Z" fill="#FBEAD6"/>
<path d="M160.293 121.094L161.152 121.953L160.293 121.133V121.094Z" fill="#FAE3C9"/>
<path d="M161.152 121.094L162.832 122.812L161.152 121.133V121.094Z" fill="#FE9F11"/>
<path d="M162.012 121.094L162.832 121.953L162.012 121.133V121.094ZM169.629 121.094L170.449 121.953L169.629 121.133V121.094Z" fill="#FBEAD6"/>
<path d="M170.449 121.094L171.309 121.953L170.449 121.133V121.094Z" fill="#FAE3C9"/>
<path d="M178.066 121.094L178.926 121.953L178.066 121.133V121.094Z" fill="#FE9F11"/>
<path d="M178.926 121.094L179.746 121.953L178.926 121.133V121.094Z" fill="#FBC477"/>
<path d="M179.785 121.094L180.605 121.953L179.746 121.133L179.785 121.094Z" fill="#FEA522"/>
<path d="M182.285 121.094L183.145 121.953L182.285 121.133V121.094Z" fill="#FBC477"/>
<path d="M183.145 121.094L184.004 121.953L183.145 121.133V121.094Z" fill="#FEF8F1"/>
<path d="M186.543 121.094L187.363 121.953L186.543 121.133V121.094Z" fill="#FBC477"/>
<path d="M193.301 121.094L194.16 121.953L193.301 121.133V121.094Z" fill="white"/>
<path d="M194.16 121.094L194.98 121.953L194.16 121.133V121.094Z" fill="#FDAB33"/>
<path d="M197.52 121.094L198.379 121.953L197.52 121.133V121.094Z" fill="#FBC477"/>
<path d="M172.754 122.266L173.301 122.539L172.715 122.266H172.754Z" fill="#F9D6AA"/>
<path d="M189.941 124.492L190.762 125.352L189.902 124.492H189.941Z" fill="#FBBE66"/>
<path d="M200.879 124.492L201.738 125.352L200.918 124.492H200.879Z" fill="#F9D099"/>
<path d="M162.832 126.172L163.691 127.031L162.832 126.211V126.172Z" fill="#FEA522"/>
<path d="M166.23 126.172L167.09 127.031L166.23 126.211V126.172Z" fill="#FE9F11"/>
<path d="M172.988 126.172L173.848 127.031L172.988 126.211V126.172Z" fill="#FCB144"/>
<path d="M176.386 126.172L177.246 127.031L176.386 126.211V126.172Z" fill="#FACA88"/>
<path d="M190.762 126.172L191.621 127.031L190.762 126.211V126.172Z" fill="#F8DCBB"/>
<path d="M201.777 126.172L202.597 127.031L201.777 126.211V126.172Z" fill="#FCB144"/>
<path d="M189.941 127.891L190.762 128.75L189.902 127.891H189.941Z" fill="#F9D6AA"/>
<path d="M189.941 128.75L190.762 129.57L189.902 128.75H189.941Z" fill="#FE9F11"/>
<path d="M205.957 129.57L207.676 131.289L205.996 129.57H205.957Z" fill="#FEF8F1"/>
<path d="M205.957 130.43L206.816 131.289L205.996 130.43H205.957Z" fill="#FDAB33"/>
<path d="M154.394 131.25L155.254 132.109L154.394 131.289V131.25Z" fill="#666677"/>
<path d="M156.933 131.25L157.793 132.109L156.933 131.289V131.25Z" fill="#F6F6E4"/>
<path d="M167.09 131.25L167.91 132.109L167.09 131.289V131.25Z" fill="#F9D6AA"/>
<path d="M173.847 131.25L174.707 132.109L173.847 131.289V131.25Z" fill="#FDAB33"/>
<path d="M174.707 131.25L175.527 132.109L174.668 131.289L174.707 131.25Z" fill="#FE9F11"/>
<path d="M175.527 131.25L176.387 132.109L175.527 131.289V131.25Z" fill="#FCF1E4"/>
<path d="M189.941 131.25L190.762 132.109L189.902 131.289L189.941 131.25Z" fill="#FEA522"/>
<path d="M190.762 131.25L191.621 132.109L190.762 131.289" fill="#FACA88"/>
<path d="M206.816 131.25L207.676 132.109L206.816 131.289V131.25Z" fill="#FCB144"/>
<path d="M210.215 131.25L211.074 132.109L210.215 131.289V131.25Z" fill="#DDDC7A"/>
<path d="M189.941 132.109L190.762 132.969L189.902 132.109H189.941Z" fill="#F8DCBB"/>
<path d="M179.785 132.969L180.605 133.828L179.746 132.969H179.785Z" fill="#FCF1E4"/>
<path d="M189.941 132.969L190.762 133.828L189.902 132.969H189.941Z" fill="#FAE3C9"/>
<path d="M205.957 132.969L206.816 133.828L205.996 132.969H205.957Z" fill="#FCB755"/>
<path d="M179.785 133.828L180.605 134.648L179.746 133.828H179.785Z" fill="#F9D099"/>
<path d="M177.246 134.648L178.066 135.508L177.207 134.648H177.246Z" fill="#F9D6AA"/>
<path d="M179.785 134.648L180.605 135.508L179.746 134.648H179.785Z" fill="#FBC477"/>
<path d="M184.863 134.648L185.684 135.508L184.824 134.648H184.863Z" fill="#F8DCBB"/>
<path d="M189.941 135.508L190.762 136.367L189.902 135.508H189.941Z" fill="#FE9F11"/>
<path d="M155.215 136.328L156.074 137.188L155.215 136.367V136.328Z" fill="#737370"/>
<path d="M157.754 136.328L158.613 137.188L157.754 136.367V136.328Z" fill="#FBFAF2"/>
<path d="M164.551 136.328L165.371 137.188L164.551 136.367V136.328Z" fill="#FEA522"/>
<path d="M172.168 136.328L172.988 137.188L172.168 136.367V136.328Z" fill="#FE9F11"/>
<path d="M172.988 136.328L173.848 137.188L172.988 136.367V136.328Z" fill="#FCB144"/>
<path d="M173.847 136.328L174.707 137.188L173.847 136.367V136.328Z" fill="#FBC477"/>
<path d="M174.707 136.328L175.527 137.188L174.668 136.367L174.707 136.328Z" fill="#FACA88"/>
<path d="M175.527 136.328L176.387 137.188L175.527 136.367V136.328Z" fill="#FBC477"/>
<path d="M176.386 136.328L177.246 137.188L176.386 136.367V136.328Z" fill="#FCB144"/>
<path d="M177.207 136.328L178.066 137.188L177.207 136.367V136.328Z" fill="#FDAB33"/>
<path d="M189.082 136.328L189.902 137.188L189.082 136.367V136.328Z" fill="#FBC477"/>
<path d="M189.941 136.328L190.762 137.188L189.902 136.367L189.941 136.328Z" fill="#FEF8F1"/>
<path d="M201.777 136.328L202.597 137.188L201.777 136.367V136.328Z" fill="#FDAB33"/>
<path d="M209.355 136.328L210.215 137.188L209.355 136.367V136.328Z" fill="#E1E18C"/>
<path d="M211.895 136.328L212.754 137.188L211.895 136.367V136.328Z" fill="#262678"/>
<path d="M211.035 138.047L211.894 138.906L211.074 138.047H211.035Z" fill="#808067"/>
<path d="M200.879 138.906L201.738 139.727L200.918 138.906H200.879Z" fill="#FACA88"/>
<path d="M211.035 138.906L211.894 139.727L211.074 138.906H211.035Z" fill="#58587B"/>
<path d="M200.097 139.727L199.238 141.406L200.058 139.727H200.097Z" fill="#FDAB33"/>
<path d="M211.035 139.727L211.894 140.586L211.074 139.727H211.035Z" fill="#3A3A7C"/>
<path d="M184.863 140.586L185.684 141.445L184.824 140.586H184.863Z" fill="#FEA522"/>
<path d="M211.035 140.586L211.894 141.445L211.074 140.586H211.035Z" fill="#0E0E6E"/>
<path d="M156.074 141.406L156.933 142.266L156.074 141.445V141.406Z" fill="#3A3A7C"/>
<path d="M158.613 141.406L159.472 142.266L158.613 141.445V141.406Z" fill="#E5E59D"/>
<path d="M167.91 141.406L169.629 143.125L167.91 141.445V141.406Z" fill="#FAE3C9"/>
<path d="M168.769 141.406L169.629 142.266L168.769 141.445V141.406Z" fill="#FE9F11"/>
<path d="M184.863 141.406L185.684 142.266L184.824 141.445L184.863 141.406Z" fill="#F8DCBB"/>
<path d="M192.441 141.406L193.301 142.266L192.441 141.445V141.406Z" fill="#FCF1E4"/>
<path d="M193.301 141.406L194.16 142.266L193.301 141.445V141.406Z" fill="#FDAB33"/>
<path d="M198.379 141.406L199.199 142.266L198.379 141.445V141.406Z" fill="#FCB144"/>
<path d="M199.238 141.406L200.058 142.266L199.238 141.445V141.406Z" fill="#FEF8F1"/>
<path d="M207.676 141.406L208.535 142.266L207.676 141.445V141.406Z" fill="#FBFAF2"/>
<path d="M210.215 141.406L211.074 142.266L210.215 141.445V141.406Z" fill="#8D8D5B"/>
<path d="M189.941 143.125L190.762 143.945L189.902 143.125H189.941Z" fill="#FBBE66"/>
<path d="M179.785 143.945L180.605 144.805L179.746 143.945H179.785Z" fill="#FDAB33"/>
<path d="M205.957 146.484L206.816 147.344L205.996 146.484H205.957Z" fill="#F6F6E4"/>
<path d="M205.957 147.344L206.816 148.203L205.996 147.344H205.957Z" fill="#E1E18C"/>
<path d="M189.941 149.023L190.762 149.883L189.902 149.023H189.941Z" fill="#FE9F11"/>
<path d="M189.941 149.883L190.762 150.742L189.902 149.883H189.941Z" fill="#FAE3C9"/>
<path d="M160.332 151.563L161.152 152.422L160.293 151.563H160.332Z" fill="#6E6C70"/>
<path d="M163.223 151.562C166.152 157.773 176.504 172.344 184.473 172.07C192.168 171.797 200.879 157.539 204.277 151.562H163.223Z" fill="#00CCFF"/>
<path d="M205.957 151.562L206.816 152.422L205.996 151.562H205.957Z" fill="#A4A43D"/>
<path d="M160.332 152.422L161.152 153.281L160.293 152.422H160.332Z" fill="#1B1B74"/>
<path d="M205.957 152.422L206.816 153.281L205.996 152.422H205.957Z" fill="#666677"/>
<path d="M205.176 153.281L204.316 154.961L205.136 153.281H205.176Z" fill="#A4A43D"/>
<path d="M205.957 153.281L206.816 154.102L205.996 153.281" fill="#0E0E6E"/>
<path d="M200.879 155.82L201.738 156.641L200.918 155.82H200.879Z" fill="#27C2AA"/>
<path d="M200.879 156.641L201.738 157.5L200.918 156.641H200.879Z" fill="#96B247"/>
<path d="M200.879 160.039L201.738 160.898L200.918 160.039H200.879Z" fill="#666677"/>
<path d="M199.238 161.719L198.379 163.398L199.199 161.719H199.238Z" fill="#8D8D5B"/>
<path d="M174.707 165.977L175.527 166.797L174.668 165.977H174.707Z" fill="#74B166"/>
<path d="M195.019 165.977L194.16 167.656L194.98 165.977H195.019Z" fill="#8D8D5B"/>
<path d="M189.941 167.656L190.762 168.477L189.902 167.656H189.941Z" fill="#74B166"/>
<path d="M174.707 169.336L175.527 170.195L174.668 169.336H174.707Z" fill="#1B1B74"/>
<path d="M179.785 169.336L180.605 170.195L179.746 169.336H179.785Z" fill="#0DC9C1"/>
<path d="M179.785 170.195L180.605 171.016L179.746 170.195H179.785Z" fill="#96B247"/>
<path d="M184.863 171.016L185.684 171.875L184.824 171.016H184.863Z" fill="#27C2AA"/>
<path d="M189.941 171.016L190.762 171.875L189.902 171.016H189.941Z" fill="#0E0E6E"/>
<path d="M179.785 172.734L180.605 173.555L179.746 172.734H179.785Z" fill="#666677"/>
<path d="M184.863 173.555L185.684 174.414L184.824 173.555H184.863Z" fill="#A4A43D"/>
<path d="M184.863 174.414L185.684 175.273L184.824 174.414H184.863Z" fill="#32327B"/>
<path d="M184.863 118.594C186.152 121.64 190.332 125.039 191.504 126.719C190.019 128.359 189.707 128.203 189.941 131.289C192.441 128.594 192.519 128.32 194.16 128.75C197.715 132.305 194.785 140 191.816 141.64C188.848 143.437 189.394 141.64 184.941 143.828C187.012 145.586 189.355 143.594 191.269 144.14C192.324 145.351 190.801 147.656 191.582 149.765C193.301 149.609 193.105 146.172 193.496 144.922C194.746 140.351 202.207 137.148 202.598 132.969C204.16 132.187 205.762 132.734 207.676 133.789C206.738 129.883 203.574 129.922 202.715 128.711C200.683 125.586 198.926 122.07 194.59 121.172C191.348 120.508 191.582 121.406 189.512 120C188.183 118.945 184.199 117.031 184.824 118.594H184.863Z" fill="#FF9900"/>
<path fill-rule="evenodd" clip-rule="evenodd" d="M194.238 122.07C194.263 122.174 194.264 122.281 194.241 122.385C194.219 122.489 194.173 122.586 194.107 122.67C194.041 122.754 193.957 122.821 193.862 122.867C193.766 122.914 193.661 122.938 193.555 122.938C193.448 122.938 193.343 122.914 193.248 122.867C193.152 122.821 193.068 122.754 193.002 122.67C192.936 122.586 192.89 122.489 192.868 122.385C192.845 122.281 192.846 122.174 192.871 122.07C192.908 121.917 192.995 121.78 193.119 121.683C193.243 121.585 193.397 121.532 193.555 121.532C193.712 121.532 193.866 121.585 193.99 121.683C194.114 121.78 194.201 121.917 194.238 122.07Z" fill="white"/>
<path d="M174.394 131.641C176.504 129.023 177.519 123.75 178.457 121.953C180.605 122.461 180.605 122.813 183.222 121.172C179.707 120.195 179.394 120.273 179.004 118.633C180.488 113.789 188.652 112.773 191.504 114.648C194.472 116.445 192.597 116.836 196.66 119.727C197.246 117.07 194.394 115.937 193.926 113.984C194.551 112.461 197.285 112.812 198.808 111.055C197.871 109.648 194.902 111.445 193.613 111.641C189.004 112.695 182.676 107.578 178.769 109.18C177.402 108.125 177.129 106.484 177.207 104.297C174.16 106.992 175.644 109.766 174.98 111.094C173.183 114.297 170.918 117.539 172.129 121.758C173.027 124.961 173.691 124.336 173.418 126.836C173.144 128.477 173.301 132.891 174.394 131.602V131.641Z" fill="#FF9900"/>
<path fill-rule="evenodd" clip-rule="evenodd" d="M173.066 121.68C173.228 121.595 173.416 121.576 173.59 121.627C173.765 121.678 173.914 121.795 174.004 121.953C174.075 122.033 174.127 122.129 174.156 122.232C174.184 122.335 174.189 122.444 174.169 122.549C174.15 122.654 174.106 122.754 174.042 122.84C173.978 122.925 173.896 122.996 173.801 123.045C173.705 123.094 173.6 123.121 173.493 123.123C173.386 123.125 173.28 123.103 173.183 123.058C173.085 123.013 173 122.946 172.932 122.863C172.865 122.78 172.817 122.683 172.793 122.578C172.72 122.421 172.707 122.243 172.758 122.077C172.808 121.911 172.918 121.77 173.066 121.68Z" fill="white"/>
<path d="M191.504 133.438C188.184 132.969 183.105 134.805 181.113 134.922C180.449 132.812 180.723 132.656 177.988 131.25C178.965 134.766 179.16 134.961 177.988 136.172C173.066 137.422 167.988 130.938 168.105 127.539C168.105 124.023 169.394 125.469 169.785 120.508C167.246 121.367 167.715 124.414 166.269 125.781C164.668 126.055 163.535 123.555 161.269 123.164C160.527 124.727 163.613 126.289 164.473 127.266C167.715 130.703 166.621 138.75 170.019 141.25C169.824 142.969 168.574 144.063 166.66 145.156C170.527 146.328 172.129 143.633 173.613 143.555C177.285 143.398 181.23 143.672 184.238 140.43C186.504 138.008 185.605 137.734 187.91 136.68C189.473 136.094 193.144 133.672 191.465 133.438H191.504Z" fill="#FF9900"/>
<path fill-rule="evenodd" clip-rule="evenodd" d="M183.652 139.687C183.551 139.656 183.458 139.601 183.38 139.528C183.302 139.455 183.243 139.366 183.205 139.266C183.167 139.167 183.152 139.06 183.161 138.954C183.171 138.848 183.204 138.746 183.259 138.654C183.314 138.563 183.388 138.485 183.477 138.427C183.567 138.369 183.668 138.332 183.773 138.319C183.879 138.305 183.986 138.316 184.087 138.35C184.188 138.384 184.28 138.441 184.355 138.515C184.468 138.626 184.539 138.771 184.559 138.928C184.579 139.084 184.546 139.243 184.465 139.378C184.384 139.513 184.259 139.617 184.112 139.673C183.965 139.729 183.803 139.734 183.652 139.687Z" fill="white"/>
</g>
</svg>
