<svg width="100" height="100" viewBox="0 0 100 100" fill="none" xmlns="http://www.w3.org/2000/svg">
<path d="M69.7505 43.9571C61.9513 44.1066 55.507 37.9066 55.355 30.1075C55.2031 22.3083 61.4009 15.862 69.2 15.7074C77.0027 15.5528 83.4527 21.7542 83.6048 29.557C83.7568 37.3597 77.5533 43.8077 69.7505 43.9571ZM68.7527 17.6449C62.0121 18.0552 56.8849 23.8593 57.3093 30.5989C57.7339 37.3386 63.5488 42.4536 70.2875 42.015C77.0062 41.5777 82.1027 35.7837 81.6794 29.064C81.2564 22.3445 75.4732 17.2357 68.7527 17.6449Z" fill="#1C001F"/>
<path d="M67.275 23.0803C67.2744 22.1676 67.2014 21.5572 68.2484 21.3467C69.2211 21.4963 69.1535 22.2742 69.2543 23.0803C72.9133 22.9305 75.4199 25.7316 73.3359 29.0395C77.0096 31.4125 75.4939 36.2971 70.7643 36.2355H68.7047C68.7211 37.4828 68.126 38.7625 66.8953 37.5453C66.7736 37.0832 66.7768 36.709 66.7744 36.2355C65.3367 36.2537 64.5902 36.4264 64.5836 34.7738L64.5771 25.1705C64.5781 22.6133 64.985 23.059 67.275 23.0803ZM66.4729 24.9969V28.765C67.9619 28.7684 70.5477 29.0553 71.6969 28.2141C73.1754 25.6818 71.0393 24.9807 69.0082 24.9879L66.4729 24.9969ZM71.6969 30.5361C69.9311 30.7641 68.2533 30.7004 66.4729 30.6971C66.4727 31.884 66.449 33.1482 66.4729 34.3283H68.2484C69.3299 34.3316 71.134 34.4486 72.1695 34.1918C74.1922 33.69 73.4332 30.2156 71.6969 30.5361Z" fill="#1C001F"/>
<path d="M32.3635 30.8916C34.3166 28.8977 36.6953 28.1893 39.391 27.9358C44.7979 27.7106 48.9395 30.2252 50.6311 35.5492C51.7168 38.967 51.2602 42.0852 51.0893 45.5334C50.9793 47.7524 51.5862 49.4559 48.7682 50.3149C48.6967 53.9053 47.0617 57.057 44.1737 59.2002C44.2252 59.9664 44.4674 61.4139 44.6037 62.1906L50.6278 63.9891C57.8725 66.1193 59.9737 67.858 59.961 75.6342L59.9639 79.8807C59.9647 81.06 60.0022 82.2461 59.9168 83.4233C59.8451 84.4106 58.3541 84.5611 58.1428 83.6563C57.9869 82.9885 58.0483 81.9211 58.0502 81.2037L58.0522 75.8176C58.052 72.0262 58.0326 69.0551 53.9731 67.0805C52.0686 66.1541 47.0612 64.9002 44.8303 64.2789C42.8127 67.8656 40.5379 73.1781 35.5961 70.6436C33.8264 69.6684 32.1797 66.0578 31.05 64.2789C26.9612 65.5863 19.7588 66.458 18.5486 71.2649C18.2051 72.6291 18.319 74.2613 18.3191 75.6713L18.3202 80.9582C18.3212 81.8533 18.3545 82.8133 18.32 83.6965C17.6423 84.701 16.4986 84.1559 16.4821 83.5131C16.3939 80.0684 16.4494 75.8609 16.4579 72.4607C16.4176 69.7785 18.4457 66.8442 20.7989 65.6018C22.7305 64.5818 28.9285 62.717 31.478 62.1906C31.5709 61.4373 31.6682 60.708 31.7811 59.9576C27.701 56.7594 27.1299 55.9908 26.0906 50.5107C23.9776 49.8051 23.3707 47.5693 24.4196 45.7756C23.4973 43.532 22.8487 41.3365 23.1469 38.8717C23.6604 34.6264 27.8537 30.2916 32.3635 30.8916ZM39.6848 29.8549C37.5631 30.0213 36.0201 30.4818 34.2645 31.7748C33.8961 32.0463 33.2807 32.7072 32.9518 32.9092C32.5078 32.8766 31.8102 32.7981 31.3928 32.8236C25.9186 33.1604 23.4174 40.1629 26.0906 44.4875C27.9215 38.0861 31.5731 42.1281 35.9658 38.9397C36.4401 38.5955 36.7977 38.2938 37.3283 38.0369C38.0305 38.04 38.3992 38.9461 38.7766 39.4537C39.383 40.2695 39.9725 40.8772 40.7494 41.5203C40.7436 40.8264 40.5336 39.1852 41.635 39.1918C41.8604 39.1932 46.667 41.2959 47.0127 41.5018C48.2684 42.2496 48.377 43.1854 48.7682 44.4875H49.2129C49.566 41.6537 49.6389 39.3016 48.9184 36.4998C47.8604 32.3854 44.0174 29.3676 39.6848 29.8549ZM37.0906 40.4983C35.5965 41.6365 33.2356 42.4266 31.3469 42.4281C28.4397 42.4303 28.0531 43.4826 28.0748 46.0736C27.4647 46.6527 27.1973 46.7775 26.509 46.2691C25.3582 47.0674 25.5711 48.4125 26.8572 48.6742C27.7137 48.8484 28.0936 48.5891 28.0729 49.8621C27.9666 56.4096 34.0658 60.9469 40.4229 59.049C44.4526 57.5178 47.0285 54.0914 46.878 49.7139C46.8039 47.5615 48.3623 49.0432 49.2129 47.7078C49.3533 45.3061 48.1246 46.943 47.1268 46.1338C46.5168 45.6393 47.0862 43.7307 46.1385 43.2139C45.135 42.6961 43.8315 42.2518 42.7776 41.7902L42.799 41.8715C43.0406 42.7629 43.8442 43.5842 42.7776 44.2729C40.8746 44.5162 38.4951 42.358 37.4604 40.9315C37.3686 40.8049 37.2164 40.5684 37.0906 40.4983ZM42.3328 60.3996C39.2629 61.6039 36.7123 61.6535 33.5692 60.7338C33.4307 61.6461 33.3231 62.8807 32.9518 63.6951C33.6199 64.8772 34.6619 66.4115 35.2076 67.5424L35.2403 67.583C38.1104 71.2289 39.575 69.2455 41.5541 66.0518C42.0862 65.1932 42.7164 64.2113 43.134 63.3078C42.4584 62.4707 42.5627 60.4746 42.3328 60.3996Z" fill="#1C001F"/>
<path d="M73.1532 53.9443C72.4579 51.1639 73.9698 48.6467 76.8838 48.3088C79.162 48.0846 81.2446 49.801 81.486 52.0631C81.909 56.0303 77.4895 58.1863 74.2477 55.5721C71.8465 57.099 69.359 58.5351 66.8954 59.9574C67.5477 61.182 67.4442 62.4644 66.8954 63.6949C69.1297 64.7392 71.5092 66.3375 73.7438 67.5422C78.7981 62.2896 85.2362 71.3455 78.6231 74.2914C74.9448 75.5482 72.5106 72.7676 72.7653 69.2152C70.5086 68.1105 68.0487 66.4455 65.7668 65.2562C64.2985 66.3906 62.3395 66.4846 60.7885 65.5365C56.1639 62.7101 59.8184 54.9064 65.7668 58.4439C67.8493 56.8926 70.8657 55.3674 73.1532 53.9443ZM77.0272 50.2006C75.7395 50.3412 74.8075 51.4963 74.942 52.7846C75.0766 54.073 76.2272 55.0105 77.5163 54.882C78.8139 54.7525 79.759 53.5928 79.6235 52.2957C79.4879 50.9986 78.3237 50.059 77.0272 50.2006ZM62.7938 59.5084C61.5045 59.6346 60.5573 60.7756 60.6706 62.066C60.7836 63.3566 61.9153 64.315 63.2067 64.2146C64.5167 64.1129 65.4918 62.9619 65.377 61.6531C65.2622 60.3441 64.1014 59.3806 62.7938 59.5084ZM76.7555 67.9418C75.4547 68.1127 74.5387 69.3055 74.7092 70.6062C74.8797 71.9068 76.0725 72.8232 77.3733 72.6529C78.6745 72.4826 79.5911 71.2894 79.4204 69.9883C79.2499 68.6871 78.0565 67.7709 76.7555 67.9418Z" fill="#1C001F"/>
<path d="M37.7998 77.0285C36.508 77.3585 35.8891 75.6976 37.0907 75.0582C38.5147 74.941 38.8899 76.247 37.7998 77.0285Z" fill="#1C001F"/>
<path d="M26.509 84.2469C25.6877 84.2828 25.4071 83.8209 25.3606 83.0963C25.269 81.6697 24.7237 76.0402 26.0907 75.4982C26.9278 75.4789 27.2434 75.8682 27.2362 76.69C27.2159 78.9994 27.326 81.3594 27.1903 83.6604C27.1753 83.9164 26.7149 84.157 26.509 84.2469Z" fill="#1C001F"/>
<path d="M50.2472 84.2472C49.357 84.4157 49.0197 83.8837 49.0017 83.0593C48.9719 81.6236 48.4433 76.1829 49.6146 75.4986C50.2492 75.4241 50.4502 75.6013 50.9176 75.9968C50.9715 76.4976 50.9574 83.3341 50.8469 83.6831C50.75 83.9886 50.5187 84.1116 50.2472 84.2472Z" fill="#1C001F"/>
<path d="M37.6197 81C37.266 81.0619 36.9065 80.9283 36.6791 80.6503C36.4518 80.3724 36.392 79.9935 36.5227 79.6591C36.6533 79.3248 36.9541 79.0869 37.3098 79.0367C37.8469 78.9611 38.3455 79.33 38.4301 79.866C38.5147 80.4017 38.1541 80.9064 37.6197 81Z" fill="#1C001F"/>
</svg>
