<svg width="100" height="100" viewBox="0 0 100 100" fill="none" xmlns="http://www.w3.org/2000/svg">
<path d="M35.1631 18.8529L24.5721 18.8543C22.7877 18.8541 20.9957 18.8314 19.2182 18.8717C16.3225 18.9373 16.9935 22.6431 16.9945 24.6358L16.9949 76.1614C16.9929 77.7782 16.4935 80.7501 18.8983 80.8245C20.0486 80.8601 21.2135 80.848 22.3658 80.8483L61.9869 80.8495C65.6816 80.8526 66.2709 80.9976 66.2773 77.5312L66.2801 71.8544C66.2789 70.7085 66.241 69.6138 66.3562 68.4384C66.5164 66.8026 68.6031 66.8776 68.641 68.4337C68.6592 69.1866 68.6525 69.9491 68.6521 70.7065L68.6513 77.588C68.6451 83.2946 65.8488 83.1153 60.8554 83.1116L20.6474 83.1171C19.9373 83.1198 19.1571 83.1519 18.4548 83.0759C13.9749 82.5913 14.7045 77.4511 14.7058 74.2345L14.7056 23.4874C14.7071 19.219 15.1103 16.6616 20.0297 16.5718L52.1135 16.5716C57.1521 16.5708 55.8283 15.887 59.2252 19.2584L66.7211 26.5915C67.2621 27.1224 68.0539 27.8546 68.5242 28.4085C68.5574 28.9743 68.5258 29.7831 68.5256 30.3747L68.5242 46.938C69.2568 46.2733 70.2297 45.2007 70.9545 44.4644L75.2295 40.1798C76.0832 39.3228 77.0463 38.2515 78.0123 37.5657C80.7914 35.6378 85.3008 40.713 85.4189 42.6821C85.5383 44.6724 84.1222 45.4862 83.007 46.7862C81.7594 48.2405 82.7971 47.1004 81.3623 48.4442L65.6308 63.9757C63.4113 66.2296 63.9826 66.0511 61.0668 67.1128L57.0402 68.6097C55.9049 69.0409 54.3461 69.8081 53.1765 70.031C52.6748 70.1267 49.034 70.0993 48.5555 69.9942C47.3201 69.7228 47.4277 67.8585 48.7978 67.7712C49.3834 67.7341 49.8681 67.7468 50.439 67.7503L53.1308 67.7552C53.7053 66.2273 54.4351 64.6239 55.0637 63.1042C56.823 58.8491 56.0988 59.4538 59.3346 56.1911L62.9773 52.5308C64.0545 51.4605 65.2603 50.2888 66.2812 49.1776V29.9653L60.8875 29.9683C55.8113 29.9704 55.0277 29.6599 55.0273 23.9362L55.0297 18.8529H35.1631ZM57.24 20.5388L57.2431 24.5583C57.2478 27.9462 57.1553 27.7589 60.4545 27.7513L64.4746 27.7456C64.4605 27.6437 58.3832 21.5312 57.24 20.5388ZM79.3252 39.4647C78.9357 39.6392 77.9023 40.7628 77.5215 41.1396C78.6424 42.4032 80.174 43.7358 81.3623 45.0286C82.081 44.3776 83.9215 43.1366 82.8478 42.1491C81.8297 41.2126 80.665 39.3657 79.3252 39.4647ZM75.8742 42.8528C72.7793 45.8657 69.8453 48.9355 66.7906 51.9544L62.4814 56.2556C61.3888 57.3386 60.183 58.4718 59.1789 59.6181C60.2199 60.7444 61.7515 62.4261 62.866 63.4413L62.9478 63.4358C68.1365 58.2085 73.3121 52.9708 78.6039 47.847C78.9615 47.5007 79.3344 47.0968 79.7176 46.7862C79.4138 46.3536 76.1994 42.9905 75.8742 42.8528ZM58.0017 61.7429C57.6787 63.0647 56.6283 65.1351 56.1164 66.4558C56.8693 66.2505 57.5609 65.9224 58.2883 65.6771C59.1435 65.3712 60.0203 65.0685 60.8617 64.7308C60.0428 63.7677 58.9056 62.6562 58.0017 61.7429Z" fill="#1C001F"/>
<path d="M54.6734 42.8529C54.9279 42.5093 55.5986 41.2788 55.9535 41.1058C59.5824 39.8031 54.6096 47.9456 49.4539 43.8921C46.2563 41.3779 46.7826 33.9583 52.1006 33.2698C55.3457 32.8599 58.1992 36.0564 56.8248 36.5513C55.199 37.1366 55.5986 35.5099 54.0777 34.9532C47.4629 32.5329 46.9535 46.2265 54.6734 42.8529Z" fill="#1C001F"/>
<path d="M28.6648 41.1397C28.6688 42.0833 29.2459 45.7688 27.2023 44.4618C26.9934 44.2118 27.0525 42.7018 27.0521 42.2809L27.0504 35.8175C27.0506 35.2919 26.9629 33.8069 27.2484 33.46C29.1004 33.3046 28.6646 33.7989 28.6656 35.6352L28.6648 39.0731C29.7406 38.0491 33.6764 34.079 34.8221 33.46C35.2697 33.4173 36.0455 33.2839 36.2547 33.7774C36.2154 34.2788 32.3031 37.6391 31.675 38.2575C32.6728 39.4538 33.7709 40.7362 34.8221 41.8843C35.8654 43.0579 38.1117 44.7886 35.1631 44.5503C34.824 44.2829 33.9971 43.2928 33.6611 42.9022L30.5613 39.2628C29.9527 39.7641 29.1799 40.5512 28.6648 41.1397Z" fill="#1C001F"/>
<path d="M44.606 37.4778C44.1279 38.1822 43.1142 39.5061 42.9064 40.2797C42.7054 41.027 43.0394 44.1819 42.6939 44.5817C42.5164 44.7871 41.5939 44.7324 41.424 44.5479C40.8437 43.9178 41.7228 41.0033 40.9998 39.7414C40.2216 38.3834 39.2853 37.0598 38.4158 35.7567C38.1222 35.3168 36.7972 33.9156 37.5123 33.46C37.9859 33.4322 38.258 33.4279 38.7285 33.46C39.8632 34.7754 41.113 37.1772 42.1033 38.7139C42.6398 38.0227 45.0287 33.702 45.4269 33.5197C45.7373 33.3778 47.2507 33.3065 46.8228 34.0211C46.1453 35.1524 45.3117 36.3766 44.606 37.4778Z" fill="#1C001F"/>
<path d="M26.6252 54.8764C25.7361 54.2274 25.6679 52.7417 26.9224 52.6432C27.9207 52.5651 29.0181 52.603 30.0275 52.6028L36.1453 52.6042L51.5435 52.6018C52.1394 52.5991 53.0181 52.5432 53.5734 52.6198C54.7726 52.8323 54.6841 54.7596 53.5125 54.8776C52.7119 54.9583 51.7408 54.8739 50.9259 54.8745L44.2627 54.8764H26.6252Z" fill="#1C001F"/>
<path d="M49.3293 62.3936L29.8102 62.3966C28.8899 62.3973 27.9975 62.3983 27.0555 62.3813C25.7604 62.3581 25.491 60.3626 27.0524 60.1593L46.4573 60.1556C47.3399 60.1544 48.2067 60.152 49.1037 60.1638C50.6854 60.1845 50.7401 62.0538 49.3293 62.3936Z" fill="#1C001F"/>
<path d="M30.7739 70.044C29.9579 70.0414 26.9823 70.2225 26.4241 69.8084C25.868 69.3959 25.8051 68.5661 26.2866 68.0694C26.8706 67.4668 30.0641 67.7539 30.9307 67.7539L38.7286 67.7553C39.904 67.7616 43.3137 67.1918 43.2672 68.919C43.2309 70.2633 41.945 70.0475 41.0169 70.0465L30.7739 70.044Z" fill="#1C001F"/>
</svg>
