<svg width="19" height="19" viewBox="0 0 19 19" fill="none" xmlns="http://www.w3.org/2000/svg">
<path fill-rule="evenodd" clip-rule="evenodd" d="M9.50004 0C14.7469 0 19.0001 4.25317 19.0001 9.50004C19.0001 14.7469 14.7469 19.0001 9.50004 19.0001C4.25317 19.0001 0 14.7469 0 9.50004C0 4.25317 4.25317 0 9.50004 0ZM10.9079 14.1931C9.9709 14.2696 9.02918 14.2696 8.09214 14.1931C8.18049 14.5702 8.27929 14.9198 8.38664 15.24C8.62509 15.9572 8.89014 16.4683 9.13714 16.7809C9.25779 16.9348 9.35564 17.0165 9.42214 17.0564L9.47059 17.083L9.49909 17.0906L9.52949 17.083L9.57794 17.0573C9.68818 16.9827 9.78461 16.8895 9.86294 16.7818C10.1099 16.4683 10.375 15.9572 10.6134 15.24C10.7208 14.9198 10.8196 14.5702 10.9079 14.1931ZM2.66666 12.8298C3.52937 14.596 5.04084 15.9608 6.88563 16.6393C6.77362 16.3777 6.67282 16.1115 6.58353 15.8413C6.37629 15.2092 6.21126 14.564 6.08953 13.91C4.91361 13.6719 3.76624 13.3098 2.66666 12.8298ZM16.3344 12.8298C15.2466 13.3048 14.1009 13.6687 12.9096 13.91C12.7884 14.5644 12.6234 15.21 12.4156 15.8423C12.3244 16.1178 12.2237 16.3857 12.1135 16.6384C13.959 15.9602 15.4711 14.5953 16.3344 12.8289V12.8298ZM11.3773 8.42749C10.1312 8.59175 8.86892 8.59175 7.62283 8.42749C7.56863 9.70362 7.61341 10.982 7.75678 12.2513C8.9152 12.3834 10.0849 12.3834 11.2433 12.2513C11.3487 11.338 11.401 10.4194 11.4001 9.50004C11.4 9.13524 11.3925 8.77804 11.3773 8.42654V8.42749ZM2.43961 6.68043C1.97514 7.84202 1.80543 9.10052 1.94561 10.3436C3.15547 11.038 4.45573 11.5614 5.80928 11.8988C5.69247 10.6188 5.66898 9.3319 5.73898 8.04844C4.58589 7.73343 3.47729 7.27378 2.43961 6.68043ZM16.5605 6.68043C15.5228 7.27377 14.4142 7.73342 13.2611 8.04844C13.3311 9.3319 13.3076 10.6188 13.1908 11.8988C14.544 11.5613 15.844 11.038 17.0535 10.3436C17.1935 9.10083 17.0238 7.84268 16.5595 6.68138L16.5605 6.68043ZM9.51524 1.91141L9.50479 1.90951L9.48579 1.91236L9.44969 1.92661C9.32816 2.00374 9.22188 2.10261 9.13619 2.21826C8.88919 2.53176 8.62509 3.04286 8.38569 3.75917C8.12919 4.52677 7.92208 5.46917 7.78433 6.53223C8.92267 6.69039 10.0774 6.69039 11.2157 6.53223C11.078 5.46822 10.8699 4.52677 10.6144 3.75917C10.375 3.04286 10.1109 2.53081 9.86389 2.21826C9.78523 2.1109 9.68885 2.01773 9.57889 1.94276L9.51524 1.91141ZM6.88563 2.36171C5.4744 2.88037 4.24812 3.80487 3.36111 5.01887C4.16197 5.47867 5.01982 5.85108 5.92138 6.12373C6.07338 5.01792 6.29853 4.01187 6.58353 3.15781C6.67568 2.88136 6.77638 2.61441 6.88563 2.36171ZM12.1145 2.36171C12.2237 2.61441 12.3235 2.88136 12.4166 3.15781C12.7016 4.01282 12.9267 5.01792 13.0787 6.12373C13.9713 5.85384 14.8303 5.48317 15.639 5.01887C14.752 3.80483 13.5257 2.88032 12.1145 2.36171Z" fill="black"/>
</svg>
