<svg width="216" height="200" viewBox="0 0 216 200" fill="none" xmlns="http://www.w3.org/2000/svg">
<mask id="mask0_2_1133" style="mask-type:alpha" maskUnits="userSpaceOnUse" x="0" y="0" width="200" height="200">
<rect x="0.00012207" width="200" height="200" rx="10" fill="white"/>
<rect x="0.500122" y="0.5" width="199" height="199" rx="9.5" stroke="#1C2833" stroke-opacity="0.2"/>
</mask>
<g mask="url(#mask0_2_1133)">
<path fill-rule="evenodd" clip-rule="evenodd" d="M0.00012207 0H380V15.3846H0.00012207V0ZM0.00012207 30.7692H380V46.1538H0.00012207V30.7692ZM0.00012207 61.5384H380V76.923H0.00012207V61.5384ZM0.00012207 92.3076H380V107.692H0.00012207V92.3076ZM0.00012207 123.077H380V138.461H0.00012207V123.077ZM0.00012207 153.846H380V169.231H0.00012207V153.846ZM0.00012207 184.615H380V200H0.00012207V184.615Z" fill="#BD3D44"/>
<path fill-rule="evenodd" clip-rule="evenodd" d="M0 15.3843H380V30.7689H0V15.3843ZM0 46.1535H380V61.5381H0V46.1535ZM0 76.9227H380V92.3073H0V76.9227ZM0 107.692H380V123.077H0V107.692ZM0 138.461H380V153.846H0V138.461ZM0 169.23H380V184.615H0V169.23Z" fill="white"/>
<path fill-rule="evenodd" clip-rule="evenodd" d="M0.00012207 0H152V107.692H0.00012207V0Z" fill="#192F5D"/>
<path fill-rule="evenodd" clip-rule="evenodd" d="M12.6154 4.61474L14.1539 8.92243H18.4615L14.9231 11.5378L16.3077 15.6917L12.6154 13.0763L9.23078 15.6917L10.6154 11.5378L6.92309 8.92243H11.5385L12.6154 4.61474ZM38 4.61474L39.3846 8.92243H43.8462L40.1538 11.5378L41.6923 15.6917L38 13.0763L34.3077 15.6917L35.8462 11.5378L32.1538 8.92243H36.6154L38 4.61474ZM63.3846 4.61474L64.7692 8.92243H69.2308L65.5384 11.5378L67.0769 15.6917L63.3846 13.0763L59.6923 15.6917L61.2308 11.5378L57.5385 8.92243H62L63.3846 4.61474ZM88.6154 4.61474L90.1538 8.92243H94.4615L90.9231 11.5378L92.3077 15.6917L88.6154 13.0763L85.0769 15.6917L86.4615 11.5378L82.7692 8.92243H87.3846L88.6154 4.61474ZM114 4.61474L115.385 8.92243H119.846L116.154 11.5378L117.692 15.6917L113.846 13.0763L110.308 15.6917L111.692 11.5378L108 8.92243H112.461L114 4.61474ZM139.385 4.61474L140.769 8.92243H145.231L141.538 11.5378L143.077 15.6917L139.385 13.0763L135.692 15.6917L137.231 11.5378L133.538 8.92243H138L139.385 4.61474ZM25.3846 15.384L26.7692 19.6917H31.2308L27.5385 22.307L29.0769 26.4609L25.3846 23.8455L21.6923 26.4609L23.2308 22.307L19.5385 19.6917H24L25.3846 15.384ZM50.6154 15.384L52.1538 19.6917H56.4615L52.9231 22.307L54.3077 26.4609L50.6154 23.8455L47.0769 26.4609L48.4615 22.307L44.7692 19.6917H49.3846L50.6154 15.384ZM76 15.384L77.3846 19.6917H81.8461L78.1538 22.307L79.6923 26.4609L76 23.8455L72.3077 26.4609L73.8461 22.307L70.1538 19.6917H74.6154L76 15.384ZM101.385 15.384L102.769 19.6917H107.231L103.538 22.307L105.077 26.4609L101.385 23.8455L97.6923 26.4609L99.2307 22.307L95.5384 19.6917H100L101.385 15.384ZM126.615 15.384L128.154 19.6917H132.308L128.769 22.307L130.154 26.4609L126.461 23.8455L122.923 26.4609L124.308 22.307L120.615 19.6917H125.231L126.615 15.384ZM12.7692 26.1532L14 30.4609H18.6154L14.9231 33.0763L16.3077 37.2301L12.6154 34.6147L9.23078 37.2301L10.6154 33.0763L6.92309 30.4609H11.5385L12.7692 26.1532ZM38 26.1532L39.3846 30.4609H43.8462L40.3077 33.0763L41.6923 37.2301L38 34.6147L34.4615 37.2301L35.8462 33.0763L32.1538 30.4609H36.6154L38 26.1532ZM63.3846 26.1532L64.7692 30.4609H69.2308L65.5384 33.0763L67.0769 37.2301L63.3846 34.6147L59.6923 37.2301L61.2308 33.0763L57.5385 30.4609H62L63.3846 26.1532ZM88.6154 26.1532L90.1538 30.4609H94.4615L90.9231 33.0763L92.3077 37.2301L88.6154 34.6147L85.0769 37.2301L86.4615 33.0763L82.7692 30.4609H87.3846L88.6154 26.1532ZM114 26.1532L115.385 30.4609H119.846L116.308 33.0763L117.692 37.2301L114 34.6147L110.462 37.2301L111.846 33.0763L108.154 30.4609H112.615L114 26.1532ZM139.385 26.1532L140.769 30.4609H145.231L141.538 33.0763L143.077 37.2301L139.385 34.6147L135.692 37.2301L137.231 33.0763L133.538 30.4609H138L139.385 26.1532ZM25.3846 36.9224L26.7692 41.2301H31.2308L27.5385 43.8455L29.0769 47.9993L25.3846 45.384L21.6923 47.9993L23.2308 43.8455L19.5385 41.2301H24L25.3846 36.9224ZM50.6154 36.9224L52.1538 41.2301H56.4615L52.9231 43.8455L54.3077 47.9993L50.6154 45.384L47.0769 47.9993L48.4615 43.8455L44.7692 41.2301H49.3846L50.6154 36.9224ZM76 36.9224L77.3846 41.2301H81.8461L78.3077 43.8455L79.6923 47.9993L76 45.384L72.4615 47.9993L73.8461 43.8455L70.1538 41.2301H74.6154L76 36.9224ZM101.385 36.9224L102.769 41.2301H107.231L103.538 43.8455L105.077 47.9993L101.385 45.384L97.6923 47.9993L99.2307 43.8455L95.5384 41.2301H100L101.385 36.9224ZM126.615 36.9224L128.154 41.2301H132.308L128.769 43.8455L130.154 47.9993L126.461 45.384L122.923 47.9993L124.308 43.8455L120.615 41.2301H125.231L126.615 36.9224ZM12.7692 47.6916L14 51.9993H18.6154L14.9231 54.6147L16.3077 58.7686L12.6154 56.1532L9.23078 58.7686L10.6154 54.6147L6.92309 51.9993H11.5385L12.7692 47.6916ZM38 47.6916L39.3846 51.9993H43.8462L40.3077 54.6147L41.6923 58.7686L38 56.1532L34.4615 58.7686L35.8462 54.6147L32.1538 51.9993H36.6154L38 47.6916ZM63.3846 47.6916L64.7692 51.9993H69.2308L65.5384 54.6147L67.0769 58.7686L63.3846 56.1532L59.6923 58.7686L61.2308 54.6147L57.5385 51.9993H62L63.3846 47.6916ZM88.6154 47.6916L90.1538 51.9993H94.4615L90.9231 54.6147L92.3077 58.7686L88.6154 56.1532L85.0769 58.7686L86.4615 54.6147L82.7692 51.9993H87.3846L88.6154 47.6916ZM114 47.6916L115.385 51.9993H119.846L116.308 54.6147L117.692 58.7686L114 56.1532L110.462 58.7686L111.846 54.6147L108.154 51.9993H112.615L114 47.6916ZM139.385 47.6916L140.769 51.9993H145.231L141.538 54.6147L143.077 58.7686L139.385 56.1532L135.692 58.7686L137.231 54.6147L133.538 51.9993H138L139.385 47.6916ZM25.3846 58.4609L26.7692 62.7686H31.2308L27.5385 65.3839L29.0769 69.5378L25.3846 66.9224L21.6923 69.5378L23.2308 65.3839L19.5385 62.7686H24L25.3846 58.4609ZM50.6154 58.4609L52.1538 62.7686H56.4615L52.9231 65.3839L54.3077 69.5378L50.6154 66.9224L47.0769 69.5378L48.4615 65.3839L44.7692 62.7686H49.3846L50.6154 58.4609ZM76 58.4609L77.3846 62.7686H81.8461L78.3077 65.3839L79.6923 69.5378L76 66.9224L72.4615 69.5378L73.8461 65.3839L70.1538 62.7686H74.6154L76 58.4609ZM101.385 58.4609L102.769 62.7686H107.231L103.538 65.3839L105.077 69.5378L101.385 66.9224L97.6923 69.5378L99.2307 65.3839L95.5384 62.7686H100L101.385 58.4609ZM126.615 58.4609L128.154 62.7686H132.308L128.769 65.3839L130.154 69.5378L126.461 66.9224L122.923 69.5378L124.308 65.3839L120.615 62.7686H125.231L126.615 58.4609ZM12.7692 69.2301L14 73.5378H18.6154L14.9231 76.1532L16.3077 80.307L12.6154 77.6916L9.23078 80.307L10.6154 76.1532L6.92309 73.5378H11.5385L12.7692 69.2301ZM38 69.2301L39.3846 73.5378H43.8462L40.3077 76.1532L41.6923 80.307L38 77.6916L34.4615 80.307L35.8462 76.1532L32.1538 73.5378H36.6154L38 69.2301ZM63.3846 69.2301L64.7692 73.5378H69.2308L65.5384 76.1532L67.0769 80.307L63.3846 77.6916L59.6923 80.307L61.2308 76.1532L57.5385 73.5378H62L63.3846 69.2301ZM88.6154 69.2301L90.1538 73.5378H94.4615L90.9231 76.1532L92.3077 80.307L88.6154 77.6916L85.0769 80.307L86.4615 76.1532L82.7692 73.5378H87.3846L88.6154 69.2301ZM114 69.2301L115.385 73.5378H119.846L116.308 76.1532L117.692 80.307L114 77.6916L110.462 80.307L111.846 76.1532L108.154 73.5378H112.615L114 69.2301ZM139.385 69.2301L140.769 73.5378H145.231L141.538 76.1532L143.077 80.307L139.385 77.6916L135.692 80.307L137.231 76.1532L133.538 73.5378H138L139.385 69.2301ZM25.3846 79.9993L26.7692 84.307H31.2308L27.5385 86.9224L29.0769 91.0762L25.3846 88.4608L21.6923 91.0762L23.2308 86.9224L19.5385 84.307H24L25.3846 79.9993ZM50.6154 79.9993L52.1538 84.307H56.4615L52.9231 86.9224L54.3077 91.0762L50.6154 88.4608L47.0769 91.0762L48.4615 86.9224L44.7692 84.307H49.3846L50.6154 79.9993ZM76 79.9993L77.3846 84.307H81.8461L78.3077 86.9224L79.6923 91.0762L76 88.4608L72.4615 91.0762L73.8461 86.9224L70.1538 84.307H74.6154L76 79.9993ZM101.385 79.9993L102.769 84.307H107.231L103.538 86.9224L105.077 91.0762L101.385 88.4608L97.6923 91.0762L99.2307 86.9224L95.5384 84.307H100L101.385 79.9993ZM126.615 79.9993L128.154 84.307H132.308L128.769 86.9224L130.154 91.0762L126.461 88.4608L122.923 91.0762L124.308 86.9224L120.615 84.307H125.231L126.615 79.9993ZM12.7692 90.7685L14 95.0762H18.6154L14.9231 97.6916L16.3077 101.845L12.6154 99.2301L9.23078 101.845L10.6154 97.6916L6.92309 95.0762H11.5385L12.7692 90.7685ZM38 90.7685L39.3846 95.0762H43.8462L40.3077 97.6916L41.6923 101.845L38 99.2301L34.4615 101.845L35.8462 97.6916L32.1538 95.0762H36.6154L38 90.7685ZM63.3846 90.7685L64.7692 95.0762H69.2308L65.5384 97.6916L67.0769 101.845L63.3846 99.2301L59.6923 101.845L61.2308 97.6916L57.5385 95.0762H62L63.3846 90.7685ZM88.6154 90.7685L90.1538 95.0762H94.4615L90.9231 97.6916L92.3077 101.845L88.6154 99.2301L85.0769 101.845L86.4615 97.6916L82.7692 95.0762H87.3846L88.6154 90.7685ZM114 90.7685L115.385 95.0762H119.846L116.308 97.6916L117.692 101.845L114 99.2301L110.462 101.845L111.846 97.6916L108.154 95.0762H112.615L114 90.7685ZM139.385 90.7685L140.769 95.0762H145.231L141.538 97.6916L143.077 101.845L139.385 99.2301L135.692 101.845L137.231 97.6916L133.538 95.0762H138L139.385 90.7685Z" fill="white"/>
</g>
</svg>
