<svg width="260" height="197" viewBox="0 0 260 197" fill="none" xmlns="http://www.w3.org/2000/svg">
<path d="M70.0881 41.6211C71.441 40.1729 72.5225 39.1229 74.003 37.7868C72.1464 35.661 71.4382 33.5896 71.618 30.7585C71.8428 27.1301 73.5121 23.743 76.2528 21.3546C80.757 17.4804 86.7444 17.8676 91.699 15.0564C100.418 10.1092 104.889 -1.08833 116.545 0.0856575C123.515 0.787888 129.167 5.19732 131.431 11.7965C136.627 16.0995 141.924 24.0258 136.693 30.5712C134.702 33.0615 132.537 33.7799 129.444 34.2417C127.587 38.3706 125.182 42.9886 120.704 44.6719C119.963 44.9488 119.189 45.1289 118.401 45.2077C122.329 61.4583 124.699 78.064 129.1 94.2062C129.773 96.6754 130.364 99.1782 131.037 101.653L133.426 110.286C133.795 111.635 134.211 113.57 134.697 114.826C136.929 113.944 139.167 113.073 141.409 112.215C143.096 111.561 145.047 110.504 146.734 110.423C146.791 110.42 147.017 110.357 147.056 110.347C147.46 109.69 147.645 109.154 147.921 108.444C145.042 108.724 142.867 107.586 143.108 104.362C140.682 103.508 139.44 102.713 139.967 99.7996C137.484 98.4256 136.946 97.5128 137.751 94.6763C135.538 93.1833 134.799 90.7031 136.869 88.7173C135.115 86.2507 135.423 84.6157 137.938 83.04C138.133 82.9179 137.76 81.1088 137.698 80.8323C137.259 79.1046 140.422 78.3585 140.376 77.6128C140.105 73.2298 143.639 74.3548 144.284 73.5835C145.643 71.9602 145.581 68.1833 150.944 70.4519C152.225 67.0079 154.9 66.8753 157.823 68.492C160.307 65.5417 162.89 66.1432 165.334 68.7097C167.902 67.2824 170.328 68.0712 171.679 70.6795C171.795 70.9054 171.906 71.1339 172.013 71.3647C175.376 70.4314 178.752 72.2647 177.51 76.0723C182.623 78.3011 181.461 83.3529 177.425 85.8136L175.459 85.9246C176.46 88.3579 177.151 90.9236 178.289 93.2641C179.554 95.8631 181.662 97.7271 182.318 100.635C181.49 101.419 181.1 101.68 180.028 102.087C179.518 106.475 179.096 109.656 177.414 113.847C174.521 115.101 170.627 115.38 167.489 115.328C168.483 116.546 168.891 117.688 169.513 119.137C178.464 122.693 180.749 130.659 182.629 139.35C193.514 139.372 205.291 139.164 216.117 139.447L215.712 137.508L215.94 137.509L216.387 139.355C217.551 139.99 217.631 140.333 218.205 141.505L218.038 141.629L217.751 141.434C217.294 141.84 203.229 176.152 202.115 179.173L211.974 178.446C213.054 178.369 216.167 178.216 217.092 178.001L217.522 177.954C218.525 178.012 221.234 177.773 222.188 177.561L222.548 177.601L247.952 175.632L255.652 175.076C256.689 174.999 259.155 174.634 260 174.959C259.844 175.802 244.152 194.155 242.633 196.238H241.759C247.053 189.368 253.383 182.326 258.914 175.448C255.966 175.822 252.429 175.925 249.406 176.164C242.949 176.709 236.487 177.211 230.023 177.669C220.674 178.319 211.196 179.291 201.858 179.777L199.053 186.572L104.147 186.721C102.907 185.766 102.356 184.947 101.414 183.703C91.3772 184.061 80.6747 185.633 70.4693 186.193L69.8038 187.248C64.6443 187.328 55.9905 188.117 51.7544 185.11C49.9564 185.283 48.1209 185.388 46.3161 185.489C31.0599 186.343 15.8177 187.314 0.571373 188.318C2.35535 190.951 3.37685 193.526 4.95904 196.238H4.21765C3.6244 195.262 0.203641 188.983 0 188.222C0.23053 187.948 0.383097 187.812 0.765397 187.767C5.46881 187.209 10.355 187.168 15.0659 186.725C17.2699 171.426 23.2693 152.058 30.2763 138.452C31.891 135.383 33.6426 132.388 35.5257 129.475C36.4071 128.138 37.6864 126.581 38.4806 125.283C39.0673 124.324 39.6224 120.888 39.9516 119.574C40.9367 115.596 42.0523 111.651 43.2969 107.746C44.1505 105.037 45.1424 102.374 46.2685 99.7675C46.9031 98.297 48.3989 95.2323 48.7895 93.8321C49.028 92.9773 49.2408 89.6326 49.4129 88.4714C49.98 84.8169 50.8151 81.209 51.9114 77.6771C52.2526 76.453 52.6817 75.2264 53.0857 74.0194L53.1571 73.7704C56.555 64.1221 61.0959 54.9152 66.6825 46.3461L66.9314 45.9515C67.8912 44.5291 69.0432 42.9906 70.0881 41.6211ZM118.755 25.2348C118.382 25.4954 118.192 25.568 118.046 25.9945C118.405 26.7107 119.256 26.3379 119.78 26.0435C120.836 26.6316 122.568 27.3 121.299 28.9377C121.06 27.8613 121.082 27.4647 120.218 26.7861L117.773 26.8194C117.575 26.5806 117.579 26.5587 117.426 26.2845C117.541 25.7268 117.674 25.7455 118.129 25.2465C115.513 24.9483 109.287 25.057 107.967 22.6831C105.085 17.5009 103.292 20.8234 103.187 24.9005C103.177 25.2726 103.814 26.5058 104.017 26.9258C101.662 32.2551 100.479 34.0781 94.5236 35.4644C94.5922 36.0115 94.6832 36.5556 94.7965 37.0953C95.9739 42.9163 99.1979 49.4697 104.28 52.8474C104.296 52.7999 104.312 52.7524 104.328 52.7049C106.159 48.761 107.914 44.9172 112.009 43.074C110.328 40.7852 107.552 36.6111 107.684 33.6209L107.934 33.4539C108.425 33.7435 108.809 35.7321 109.007 36.3905C110.934 42.8045 116.455 47.2652 122.798 42.7724C126.325 40.1464 127.588 36.2927 129.177 32.53C131.739 26.4666 132.684 23.7114 130.657 17.4599C128.578 19.994 126.424 21.8119 123.434 23.1768C122.603 23.556 121.53 23.8835 120.786 24.2563C121.214 24.5255 121.326 24.5175 121.572 24.9181C121.425 25.0075 119.141 25.1904 118.755 25.2348ZM71.4991 81.926C72.6013 81.0081 74.728 79.5049 75.4376 78.4373C75.4547 76.9279 75.5514 74.7287 74.2864 73.617C71.3412 71.0286 66.3763 73.6079 64.1111 76.0182C60.143 80.2404 61.2433 86.0967 67.0498 87.8159C67.7819 86.5056 68.339 85.5427 69.2766 84.3636L69.643 84.7577C68.2104 86.5119 67.2003 88.5722 66.691 90.779C65.5557 95.7697 67.3813 104.335 69.9785 108.502C71.5597 107.725 72.9701 106.737 74.3478 105.649C71.3696 101.686 71.991 99.3062 75.5463 96.1018C73.2009 92.0458 72.1728 86.983 71.9705 82.3363L71.4991 81.926ZM92.1796 98.1439C89.6771 97.7012 85.4925 97.6844 83.6012 96.6899L81.2671 98.9935C83.2307 99.0163 87.806 98.9656 89.5397 99.3074L89.1018 99.8093C86.7754 99.6952 83.2136 99.4061 81.0019 99.4886L80.8898 99.6582C80.654 100.01 80.5339 100.303 80.1603 100.446C79.2925 98.7764 79.221 93.7362 75.3514 96.938C71.7247 99.9393 72.6677 104.653 77.155 106.32C76.8768 107.284 76.7786 107.792 76.6238 108.787L76.3282 108.867L76.0838 108.723C75.9654 108.067 76.1558 107.437 76.2886 106.768L74.9593 106.054C72.8756 107.718 70.6327 109.011 68.594 110.867C66.8205 112.482 61.9837 113.625 59.6169 113.934C62.7895 118.451 65.4948 123.664 68.1199 128.545C69.3545 130.84 71.2293 134.208 72.2764 136.522C73.3781 134.209 74.467 131.889 75.5437 129.564C78.0246 124.27 79.0085 122.672 84.2143 119.789C81.6177 118.261 78.0337 115.801 76.9604 112.647C76.9029 112.478 76.9277 112.296 76.9652 112.126L77.1163 112.133C77.5568 112.796 78.9445 115.007 79.4931 115.508C82.572 118.326 86.5484 120.384 90.6186 121.698C94.0609 122.809 98.8821 114.066 100.092 111.434C100.096 111.378 100.099 111.322 100.103 111.267C99.7121 110.828 99.5172 110.957 98.8727 110.731C98.2812 110.523 97.9255 110.173 97.4571 109.764C98.237 113 95.7556 112.324 94.3002 110.804L94.2496 110.514L94.4405 110.399C95.2668 110.677 96.0006 111.254 96.657 111.341L96.8602 111.225C97.2824 109.246 94.9222 104.355 97.6868 102.479L97.8433 102.851C95.6136 106.446 98.5691 112.494 100.676 109.775C100.846 110.024 100.789 109.969 101.014 110.169L101.175 109.995L104.501 104.343L104.866 104.763C103.72 107.704 101.04 110.404 100.169 113.335C99.8757 114.323 100.202 118.097 100.27 119.291C100.509 123.354 100.782 127.414 101.09 131.473C101.869 141.627 102.175 151.73 102.201 161.915C102.204 162.965 102.197 164.027 102.237 165.076C105.248 166.29 107.285 167.114 110.132 168.624C111.571 167.058 113.234 164.933 115.579 165.156C115.942 165.322 115.947 165.287 116.356 165.261C117.259 165.194 119.271 165.363 120.253 165.418L116.488 148.566C116.45 148.015 116.341 147.521 116.237 146.981L116.19 146.763C116.419 146.135 116.106 145.772 116.358 144.988C117.85 151.742 119.301 158.815 120.934 165.511C122.632 166.024 123.075 166.013 124.057 167.48C124.572 167.649 125.206 167.838 125.697 168.04C126.915 169.592 129.55 173.248 127.351 174.966C127.027 175.037 127.132 175.056 126.832 174.996C127.622 173.835 127.55 173.518 127.431 172.155L127.334 171.785C127.132 171.47 126.779 170.748 126.589 170.388C124.534 170.014 122.359 170.269 120.263 170.15C119.951 169.912 120.021 169.82 119.892 169.34C120.415 169.492 125.041 169.815 125.754 169.472C125.995 169.355 125.921 169.36 126.002 169.083C124.99 167.867 121.657 167.959 120.115 167.918C119.251 167.957 117.297 168.071 117.189 166.938C117.355 166.825 118.878 167.387 119.859 167.158C120.244 167.345 121.184 167.477 121.605 167.333L121.431 167.047C122.073 166.951 122.459 167.457 123.391 167.524L123.382 167.393C122.311 166.245 120.961 166.259 119.438 166.084C117.373 165.905 114.443 165.219 112.869 166.805C108.766 170.941 104.388 175.913 97.9258 174.862C90.4437 174.079 83.1061 173.261 75.6749 172.147C73.5622 176.706 72.6372 181.299 70.712 185.583C79.8063 184.995 88.7034 184.102 97.7696 183.363C100.182 183.168 102.597 182.999 105.014 182.858C106.265 182.782 108.499 182.768 109.61 182.463C112.235 181.742 115.565 180.667 117.997 179.444C121.314 177.777 122.905 177.061 126.558 176.44L126.718 176.235C125.623 174.725 123.095 175.817 121.568 175.662C121.403 175.299 121.402 175.481 121.514 175.108C122.467 174.794 125.457 174.767 126.535 174.981C126.608 175.442 127.441 176.136 127.871 176.601L126.54 177.248C126.428 178.074 126.402 178.833 126.362 179.664C129.816 179.13 133.127 179.151 136.513 178.756C140.996 178.234 145.376 177.547 149.895 177.141C151.664 173.191 153.296 169.088 155.001 165.092C148.673 163.823 142.358 162.492 136.057 161.097C135.358 161.437 133.997 162.207 133.248 162.024C133.523 161.332 135.175 160.724 135.882 160.401C137.661 160.794 139.503 161.264 141.28 161.692C140.051 155.552 138.322 149.194 137.079 143.024C136.559 140.444 135.27 136.107 135.259 133.569L135.385 133.516C135.952 134.569 137.999 144.423 138.403 146.263L141.978 161.807C145.906 162.516 151.465 163.562 155.218 164.686C156.202 162.302 157.709 159.784 158.352 157.308C158.868 155.321 157.096 144.453 156.749 141.859C155.384 140.955 153.456 140.01 152.017 139.163C149.002 137.388 145.989 135.819 142.865 134.25C142.382 128.921 142.209 123.51 141.809 118.169C141.678 116.418 141.568 114.609 141.59 112.857C136.384 114.719 129.185 117.724 124.241 120.23L123.944 120.074L123.906 119.835C122.707 117.803 121.748 115.738 120.645 113.66C120.597 113.57 120.116 113.441 120.005 113.181C119.285 111.485 118.648 109.744 117.999 108.018C116.612 104.323 115.293 100.603 114.042 96.8595C112.875 93.2971 111.639 89.1572 110.228 85.7075C107.928 87.6915 106.997 88.1394 104.269 89.4059C105.42 93.6346 104.984 95.5282 104.038 99.7942L103.364 99.3495C104.071 95.9206 102.492 92.3773 99.5268 90.5457C95.9224 90.3004 87.466 94.3536 84.4229 96.4171C89.1738 97.7541 92.4875 96.0122 96.4132 99.2934L96.3446 99.6645L96.457 99.3381L96.6994 99.6687L96.6488 99.727C96.1574 99.7202 96.1281 99.702 95.7149 99.4934L94.6158 98.9415C93.6757 98.5753 93.1649 98.3721 92.1796 98.1439ZM68.7325 167.564C70.7251 165.138 74.8859 163.374 77.2817 161.186C80.4588 158.284 81.0318 154.749 81.688 150.665C82.1182 147.965 82.504 145.257 82.8452 142.544C83.0864 140.523 83.2694 138.288 83.6191 136.309L83.8456 136.308C84.6875 138.766 82.0519 151.363 81.6325 154.424C81.2745 157.037 79.3406 160.055 77.5016 161.992C78.3083 165.418 79.0651 168.684 79.9358 172.102C84.2229 172.702 98.9441 174.937 102.36 174.069C104.127 173.621 105.784 172.373 107.213 171.295C108.075 170.644 108.942 169.961 109.711 169.202C106.748 167.55 99.3251 164.365 96.0234 163.274C94.6309 163.801 92.9703 164.982 92.0792 165.172L92.0097 165.074L92.1378 165.163C92.2132 164.091 94.642 163.081 95.524 162.794L88.9077 140.296C87.7446 136.33 84.6687 124.851 82.3899 121.577C80.3208 122.993 79.9463 123.621 78.4206 125.405C76.8537 127.237 73.7341 136.466 72.0627 136.907C71.0902 135.979 65.5631 125.064 64.3823 122.908C62.7422 119.87 60.9679 116.906 59.0641 114.025C56.6199 114.527 54.2762 114.966 51.8904 115.687C45.2883 117.682 40.1468 123.635 36.4291 129.321C27.6025 142.821 21.7644 159.215 18.1113 174.871C17.1917 178.812 16.313 182.719 15.7494 186.728L51.2729 184.6C49.836 183.008 48.2287 180.399 47.4929 178.375C43.4036 167.13 42.068 154.925 40.2836 143.151C40.1633 142.359 39.718 139.92 39.9852 139.262L40.2097 139.186C40.8311 139.866 41.1964 144.544 41.3731 145.822C42.5895 154.627 45.6204 180.243 52.8669 185.073C55.2752 186.678 59.0453 186.628 61.8499 186.752C64.3439 186.863 66.9203 186.851 69.4015 186.542C71.6649 182.445 72.5544 177.712 74.3293 173.398C74.6352 172.654 75.3261 171.723 75.7537 170.968C75.4382 170.609 75.5961 170.768 75.0213 170.606L75.5793 170.11C76.2479 170.358 76.52 170.349 76.8822 170.845C76.8901 171.151 76.889 171.248 76.9473 171.546C77.5349 171.88 78.5199 171.899 79.2333 171.972C78.2533 168.633 77.7409 165.764 76.8847 162.475C73.8268 164.432 71.9646 165.73 69.1047 167.968C68.8293 167.842 68.9451 167.889 68.7325 167.564ZM113.806 0.816913C103.44 2.09817 100.729 10.367 92.5515 15.3962C86.9507 18.8407 79.4811 17.9098 75.0822 23.5948C72.5959 26.808 70.9852 33.0561 74.0872 36.5874C74.7698 37.3645 76.2451 36.0113 77.0313 35.5998C76.2258 34.1658 75.7836 33.0413 76.2767 31.3446C76.8335 29.4579 78.1336 27.8784 79.878 26.9693C83.7244 24.9429 89.94 26.4922 94.3278 26.0284C96.9746 25.7487 99.0044 24.3402 100.849 24.0437L100.992 24.116C100.869 24.5001 100.582 24.5684 100.117 24.8049C98.0401 25.877 95.9306 26.5624 93.5903 26.7867C88.3446 27.2891 79.7676 24.3923 77.2142 30.9337C76.8107 31.9675 76.7462 34.1126 77.6194 34.9428C78.0931 34.9983 82.3375 33.7825 83.7414 33.727C89.2244 33.5108 94.6175 36.4876 99.4813 32.7957C101.337 31.4473 102.268 28.9002 103.321 26.8581C102.991 26.2446 102.666 25.7191 102.59 25.0149C102.209 21.5074 104.8 16.2737 107.899 21.3441C108.974 21.1967 110.002 21.3367 111.081 21.2644C113.258 21.1184 115.377 20.6174 117.458 19.9846C120.624 18.9261 123.886 17.4801 126.367 15.1708C126.896 14.6789 127.986 13.2431 128.582 13.2838C128.438 14.3223 126.357 16.1115 125.514 16.7204C121.303 19.7621 113.355 22.8239 108.142 21.7302L107.99 21.9245C108.127 22.3849 108.689 22.6859 109.093 22.8959C116.208 26.596 127.446 22.7614 130.694 15.3814C131.219 17.0274 132.097 19.5865 132.335 21.2442C132.907 25.2297 131.217 30.1646 129.526 33.7045C134.154 32.5943 137.229 27.933 136.189 23.0769C135.314 18.9901 132.995 18.6677 131.475 15.8807C134.015 17.3 135.889 19.6679 136.686 22.466C137.977 26.8939 136.222 30.1536 132.801 32.8726C135.086 31.7879 137.033 29.5387 137.817 27.1321C139.626 21.5763 135.065 15.4223 130.885 12.2592C130.591 11.4411 130.293 10.5844 129.906 9.80678C127.021 4.01736 120.329 0.000583816 113.806 0.816913ZM117.434 24.7397C118.224 25.0393 118.461 24.9699 119.302 24.7872C118.64 24.567 118.135 24.6387 117.434 24.7397ZM82.7285 34.5283C72.8509 35.6923 66.166 47.8422 61.8855 55.8356C55.6337 67.5101 50.3943 80.5398 49.5703 93.893C54.5087 98.804 60.8632 101.987 67.4538 104.081C65.5438 98.7141 64.9716 93.9516 66.6455 88.5019C65.142 87.9453 64.3092 87.5325 63.169 86.3764C58.3846 81.5257 62.5371 74.8593 67.7805 72.7151C69.0518 72.1952 69.9102 72.0476 71.2877 71.8376C70.8085 69.3109 69.4242 56.096 70.4653 54.6517C70.4972 54.6079 70.5376 54.5709 70.574 54.5305L70.7817 54.6153C71.0521 55.303 70.9354 56.4101 70.9249 57.1872C70.8591 62.1739 71.2797 66.9877 71.8399 71.9314C75.6558 72.5608 75.9401 74.1821 76.1199 77.753C80.4946 75.685 84.0917 76.1423 88.7777 77.1657C88.8776 74.1272 89.1135 57.5724 89.8083 55.9571L89.9719 55.9748C90.3668 57.1931 89.9867 60.9476 89.9309 62.4795C89.7366 67.4273 89.5824 72.3768 89.4683 77.3271C93.7562 78.7424 98.325 81.8344 101.472 85.0465C104.747 76.3924 104.104 65.4611 103.906 56.405C103.896 55.9822 103.91 55.3292 104.105 54.963C104.545 55.4026 104.623 56.3595 104.634 56.9604C104.783 64.8542 105.129 71.9667 103.587 79.8321C103.161 81.7291 102.69 83.8984 102.012 85.712C102.927 86.8769 103.341 87.508 104.068 88.7981C108.07 86.8738 110.888 85.2571 112.299 80.6598C114.473 73.5789 114.502 65.794 114.632 58.4488C114.639 58.0501 114.687 57.8868 114.976 57.6572C115.62 58.0245 115.321 61.9969 115.262 62.9029C114.788 70.1893 114.972 78.6519 110.802 84.9446C112.698 90.7665 114.649 96.5701 116.655 102.355C117.821 105.656 119.144 109.453 120.544 112.666C124.941 110.932 127.901 109.308 131.625 106.374C129.1 96.8567 126.39 87.3376 124.478 77.6719C124.167 76.0982 123.819 74.5219 123.495 72.9498L120.149 56.2892C119.477 52.9371 118.651 48.5598 117.712 45.3189C115.616 45.0688 114.666 44.8717 112.811 43.8658C111.846 47.6834 110.231 54.3082 107.654 57.3044C105.779 55.7432 105.546 54.1239 103.395 53.2193C102.365 53.9361 99.5707 56.1847 98.8494 56.5643C95.4927 55.8809 89.9756 41.5565 89.7898 37.9691L89.9158 37.6826L90.1896 37.6943C90.7501 38.3069 91.2662 41.4629 91.5732 42.4326C92.3973 45.0353 96.3563 55.3641 98.8619 55.5204C99.4907 55.5596 102.151 53.2996 102.799 52.8173C98.5025 49.3517 94.7097 42.0462 94.0991 36.6267C94.0601 36.2534 94.0259 35.8798 93.9972 35.5059C91.5235 35.4086 89.5235 34.8794 87.1098 34.5468C85.7451 34.359 84.0965 34.446 82.7285 34.5283ZM112.408 43.6388C108.236 45.7304 106.833 48.891 104.886 53.0588L106.624 55.1069L107.589 56.3065C108.559 54.6622 109.326 53.0162 109.958 51.2131C110.501 49.6615 111.614 44.8196 112.31 43.9008C112.368 43.8243 112.415 43.7401 112.468 43.6595L112.408 43.6388ZM160.886 67.2261C159.261 67.6569 158.975 68.0811 158.093 69.4654C154.789 67.0756 152.593 67.4995 151.303 71.4577C149.664 70.4166 149.438 70.4021 147.488 70.4994C145.52 71.658 145.337 72.2837 144.949 74.4974C139.332 73.6008 141.778 78.4854 140.725 78.7742C137.824 79.5701 137.91 80.3468 138.946 83.4779C135.978 84.1576 135.805 86.6026 137.624 88.7147C135.643 90.7312 135.764 93.2789 138.657 94.1846C136.305 99.9772 140.962 97.7117 140.507 100.308C139.877 103.9 143.157 103.111 143.742 104.178C143.717 105.281 143.586 106.259 144.507 107.153C145.749 108.329 147.539 107.593 148.997 107.597C149.264 107.598 150.584 108.275 151.019 108.369C152.31 108.647 155.749 108.344 155.817 106.59C155.452 106.05 155.417 106.16 154.746 105.817C148.465 101.759 151.064 92.8055 156.451 96.5844C156.737 96.7884 157.019 96.999 157.297 97.216C157.57 95.3373 157.541 95.4195 159.098 94.4048C159.689 94.0204 159.682 92.2913 159.65 91.5575C161.639 89.9115 160.97 88.8715 160.1 86.715C163.848 84.9327 168.583 84.9344 172.633 85.1356C173.961 85.2016 176.022 85.2813 177.307 85.0989C179.355 83.6642 181.374 80.7782 179.625 78.2658C178.809 77.0938 177.926 76.9324 176.646 76.6331C177.05 75.5465 177.511 74.5657 176.942 73.4682C175.745 71.1572 173.385 71.2574 171.485 72.3759C170.785 69.1823 168.123 67.1538 165.297 69.6156C164.245 68.3955 163.48 67.3425 161.746 67.2361C161.459 67.2178 161.172 67.2144 160.886 67.2261ZM80.5154 77.0613C78.4272 77.454 76.8671 77.7618 75.3807 79.3931C80.8583 80.9535 85.0859 82.5474 89.5841 86.2538C90.5768 87.0718 91.8973 88.1801 92.7014 89.172C91.4728 88.6445 90.6656 87.9678 89.6706 87.0852C85.5824 83.4594 80.3782 81.3106 75.1411 79.9434C73.9702 80.577 73.2649 81.0741 72.236 81.9434C72.5271 83.1188 72.4673 84.3005 72.6853 85.4594C73.3147 88.8032 74.0815 92.8851 76.0385 95.7069C77.8223 95.2701 78.5137 95.4135 79.6538 96.8641L79.7975 97.045C79.8257 97.0817 79.8538 97.1184 79.882 97.1551C80.5868 96.7958 81.0819 96.534 81.8356 96.2643C82.2263 96.1795 82.442 96.1038 82.912 96.1997C83.7409 96.3687 84.7558 95.4474 85.4905 95.1398C89.0674 92.9913 93.0944 91.3518 97.0557 90.0145C96.7006 88.8419 96.2675 87.6443 96.2129 86.4265C96.3793 86.4743 96.327 86.4265 96.3981 86.5321L96.2504 86.5767L96.4607 86.6425L96.2729 86.7352L96.5133 86.7472L96.2897 86.8305L96.5722 86.8732C97.0326 87.9553 97.2352 88.684 97.5564 89.8264C101.799 89.8255 103.407 93.0601 104.064 96.7175C105.964 89.292 100.494 84.1445 94.7523 80.6064C90.595 78.0441 85.4125 76.4581 80.5154 77.0613ZM167.152 85.755C164.999 85.9422 162.963 86.1767 160.922 86.9631C161.64 88.9674 162.196 90.2802 160.414 91.9707C160.135 94.0495 160.109 94.8672 158.134 95.8901C158.041 96.8481 157.974 97.6676 157.776 98.6117C156.863 97.7581 155.422 96.1809 154.17 96.3337C149.073 96.956 152.802 105.893 156.523 105.736C156.988 105.716 158.372 105.052 158.741 105.119C158.59 106.295 156.865 106.204 156.719 106.463C155.142 109.275 152.907 110.079 148.956 108.134C147.689 110.499 146.792 112.038 145.927 114.577C147.626 117.518 149.364 121.472 150.855 124.609C153.024 129.188 155.234 133.746 157.487 138.283L157.714 138.684L157.879 138.626C158.595 136.493 159.628 134.075 160.43 131.916C162.534 126.385 164.556 120.824 166.495 115.233C164.682 114.703 162.5 114.226 160.962 113.199L160.887 113.008C162.15 112.97 163.885 113.836 165.105 114.137C168.672 115.017 173.342 114.659 176.76 113.471C178.206 110.512 179.322 104.976 179.276 101.659C180.073 101.4 180.927 101.208 181.419 100.514C181.657 99.1113 178.407 94.9742 177.583 93.2673C176.397 90.8095 175.78 88.1835 174.681 85.8514C172.76 85.7871 168.918 85.5442 167.152 85.755ZM49.3236 94.7457C45.2809 102.648 41.477 114.944 39.6955 123.734C43.4682 119.402 46.3872 116.871 51.9626 114.977C55.4502 113.966 68.7286 112.213 69.9273 108.854C69.8109 108.581 69.8459 108.523 69.6573 108.462C68.8003 108.181 68.2431 106.213 67.8437 105.193C60.8276 102.489 54.8771 100.123 49.3236 94.7457ZM82.3791 96.6504C81.5727 96.9568 80.6966 97.3094 79.8877 97.5865C80.0647 98.0953 80.224 98.6378 80.496 99.0979C81.0238 98.6225 82.6511 97.3111 82.706 96.7417L82.3791 96.6504ZM131.568 107.276C127.892 110.053 125.353 111.339 121.203 113.156C122.018 114.841 123.287 117.658 124.319 119.067L124.631 119.247C125.545 118.93 126.921 118.218 127.87 117.796C129.919 116.885 132.029 116.029 134.067 115.108C133.727 113.845 132.295 108.131 131.753 107.365L131.568 107.276ZM146.422 110.893C144.853 111.405 143.64 111.961 142.139 112.638C142.134 114.335 142.265 116.249 142.43 117.951C142.941 123.242 142.95 128.655 143.463 133.93C146.251 135.293 148.985 136.811 151.693 138.329C153.433 139.305 155.737 140.505 157.329 141.653C157.771 145.911 158.544 151.521 159.145 155.794C161.134 151.054 162.967 146.265 164.942 141.52C165.249 140.783 165.526 140.087 165.774 139.328C171.216 139.281 176.658 139.283 182.1 139.333C180.218 131.098 177.888 123.462 169.583 119.759C169.801 122.183 169.969 125.117 169.78 127.533C169.691 129.65 169.521 131.761 169.272 133.864C167.912 134.299 167.377 134.396 166.182 135.126C164.826 135.955 159.116 142.176 157.968 142.248C158.52 140.899 163.982 136.566 165.237 135.14C165.916 134.369 167.672 133.795 168.714 133.527C169.085 128.477 170.207 119.833 167.059 115.574C164.187 124.124 160.782 132.239 157.967 140.69C156.876 138.833 155.712 136.165 154.748 134.142L149.211 122.776C147.993 120.253 146.522 116.91 145.123 114.567C145.453 113.802 146.374 111.8 146.529 111.09L146.422 110.893ZM99.3658 114.251C97.9727 116.629 95.312 121.456 92.5503 122.298C90.3489 122.97 86.9427 121.118 84.9177 120.139L82.9001 121.229C85.5266 125.41 88.0342 134.979 89.493 139.998L93.5786 153.879C94.3335 156.434 95.3522 160.296 96.274 162.704C98.0663 163.397 99.8512 164.109 101.628 164.84C101.612 158.591 101.468 152.346 101.206 146.103C101.095 143.468 101.197 139.893 100.974 137.385C100.576 132.919 100.212 128.572 99.9002 124.094C99.7479 122.086 99.6264 120.077 99.5362 118.065C99.5143 117.476 99.4694 114.69 99.3658 114.251ZM166.736 139.969C166.962 140.624 168.565 142.355 169.117 142.972C172.002 143.112 175.37 143.032 178.311 143.032L194.351 143.031L208.251 143.026C209.61 143.025 215.783 143.198 216.414 142.708C216.642 142.1 217.512 140.358 216.411 140.211C214.627 139.974 212.765 140.039 210.964 140.038L202.152 140.037L166.736 139.969ZM166.068 140.559C165.39 142.394 164.616 143.979 163.896 145.767C160.659 153.804 157.29 161.786 153.789 169.71L148.947 181.182C148.367 182.539 147.495 184.758 146.859 185.998L149.726 186.016L150.234 185.944C150.551 185.476 151.699 182.567 152.015 181.802C153.041 179.34 154.087 176.887 155.152 174.442C159.618 164.11 164.289 153.862 168.575 143.445C167.764 142.416 166.719 141.41 166.068 140.559ZM212.75 143.671C198.42 143.736 183.549 143.438 169.294 143.741L158.717 168.061C156.341 173.463 153.034 180.571 151.166 185.957L154.182 185.989C168.834 185.99 183.889 186.152 198.513 185.974L211.972 153.208C213.24 150.177 214.575 146.558 215.87 143.655L212.75 143.671ZM124.757 177.349L122.97 177.885C123.9 179.36 124.179 179.699 125.578 180.728C124.839 180.5 124.284 180.348 123.583 180.001C121.149 180.429 119.519 180.391 117.326 180.601C116.562 180.675 112.574 182.315 111.505 182.692C114.314 182.524 117.907 182.61 120.769 182.603L137.242 182.569C140.541 182.562 144.411 182.644 147.664 182.509C148.348 180.974 149.006 179.429 149.639 177.872L149.387 177.873C148.114 177.881 146.789 178.018 145.514 178.18C139.244 178.974 133.11 180.031 126.757 180.108C126.103 180.116 126.337 180.58 125.617 180.536C125.691 179.33 125.95 178.817 125.87 177.347C125.466 177.227 125.177 177.299 124.757 177.349ZM122.234 178.165C121.447 178.54 119.306 179.448 118.735 179.883L118.791 180.001C119.267 180.027 119.318 180.03 119.818 179.961C121.308 179.82 121.986 179.741 123.478 179.929C123.236 179.563 122.506 178.385 122.234 178.165ZM111.676 183.216C108.961 183.297 104.94 183.307 102.342 183.546C102.991 184.585 103.392 185.215 104.329 186.047C107.956 186.223 112.331 186.097 116.032 186.075C123.351 186.01 130.67 185.996 137.989 186.034C140.707 186.048 143.482 186.089 146.196 186.075C146.58 185.118 146.968 184.105 147.372 183.162C135.596 183.155 123.429 183.022 111.676 183.216Z" fill="black"/>
<path d="M77.0312 35.6002C76.2451 36.0116 74.7697 37.3649 74.0871 36.5878C70.9852 33.0564 72.5959 26.8084 75.0822 23.5951C79.4811 17.9101 86.9507 18.8411 92.5514 15.3965C100.729 10.3674 103.44 2.09853 113.806 0.817274C120.329 0.000945001 127.021 4.01772 129.906 9.80714C130.293 10.5848 130.591 11.4415 130.885 12.2595C135.065 15.4227 139.626 21.5766 137.817 27.1324C137.033 29.539 135.086 31.7883 132.801 32.8729C136.222 30.1539 137.977 26.8943 136.686 22.4664C135.889 19.6682 134.015 17.3004 131.475 15.8811C132.995 18.6681 135.314 18.9905 136.189 23.0773C137.229 27.9334 134.153 32.5946 129.526 33.7049C131.217 30.165 132.907 25.23 132.335 21.2446C132.097 19.5869 131.219 17.0278 130.694 15.3817C127.446 22.7617 116.208 26.5964 109.093 22.8963C108.689 22.6863 108.127 22.3853 107.99 21.9249L108.142 21.7306C113.355 22.8243 121.303 19.7624 125.514 16.7208C126.357 16.1119 128.438 14.3227 128.582 13.2842C127.986 13.2435 126.896 14.6792 126.367 15.1712C123.886 17.4805 120.624 18.9265 117.458 19.9849C115.376 20.6177 113.258 21.1188 111.081 21.2648C110.002 21.337 108.974 21.1971 107.899 21.3444C104.8 16.274 102.209 21.5078 102.59 25.0152C102.666 25.7194 102.991 26.245 103.321 26.8584C102.268 28.9005 101.337 31.4477 99.4813 32.7961C94.6174 36.4879 89.2244 33.5111 83.7414 33.7274C82.3375 33.7829 78.0931 34.9987 77.6194 34.9432C76.7461 34.1129 76.8107 31.9678 77.2142 30.9341C79.7676 24.3927 88.3446 27.2895 93.5903 26.787C95.9306 26.5628 98.0401 25.8774 100.117 24.8052C100.582 24.5688 100.869 24.5005 100.992 24.1164L100.849 24.0441C99.0044 24.3406 96.9745 25.749 94.3278 26.0287C89.94 26.4925 83.7243 24.9432 79.878 26.9697C78.1335 27.8788 76.8335 29.4582 76.2766 31.345C75.7835 33.0417 76.2257 34.1661 77.0312 35.6002Z" fill="#F95141"/>
<path d="M118.755 25.2353C119.141 25.1909 121.425 25.008 121.572 24.9186C121.326 24.518 121.214 24.526 120.786 24.2568C121.53 23.8841 122.603 23.5566 123.434 23.1773C126.424 21.8124 128.578 19.9945 130.657 17.4604C132.684 23.7119 131.739 26.4671 129.177 32.5305C127.588 36.2932 126.325 40.1469 122.798 42.7729C116.455 47.2657 110.934 42.805 109.007 36.391C108.809 35.7326 108.425 33.744 107.934 33.4544L107.684 33.6214C107.552 36.6116 110.328 40.7857 112.009 43.0745C107.914 44.9177 106.159 48.7615 104.328 52.7054C104.312 52.7529 104.296 52.8004 104.28 52.848C99.1979 49.4702 95.9739 42.9169 94.7965 37.0958C94.6832 36.5561 94.5922 36.0121 94.5236 35.4649C100.479 34.0786 101.662 32.2556 104.017 26.9263C103.814 26.5063 103.177 25.2732 103.187 24.901C103.292 20.8239 105.085 17.5014 107.967 22.6836C109.287 25.0575 115.513 24.9488 118.129 25.247C117.674 25.7461 117.541 25.7273 117.426 26.285C117.579 26.5593 117.575 26.5812 117.773 26.8199L117.608 27.0267L117.486 27.1955C117.815 27.7793 118.075 28.4542 118.71 28.6523C119.363 28.8964 120.598 29.2057 121.3 29.1562C121.313 28.9488 121.325 29.0006 121.299 28.9382C122.568 27.3005 120.836 26.6321 119.78 26.044C119.464 25.4914 119.318 25.4479 118.755 25.2353ZM127.232 29.1297C126.58 29.2649 126.023 29.3133 125.484 29.6854L125.264 29.6459C124.958 29.27 125.148 29.3545 124.725 29.2965C123.057 30.9115 124.228 34.8218 123.435 35.6945C122.919 35.9327 122.405 35.6809 121.802 35.7073C121.721 36.3672 122.65 36.5905 123.144 36.564C125.029 36.4636 124.282 33.3465 124.313 32.0673C124.964 31.8766 125.553 31.7426 126.211 31.5304L127.346 31.5101C127.611 31.7546 127.632 31.7167 128.003 31.7597C128.465 31.5249 128.564 31.2091 128.817 30.7467C129.223 30.3848 129.098 30.6073 129.17 30.0388C128.765 28.9823 128.206 28.9334 127.232 29.1297ZM105.356 22.0115C105.415 22.9494 105.549 24.3513 105.825 25.2327L106.104 25.4069C106.493 24.5575 106.462 22.3669 105.356 22.0115ZM126.986 26.6679L126.541 26.9806L126.56 27.1744C128.518 27.7108 128.515 27.3451 130.134 28.6768L130.397 28.7485C130.489 27.3101 128.274 26.7351 127.162 26.6759L126.986 26.6679ZM117.711 36.5131C117.885 38.965 119.496 41.9716 122.138 39.8592C122.492 39.4088 122.848 38.976 123.164 38.4977C121.537 37.6626 119.833 37.6282 118.326 36.7476C117.997 36.5552 118.096 36.5845 117.711 36.5131Z" fill="url(#paint0_linear_2_1488)"/>
<path d="M106.104 25.4069L105.825 25.2328C105.549 24.3513 105.415 22.9494 105.356 22.0116C106.462 22.3669 106.493 24.5576 106.104 25.4069Z" fill="#0F0100"/>
<path d="M119.303 24.7877C118.461 24.9704 118.224 25.0398 117.434 24.7402C118.136 24.6392 118.64 24.5675 119.303 24.7877Z" fill="#70412E"/>
<path d="M119.78 26.0437C119.256 26.3382 118.405 26.711 118.046 25.9948C118.192 25.5683 118.382 25.4957 118.755 25.2351C119.318 25.4476 119.464 25.4912 119.78 26.0437Z" fill="#FECAAF"/>
<path d="M117.773 26.8198L120.217 26.7865C119.966 26.8659 119.656 26.9145 119.504 27.0759C118.714 27.1268 118.409 27.1652 117.608 27.0267L117.773 26.8198Z" fill="#FECAAF"/>
<path d="M130.134 28.6766C128.516 27.345 128.518 27.7106 126.56 27.1742L126.541 26.9805L126.986 26.6678L127.162 26.6757C128.274 26.7349 130.489 27.31 130.397 28.7483L130.134 28.6766Z" fill="black"/>
<path d="M118.71 28.652C118.075 28.4539 117.815 27.779 117.486 27.1952L117.608 27.0264C118.409 27.165 118.714 27.1266 119.504 27.0757C119.55 27.5662 119.623 27.7705 119.375 28.191C119.154 28.3495 118.941 28.5094 118.71 28.652Z" fill="black"/>
<path d="M119.504 27.0759C119.656 26.9145 119.966 26.8659 120.218 26.7865C121.082 27.4651 121.06 27.8618 121.3 28.9382C121.325 29.0005 121.313 28.9487 121.3 29.1561C120.598 29.2056 119.363 28.8963 118.71 28.6522C118.942 28.5096 119.154 28.3497 119.375 28.1912C119.623 27.7707 119.55 27.5664 119.504 27.0759Z" fill="#FEFDFC"/>
<path d="M127.232 29.1291C128.206 28.9328 128.765 28.9817 129.171 30.0382C129.098 30.6067 129.223 30.3842 128.817 30.7461C128.434 30.1896 128.141 29.9261 127.67 29.4598L127.232 29.1291Z" fill="black"/>
<path d="M125.485 29.6852C126.023 29.313 126.58 29.2647 127.232 29.1295L127.67 29.4601C126.946 29.5424 126.629 29.572 125.937 29.762L125.485 29.6852Z" fill="#0F0100"/>
<path d="M125.264 29.6455C124.507 30.4186 124.491 31.0153 124.313 32.0669C124.282 33.3462 125.029 36.4633 123.144 36.5637C122.65 36.5902 121.72 36.3668 121.802 35.707C122.405 35.6805 122.919 35.9323 123.435 35.6942C124.228 34.8215 123.057 30.9112 124.725 29.2961C125.148 29.3542 124.958 29.2697 125.264 29.6455Z" fill="black"/>
<path d="M125.937 29.7622C126.629 29.5721 126.946 29.5426 127.67 29.4603C128.141 29.9267 128.434 30.1902 128.817 30.7467C128.564 31.2091 128.465 31.5249 128.003 31.7597C127.632 31.7167 127.611 31.7545 127.346 31.5101C127.479 31.2839 127.563 31.1021 127.679 30.8665C127.631 30.2798 127.741 30.5233 127.36 30.1002C126.802 29.8555 126.627 29.9164 125.993 29.9548L125.937 29.7622Z" fill="url(#paint1_linear_2_1488)"/>
<path d="M124.313 32.0674C124.491 31.0158 124.507 30.4191 125.264 29.646L125.484 29.6856L125.937 29.7624L125.993 29.955C125.772 30.7708 125.752 30.752 126.211 31.5305C125.553 31.7427 124.964 31.8768 124.313 32.0674Z" fill="#FBEAEA"/>
<path d="M126.211 31.5301C125.752 30.7516 125.772 30.7704 125.992 29.9547C126.626 29.9162 126.802 29.8554 127.36 30.1001C127.741 30.5232 127.631 30.2796 127.679 30.8663C127.563 31.1019 127.479 31.2837 127.346 31.5099L126.211 31.5301Z" fill="black"/>
<path d="M49.5704 93.8934C50.3944 80.5402 55.6338 67.5105 61.8856 55.8361C66.1661 47.8426 72.851 35.6927 82.7286 34.5287C84.0966 34.4465 85.7452 34.3594 87.1098 34.5472C89.5235 34.8798 91.5235 35.409 93.9973 35.5064C94.026 35.8802 94.0602 36.2538 94.0991 36.6271C94.7098 42.0467 98.5026 49.3521 102.799 52.8177C102.151 53.3 99.4908 55.5601 98.862 55.5208C96.3564 55.3646 92.3973 45.0357 91.5733 42.4331C91.2663 41.4634 90.7502 38.3073 90.1896 37.6947L89.9159 37.683L89.7899 37.9696C89.9757 41.557 95.4928 55.8813 98.8494 56.5647C99.5707 56.1852 102.365 53.9365 103.395 53.2198C105.546 54.1243 105.779 55.7436 107.654 57.3048C110.231 54.3087 111.846 47.6839 112.811 43.8663C114.666 44.8721 115.616 45.0693 117.712 45.3194C118.651 48.5602 119.477 52.9375 120.149 56.2896L123.495 72.9502C123.819 74.5223 124.167 76.0986 124.478 77.6724C126.39 87.338 129.1 96.8571 131.625 106.374C127.901 109.308 124.941 110.932 120.544 112.667C119.144 109.454 117.821 105.657 116.655 102.355C114.649 96.5706 112.698 90.7669 110.802 84.9451C114.972 78.6523 114.788 70.1897 115.262 62.9033C115.321 61.9974 115.62 58.025 114.976 57.6576C114.687 57.8873 114.639 58.0506 114.632 58.4492C114.502 65.7945 114.474 73.5793 112.299 80.6603C110.888 85.2575 108.07 86.8742 104.068 88.7985C103.341 87.5084 102.927 86.8773 102.012 85.7125C102.69 83.8988 103.161 81.7295 103.587 79.8326C105.129 71.9672 104.783 64.8547 104.634 56.9608C104.623 56.3599 104.545 55.403 104.105 54.9634C103.91 55.3296 103.897 55.9826 103.906 56.4054C104.105 65.4616 104.748 76.3928 101.472 85.0469C98.325 81.8348 93.7563 78.7428 89.4683 77.3275C89.5824 72.3772 89.7367 67.4277 89.931 62.4799C89.9868 60.948 90.3669 57.1936 89.972 55.9752L89.8084 55.9576C89.1135 57.5729 88.8776 74.1276 88.7778 77.1662C84.0918 76.1427 80.4947 75.6855 76.12 77.7535C75.9402 74.1826 75.6559 72.5613 71.84 71.9319C71.2798 66.9881 70.8592 62.1743 70.9249 57.1876C70.9355 56.4105 71.0521 55.3034 70.7818 54.6157L70.5741 54.5309C70.5377 54.5713 70.4973 54.6083 70.4654 54.6521C69.4243 56.0964 70.8086 69.3113 71.2877 71.838C69.9103 72.048 69.0519 72.1957 67.7806 72.7155C62.5372 74.8597 58.3847 81.5261 63.1691 86.3768C64.3092 87.5329 65.1421 87.9458 66.6456 88.5023C64.9716 93.952 65.5438 98.7145 67.4539 104.082C60.8632 101.988 54.5087 98.8045 49.5704 93.8934Z" fill="#FEFDFC"/>
<path d="M122.138 39.8589C119.496 41.9713 117.885 38.9646 117.711 36.5128C118.096 36.5842 117.997 36.5549 118.326 36.7473C119.833 37.6279 121.537 37.6623 123.164 38.4974C122.848 38.9757 122.492 39.4085 122.138 39.8589ZM118.508 37.4116C118.933 38.9154 119.487 39.7525 121.208 39.2526C121.447 39.1809 121.686 39.1038 121.922 39.021L122.065 38.7746C121.886 38.5555 119.17 37.6734 118.508 37.4116Z" fill="black"/>
<path d="M121.922 39.0212C121.686 39.104 121.448 39.1811 121.208 39.2528C119.487 39.7528 118.933 38.9157 118.508 37.4119C119.17 37.6737 121.886 38.5557 122.065 38.7748L121.922 39.0212Z" fill="#FEFDFC"/>
<path d="M104.886 53.0596C106.833 48.8918 108.236 45.7312 112.408 43.6395L112.468 43.6603C112.415 43.7408 112.368 43.8251 112.31 43.9016C111.614 44.8204 110.501 49.6623 109.958 51.2138C109.326 53.0169 108.559 54.663 107.589 56.3073L106.624 55.1077L104.886 53.0596Z" fill="#FEFDFC"/>
<path d="M158.093 69.4657C158.975 68.0814 159.262 67.6572 160.886 67.2264C161.172 67.2147 161.46 67.2182 161.746 67.2364C163.48 67.3428 164.245 68.3959 165.297 69.6159C168.123 67.1541 170.785 69.1826 171.485 72.3762C173.385 71.2577 175.745 71.1575 176.942 73.4685C177.511 74.566 177.05 75.5468 176.646 76.6334C177.926 76.9327 178.809 77.0941 179.625 78.2661C181.374 80.7785 179.355 83.6645 177.308 85.0992C176.023 85.2816 173.961 85.2019 172.633 85.1359C168.583 84.9347 163.848 84.933 160.1 86.7153C160.97 88.8718 161.639 89.9118 159.65 91.5578C159.682 92.2916 159.689 94.0207 159.099 94.4051C157.541 95.4198 157.57 95.3376 157.297 97.2163C157.019 96.9992 156.737 96.7887 156.451 96.5847C151.064 92.8058 148.465 101.759 154.747 105.817C155.417 106.16 155.452 106.05 155.818 106.59C155.75 108.345 152.31 108.647 151.019 108.369C150.584 108.275 149.264 107.598 148.997 107.597C147.539 107.593 145.749 108.329 144.507 107.153C143.587 106.259 143.717 105.281 143.742 104.178C143.157 103.112 139.877 103.901 140.507 100.308C140.962 97.712 136.305 99.9775 138.657 94.1849C135.764 93.2792 135.643 90.7315 137.624 88.715C135.805 86.6029 135.978 84.1579 138.946 83.4782C137.91 80.3471 137.824 79.5704 140.725 78.7745C141.778 78.4857 139.332 73.6011 144.949 74.4977C145.337 72.284 145.521 71.6583 147.488 70.4997C149.438 70.4024 149.664 70.4169 151.303 71.458C152.593 67.4999 154.789 67.0759 158.093 69.4657Z" fill="#0C395A"/>
<path d="M71.499 81.9265C70.586 82.7977 70.086 83.3839 69.2765 84.3641C68.339 85.5432 67.7819 86.5061 67.0498 87.8163C61.2433 86.0972 60.143 80.2409 64.1111 76.0187C66.3763 73.6084 71.3411 71.0291 74.2863 73.6175C75.5514 74.7292 75.4546 76.9283 75.4376 78.4378C74.7279 79.5054 72.6013 81.0086 71.499 81.9265ZM65.9068 75.8209C63.3878 77.2337 62.8933 81.8494 65.5523 83.156C65.5508 82.2856 63.8926 80.2588 64.658 78.3664C65.2361 76.9372 65.0506 77.156 66.1131 76.0138C65.9594 75.8329 66.0402 75.8813 65.9068 75.8209Z" fill="#F79303"/>
<path d="M65.5524 83.1556C62.8935 81.849 63.388 77.2333 65.907 75.8206C66.0404 75.8809 65.9596 75.8325 66.1133 76.0135C65.0508 77.1556 65.2363 76.9368 64.6581 78.366C63.8927 80.2585 65.551 82.2852 65.5524 83.1556Z" fill="#0F0100"/>
<path d="M75.3806 79.3935C76.867 77.7623 78.4271 77.4544 80.5153 77.0617C85.4125 76.4585 90.595 78.0445 94.7523 80.6068C100.494 84.1449 105.964 89.2924 104.064 96.7179C103.407 93.0605 101.799 89.8259 97.5564 89.8268C97.2352 88.6844 97.0326 87.9557 96.5722 86.8736L96.2896 86.8309L96.5133 86.7476L96.2729 86.7356L96.4606 86.6429L96.2504 86.5771L96.3981 86.5325C96.3269 86.4269 96.3793 86.4747 96.2128 86.4269C96.2675 87.6447 96.7005 88.8423 97.0556 90.0149C93.0943 91.3522 89.0673 92.9917 85.4904 95.1402C84.7558 95.4478 83.7408 96.3691 82.912 96.2001C82.4419 96.1042 82.2262 96.1799 81.8356 96.2647C81.0819 96.5344 80.5868 96.7962 79.882 97.1555C79.8538 97.1188 79.8256 97.0821 79.7975 97.0454L79.6538 96.8645C78.5136 95.4139 77.8222 95.2705 76.0385 95.7073C74.0815 92.8855 73.3146 88.8036 72.6852 85.4598C72.4673 84.3009 72.527 83.1192 72.236 81.9438C73.2648 81.0745 73.9702 80.5774 75.1411 79.9438C80.3782 81.311 85.5823 83.4598 89.6705 87.0856C90.6655 87.9682 91.4728 88.6448 92.7014 89.1724C91.8973 88.1805 90.5768 87.0722 89.584 86.2542C85.0858 82.5478 80.8582 80.9539 75.3806 79.3935Z" fill="#F79303"/>
<path d="M69.2768 84.3642C70.0863 83.3839 70.5862 82.7978 71.4993 81.9266L71.9708 82.3369C71.0853 83.051 70.3825 83.8941 69.6433 84.7583L69.2768 84.3642Z" fill="#340000"/>
<path d="M69.6433 84.7574C70.3825 83.8933 71.0853 83.0502 71.9708 82.3361C72.1731 86.9828 73.2011 92.0455 75.5465 96.1016C71.9913 99.306 71.3698 101.686 74.3481 105.648C72.9703 106.737 71.5599 107.725 69.9787 108.502C67.3815 104.335 65.5559 95.7695 66.6912 90.7788C67.2006 88.5719 68.2107 86.5116 69.6433 84.7574Z" fill="#F79303"/>
<path d="M160.922 86.9635C162.963 86.177 164.999 85.9426 167.153 85.7553C168.918 85.5445 172.76 85.7875 174.681 85.8518C175.78 88.1838 176.397 90.8098 177.583 93.2676C178.407 94.9745 181.657 99.1117 181.419 100.514C180.927 101.208 180.073 101.4 179.276 101.66C179.322 104.977 178.206 110.513 176.76 113.471C173.342 114.659 168.672 115.017 165.105 114.137C163.885 113.836 162.15 112.97 160.887 113.008L160.962 113.199C162.5 114.226 164.682 114.704 166.495 115.233C164.556 120.824 162.534 126.386 160.43 131.916C159.628 134.076 158.595 136.493 157.879 138.627L157.714 138.685L157.487 138.284C155.235 133.746 153.024 129.188 150.856 124.61C149.365 121.472 147.626 117.518 145.927 114.577C146.792 112.038 147.69 110.5 148.956 108.135C152.907 110.079 155.142 109.275 156.72 106.463C156.865 106.205 158.59 106.296 158.741 105.119C158.372 105.052 156.988 105.717 156.523 105.736C152.802 105.893 149.073 96.9563 154.17 96.3341C155.422 96.1813 156.863 97.7584 157.776 98.612C157.975 97.668 158.041 96.8485 158.134 95.8905C160.109 94.8676 160.135 94.0498 160.414 91.971C162.197 90.2806 161.64 88.9678 160.922 86.9635ZM169.839 90.9865C169.181 91.1971 167.456 91.6446 167.54 92.4439C168.09 92.6835 169.486 91.8674 170.462 91.7787C171.488 91.8037 172.171 91.9391 173.127 91.6432L173.289 91.4625C172.604 90.7814 170.738 90.9046 169.839 90.9865ZM170.484 94.0097C169.395 95.1567 169.25 96.4732 171.083 96.9279C172.099 95.8831 171.967 94.4197 170.484 94.0097ZM154.121 98.3449C154.385 99.6091 156.53 99.7633 155.69 101.578C155.617 101.737 155.598 101.92 155.584 102.094C155.895 102.292 155.733 102.234 156.062 102.286C157.464 100.714 155.814 98.6431 154.121 98.3449ZM172.639 103.403C172.104 105.657 175.941 105.353 177.287 104.779L177.409 104.461L177.28 104.25C176.047 104.179 175.289 104.909 174.277 104.44C173.623 104.137 173.173 103.555 172.639 103.403Z" fill="#70412E"/>
<path d="M104.039 99.7944C104.984 95.5283 105.42 93.6348 104.27 89.406C106.997 88.1395 107.928 87.6917 110.229 85.7076C111.639 89.1573 112.875 93.2973 114.042 96.8597C115.294 100.603 116.612 104.323 117.999 108.018C118.648 109.744 119.285 111.485 120.006 113.181C120.116 113.441 120.598 113.57 120.645 113.66C121.748 115.738 122.707 117.803 123.906 119.835C118.948 123.373 116.695 126.907 115.551 132.996C114.809 136.952 115.445 139.512 115.471 143.239C115.508 148.736 115.509 154.285 115.562 159.789C115.57 160.713 115.813 164.508 115.579 165.156C113.234 164.933 111.571 167.058 110.132 168.624C107.285 167.114 105.248 166.29 102.237 165.076C102.197 164.027 102.204 162.965 102.201 161.916C102.175 151.73 101.87 141.627 101.09 131.473C100.782 127.414 100.509 123.354 100.27 119.291C100.202 118.097 99.8758 114.323 100.169 113.336C101.04 110.404 103.72 107.704 104.866 104.763C104.828 104.225 105.328 103.659 105.611 102.932C105.382 102.118 104.43 101.629 103.689 101.106L104.039 99.7944Z" fill="#FEAF36"/>
<path d="M94.1197 99.5295L94.6159 98.9422L95.715 99.4942C96.1282 99.7028 96.1575 99.721 96.6489 99.7278L96.6995 99.6695L96.4571 99.3389L96.3447 99.6652L96.4133 99.2942C92.4876 96.013 89.1739 97.7549 84.423 96.4178C87.4661 94.3544 95.9225 90.3012 99.5269 90.5465C102.492 92.378 104.072 95.9213 103.364 99.3503C103.263 99.7859 103.185 100.361 102.907 100.676C101.846 100.234 99.3184 98.938 98.44 99.9279L98.4281 100.261C98.6867 100.451 98.6036 100.469 98.8236 100.424C99.686 100.247 101.849 101.202 102.779 101.596C102.801 103.042 102.683 103.888 102.339 105.302C101.954 103.676 101.842 103.414 100.822 102.091C98.2312 100.976 95.9506 101.491 94.4631 100.619L94.4318 100.398C94.3649 99.9558 94.3877 99.8644 94.1197 99.5295Z" fill="#FEFDFC"/>
<path d="M170.462 91.7781C169.486 91.8669 168.09 92.683 167.54 92.4434C167.456 91.6441 169.181 91.1965 169.838 90.986C170.738 90.904 172.604 90.7808 173.289 91.462L173.127 91.6427C172.171 91.9386 171.488 91.8032 170.462 91.7781Z" fill="black"/>
<path d="M215.713 137.508C214.768 133.67 213.682 126.368 213.898 122.482C214.391 115.868 216.778 109.185 220.156 103.518C222.649 99.3348 226.835 95.1754 231.67 93.9969C239.08 92.1907 243.233 103.715 244.417 108.997C246.495 118.272 244.368 127.713 239.048 135.484C235.135 141.426 228.54 147.757 222.485 151.416C221.213 156.713 220.082 162.043 219.093 167.4C218.494 170.483 217.552 174.848 217.522 177.955L217.092 178.002C217.339 174.291 218.005 171.087 218.699 167.448C219.677 162.095 220.827 156.774 222.146 151.494C220.763 148.794 218.664 144.578 218.038 141.629L218.205 141.506C219.095 144.564 220.845 148.288 222.336 151.088C223.156 147.906 223.892 143.644 224.615 140.304C226.255 133.037 227.773 125.743 229.169 118.425C229.482 116.74 230.864 107.023 231.135 106.455C231.528 107.475 229.32 119.181 228.913 121.299C231.231 119.405 233.578 116.675 235.739 114.56C236.326 113.985 237.624 112.421 238.228 112.049L238.242 112.23C237.578 113.333 230.112 120.691 228.888 121.614C226.906 131.451 224.581 141.263 222.653 151.092C226.944 148.306 233.29 142.676 236.447 138.614C242.768 130.483 245.839 122.111 244.535 111.687C243.804 106.262 241.369 99.0676 237.058 95.4793C232.115 91.3638 224.688 97.4404 221.856 101.535C217.474 107.871 214.178 116.375 214.16 124.139C214.149 128.561 215.298 133.198 215.94 137.51L215.713 137.508Z" fill="#972C04"/>
<path d="M171.083 96.9277C169.25 96.473 169.394 95.1565 170.484 94.0096C171.967 94.4196 172.098 95.8829 171.083 96.9277Z" fill="black"/>
<path d="M215.94 137.509C215.298 133.197 214.149 128.56 214.16 124.138C214.178 116.374 217.474 107.871 221.856 101.534C224.688 97.4396 232.115 91.3631 237.058 95.4786C241.369 99.0669 243.804 106.261 244.535 111.686C245.839 122.11 242.769 130.482 236.447 138.614C233.29 142.675 226.944 148.306 222.653 151.091C224.581 141.262 226.906 131.45 228.888 121.613C230.112 120.69 237.578 113.332 238.242 112.23L238.228 112.049C237.624 112.42 236.326 113.984 235.739 114.559C233.578 116.674 231.231 119.404 228.913 121.298C229.321 119.18 231.528 107.474 231.135 106.454C230.864 107.023 229.482 116.739 229.169 118.424C227.773 125.742 226.255 133.036 224.615 140.304C223.893 143.643 223.156 147.905 222.336 151.087C220.845 148.287 219.095 144.563 218.205 141.505C217.631 140.333 217.551 139.99 216.387 139.355L215.94 137.509Z" fill="#F79303"/>
<path d="M39.6955 123.734C41.477 114.944 45.2809 102.648 49.3236 94.7459C54.8771 100.123 60.8276 102.489 67.8437 105.193C68.2431 106.213 68.8003 108.181 69.6573 108.462C69.8459 108.524 69.8109 108.581 69.9273 108.854C68.7286 112.213 55.4502 113.966 51.9627 114.977C46.3872 116.872 43.4682 119.402 39.6955 123.734Z" fill="#60A6D2"/>
<path d="M81.002 99.4889C83.2137 99.4064 86.7755 99.6955 89.1018 99.8096C89.0071 99.8978 88.7311 100.172 88.634 100.224C85.6763 100.772 86.5137 109.688 92.9504 107.142C93.8792 106.707 94.2436 106.375 95.0031 105.724C96.4132 104.515 95.2882 102.89 95.4575 101.736L95.6085 101.765C96.3626 101.903 97.9551 101.946 98.4115 102.18C98.0982 102.389 98.0564 102.377 97.6868 102.48C94.9223 104.356 97.2825 109.246 96.8602 111.225L96.6571 111.341C96.0006 111.254 95.2668 110.677 94.4405 110.399L94.2496 110.514L94.3003 110.804C95.7557 112.324 98.2371 113.001 97.4572 109.764C97.9255 110.173 98.2812 110.524 98.8727 110.731C99.5172 110.958 99.7121 110.829 100.103 111.267C100.099 111.323 100.096 111.378 100.093 111.434C98.8821 114.066 94.061 122.809 90.6187 121.698C86.5484 120.385 82.572 118.326 79.4931 115.509C78.9445 115.007 77.5568 112.797 77.1164 112.134L76.9653 112.126C76.9277 112.296 76.903 112.478 76.9605 112.647C78.0337 115.801 81.6177 118.261 84.2144 119.79C79.0085 122.672 78.0246 124.27 75.5438 129.564C74.4671 131.889 73.3782 134.209 72.2764 136.523C71.2294 134.208 69.3546 130.84 68.12 128.545C65.4949 123.664 62.7895 118.451 59.6169 113.934C61.9837 113.626 66.8205 112.482 68.594 110.867C70.6327 109.011 72.8757 107.718 74.9593 106.055L76.2887 106.768C76.1558 107.437 75.9654 108.067 76.0838 108.723L76.3282 108.867L76.6239 108.787C76.7786 107.792 76.8768 107.284 77.1551 106.32C72.6677 104.653 71.7247 99.9396 75.3514 96.9383C79.2211 93.7365 79.2925 98.7767 80.1603 100.446C80.5339 100.304 80.654 100.01 80.8899 99.6585L81.002 99.4889ZM76.8205 98.2341C75.1747 98.5906 73.5631 100.035 74.487 101.78L74.621 101.774L74.6583 101.583C74.8526 100.626 74.971 100.267 75.5475 99.4898C77.3306 98.237 77.4922 99.2832 78.1427 100.805L78.3444 100.85C79.1966 99.7313 78.0226 98.3664 76.8205 98.2341ZM77.6513 102.656C77.1414 102.757 76.3015 102.846 75.9552 103.17C76.1256 103.571 76.1103 103.456 76.617 103.701C77.3221 103.448 77.4533 103.441 77.9959 102.96L78.0568 102.71C77.9347 102.688 77.7614 102.642 77.6513 102.656ZM91.8974 112.361C90.8893 113.596 90.9709 115.057 92.2252 116.083C92.8841 116.622 93.7429 116.852 94.5831 116.715C95.0221 116.643 95.2207 116.557 95.5477 116.258C95.744 115.772 95.7434 116 95.6569 115.56C94.5122 115.34 92.8446 117.512 91.9398 114.191C91.997 113.642 91.9039 113.715 92.197 113.36C92.881 113.378 94.0055 114.378 94.6491 114.677C95.0975 114.885 95.7059 114.981 96.1913 115.069C96.5763 114.718 96.9635 114.476 97.0443 113.994L96.8486 113.833C95.606 114.108 95.3658 114.514 94.2758 113.753C93.4819 113.199 92.8642 112.598 91.8974 112.361Z" fill="#FEFDFC"/>
<path d="M79.8877 97.5868C80.6967 97.3096 81.5728 96.9571 82.3791 96.6506L82.7061 96.742C82.6512 97.3113 81.0239 98.6227 80.4961 99.0982C80.2241 98.6381 80.0647 98.0955 79.8877 97.5868Z" fill="#FEAF36"/>
<path d="M83.6012 96.6902C85.4925 97.6847 89.6771 97.7014 92.1796 98.1442C92.0812 98.4646 92.0536 98.5713 91.9042 98.8677C92.3447 98.987 92.7456 98.9972 92.9564 99.282C92.1455 99.4516 90.7134 99.1682 89.5397 99.3076C87.8061 98.9659 83.2307 99.0165 81.2672 98.9938L83.6012 96.6902Z" fill="#FEFDFC"/>
<path d="M92.1797 98.1449C93.165 98.3731 93.6758 98.5762 94.6159 98.9424L94.1196 99.5297C93.3901 98.986 92.7949 98.8522 91.9043 98.8684C92.0536 98.572 92.0812 98.4653 92.1797 98.1449Z" fill="#FECAAF"/>
<path d="M75.5475 99.4895C74.971 100.267 74.8526 100.625 74.6583 101.583L74.621 101.774L74.487 101.78C73.5631 100.035 75.1747 98.5903 76.8205 98.2338C78.0226 98.3661 79.1966 99.731 78.3444 100.85L78.1427 100.804C77.4923 99.2829 77.3306 98.2367 75.5475 99.4895Z" fill="black"/>
<path d="M156.062 102.286C155.733 102.235 155.895 102.292 155.583 102.094C155.597 101.921 155.616 101.737 155.69 101.579C156.53 99.7636 154.385 99.6094 154.121 98.3452C155.814 98.6434 157.463 100.714 156.062 102.286Z" fill="black"/>
<path d="M91.9041 98.8679C92.7947 98.8516 93.39 98.9854 94.1195 99.5291C94.3875 99.864 94.3648 99.9554 94.4317 100.398L94.4629 100.618C95.9505 101.491 98.231 100.976 100.822 102.091C101.841 103.413 101.954 103.676 102.339 105.302C102.683 103.887 102.801 103.041 102.779 101.596C101.849 101.202 99.6859 100.247 98.8234 100.424C98.6035 100.469 98.6866 100.45 98.4279 100.26L98.4399 99.9275C99.3182 98.9376 101.845 100.234 102.907 100.676C103.185 100.361 103.262 99.7855 103.364 99.3499L104.038 99.7946L103.689 101.106C104.43 101.63 105.382 102.119 105.61 102.933C105.328 103.659 104.828 104.225 104.866 104.763L104.5 104.344L104.657 103.805L104.491 103.578L103.456 103.452C102.814 105.187 101.569 108.23 101.175 109.995L101.014 110.17C100.789 109.969 100.846 110.025 100.676 109.776C101.126 107.414 103.168 103.084 99.2713 102.311C98.7037 102.579 98.4459 102.671 97.8432 102.851L97.6867 102.48C98.0563 102.377 98.0982 102.389 98.4114 102.18C97.955 101.946 96.3625 101.904 95.6085 101.766L95.4574 101.737C95.0295 101.773 95.2377 101.73 94.834 102.029C94.239 100.977 93.5761 100.317 92.381 100.06C89.7602 99.4981 88.5606 100.452 88.4755 102.923L88.2208 103.837C87.7175 102.337 87.8839 101.572 88.634 100.225C88.731 100.172 89.007 99.8979 89.1018 99.8097L89.5397 99.3078C90.7134 99.1683 92.1454 99.4517 92.9563 99.2821C92.7455 98.9973 92.3446 98.9871 91.9041 98.8679Z" fill="#0F0100"/>
<path d="M88.4755 102.923C88.5606 100.452 89.7602 99.4981 92.381 100.06C93.5761 100.317 94.239 100.977 94.834 102.029C95.0258 102.698 95.0927 102.569 94.9532 103.16C94.7839 103.299 94.776 103.287 94.6525 103.452C92.4425 106.412 89.7553 106.873 88.4755 102.923ZM91.2281 101.317C90.1617 102.612 90.0994 104.113 92.2243 104.122C93.5035 102.866 93.0895 101.276 91.2281 101.317Z" fill="#FEFDFC"/>
<path d="M92.9504 107.142C86.5136 109.687 85.6763 100.771 88.634 100.224C87.884 101.572 87.7175 102.337 88.2208 103.836C88.7973 104.955 89.1006 104.978 89.6748 105.797L89.6996 106.028C90.6146 106.693 91.5081 106.773 92.6024 106.591L92.9504 107.142Z" fill="#F79303"/>
<path d="M92.2243 104.122C90.0994 104.112 90.1617 102.611 91.2281 101.317C93.0895 101.276 93.5035 102.866 92.2243 104.122Z" fill="black"/>
<path d="M95.4575 101.736C95.2882 102.89 96.4133 104.515 95.0031 105.724C94.2437 106.375 93.8792 106.707 92.9505 107.142L92.6025 106.592C93.9777 106.08 95.5315 105.005 95.1167 103.34L94.9534 103.16C95.0928 102.569 95.0259 102.697 94.8341 102.029C95.2379 101.73 95.0296 101.773 95.4575 101.736Z" fill="#591203"/>
<path d="M100.677 109.775C98.5693 112.494 95.6138 106.446 97.8434 102.851C98.4461 102.67 98.7039 102.579 99.2715 102.311C103.168 103.083 101.127 107.414 100.677 109.775ZM98.5602 104.352C98.5479 105.026 98.7841 105.886 99.2886 106.341C98.921 106.662 98.6225 106.833 98.5269 107.295C99.8124 107.845 101.852 104.35 99.4653 103.693C98.9574 103.81 98.8973 103.954 98.5602 104.352Z" fill="url(#paint2_linear_2_1488)"/>
<path d="M76.617 103.701C76.1103 103.456 76.1256 103.571 75.9552 103.171C76.3015 102.846 77.1414 102.757 77.6513 102.656C77.7614 102.642 77.9347 102.689 78.0568 102.711L77.9959 102.961C77.4533 103.442 77.3221 103.449 76.617 103.701Z" fill="black"/>
<path d="M88.2209 103.837L88.4756 102.923C89.7554 106.873 92.4426 106.412 94.6526 103.452C94.776 103.287 94.784 103.299 94.9533 103.16L95.1166 103.34C93.6092 105.682 92.5717 107.078 89.6749 105.797C89.1007 104.979 88.7974 104.955 88.2209 103.837Z" fill="black"/>
<path d="M95.1166 103.34C95.5314 105.005 93.9776 106.08 92.6024 106.591C91.5081 106.773 90.6147 106.693 89.6996 106.028L89.6749 105.797C92.5717 107.078 93.6091 105.682 95.1166 103.34Z" fill="#F9E3BE"/>
<path d="M103.456 103.452L104.491 103.577L104.657 103.805L104.501 104.343L101.176 109.995C101.57 108.229 102.814 105.187 103.456 103.452Z" fill="#F79303"/>
<path d="M177.287 104.779C175.941 105.353 172.104 105.656 172.64 103.403C173.173 103.555 173.623 104.136 174.277 104.439C175.289 104.908 176.047 104.179 177.28 104.249L177.409 104.46L177.287 104.779Z" fill="black"/>
<path d="M98.56 104.352C98.8972 103.954 98.9572 103.81 99.4651 103.693C101.852 104.35 99.8123 107.845 98.5267 107.295C98.6223 106.833 98.9208 106.662 99.2884 106.341C99.5551 105.943 99.9261 105.512 99.9215 105.063C99.6791 104.671 99.0335 104.523 98.56 104.352Z" fill="#0F0100"/>
<path d="M99.2883 106.341C98.7839 105.887 98.5477 105.026 98.5599 104.352C99.0334 104.523 99.679 104.671 99.9214 105.063C99.926 105.512 99.555 105.943 99.2883 106.341Z" fill="black"/>
<path d="M121.203 113.156C125.353 111.339 127.891 110.053 131.568 107.276L131.753 107.365C132.295 108.131 133.727 113.844 134.067 115.108C132.029 116.029 129.919 116.885 127.87 117.796C126.921 118.217 125.545 118.93 124.631 119.247L124.319 119.067C123.287 117.658 122.018 114.841 121.203 113.156Z" fill="#FECAAF"/>
<path d="M142.139 112.639C143.64 111.961 144.853 111.405 146.422 110.893L146.529 111.09C146.374 111.8 145.453 113.802 145.123 114.567C146.522 116.911 147.993 120.253 149.211 122.776L154.748 134.142C155.712 136.166 156.876 138.834 157.967 140.69C160.782 132.239 164.187 124.125 167.059 115.574C170.207 119.833 169.085 128.477 168.714 133.528C167.672 133.795 165.916 134.369 165.237 135.141C163.982 136.566 158.52 140.9 157.968 142.248C159.116 142.176 164.826 135.956 166.182 135.126C167.377 134.396 167.912 134.299 169.272 133.864C169.521 131.761 169.691 129.65 169.78 127.534C169.969 125.117 169.801 122.183 169.583 119.759C177.888 123.462 180.218 131.098 182.1 139.333C176.658 139.283 171.216 139.281 165.774 139.328C165.526 140.087 165.249 140.783 164.942 141.52C162.967 146.265 161.134 151.054 159.145 155.794C158.544 151.521 157.771 145.911 157.329 141.653C155.737 140.505 153.433 139.305 151.693 138.329C148.985 136.811 146.251 135.293 143.463 133.93C142.95 128.656 142.941 123.242 142.43 117.951C142.265 116.249 142.134 114.335 142.139 112.639Z" fill="#F79303"/>
<path d="M91.9398 114.191C92.8447 117.512 94.5123 115.34 95.657 115.56C95.7435 116 95.7441 115.772 95.5477 116.258C95.2208 116.557 95.0222 116.643 94.5832 116.715C93.7429 116.852 92.8842 116.622 92.2252 116.083C90.971 115.057 90.8893 113.596 91.8974 112.361C92.8643 112.598 93.482 113.199 94.2759 113.753C95.3659 114.514 95.6061 114.108 96.8486 113.833L97.0444 113.994C96.9636 114.476 96.5763 114.718 96.1914 115.069C95.7059 114.981 95.0976 114.885 94.6492 114.677C94.0056 114.378 92.8811 113.378 92.1971 113.36C91.904 113.715 91.997 113.642 91.9398 114.191Z" fill="black"/>
<path d="M124.241 120.231C129.185 117.724 136.384 114.719 141.591 112.857C141.568 114.61 141.678 116.418 141.809 118.169C142.209 123.511 142.382 128.921 142.865 134.25C145.989 135.819 149.002 137.389 152.017 139.164C153.456 140.01 155.384 140.955 156.749 141.859C157.097 144.454 158.868 155.321 158.352 157.309C157.709 159.785 156.203 162.303 155.218 164.687C151.466 163.563 145.906 162.517 141.978 161.808L138.403 146.263C137.999 144.424 135.952 134.569 135.385 133.516L135.259 133.57C135.27 136.107 136.559 140.445 137.079 143.024C138.322 149.194 140.051 155.553 141.28 161.692C139.503 161.265 137.661 160.795 135.882 160.402C135.175 160.725 133.523 161.333 133.248 162.024C133.997 162.207 135.358 161.437 136.057 161.098C142.358 162.492 148.673 163.824 155.001 165.093C153.296 169.089 151.664 173.192 149.896 177.141C145.376 177.547 140.996 178.234 136.514 178.757C133.127 179.152 129.816 179.13 126.362 179.665C126.402 178.833 126.429 178.075 126.54 177.248L127.871 176.602C127.441 176.137 126.608 175.442 126.535 174.981L126.833 174.996C127.132 175.056 127.027 175.037 127.351 174.967C129.55 173.248 126.915 169.593 125.698 168.041C125.206 167.839 124.572 167.65 124.057 167.481C123.075 166.014 122.632 166.024 120.934 165.512C119.301 158.816 117.85 151.742 116.358 144.988C116.371 143.802 115.992 142.072 115.91 140.815C115.344 132.202 117.045 125.472 124.241 120.231Z" fill="#F79303"/>
<path d="M63.8076 160.924C62.915 151.299 63.6414 141.343 61.5951 131.855C61.4192 131.039 60.7992 128.484 60.3889 127.966L60.1886 128.062C60.0108 128.616 60.8308 131.294 61.0018 132.04C61.3253 133.485 61.5777 134.946 61.7584 136.416C62.8066 145.059 62.1909 154.034 63.2499 162.244C63.4405 163.643 63.7109 166.077 64.1106 167.356C67.9285 168.327 71.2738 169.408 75.0214 170.606C75.5961 170.768 75.4382 170.609 75.7538 170.968C75.3261 171.723 74.6353 172.654 74.3294 173.398C72.5545 177.712 71.665 182.445 69.4016 186.542C66.9204 186.851 64.3439 186.863 61.85 186.753C59.0454 186.628 55.2753 186.679 52.867 185.073C45.6205 180.244 42.5896 154.627 41.3732 145.822C41.1965 144.544 40.8312 139.866 40.2097 139.186L39.9852 139.262C39.7181 139.92 40.1634 142.359 40.2837 143.151C42.068 154.925 43.4036 167.13 47.493 178.375C48.2288 180.399 49.8361 183.008 51.273 184.6L15.7495 186.728C16.3131 182.719 17.1918 178.812 18.1114 174.871C21.7645 159.215 27.6026 142.821 36.4291 129.321C40.1469 123.635 45.2884 117.682 51.8904 115.687C54.2763 114.966 56.62 114.527 59.0641 114.026C60.9679 116.906 62.7423 119.87 64.3824 122.908C65.5632 125.064 71.0903 135.979 72.0628 136.907C73.7342 136.466 76.8538 127.237 78.4207 125.405C79.9464 123.621 80.3208 122.993 82.39 121.577C84.6688 124.851 87.7446 136.33 88.9078 140.296L95.5241 162.794C94.642 163.081 92.2132 164.091 92.1378 165.163L92.0098 165.074L92.0792 165.172C92.9704 164.982 94.6309 163.801 96.0234 163.274C99.3252 164.365 106.748 167.55 109.712 169.202C108.942 169.961 108.075 170.644 107.213 171.295C105.784 172.373 104.128 173.621 102.36 174.069C98.9442 174.937 84.2229 172.702 79.9359 172.102C79.0652 168.684 78.3083 165.418 77.5017 161.992C79.3406 160.056 81.2746 157.037 81.6325 154.424C82.052 151.363 84.6876 138.766 83.8456 136.308L83.6192 136.309C83.2695 138.288 83.0865 140.523 82.8452 142.544C82.5041 145.257 82.1182 147.965 81.688 150.665C81.0319 154.749 80.4588 158.284 77.2817 161.186C74.8859 163.374 70.7252 165.138 68.7326 167.564L68.6953 167.654C68.3877 167.773 65.1423 166.996 64.5955 166.896C64.2503 164.847 64.0352 162.993 63.8076 160.924ZM92.2482 161.215C91.2418 161.669 89.1827 162.671 88.5231 163.545L88.5291 163.776C88.792 163.84 88.6714 163.847 88.8916 163.786L88.7746 163.648L88.9593 163.713L89.023 163.679C89.9276 163.122 91.8965 162.085 92.5646 161.549L92.6144 161.319L92.2482 161.215ZM61.0724 167.362C58.5676 168.22 54.3252 170.651 53.7197 173.426L53.8307 173.61C54.0589 173.513 54.027 173.561 54.1881 173.398C55.5902 171.384 56.6328 170.309 58.7702 169.007C59.4813 168.574 61.6138 167.934 61.6104 167.401C61.2875 167.334 61.3854 167.323 61.0724 167.362ZM65.1034 168.819C64.4105 170.349 63.4081 171.962 62.861 173.206L62.9756 173.439L63.1705 173.501C63.9795 172.592 65.3475 170.357 65.5418 169.14L65.4252 168.919L65.1034 168.819Z" fill="#F95141"/>
<path d="M84.9178 120.14C86.9428 121.118 90.349 122.97 92.5505 122.299C95.3121 121.456 97.9728 116.629 99.3659 114.251C99.4695 114.69 99.5144 117.476 99.5363 118.066C99.6265 120.077 99.748 122.087 99.9003 124.094C100.212 128.572 100.576 132.92 100.974 137.385C101.197 139.893 101.095 143.468 101.206 146.104C101.468 152.346 101.612 158.591 101.629 164.84C99.8513 164.109 98.0664 163.397 96.2742 162.704C95.3523 160.296 94.3336 156.434 93.5788 153.879L89.4931 139.998C88.0343 134.979 85.5267 125.411 82.9002 121.23L84.9178 120.14Z" fill="#60A6D2"/>
<path d="M123.907 119.835L123.944 120.074L124.241 120.23C117.046 125.472 115.344 132.202 115.91 140.815C115.992 142.072 116.371 143.802 116.358 144.988C116.106 145.773 116.42 146.136 116.19 146.763L116.237 146.981C116.004 148.272 116.115 155.07 116.235 156.583C116.211 159.476 116.252 162.37 116.356 165.261C115.948 165.288 115.942 165.322 115.579 165.156C115.813 164.508 115.571 160.714 115.562 159.789C115.509 154.285 115.508 148.736 115.471 143.239C115.445 139.512 114.809 136.952 115.551 132.996C116.695 126.907 118.948 123.373 123.907 119.835Z" fill="url(#paint3_linear_2_1488)"/>
<path d="M63.2499 162.245C62.1908 154.034 62.8066 145.059 61.7583 136.416C61.5777 134.946 61.3253 133.485 61.0018 132.04C60.8308 131.294 60.0107 128.617 60.1886 128.062L60.3889 127.966C60.7992 128.485 61.4192 131.039 61.595 131.855C63.6414 141.343 62.915 151.299 63.8076 160.924C63.7387 161.567 63.8391 161.852 63.2499 162.245Z" fill="#0F0100"/>
<path d="M222.188 177.561C223.684 172.803 225.427 168.148 227.04 163.432C228.111 160.298 228.915 157.068 230.141 153.989C233.515 145.515 239.805 136.361 248.041 132.078C250.124 130.995 252.572 130.154 254.906 130.928C256.18 131.351 257.371 132.196 257.942 133.44C258.896 135.517 258.245 138.121 257.427 140.141C253.518 149.807 239.725 154.883 231.586 160.477C230.335 161.337 228.547 162.312 227.607 163.503C226.7 164.651 223.07 175.729 222.548 177.601L222.188 177.561ZM252 130.981C245.845 132.055 239.446 138.751 235.985 143.69C231.954 149.442 230.041 154.778 227.989 161.354C230.829 157.798 246.873 139.149 250.277 138.678C248.429 139.99 247.38 140.832 245.692 142.407C242.102 145.79 229.075 159.288 227.393 163.084C230.254 161.126 232.894 159.179 235.901 157.42C243.307 153.087 251.855 149.332 256.411 141.625C259.11 137.06 259.154 130.428 252 130.981Z" fill="#972C04"/>
<path d="M227.989 161.354C230.041 154.778 231.954 149.442 235.985 143.69C239.446 138.751 245.845 132.056 252 130.981C259.154 130.428 259.11 137.061 256.411 141.626C251.855 149.332 243.307 153.087 235.901 157.42C232.894 159.179 230.254 161.126 227.393 163.085C229.075 159.288 242.102 145.79 245.692 142.407C247.38 140.833 248.429 139.99 250.277 138.678C246.873 139.149 230.829 157.798 227.989 161.354Z" fill="#F79303"/>
<path d="M169.117 142.972C168.565 142.356 166.962 140.624 166.736 139.969L202.152 140.038L210.964 140.039C212.765 140.039 214.627 139.975 216.411 140.212C217.512 140.358 216.642 142.1 216.414 142.708C215.783 143.198 209.61 143.025 208.251 143.026L194.351 143.032L178.311 143.033C175.37 143.032 172.002 143.113 169.117 142.972Z" fill="#FEFDFC"/>
<path d="M146.859 185.998C147.495 184.758 148.367 182.538 148.947 181.182L153.789 169.71C157.29 161.786 160.66 153.804 163.896 145.767C164.616 143.979 165.391 142.394 166.069 140.559C166.719 141.41 167.764 142.416 168.575 143.445C164.29 153.862 159.618 164.109 155.152 174.442C154.087 176.887 153.041 179.34 152.016 181.802C151.699 182.567 150.551 185.476 150.235 185.944L149.726 186.016L146.859 185.998Z" fill="#FEFDFC"/>
<path d="M202.115 179.173C203.229 176.152 217.294 141.84 217.751 141.434L218.038 141.628C218.664 144.577 220.763 148.793 222.146 151.493C220.827 156.773 219.677 162.094 218.699 167.447C218.005 171.086 217.339 174.29 217.092 178.001C216.167 178.215 213.054 178.369 211.974 178.445L202.115 179.173Z" fill="#FEAF36"/>
<path d="M169.294 143.742C183.549 143.438 198.42 143.736 212.75 143.672L215.87 143.656C214.575 146.558 213.24 150.177 211.972 153.209L198.513 185.974C183.889 186.152 168.834 185.991 154.182 185.99L151.165 185.958C153.033 180.571 156.341 173.464 158.717 168.062L169.294 143.742ZM188.169 161.548C184.349 162.852 183.268 168.273 187.001 168.498C191.131 167.393 192.06 161.253 188.169 161.548Z" fill="#FEFDFC"/>
<path d="M116.235 156.583C116.115 155.07 116.004 148.272 116.237 146.982C116.341 147.522 116.45 148.015 116.488 148.566C116.031 149.319 116.38 155.029 116.235 156.583Z" fill="#E87401"/>
<path d="M116.235 156.583C116.38 155.029 116.031 149.319 116.488 148.566L120.253 165.419C119.271 165.363 117.259 165.194 116.356 165.261C116.251 162.37 116.211 159.476 116.235 156.583Z" fill="#F79303"/>
<path d="M63.8076 160.924C64.0353 162.993 64.2504 164.847 64.5955 166.896C65.1424 166.996 68.3878 167.773 68.6954 167.654L68.7327 167.564C68.9452 167.889 68.8294 167.843 69.1048 167.968C71.2733 168.806 73.5017 169.32 75.5794 170.111L75.0214 170.606C71.2738 169.408 67.9286 168.327 64.1107 167.356C63.7109 166.077 63.4406 163.643 63.25 162.245C63.8392 161.852 63.7388 161.567 63.8076 160.924Z" fill="url(#paint4_linear_2_1488)"/>
<path d="M89.0228 163.679L88.9591 163.713L88.7744 163.648L88.8914 163.786C88.6711 163.847 88.7918 163.84 88.5289 163.776L88.5229 163.545C89.1825 162.671 91.2416 161.669 92.248 161.215L92.6142 161.319L92.5644 161.549C91.8963 162.085 89.9274 163.122 89.0228 163.679Z" fill="#0F0100"/>
<path d="M187.001 168.498C183.268 168.274 184.349 162.852 188.169 161.548C192.06 161.253 191.131 167.393 187.001 168.498ZM187.992 162.243C185.489 163.318 183.967 167.361 187.263 167.758C189.894 166.816 191.251 162.223 187.992 162.243Z" fill="black"/>
<path d="M187.263 167.758C183.967 167.361 185.489 163.318 187.992 162.243C191.251 162.223 189.893 166.816 187.263 167.758Z" fill="#FEFDFC"/>
<path d="M69.1048 167.968C71.9646 165.73 73.8269 164.433 76.8848 162.476C77.741 165.764 78.2534 168.634 79.2333 171.973C78.52 171.899 77.535 171.88 76.9474 171.547C76.8891 171.248 76.8902 171.152 76.8822 170.845C76.52 170.35 76.248 170.358 75.5794 170.111C73.5017 169.321 71.2732 168.807 69.1048 167.968Z" fill="#60A6D2"/>
<path d="M75.675 172.148C83.1062 173.262 90.4438 174.08 97.9259 174.863C104.388 175.914 108.766 170.942 112.869 166.806C114.443 165.22 117.373 165.906 119.438 166.085C119.478 166.625 119.573 166.71 119.859 167.159C118.878 167.388 117.355 166.826 117.189 166.939C117.297 168.072 119.251 167.958 120.115 167.919C120.01 168.45 119.94 168.804 119.892 169.341C120.021 169.821 119.951 169.913 120.263 170.151C122.359 170.269 124.534 170.015 126.59 170.389C126.779 170.749 127.132 171.471 127.334 171.786C126.591 171.873 125.691 171.987 124.947 171.908C124.204 171.768 122.514 171.976 121.758 172.258L121.564 172.472C122.013 172.907 123.283 172.701 123.896 172.653C124.762 172.609 125.536 172.556 126.403 172.644C126.493 173.323 126.706 174.357 126.535 174.982C125.457 174.768 122.467 174.795 121.514 175.109C121.403 175.482 121.403 175.3 121.568 175.663C123.095 175.818 125.624 174.726 126.718 176.236L126.558 176.441C122.905 177.062 121.314 177.778 117.997 179.445C115.565 180.668 112.235 181.742 109.61 182.464C108.499 182.769 106.266 182.782 105.014 182.859C102.597 183 100.182 183.169 97.7697 183.364C88.7035 184.103 79.8064 184.996 70.7121 185.584C72.6373 181.3 73.5623 176.707 75.675 172.148Z" fill="#FEFDFC"/>
<path d="M119.438 166.085C120.961 166.259 122.311 166.246 123.383 167.394L123.391 167.524C122.459 167.458 122.073 166.952 121.431 167.048L121.605 167.333C121.184 167.478 120.244 167.346 119.859 167.159C119.573 166.709 119.478 166.625 119.438 166.085Z" fill="#FBEAEA"/>
<path d="M54.1879 173.398C54.0269 173.561 54.0588 173.513 53.8306 173.61L53.7196 173.426C54.3251 170.651 58.5675 168.22 61.0723 167.362C61.3852 167.323 61.2874 167.334 61.6103 167.402C61.6137 167.934 59.4811 168.574 58.7701 169.007C56.6327 170.309 55.5901 171.384 54.1879 173.398Z" fill="#0F0100"/>
<path d="M120.115 167.919C121.657 167.96 124.99 167.868 126.002 169.083C125.921 169.361 125.995 169.356 125.754 169.472C125.041 169.815 120.415 169.493 119.892 169.34C119.94 168.804 120.01 168.449 120.115 167.919Z" fill="#FECAAF"/>
<path d="M63.1706 173.502L62.9757 173.439L62.861 173.207C63.4082 171.963 64.4106 170.349 65.1034 168.82L65.4252 168.919L65.5419 169.141C65.3475 170.357 63.9795 172.592 63.1706 173.502Z" fill="black"/>
<path d="M123.897 172.653C123.283 172.701 122.014 172.907 121.564 172.472L121.759 172.257C122.515 171.976 124.204 171.768 124.947 171.908C124.661 172.574 124.668 172.516 123.897 172.653Z" fill="#340000"/>
<path d="M124.947 171.908C125.691 171.987 126.591 171.873 127.334 171.786L127.432 172.156L126.403 172.644C125.536 172.556 124.762 172.609 123.896 172.653C124.668 172.516 124.661 172.574 124.947 171.908Z" fill="#591203"/>
<path d="M126.403 172.643L127.432 172.156C127.55 173.518 127.622 173.835 126.833 174.996L126.535 174.981C126.706 174.356 126.493 173.323 126.403 172.643Z" fill="#FECAAF"/>
<path d="M4.95912 196.238C3.37694 193.527 2.35543 190.952 0.571459 188.318C15.8178 187.315 31.06 186.343 46.3161 185.489C48.1209 185.388 49.9565 185.283 51.7544 185.11C55.9906 188.118 64.6444 187.328 69.8039 187.248L70.4694 186.193C80.6748 185.634 91.3773 184.061 101.415 183.703C102.356 184.948 102.907 185.767 104.147 186.722L199.053 186.573L201.858 179.778C211.196 179.292 220.674 178.32 230.023 177.669C236.488 177.211 242.949 176.709 249.407 176.165C252.429 175.925 255.966 175.823 258.914 175.448C253.383 182.326 247.053 189.369 241.759 196.238H4.95912Z" fill="#F79303"/>
<path d="M122.97 177.885L124.757 177.349C125.177 177.299 125.466 177.227 125.87 177.347C125.95 178.817 125.691 179.33 125.617 180.536C126.337 180.58 126.103 180.116 126.757 180.108C133.11 180.031 139.244 178.974 145.514 178.18C146.789 178.018 148.114 177.881 149.387 177.873L149.639 177.873C149.006 179.429 148.348 180.975 147.664 182.509C144.411 182.644 140.541 182.562 137.242 182.569L120.769 182.603C117.907 182.61 114.314 182.524 111.505 182.692C112.574 182.316 116.562 180.675 117.326 180.601C119.519 180.391 121.149 180.429 123.583 180.001C124.284 180.348 124.839 180.5 125.578 180.728C124.179 179.699 123.9 179.36 122.97 177.885Z" fill="#FEFDFC"/>
<path d="M119.818 179.961C119.318 180.03 119.267 180.028 118.791 180.001L118.735 179.883C119.306 179.449 121.448 178.54 122.234 178.165C122.506 178.385 123.236 179.563 123.479 179.929C121.986 179.741 121.308 179.82 119.818 179.961Z" fill="#F79303"/>
<path d="M102.342 183.547C104.94 183.307 108.961 183.298 111.676 183.217C123.429 183.023 135.596 183.156 147.372 183.162C146.968 184.106 146.58 185.119 146.196 186.076C143.482 186.089 140.707 186.048 137.989 186.035C130.67 185.996 123.351 186.01 116.032 186.076C112.331 186.097 107.956 186.223 104.33 186.047C103.392 185.215 102.991 184.585 102.342 183.547Z" fill="#FEFDFC"/>
<defs>
<linearGradient id="paint0_linear_2_1488" x1="95.515" y1="39.2628" x2="133.414" y2="26.6211" gradientUnits="userSpaceOnUse">
<stop stop-color="#FFBE7B"/>
<stop offset="1" stop-color="#FFBC9E"/>
</linearGradient>
<linearGradient id="paint1_linear_2_1488" x1="126.277" y1="30.5698" x2="128.332" y2="30.4102" gradientUnits="userSpaceOnUse">
<stop stop-color="#D7CBD2"/>
<stop offset="1" stop-color="#FFF1F0"/>
</linearGradient>
<linearGradient id="paint2_linear_2_1488" x1="96.9378" y1="105.109" x2="101.392" y2="107.111" gradientUnits="userSpaceOnUse">
<stop stop-color="#FFE8E5"/>
<stop offset="1" stop-color="#FEFBFD"/>
</linearGradient>
<linearGradient id="paint3_linear_2_1488" x1="115.254" y1="142.439" x2="123.635" y2="142.606" gradientUnits="userSpaceOnUse">
<stop stop-color="#010000"/>
<stop offset="1" stop-color="#260200"/>
</linearGradient>
<linearGradient id="paint4_linear_2_1488" x1="69.1257" y1="169.938" x2="69.4986" y2="162.089" gradientUnits="userSpaceOnUse">
<stop/>
<stop offset="1" stop-color="#170000"/>
</linearGradient>
</defs>
</svg>
