<svg width="19" height="19" viewBox="0 0 19 19" fill="none" xmlns="http://www.w3.org/2000/svg">
<path fill-rule="evenodd" clip-rule="evenodd" d="M13.9744 18.9977C12.6044 18.9473 8.72157 18.4107 4.65513 14.3452C0.589645 10.2788 0.0539864 6.39693 0.00260883 5.02591C-0.073506 2.93655 1.52681 0.907141 3.37545 0.114595C3.59806 0.0184683 3.84184 -0.01813 4.08287 0.00839128C4.3239 0.0349126 4.55389 0.123642 4.75027 0.265873C6.27257 1.37525 7.32296 3.05358 8.22492 4.37322C8.42337 4.66315 8.50822 5.01596 8.46331 5.36443C8.41839 5.71289 8.24684 6.03265 7.98135 6.26277L6.1251 7.6414C6.03542 7.70617 5.97229 7.80127 5.94744 7.90907C5.9226 8.01686 5.93772 8.13 5.99 8.22749C6.41053 8.99149 7.15836 10.1294 8.01465 10.9857C8.8719 11.842 10.0631 12.6393 10.8804 13.1074C10.9828 13.1649 11.1035 13.181 11.2174 13.1523C11.3314 13.1237 11.43 13.0524 11.4931 12.9533L12.7014 11.1141C12.9236 10.8191 13.2513 10.6214 13.6159 10.5625C13.9806 10.5036 14.3538 10.5881 14.6576 10.7983C15.9962 11.725 17.5585 12.7573 18.7021 14.2215C18.8559 14.4193 18.9537 14.6548 18.9854 14.9034C19.017 15.1519 18.9813 15.4044 18.882 15.6344C18.0856 17.4926 16.0705 19.0748 13.9744 18.9977Z" fill="black"/>
</svg>
