<svg width="216" height="200" viewBox="0 0 216 200" fill="none" xmlns="http://www.w3.org/2000/svg">
<mask id="mask0_2_902" style="mask-type:alpha" maskUnits="userSpaceOnUse" x="-1" y="0" width="201" height="200">
<rect x="-0.00012207" width="200" height="200" rx="10" fill="white"/>
<rect x="0.499878" y="0.5" width="199" height="199" rx="9.5" stroke="#1C2833" stroke-opacity="0.2"/>
</mask>
<g mask="url(#mask0_2_902)">
<path d="M0 0H400V200H0V0Z" fill="#000066"/>
<path fill-rule="evenodd" clip-rule="evenodd" d="M0 0H200V100H0V0Z" fill="#000066"/>
<path d="M0 0V11.1719L177.656 100H200V88.8281L22.3438 0H0ZM200 0V11.1719L22.3438 100H0V88.8281L177.656 0H200Z" fill="white"/>
<path d="M83.3203 0V100H116.68V0H83.3203ZM0 33.3203V66.6797H200V33.3203H0Z" fill="white"/>
<path d="M0 40V60H200V40H0ZM90 0V100H110V0H90ZM0 100L66.6797 66.6797H81.5625L14.9219 100H0ZM0 0L66.6797 33.3203H51.7578L0 7.46094V0ZM118.438 33.3203L185.078 0H200L133.32 33.3203H118.438ZM200 100L133.32 66.6797H148.242L200 92.5391V100Z" fill="#CC0000"/>
<path fill-rule="evenodd" clip-rule="evenodd" d="M120.313 72.6177C119.844 72.8911 118.945 73.7114 118.047 73.3989C117.188 73.1646 115.195 69.688 112.969 70.1958C110.781 70.7427 109.453 71.563 108.555 71.563C107.656 71.563 105.234 72.3442 105.234 74.4927C105.234 76.6411 105.469 78.2427 105.899 78.2427C106.328 78.2427 106.992 76.9146 106.992 76.9146C106.992 76.9146 107.227 79.5708 108.789 79.5708C110.352 79.5708 113.633 79.8442 113.867 80.6646C114.102 81.4458 112.305 83.3208 112.774 84.9614C113.164 86.5239 115.195 89.2192 115.195 89.2192C115.195 89.2192 112.305 91.3677 112.305 92.6958C112.305 94.0239 112.774 95.3521 112.774 95.3521L99.8829 95.8989C99.8829 95.8989 99.0235 133.868 99.4923 136.836C99.8829 139.766 101.055 146.993 101.055 146.993C101.055 146.993 98.1642 146.055 95.7032 148.477C93.2813 150.86 84.7657 155.001 84.5313 156.876C84.297 158.751 83.5548 160.391 84.4142 161.719C85.3126 163.047 88.4376 166.68 87.5392 166.524C84.5704 166.016 83.4376 161.797 81.4454 160.235C79.4923 158.672 75.586 159.063 75.1173 160.626C74.7964 162.211 74.7964 163.845 75.1173 165.43C75.3517 165.977 77.7735 174.532 78.4376 176.407C79.1017 178.282 86.0938 181.094 89.1798 180.821C95.0392 180.977 97.6954 178.282 97.9298 178.555C98.1641 178.829 110.547 191.602 135.977 191.68C155.82 191.68 170.742 178.829 170.742 179.102C170.742 179.376 178.945 181.758 181.797 180.977C184.688 180.196 188.906 178.282 189.766 176.407C190.664 174.532 193.086 164.922 193.281 163.321C193.516 161.719 193.281 159.805 191.328 159.297C189.375 158.79 188.203 158.907 187.109 159.415C186.016 159.922 185.664 161.446 183.984 164.102C183.125 164.883 180.82 167.071 181.484 166.524C182.149 165.977 183.594 161.993 183.828 160.665C184.024 159.297 184.688 156.875 183.125 155.586C181.563 154.219 179.219 153.633 176.484 151.68C173.906 149.922 171.836 146.993 170.313 146.993C168.75 146.993 166.992 146.211 167.188 146.211C167.422 146.211 169.18 142.305 168.75 138.282C168.32 134.258 168.984 95.8989 168.75 95.8989C168.516 95.8989 157.695 96.6802 157.695 96.1724C157.695 95.6646 158.555 91.8755 157.695 89.4536C156.797 87.0708 153.008 85.4692 154.141 84.9224C155.234 84.3755 160.117 83.0474 159.883 80.8989C159.688 78.7896 156.563 79.0239 155.234 78.2427C153.906 77.4614 149.922 73.6724 149.492 73.6724C149.063 73.6724 161.016 66.4458 160.117 66.4458C159.219 66.4458 154.57 65.1177 153.047 65.938C153.047 64.6099 159.453 60.5864 158.359 60.0786C157.227 59.4927 152.149 58.9849 153.477 58.7114C154.805 58.438 155.234 55.2349 155.039 55.2349L149.258 56.0161C149.258 56.0161 147.93 54.1411 147.5 54.1411C147.07 54.1411 145.078 55.2349 145.078 55.2349L143.945 52.3052L141.524 53.8677L140.43 52.5396C140.43 52.5396 138.438 53.0864 138.438 52.5396C138.516 52.5396 138.203 51.2114 137.891 51.2114C137.578 51.2114 135.391 52.9302 135.313 52.813C135.234 52.7349 132.813 49.2974 132.813 49.4146C132.813 49.5317 131.094 55.8599 131.016 55.8599C130.938 55.8599 129.297 56.0161 129.219 56.1333C129.102 56.2114 120.43 51.1333 120.508 51.2114L122.774 56.1333C122.774 56.1333 120.899 57.188 120.899 57.2661L121.211 59.4536L115.43 57.4614C115.43 57.4614 117.617 61.9146 117.461 61.9146L113.242 62.0708C113.32 62.0708 115.195 65.7817 115.195 65.7817L114.453 67.9692C114.453 67.9692 120.703 72.3442 120.234 72.6567L120.313 72.6177ZM157.227 165.704C157.813 166.485 160.781 170.274 160.352 170.274C159.883 170.274 152.5 175.235 149.492 176.133C145.469 177.168 141.403 178.029 137.305 178.711C141.436 176.618 145.476 174.35 149.414 171.915C152.216 170.106 154.833 168.025 157.227 165.704ZM110.977 165.586C110.547 166.133 108.438 170.274 108.438 170.274C108.438 170.274 114.531 174.571 119.063 176.133C123.594 177.774 131.328 178.282 130.899 178.165C130.469 178.008 121.133 173.868 118.516 171.719C115.859 169.61 111.094 165.586 110.977 165.586Z" fill="white"/>
<path fill-rule="evenodd" clip-rule="evenodd" d="M115.847 66.5205L120.612 70.002C121.5 70.669 124.381 73.6137 124.596 73.4835C124.811 73.3534 126.373 71.8729 126.373 71.8729C126.373 71.8729 123.156 68.7981 121.15 68.1474C119.145 67.4966 115.834 66.8133 115.834 66.5368L115.847 66.5205Z" fill="#FEC500" stroke="#6D6666" stroke-width="0.492469"/>
<path fill-rule="evenodd" clip-rule="evenodd" d="M115.295 63.4453C115.632 63.4453 121.716 67.1871 123.6 69.0743C125.484 70.9615 126.252 73.353 126.48 73.353C126.696 73.353 129.576 72.8161 129.468 72.8161C129.361 72.8161 128.136 68.0006 125.377 66.5201C122.604 65.0559 115.416 63.4453 115.295 63.4453Z" fill="#FEC500" stroke="#6D6666" stroke-width="0.492469"/>
<path fill-rule="evenodd" clip-rule="evenodd" d="M143.965 53.7983C143.857 53.7983 142.753 57.8167 142.417 59.0043C142.08 60.2245 141.528 62.7462 141.528 62.7462C141.528 62.7462 136.656 63.2993 136.885 62.6323C137.1 61.949 144.288 53.7983 143.965 53.7983Z" fill="#FEC500" stroke="#6D6666" stroke-width="0.492469"/>
<path fill-rule="evenodd" clip-rule="evenodd" d="M116.412 58.6304C116.412 58.6304 122.16 63.3158 124.152 65.9838C126.144 68.6682 128.136 73.3536 128.243 73.3536C128.365 73.3536 133.668 72.0033 133.668 72.1497C133.668 72.2961 127.476 64.6661 124.488 62.3885C121.5 60.1108 116.52 58.9069 116.412 58.6466V58.6304Z" fill="#FEC500" stroke="#6D6666" stroke-width="0.492469"/>
<path fill-rule="evenodd" clip-rule="evenodd" d="M122.389 57.4102C122.389 57.4102 125.255 62.7626 125.821 64.6335C126.526 66.8713 127.262 69.095 128.028 71.3037H132.564C132.564 71.3037 130.357 65.2842 127.921 62.3559C125.484 59.4275 122.496 57.6705 122.389 57.4102Z" fill="#FEC500" stroke="#6D6666" stroke-width="0.492469"/>
<path fill-rule="evenodd" clip-rule="evenodd" d="M123.936 54.4658C124.044 54.8725 128.136 59.5417 129.132 62.6165C129.831 64.8958 130.424 67.2204 130.909 69.5795L134.893 68.3756C134.893 68.3756 131.353 60.4853 129.132 58.3378C126.924 56.2066 124.152 54.7261 123.936 54.4658Z" fill="#FEC500" stroke="#6D6666" stroke-width="0.492469"/>
<path fill-rule="evenodd" clip-rule="evenodd" d="M157.02 67.0571C157.02 67.0571 148.716 68.1309 145.728 69.0582C142.74 69.9855 141.084 73.4833 141.084 73.4833C141.084 73.4833 144.961 75.224 145.176 74.9475C145.391 74.6709 147.733 71.8727 150.264 70.7989C152.821 69.7415 157.249 67.1873 157.02 67.0571Z" fill="#FEC500" stroke="#6D6666" stroke-width="0.492469"/>
<path fill-rule="evenodd" clip-rule="evenodd" d="M156.684 60.501C156.469 60.6474 149.82 67.1874 147.72 69.3349C145.62 71.4661 143.628 73.7437 143.413 73.8902C143.184 74.0203 139.092 73.2069 139.308 72.9466C139.536 72.6863 145.405 66.9271 149.268 64.3892C153.144 61.835 156.361 60.7775 156.684 60.501Z" fill="#FEC500" stroke="#6D6666" stroke-width="0.492469"/>
<path fill-rule="evenodd" clip-rule="evenodd" d="M155.028 55.8156C154.355 56.7592 147.841 63.1853 146.064 65.463C144.288 67.7406 141.421 71.7264 141.421 71.7264C141.421 71.7264 137.988 69.8555 138.204 69.0421C138.433 68.2449 143.076 63.5595 146.401 60.8914C149.712 58.2071 155.365 56.0759 155.028 55.7993V55.8156Z" fill="#FEC500" stroke="#6D6666" stroke-width="0.492469"/>
<path fill-rule="evenodd" clip-rule="evenodd" d="M148.393 55.2949C146.741 57.3607 145.151 59.4987 143.628 61.7048C142.861 63.0388 140.532 68.9281 140.532 68.9281C140.532 68.9281 137.1 65.3165 137.1 65.1863C137.1 65.0562 141.407 59.5736 143.965 57.4261C146.522 55.2787 148.501 55.6854 148.393 55.2949Z" fill="#FEC500" stroke="#6D6666" stroke-width="0.492469"/>
<path fill-rule="evenodd" clip-rule="evenodd" d="M138.783 62.6164C138.81 62.8583 138.795 63.1046 138.737 63.3386C138.68 63.5727 138.581 63.7891 138.449 63.9733C138.316 64.1575 138.152 64.3051 137.968 64.4063C137.785 64.5075 137.585 64.5598 137.383 64.5598C137.181 64.5598 136.981 64.5075 136.797 64.4063C136.613 64.3051 136.45 64.1575 136.317 63.9733C136.184 63.7891 136.086 63.5727 136.028 63.3386C135.971 63.1046 135.955 62.8583 135.983 62.6164C136.017 62.1942 136.18 61.8025 136.44 61.5175C136.7 61.2326 137.039 61.0747 137.39 61.0747C137.74 61.0747 138.079 61.2326 138.339 61.5175C138.599 61.8025 138.762 62.1942 138.796 62.6164H138.783ZM141.609 64.894C141.609 65.7237 140.977 66.407 140.209 66.407C139.442 66.407 138.796 65.7237 138.796 64.894C138.796 64.0643 139.429 63.381 140.196 63.381C140.963 63.381 141.609 64.0481 141.609 64.894ZM135.35 63.1858C135.35 64.0318 134.583 64.6988 133.628 64.6988C132.685 64.6988 131.905 64.0318 131.905 63.1858C131.905 62.3398 132.685 61.6728 133.628 61.6728C134.57 61.6728 135.35 62.3561 135.35 63.1858Z" fill="#FEC500" stroke="#6D6666" stroke-width="0.505097"/>
<path fill-rule="evenodd" clip-rule="evenodd" d="M139.886 66.3255C139.886 67.9361 139.011 69.2539 137.935 69.2539C136.858 69.2539 135.983 67.9361 135.983 66.3255C135.983 64.7149 136.858 63.3809 137.935 63.3809C139.011 63.3809 139.886 64.6824 139.886 66.3092V66.3255ZM134.57 66.4068C134.57 67.6595 133.695 68.6845 132.618 68.6845C131.541 68.6845 130.653 67.6595 130.653 66.4068C130.653 65.1542 131.528 64.1292 132.618 64.1292C133.695 64.1292 134.57 65.1542 134.57 66.4068Z" fill="#FEC500" stroke="#6D6666" stroke-width="0.505097"/>
<path fill-rule="evenodd" clip-rule="evenodd" d="M131.918 68.1968C131.918 69.3031 131.245 70.1816 130.424 70.1816C129.603 70.1816 128.943 69.3031 128.943 68.1968C128.943 67.1068 129.603 66.212 130.424 66.212C131.232 66.212 131.905 67.1068 131.905 68.1968H131.918ZM142.861 68.0179C142.861 69.3194 141.851 70.3768 140.6 70.3768C139.334 70.3768 138.325 69.3194 138.325 68.0179C138.325 66.7164 139.334 65.6426 140.6 65.6426C141.851 65.6426 142.861 66.7001 142.861 68.0179ZM137.383 64.6014C137.383 65.3986 136.575 66.0331 135.593 66.0331C134.61 66.0331 133.789 65.3823 133.789 64.6014C133.789 63.8205 134.597 63.186 135.593 63.186C136.589 63.186 137.383 63.8368 137.383 64.6014Z" fill="#FEC500" stroke="#6D6666" stroke-width="0.505097"/>
<path fill-rule="evenodd" clip-rule="evenodd" d="M137.706 67.725C137.706 68.8638 136.575 69.8074 135.202 69.8074C133.829 69.8074 132.699 68.8801 132.699 67.725C132.699 66.5862 133.816 65.6426 135.202 65.6426C136.589 65.6426 137.706 66.5862 137.706 67.725ZM144.113 71.418C144.113 72.8334 143.063 73.9722 141.771 73.9722C140.478 73.9722 139.415 72.8334 139.415 71.418C139.415 70.0026 140.465 68.8638 141.771 68.8638C143.063 68.8638 144.113 70.0026 144.113 71.418ZM131.285 70.7672C131.285 71.6946 130.693 72.4592 129.953 72.4592C129.213 72.4592 128.62 71.6946 128.62 70.751C128.62 69.8074 129.213 69.059 129.953 69.059C130.693 69.059 131.285 69.8074 131.285 70.751V70.7672Z" fill="#FEC500" stroke="#6D6666" stroke-width="0.505097"/>
<path fill-rule="evenodd" clip-rule="evenodd" d="M140.667 70.4741C140.667 71.678 139.765 72.6541 138.648 72.6541C137.517 72.6541 136.602 71.678 136.602 70.4741C136.602 69.2702 137.517 68.2778 138.648 68.2778C139.779 68.2778 140.68 69.254 140.68 70.4578L140.667 70.4741ZM134.26 70.3765C134.26 71.4177 133.452 72.2637 132.456 72.2637C131.46 72.2637 130.653 71.4177 130.653 70.3765C130.653 69.3353 131.46 68.4893 132.456 68.4893C133.452 68.4893 134.26 69.3353 134.26 70.3765Z" fill="#FEC500" stroke="#6D6666" stroke-width="0.505097"/>
<path fill-rule="evenodd" clip-rule="evenodd" d="M137.383 70.9461C137.383 72.0849 136.548 73.0285 135.498 73.0285C134.475 73.0285 133.627 72.0849 133.627 70.9461C133.627 69.8073 134.475 68.8637 135.512 68.8637C136.548 68.8637 137.396 69.791 137.396 70.9461H137.383ZM129.253 58.4517C129.711 58.4517 133.008 59.7857 133.008 59.7857C133.008 59.7857 128.93 61.6729 129.563 61.4777C130.195 61.2824 134.099 60.7293 133.789 60.7293C133.479 60.7293 130.343 64.3247 131.285 64.1457C132.228 63.9505 134.099 61.6729 134.247 61.6729C134.408 61.6729 136.293 65.2683 136.454 65.0893C136.602 64.8941 136.454 61.4777 136.602 61.4777C136.75 61.4777 140.505 63.7553 140.196 63.5601C139.339 62.7133 138.554 61.765 137.854 60.7293C138.015 60.7293 143.022 61.2987 142.699 61.1035L139.415 59.2163C139.415 59.2163 141.609 56.7597 141.138 56.7597C140.667 56.7597 137.073 59.2163 137.383 59.0373C137.692 58.8421 141.286 53.9127 141.286 53.9127L137.706 55.9951C137.706 55.9951 138.338 52.9691 138.029 53.1643C137.706 53.3596 135.202 57.1339 135.054 57.1339C134.906 57.1339 134.274 53.3596 134.274 53.3596C134.274 53.3596 134.422 57.5081 133.479 57.7033C132.537 57.8985 129.267 58.6469 129.267 58.4679L129.253 58.4517Z" fill="#FEC500" stroke="#6D6666" stroke-width="0.505097"/>
<path fill-rule="evenodd" clip-rule="evenodd" d="M119.024 89.0239C119.102 89.4145 121.641 96.2114 125.469 96.0161C129.297 95.8208 130.859 94.688 130.703 94.6099C130.547 94.4927 128.906 93.3599 127.969 90.8989C127.031 88.438 126.875 87.3833 126.875 87.3833L119.063 89.0239H119.024ZM132.734 86.3677C132.734 86.3677 135.547 93.0864 136.797 94.0239C138.047 94.9614 140.938 95.7427 142.188 95.6255C143.438 95.5083 144.922 95.6255 144.922 95.6255C144.922 95.6255 143.711 94.9614 142.656 91.2895C141.602 87.6177 141.328 86.3677 141.328 86.3677H132.734ZM149.922 88.8286C149.922 88.8286 149.414 93.7505 149.922 94.9614C150.508 96.2114 153.242 98.4771 153.242 98.4771C153.242 98.4771 156.524 98.0083 156.602 94.9614C156.598 92.9579 156.227 90.972 155.508 89.1021L149.961 88.8286H149.922Z" fill="#00389B"/>
<path fill-rule="evenodd" clip-rule="evenodd" d="M116.399 80.2141C116.399 80.2141 116.547 80.9787 116.399 81.5481C116.251 82.1175 114.905 83.6305 114.905 84.8507C114.905 86.0871 116.466 89.8615 121.231 89.9591C126.023 90.0567 132.039 86.8355 131.958 86.7379C131.878 86.6565 120.531 77.4647 120.383 77.5623C120.221 77.6599 116.385 80.4093 116.385 80.2141H116.399ZM147.922 86.7379C147.922 86.7379 148.945 90.0567 149.335 90.4309C149.725 90.8051 149.873 91.5697 149.967 91.5697C150.062 91.5697 156.536 93.2616 156.536 93.2616C156.536 93.2616 157.155 91.0979 156.226 89.3897C155.284 87.6815 151.758 83.2401 151.758 83.2401L147.922 86.7379ZM152.39 82.6707C152.538 82.6707 154.113 84.2976 155.351 83.4353C156.617 82.5893 158.649 80.3117 158.649 80.3117C158.649 80.3117 156.926 80.9625 155.674 80.8811C154.423 80.7835 152.471 82.7683 152.39 82.6707Z" fill="#005120" stroke="black" stroke-width="0.505097"/>
<path fill-rule="evenodd" clip-rule="evenodd" d="M116.157 80.5885C116.157 80.5885 115.685 78.9942 114.434 78.8966C113.182 78.799 110.907 79.0755 110.127 78.3272C109.346 77.5625 109.131 75.773 108.727 75.8706C108.323 75.9519 107.313 75.8706 107.246 75.8706C107.179 75.8706 106.762 74.3576 107.865 73.593C108.969 72.8283 109.884 73.4954 110.517 72.9422C111.149 72.3891 112.092 71.9824 113.343 71.8848C114.595 71.8034 116.628 73.7882 117.57 74.26C118.512 74.7318 120.531 75.3012 121.325 74.8294C122.106 74.3413 126.48 72.2752 128.055 72.1776C129.616 72.08 132.9 71.9824 134.152 72.08C135.404 72.1776 140.344 72.9422 141.824 73.7882C143.305 74.6342 151.219 77.9367 152.309 78.7014C153.4 79.466 155.836 80.5885 155.836 80.5885C155.836 80.5885 151.529 85.6969 149.402 86.5592C145.213 87.889 140.893 88.5239 136.562 88.4463C132.577 88.1698 129.441 87.6817 126.399 85.7945C123.344 83.9074 120.06 82.1015 119.898 81.1579C119.737 80.2144 119.818 78.9942 119.818 78.9942L116.143 80.5885H116.157Z" fill="#005120" stroke="black" stroke-width="0.505097"/>
<path fill-rule="evenodd" clip-rule="evenodd" d="M111.311 74.4548C111.149 74.5361 110.369 74.9266 110.517 75.1056C110.678 75.3008 110.988 75.8702 111.93 75.7563C112.872 75.675 113.882 75.0079 113.882 75.0079C113.882 75.0079 112.711 74.3572 111.311 74.4548Z" fill="#005120" stroke="black" stroke-width="0.505097"/>
<path fill-rule="evenodd" clip-rule="evenodd" d="M111.23 74.6343V75.6755C111.23 75.6755 112.32 76.0497 112.32 75.7731C112.32 75.4965 112.401 74.8295 112.159 74.8295C111.917 74.8295 111.298 74.7319 111.217 74.6343H111.23Z" fill="black" stroke="black" stroke-width="0.505097"/>
<path fill-rule="evenodd" clip-rule="evenodd" d="M122.187 75.4315C122.456 74.8295 122.187 74.0161 123.788 73.0888C125.39 72.1452 128.19 72.4055 128.19 72.4055C128.19 72.4055 127.382 73.1538 127.355 73.9185C127.328 74.6831 127.409 75.0248 127.409 75.0248C127.409 75.0248 125.888 74.4228 124.717 74.7807C123.546 75.1386 122.213 75.5291 122.173 75.4315H122.187ZM129.374 72.1452C129.213 72.2428 127.988 73.8859 128.122 74.3903C128.257 74.8783 129.899 76.0985 130.424 75.9846C130.962 75.887 133.358 74.4879 133.493 73.7883C133.627 73.0888 133.748 72.1452 133.547 71.95C133.358 71.7385 129.401 72.2103 129.374 72.1452ZM134.664 71.8849C134.354 72.2428 134.462 74.0161 134.57 74.2113C134.691 74.4228 136.588 76.733 137.006 76.8631C137.423 76.9933 140.505 76.6191 140.748 76.2124C140.99 75.8057 141.744 74.1137 141.515 73.7233C141.299 73.3165 140.64 72.7797 138.581 72.2591C136.521 71.7385 135.323 71.771 134.664 71.8849ZM142.484 74.1137C142.982 74.4228 145.889 76.131 147.599 77.4976C149.321 78.8642 150.021 80.426 150.506 80.5724C151.004 80.7025 153.023 79.2384 153.104 78.8316C153.198 78.4249 150.64 76.2937 148.931 75.3176C147.222 74.3415 142.484 74.2276 142.484 74.1137ZM141.878 75.5616C141.622 75.8219 144.974 82.8826 145.607 83.1103C146.253 83.3544 150.062 81.7437 150.008 81.2069C149.954 80.67 148.958 79.5963 146.603 78.0345C144.261 76.4564 142.349 75.4315 141.878 75.5616ZM137.733 78.1321C137.194 78.5063 136.373 84.8185 136.898 85.1276C137.423 85.4205 143.897 84.3467 144.153 83.6635C144.395 82.9314 141.488 77.3512 140.626 77.3512C139.765 77.3512 138.204 77.6115 137.719 78.1158L137.733 78.1321ZM131.03 76.798C130.343 77.5627 130.491 83.452 130.787 83.8099C131.083 84.1841 134.933 85.3879 135.35 84.9487C135.754 84.5257 136.319 77.9043 135.929 77.4C135.539 76.8957 134.462 75.6918 133.641 75.5942C132.806 75.4965 131.42 76.5703 131.03 76.798ZM122.348 76.7004C121.715 77.3024 121.675 78.8642 122.375 79.1407C123.061 79.401 124.784 80.3121 126.386 81.1418C128.001 81.9715 128.903 82.9802 129.374 82.9476C129.845 82.9151 130.289 77.0258 129.778 76.7004C128.712 76.2459 127.581 76.0577 126.453 76.1473C125.078 76.1639 123.708 76.3437 122.362 76.6842L122.348 76.7004Z" fill="#001707" stroke="#000007" stroke-width="0.505097"/>
<path fill-rule="evenodd" clip-rule="evenodd" d="M93.8283 151.562C94.9611 150.469 96.7189 147.773 99.1017 147.656C101.524 147.5 104.024 149.727 104.024 149.727C104.024 149.727 106.563 160.039 106.445 160.039C106.289 160.039 102.266 162.969 102.149 162.969C102.031 162.969 100.391 158.945 98.8674 159.297C97.3439 159.687 97.4611 165.195 97.2267 164.844C96.9533 164.453 90.547 156.836 90.7814 156.602C91.0549 156.367 93.9064 151.914 93.8283 151.562ZM160.391 150.195C161.172 150.078 164.57 147.5 166.953 147.617C169.375 147.773 170.742 148.867 172.031 149.961C173.281 151.055 174.766 153.867 174.766 153.867C174.766 153.867 171.758 162.266 171.524 162.266C171.289 162.266 169.961 162.969 169.727 162.383C169.492 161.797 168.75 159.805 167.227 159.531C165.703 159.297 165.313 162.266 165.313 162.266L160.391 150.195Z" fill="#D40F0F"/>
<path fill-rule="evenodd" clip-rule="evenodd" d="M162.031 152.773C162.031 153.555 166.719 165.078 174.297 167.266C181.836 169.492 184.258 165.195 185.117 163.75C186.016 162.266 189.141 162.383 189.141 162.383C189.141 162.383 188.399 173.164 187.149 174.492C185.899 175.898 184.883 178.789 177.774 178.945C170.742 179.063 164.297 172.305 162.149 170.352C160.039 168.398 157.266 163.242 156.133 160.898C154.961 158.555 162.188 153.047 162.031 152.813V152.773ZM79.8048 175.781C79.961 175.781 83.2032 179.336 88.0079 178.984C92.8126 178.594 101.016 175.781 104.805 170.859C108.555 165.977 110.469 160.703 110.469 160.703C110.469 160.703 104.922 150.781 104.805 150.781C104.649 150.781 104.141 153.984 103.164 156.055C102.149 158.164 99.3751 164.063 94.6876 165.898C90.0001 167.734 90.0001 168.477 88.1251 168.242C85.7094 167.474 83.4194 166.355 81.3282 164.922C81.3282 164.766 78.9454 170.664 78.9454 170.664C78.9454 170.664 78.4376 174.492 79.8048 175.742V175.781Z" fill="#FDDC59"/>
<path fill-rule="evenodd" clip-rule="evenodd" d="M93.75 151.211C93.3594 151.211 84.4531 156.094 84.8047 158.164C85.1953 160.234 100.156 189.805 132.266 190.117C164.336 190.469 183.984 163.359 182.539 158.867C181.133 154.336 171.133 149.102 171.133 149.102C171.133 149.102 173.633 151.211 173.281 153.984C172.891 156.797 161.875 180.742 134.023 180.039C106.211 179.375 93.0078 158.164 93.0078 155.742C93.0078 153.32 94.4531 151.914 93.75 151.211Z" fill="#FDDC59"/>
<path fill-rule="evenodd" clip-rule="evenodd" d="M180.703 172.657C181.485 172.071 186.133 159.297 188.789 159.649C191.446 160.039 190.547 163.828 190.313 164.844L187.383 174.649C187.383 174.649 187.539 172.578 185.742 172.071C183.985 171.563 181.055 172.93 180.703 172.696V172.657ZM79.8049 175.899C79.8049 175.196 77.6955 172.774 80.1955 172.071C82.6565 171.367 85.8987 172.774 85.8987 172.774C85.8987 172.774 84.1018 167.539 81.9924 163.399C79.8049 159.219 79.1018 159.883 77.3049 160.586C75.5471 161.289 75.5862 163.125 76.6408 165.899C77.7346 168.672 79.8049 176.563 79.8049 175.899Z" fill="#D40F0F"/>
<path fill-rule="evenodd" clip-rule="evenodd" d="M109.258 152.07L112.344 141.562L103.75 135L114.531 134.727L118.047 124.375L121.563 134.727L132.383 134.922L123.789 141.562L126.914 152.031L118.086 145.781L109.258 152.07Z" fill="#FDC400"/>
<path fill-rule="evenodd" clip-rule="evenodd" d="M167.344 97.4609V137.812C167.422 157.539 147.305 174.805 133.945 178.164C120.586 174.805 100.469 157.539 100.547 137.812V97.4609H167.344Z" fill="white"/>
<path fill-rule="evenodd" clip-rule="evenodd" d="M100.57 97.498L100.623 122.741C100.623 122.741 100.946 122.223 105.334 122.537C109.722 122.851 110.099 128.113 114.877 128.113C119.642 128.113 119.642 122.537 124.407 122.537C129.172 122.537 129.185 128.113 133.95 128.113C138.715 128.113 138.715 122.537 143.493 122.537C148.271 122.537 148.258 128.113 153.291 128.428C157.801 128.113 157.801 122.537 162.579 122.223L167.33 122.537V97.498H100.57Z" fill="#D40F0F" stroke="black" stroke-width="0.496319"/>
<path fill-rule="evenodd" clip-rule="evenodd" d="M100.547 130.86V139.219H105.313C109.727 139.532 110.078 144.805 114.844 144.805C119.609 144.805 119.649 139.219 124.414 139.219C129.18 139.219 129.18 144.805 133.945 144.805C138.711 144.805 138.711 139.219 143.477 139.219C148.242 139.219 147.969 144.454 153.008 144.805C157.5 144.454 157.774 139.532 162.539 139.219H167.305V130.86H162.539C157.774 130.86 157.774 136.446 153.008 136.446C148.242 136.446 148.242 130.86 143.477 130.86C138.711 130.86 138.711 136.446 133.945 136.446C129.18 136.446 129.18 130.86 124.414 130.86C119.649 130.86 119.649 136.446 114.844 136.446C110.039 136.446 110.078 130.86 105.313 130.86H100.547ZM101.992 147.579L105.313 155.899C109.727 156.211 110.078 161.485 114.844 161.485C119.609 161.485 119.649 155.938 124.414 155.938C129.18 155.938 129.18 161.485 133.945 161.485C138.711 161.485 138.711 155.938 143.477 155.938C148.242 155.938 147.969 161.172 153.008 161.485C157.5 161.172 157.656 156.25 162.461 155.938L165.899 147.422L162.539 147.579C157.774 147.579 157.774 153.125 153.008 153.125C148.242 153.125 148.242 147.579 143.477 147.579C138.711 147.579 138.711 153.125 133.945 153.125C129.18 153.125 129.18 147.579 124.414 147.579C119.649 147.579 119.649 153.125 114.844 153.125C110.039 153.125 110.078 147.579 105.313 147.579H101.992ZM133.945 178.165C138.711 178.165 149.649 169.844 149.531 169.844C149.649 169.844 148.242 164.258 143.477 164.258C138.711 164.258 138.711 169.844 133.945 169.844C129.18 169.844 129.18 164.258 124.414 164.258C119.649 164.258 118.399 169.844 118.399 169.844C118.164 169.844 129.18 178.165 133.945 178.165Z" fill="#0062BB"/>
<path fill-rule="evenodd" clip-rule="evenodd" d="M109.261 116.757C109.853 116.757 114.721 117.444 118.207 117.215C121.759 116.986 123.075 115.784 123.075 115.555V114.868H127.68C127.68 114.868 128.469 118.13 127.943 118.359C127.417 118.588 126.035 119.561 125.772 119.561C125.509 119.561 125.772 117.901 125.246 118.416C124.719 118.932 124.456 119.561 124.456 119.561C124.456 119.561 123.864 118.874 123.601 118.874C123.338 118.874 122.812 119.561 122.812 119.561C122.812 119.561 122.812 118.874 122.549 118.874C122.286 118.874 120.904 120.019 120.904 120.019L119.589 119.103C119.589 119.103 118.733 120.248 118.47 120.248C118.207 120.248 116.563 119.332 116.563 119.332L113.931 120.763C113.931 120.763 113.931 118.645 113.339 118.874C112.813 119.103 109.853 119.103 109.853 119.103C109.853 119.103 108.998 120.42 108.735 120.42C108.472 120.42 107.419 119.275 107.682 119.275C107.945 119.275 108.472 118.588 108.208 118.302C107.945 118.073 106.564 118.302 106.564 118.073C106.564 117.844 106.038 116.471 106.301 116.471L107.616 116.7V115.269H108.998L109.261 116.7V116.757Z" fill="#FDC400" stroke="black" stroke-width="0.942445"/>
<path fill-rule="evenodd" clip-rule="evenodd" d="M114.194 103.307C113.866 103.307 112.024 105.196 112.221 107.313C112.55 109.431 117.155 112.464 117.155 112.464C117.155 112.464 119.588 111.548 120.378 112.464C121.167 113.38 121.167 116.241 120.904 116.241C120.641 116.241 117.418 116.985 117.418 116.527C117.418 116.012 117.418 115.555 117.155 115.555L113.866 115.783L114.129 114.868L111.497 114.41L112.55 113.437C112.55 113.437 108.208 111.777 108.471 111.777C108.735 111.777 110.379 110.862 110.379 110.862L107.09 108.973H109.064C109.064 108.973 106.301 107.084 106.564 107.084L108.208 107.313L107.419 105.425H108.208L107.419 104.051L108.735 103.536L109.59 104.738L109.261 101.876L111.234 102.163V104.452C111.234 104.452 112.024 103.078 112.024 102.849C112.024 102.62 114.458 103.822 114.129 103.307H114.194Z" fill="#FDC400" stroke="black" stroke-width="0.942445"/>
<path fill-rule="evenodd" clip-rule="evenodd" d="M156.055 117.93C155.742 118.204 154.727 118.868 154.727 118.868L156.953 118.672C156.875 118.672 156.172 118.086 156.055 117.891V117.93ZM158.008 119.024C157.891 119.219 157.5 121.016 157.774 120.899C158.047 120.782 159.102 119.454 159.102 119.454L158.008 119.063V119.024ZM161.133 119.258C161.655 119.759 162.216 120.216 162.813 120.625C162.617 120.313 162.422 119.063 162.266 119.063C162.149 118.985 161.25 119.375 161.133 119.258ZM133.906 117.305C133.672 117.383 131.992 118.477 131.992 118.477L134.727 118.047C134.57 118.047 133.828 117.5 133.906 117.344V117.305ZM135.664 118.75C135.391 118.985 134.492 120.625 134.844 120.547C135.156 120.508 136.68 119.454 136.68 119.454L135.664 118.75ZM134.57 116.446L133.008 115.782L134.883 115.391L134.57 116.446ZM107.774 115.665L105.781 114.258L108.32 114.961L107.774 115.704V115.665ZM106.016 116.641C105.781 116.641 103.203 118.047 103.281 118.047H106.797C106.719 117.969 106.172 116.758 106.016 116.641ZM107.656 118.672C107.383 118.79 105.352 120.157 105.508 120.157H108.555L107.656 118.672ZM107.383 104.024C107.383 104.024 106.641 102.383 106.719 102.383C106.797 102.383 108.594 103.672 108.594 103.672L107.422 104.063L107.383 104.024ZM109.414 101.993L109.61 100.899C109.61 100.899 111.445 102.149 111.367 102.149C111.289 102.149 109.531 102.149 109.414 101.993ZM112.266 102.774L112.461 101.211C112.461 101.211 114.141 103.204 114.024 103.282C113.867 103.321 112.383 102.969 112.266 102.735V102.774Z" fill="black"/>
<path fill-rule="evenodd" clip-rule="evenodd" d="M139.38 113.078C139.38 113.193 142.209 115.196 142.275 115.654C142.275 116.112 137.144 116.226 137.144 116.226C137.144 116.226 135.631 115.253 135.17 115.31C134.71 115.31 134.512 116.34 134.512 116.34L135.697 116.913L133.394 117.027L134.052 118.172L135.828 118.057L135.433 119.088C135.433 119.088 136.486 119.832 136.749 119.66C136.946 119.603 137.604 118.515 138.13 118.344C138.657 118.172 139.841 118.172 139.841 118.172C139.841 118.172 138.92 119.488 139.38 119.488C139.775 119.488 141.617 118.115 141.617 118.115L142.077 119.374L143.393 117.943C143.393 117.943 143.393 119.088 143.59 119.088C143.788 119.088 145.695 117.657 145.695 117.657C145.695 117.657 147.208 119.259 147.406 119.145C147.603 119.03 147.8 117.428 148.063 117.428C148.327 117.428 149.511 117.256 149.511 117.142C149.511 117.027 148.655 116.569 148.524 115.711C148.392 114.852 148.655 112.964 148.59 112.964C148.524 112.964 139.512 113.25 139.38 113.078Z" fill="#FDC400" stroke="black" stroke-width="0.942445"/>
<path fill-rule="evenodd" clip-rule="evenodd" d="M124.974 109.473H151.484C154.115 109.473 156.615 108.557 156.615 107.126C156.615 105.696 152.273 105.467 150.695 105.982C149.05 106.44 142.012 109.244 139.051 109.015C136.091 108.786 133.328 107.126 133.065 105.467C132.802 103.807 134.381 102.433 137.407 102.433C140.433 102.433 144.182 103.349 144.972 103.12C145.761 102.891 147.669 101.003 148.458 100.774C149.313 100.545 151.747 100.316 151.747 100.316L150.629 101.003L154.181 100.316C154.181 100.316 151.484 102.891 148.721 103.578C146.09 104.322 140.367 104.036 138.196 104.036C136.025 104.036 134.907 103.807 135.236 105.238C135.499 106.668 137.144 107.584 138.525 107.355C139.841 107.126 143.853 105.925 143.853 105.925L142.801 105.238L147.669 105.009C147.669 105.009 147.406 104.322 147.669 104.322L150.366 104.551C150.366 104.551 148.721 103.807 149.05 103.807C149.379 103.807 150.366 103.807 152.537 104.036C154.707 104.265 159.312 105.009 159.049 106.897C158.72 108.786 157.075 110.388 155.234 110.388C153.392 110.388 151.747 109.931 151.747 110.675C151.747 111.361 153.918 111.819 155.234 111.819C156.549 111.819 158.194 110.904 158.523 110.904C158.852 110.904 159.312 112.277 159.575 112.277C159.838 112.277 161.483 111.819 161.483 111.819L160.365 114.395L162.272 114.852C162.272 114.852 161.22 115.825 161.483 115.825C161.746 115.825 163.325 115.825 163.325 116.054C163.325 116.283 161.22 117.714 161.22 117.943C161.22 118.172 162.798 118.859 162.798 118.859C162.798 118.859 161.746 120.289 161.483 120.06L160.167 118.63C160.167 118.63 159.838 119.603 159.312 119.603C158.786 119.603 157.668 119.374 157.668 119.374C157.668 119.374 158.457 117.943 158.194 117.943C157.931 117.943 156.615 118.859 156.615 118.63L155.76 117.943C155.76 117.943 157.931 117.199 157.931 116.054C157.931 114.91 157.075 113.822 153.129 113.651C149.182 113.479 149.182 114.452 146.222 114.337C143.327 114.223 143.327 113.193 141.156 113.193C138.986 113.193 132.342 115.596 129.184 115.482C126.093 115.482 122.211 115.31 122.343 115.196C122.475 115.081 124.908 109.644 124.974 109.473Z" fill="#FDC400" stroke="black" stroke-width="0.942445"/>
<path fill-rule="evenodd" clip-rule="evenodd" d="M119.851 108.115C119.588 108.229 117.22 108.515 117.089 110.69C116.957 112.865 117.286 112.865 117.549 112.75C117.812 112.636 118.339 110.747 118.339 110.747C118.339 110.747 117.549 113.323 118.404 113.895C118.957 114.271 119.58 114.561 120.246 114.753L120.575 112.693C120.575 112.693 119.917 114.696 121.562 115.383C123.141 116.07 123.798 115.555 123.601 115.04C123.421 114.406 123.224 113.776 123.009 113.151L124.325 114.524C124.456 114.639 124.982 115.555 126.693 115.097C128.271 114.753 127.153 113.78 127.153 113.78L125.18 112.407C125.18 112.407 127.153 114.181 128.074 113.552C128.995 112.922 127.416 111.491 127.416 111.548C127.416 111.606 128.732 113.552 129.258 112.35C129.784 111.148 128.469 110.747 128.074 109.545C127.679 108.401 127.351 108.286 127.745 107.542C128.14 106.856 128.206 105.482 128.206 105.482C128.206 105.482 129.916 105.883 129.784 104.624C129.653 103.365 127.943 103.078 127.614 103.021C127.285 103.021 127.351 101.762 127.219 101.819C127.087 101.819 125.969 102.563 125.969 102.563C125.969 102.563 125.048 100.617 124.851 100.732C124.654 100.846 123.535 101.877 122.746 101.877C121.956 101.991 121.43 103.021 121.43 103.021C121.43 103.021 118.602 101.819 118.667 103.765C118.733 105.711 120.378 105.196 120.378 105.253C120.378 105.31 120.115 108 119.851 108.115Z" fill="#FDC400" stroke="black" stroke-width="0.942445"/>
<path fill-rule="evenodd" clip-rule="evenodd" d="M121.406 105.117C121.719 105 122.188 104.61 122.735 104.649C123.281 104.688 124.18 105.117 123.75 105.352C123.32 105.586 122.969 105.703 122.5 105.586C121.992 105.469 121.602 105.195 121.406 105.117ZM126.875 105.039C126.563 104.961 126.094 104.531 125.547 104.61C125 104.688 124.102 105.078 124.531 105.313C125 105.547 125.313 105.625 125.82 105.508C126.289 105.391 126.68 105.117 126.914 105.039H126.875Z" fill="black"/>
<path fill-rule="evenodd" clip-rule="evenodd" d="M122.627 108.555C122.627 108.841 122.89 111.302 123.022 111.13L124.14 108.612L122.627 108.555Z" fill="#000039" stroke="black" stroke-width="0.628297"/>
<path d="M121.969 108.632C121.969 107.888 122.495 107.946 123.548 108.06C124.666 108.175 125.192 108.632 125.127 108.804C125.061 108.919 124.14 109.205 123.416 109.147C122.561 108.919 121.903 109.147 121.969 108.575V108.632Z" stroke="black" stroke-width="1.25659"/>
<path d="M123.548 106.801L123.416 107.946M128.087 103.825C128.087 103.825 129.007 104.226 128.876 104.569C128.744 104.913 128.087 105.084 128.087 105.084M120.719 103.539C120.522 103.596 120.259 103.711 120.061 104.226C119.995 104.684 120.719 104.97 120.719 104.97" stroke="black" stroke-width="2.09432"/>
<path d="M122.836 106.016C122.836 106.016 121.85 106.874 123.494 106.874C125.139 106.874 123.955 106.13 123.955 106.13" stroke="black" stroke-width="2.09432"/>
<path fill-rule="evenodd" clip-rule="evenodd" d="M126.406 171.094L129.219 161.875L121.406 156.055L131.172 155.82L134.375 146.719L137.617 155.82L147.383 156.016L139.609 161.875L142.461 171.055L134.414 165.586L126.406 171.094Z" fill="#FDC400"/>
<path fill-rule="evenodd" clip-rule="evenodd" d="M127.734 168.633L130.078 161.29L123.594 156.68L131.758 156.485L134.414 149.258L137.07 156.485L145.234 156.641L138.75 161.29L141.094 168.594L134.453 164.219L127.734 168.633Z" fill="#003017"/>
<path fill-rule="evenodd" clip-rule="evenodd" d="M110.352 152.383L113.086 143.672L105.391 138.203L115.078 137.969L118.203 129.375L121.406 137.969L131.094 138.125L123.399 143.633L126.172 152.344L118.242 147.187L110.352 152.383Z" fill="#FDC400"/>
<path fill-rule="evenodd" clip-rule="evenodd" d="M111.68 150.04L113.984 143.125L107.539 138.75L115.586 138.594L118.242 131.758L120.899 138.594L128.945 138.711L122.539 143.086L124.883 150.04L118.242 145.899L111.68 150.04Z" fill="#003017"/>
<path fill-rule="evenodd" clip-rule="evenodd" d="M142.734 152.383L145.547 143.672L137.734 138.203L147.5 137.969L150.742 129.375L153.985 137.969L163.75 138.125L155.938 143.633L158.828 152.344L150.781 147.187L142.734 152.383Z" fill="#FDC400"/>
<path fill-rule="evenodd" clip-rule="evenodd" d="M144.063 150.04L146.406 143.125L139.922 138.75L148.086 138.594L150.742 131.758L153.438 138.594L161.602 138.711L155.078 143.086L157.461 150.04L150.781 145.899L144.063 150.04Z" fill="#003017"/>
<path d="M87.3049 159.766L92.1487 157.031L92.5784 158.008L90.7034 159.102L91.3284 160.469L93.2034 159.414L93.6721 160.391L88.8284 163.125L88.3987 162.109L90.5862 160.898L89.9612 159.531L87.7737 160.742L87.3049 159.766ZM89.3362 163.984L93.8284 160.664L95.3909 163.203L94.6096 163.789L93.6331 162.148L92.6174 162.93L93.5159 164.414L92.8127 164.961L91.8752 163.398L90.6252 164.336L91.6409 166.016L90.8596 166.602L89.2971 163.984M92.4612 168.828L96.4456 164.727L97.1096 165.547L95.5471 167.148L96.4846 168.32L98.0471 166.68L98.7502 167.5L94.7659 171.602L94.1018 170.781L95.8987 168.906L94.9612 167.773L93.1643 169.648L92.4612 168.828ZM97.6565 171.25L98.3206 171.875L99.4924 169.648L97.6565 171.211M95.1174 171.992L99.6096 168.359L100.625 169.375L98.0081 174.766L97.1877 173.984L97.8909 172.656L96.9924 171.797L95.8987 172.734L95.1174 171.992ZM99.0237 175.625L101.758 171.602L100.781 170.82L101.328 170.039L103.985 172.227L103.477 173.008L102.539 172.227L99.8831 176.289L99.0627 175.625M101.25 177.383L104.063 172.266L104.922 172.852L103.828 174.844L105 175.625L106.094 173.633L106.953 174.219L104.141 179.336L103.281 178.75L104.571 176.406L103.399 175.625L102.11 177.969L101.25 177.383ZM106.563 180.742L108.828 175.273L111.406 176.602L111.016 177.5L109.375 176.641L108.828 177.93L110.391 178.711L110 179.609L108.438 178.828L107.461 181.211L106.563 180.742ZM111.563 179.922C111.336 180.498 111.192 181.103 111.133 181.719C111.133 181.992 111.289 182.188 111.524 182.305C111.797 182.422 111.992 182.383 112.188 182.188C112.344 181.992 112.578 181.406 112.93 180.508C113.281 179.609 113.399 178.945 113.399 178.672C113.397 178.542 113.355 178.415 113.278 178.31C113.201 178.205 113.093 178.127 112.969 178.086C112.696 177.969 112.5 178.008 112.305 178.203C112.149 178.398 111.914 178.984 111.563 179.922ZM110.625 179.531C110.774 179.05 110.956 178.58 111.172 178.125C111.328 177.773 111.524 177.539 111.68 177.422C111.914 177.227 112.149 177.109 112.383 177.07C112.681 177.069 112.975 177.136 113.242 177.266C113.54 177.369 113.808 177.544 114.024 177.773C114.18 177.969 114.297 178.203 114.336 178.555V179.453C114.122 180.444 113.781 181.402 113.321 182.305C113.197 182.569 113.025 182.808 112.813 183.008C112.578 183.203 112.344 183.32 112.11 183.32C111.815 183.34 111.519 183.286 111.25 183.164C110.953 183.06 110.685 182.886 110.469 182.656C110.299 182.427 110.191 182.158 110.156 181.875C110.101 181.578 110.101 181.274 110.156 180.977L110.625 179.492M115.274 178.242L116.211 178.555L115.196 182.461C115.083 182.76 115.043 183.081 115.078 183.398C115.156 183.594 115.313 183.711 115.547 183.789C115.781 183.867 115.977 183.867 116.133 183.711C116.25 183.594 116.406 183.32 116.524 182.852L117.539 178.984L118.516 179.297L117.422 183.281C117.344 183.672 117.227 183.945 117.149 184.102C117.058 184.291 116.921 184.455 116.751 184.578C116.58 184.701 116.381 184.779 116.172 184.805C115.881 184.826 115.588 184.786 115.313 184.687C114.83 184.555 114.412 184.249 114.141 183.828C113.985 183.438 113.985 182.93 114.18 182.227L115.274 178.242ZM117.852 185.312L119.024 179.453L120.039 179.727L120.586 184.141L121.367 180.039L122.305 180.273L121.133 186.133L120.117 185.898L119.571 181.445L118.789 185.547L117.852 185.312ZM123.125 185.625L123.594 185.703H124.063C124.141 185.703 124.258 185.664 124.297 185.586C124.414 185.43 124.531 185.234 124.61 185C124.836 184.159 124.954 183.293 124.961 182.422C124.961 182.204 124.908 181.989 124.805 181.797C124.751 181.707 124.668 181.639 124.571 181.602C124.446 181.546 124.315 181.507 124.18 181.484L123.75 181.445L123.164 185.625M122.031 186.328L122.891 180.391L124.453 180.664C124.844 180.742 125.078 180.781 125.235 180.898C125.43 180.977 125.586 181.133 125.703 181.289C125.86 181.523 125.938 181.797 125.977 182.109C125.977 182.461 125.977 182.891 125.899 183.594C125.781 184.414 125.664 185 125.547 185.352C125.469 185.703 125.313 185.977 125.156 186.211C125 186.406 124.805 186.563 124.571 186.602C124.183 186.675 123.786 186.675 123.399 186.602L122.031 186.328ZM126.25 187.031L126.758 181.016L129.492 181.328L129.414 182.305L127.656 182.148L127.539 183.516L129.18 183.711L129.102 184.648L127.461 184.453L127.305 186.133L129.141 186.328L129.024 187.305L126.211 187.031M130.821 186.523H131.719C131.836 186.484 131.914 186.406 131.953 186.328C132.071 186.172 132.11 185.938 132.188 185.703C132.328 184.851 132.354 183.984 132.266 183.125C132.227 182.852 132.149 182.656 132.031 182.5C131.966 182.439 131.885 182.399 131.797 182.383C131.671 182.34 131.54 182.314 131.406 182.305H130.938L130.821 186.523ZM129.805 187.383L129.961 181.367L131.602 181.445C131.914 181.445 132.188 181.484 132.383 181.562C132.578 181.641 132.735 181.719 132.852 181.875C133.047 182.109 133.164 182.344 133.242 182.656C133.321 183.008 133.321 183.477 133.321 184.141C133.308 184.742 133.256 185.343 133.164 185.938C133.086 186.328 133.008 186.602 132.852 186.836C132.747 187.059 132.567 187.239 132.344 187.344C132.11 187.422 131.719 187.461 131.172 187.422L129.805 187.383ZM135.821 187.461L135.586 181.445L136.602 181.406L136.836 187.422H135.821M138.516 187.305L138.125 182.305L136.953 182.383L136.914 181.406L140.235 181.094L140.313 182.109L139.141 182.188L139.531 187.227L138.516 187.305ZM142.031 180.859L143.047 180.664L143.672 184.648C143.75 185.117 143.867 185.43 143.985 185.547C144.102 185.703 144.297 185.742 144.531 185.703C144.766 185.664 144.961 185.547 145.039 185.312C145.115 185.005 145.115 184.683 145.039 184.375L144.414 180.391L145.391 180.195L146.055 184.297C146.094 184.687 146.133 185 146.094 185.195C146.087 185.37 146.047 185.543 145.977 185.703C145.875 185.936 145.713 186.138 145.508 186.289C145.274 186.445 145 186.523 144.688 186.602C144.063 186.719 143.633 186.641 143.321 186.406C143.008 186.172 142.813 185.664 142.696 184.961L142.071 180.859M147.461 182.383L147.852 182.266C148.164 182.188 148.36 182.07 148.438 181.875C148.555 181.719 148.555 181.484 148.477 181.172C148.438 180.82 148.321 180.625 148.164 180.547C148.047 180.43 147.774 180.43 147.5 180.547L147.071 180.625L147.461 182.383ZM147.227 185.898L145.938 180.039L147.656 179.648C148.164 179.492 148.555 179.492 148.828 179.688C149.102 179.883 149.336 180.273 149.453 180.859C149.61 181.445 149.571 181.914 149.375 182.266C149.219 182.617 148.867 182.852 148.36 182.969L147.656 183.164L148.203 185.664L147.227 185.938M151.094 181.68C151.367 182.617 151.563 183.203 151.758 183.398C151.914 183.633 152.149 183.672 152.383 183.594C152.656 183.477 152.774 183.32 152.852 183.047C152.852 182.773 152.735 182.148 152.461 181.211C152.188 180.273 151.992 179.648 151.797 179.453C151.641 179.258 151.406 179.18 151.172 179.297C150.899 179.375 150.781 179.57 150.742 179.844C150.703 180.117 150.821 180.742 151.094 181.68ZM150.117 182.031C149.967 181.545 149.849 181.049 149.766 180.547C149.711 180.25 149.711 179.945 149.766 179.648C149.819 179.356 149.955 179.085 150.156 178.867C150.38 178.666 150.648 178.519 150.938 178.437C151.25 178.32 151.563 178.281 151.797 178.32C152.031 178.32 152.266 178.477 152.5 178.711C152.656 178.828 152.813 179.102 152.969 179.414C153.125 179.766 153.281 180.234 153.438 180.859C153.633 181.445 153.75 181.953 153.828 182.344V183.242C153.711 183.555 153.594 183.789 153.438 183.984C153.242 184.18 152.969 184.336 152.656 184.453C152.266 184.57 152.031 184.609 151.758 184.57C151.524 184.531 151.289 184.414 151.094 184.18C150.899 184.063 150.742 183.789 150.586 183.477C150.397 183.006 150.24 182.523 150.117 182.031ZM155.039 183.398L153.047 177.813L153.985 177.422L156.719 180.703L155.274 176.797L156.172 176.406L158.164 181.992L157.227 182.422L154.492 179.102L155.938 183.008L155.039 183.398ZM161.289 180.313L159.219 175.898L158.203 176.484L157.774 175.625L160.703 173.867L161.094 174.766L160.117 175.352L162.227 179.805L161.328 180.313M163.672 178.906L160.821 173.828L161.68 173.242L162.813 175.195L163.985 174.414L162.813 172.422L163.672 171.797L166.563 176.875L165.703 177.5L164.414 175.156L163.242 176.016L164.571 178.32L163.711 178.906M167.305 176.289L164.063 171.523L166.289 169.648L166.797 170.43L165.391 171.602L166.172 172.773L167.461 171.602L168.008 172.383L166.68 173.516L167.578 174.805L169.024 173.633L169.571 174.414L167.305 176.289ZM170.117 171.133L170.821 170.352L171.055 170.625C171.289 170.898 171.485 171.016 171.641 171.094C171.758 171.094 171.914 171.055 172.031 170.898C172.227 170.703 172.305 170.547 172.305 170.391C172.305 170.195 172.227 170 172.071 169.883C171.953 169.727 171.836 169.648 171.68 169.609C171.471 169.587 171.259 169.6 171.055 169.648L170.43 169.766C169.883 169.883 169.492 169.883 169.258 169.844C168.996 169.754 168.766 169.592 168.594 169.375C168.302 169.056 168.148 168.635 168.164 168.203C168.184 167.763 168.365 167.347 168.672 167.031C169.063 166.641 169.414 166.445 169.766 166.445C170.117 166.445 170.547 166.68 170.899 167.07C170.941 167.12 170.98 167.172 171.016 167.227L170.352 168.008L170.235 167.891C170.039 167.656 169.844 167.5 169.688 167.5C169.531 167.461 169.375 167.5 169.219 167.695C169.102 167.852 169.063 167.969 169.063 168.086C169.063 168.281 169.102 168.398 169.219 168.555C169.375 168.711 169.727 168.75 170.196 168.672L170.899 168.516C171.255 168.416 171.63 168.403 171.992 168.477C172.227 168.555 172.5 168.75 172.774 169.023C173.086 169.414 173.242 169.805 173.242 170.234C173.215 170.722 173.006 171.182 172.656 171.523C172.266 171.914 171.875 172.148 171.485 172.109C171.094 172.109 170.703 171.875 170.313 171.406C170.246 171.33 170.18 171.252 170.117 171.172M174.297 169.453L170.156 165.586L171.914 163.242L172.617 163.867L171.446 165.391L172.422 166.289L173.516 164.883L174.141 165.469L173.086 166.875L174.258 167.93L175.43 166.367L176.094 167.031L174.297 169.453ZM175.352 164.063L175.821 163.281L173.711 162.266L175.352 164.063ZM176.328 166.758L172.539 162.266L173.321 161.016L178.477 163.242L177.852 164.258L176.563 163.633L175.938 164.727L176.914 165.82L176.328 166.758ZM176.992 161.875L177.422 160.859L177.735 161.055C178.047 161.211 178.282 161.289 178.399 161.25C178.555 161.25 178.672 161.133 178.789 160.938C178.867 160.703 178.906 160.547 178.828 160.352C178.779 160.186 178.667 160.045 178.516 159.961C178.39 159.874 178.239 159.832 178.086 159.844C177.93 159.844 177.696 159.961 177.461 160.117L176.875 160.469C176.555 160.68 176.197 160.826 175.821 160.898C175.548 160.903 175.278 160.835 175.039 160.703C174.852 160.609 174.685 160.477 174.551 160.316C174.416 160.155 174.317 159.967 174.258 159.766C174.167 159.326 174.236 158.869 174.453 158.477C174.688 157.969 175 157.656 175.352 157.539C175.742 157.422 176.133 157.461 176.602 157.734C176.656 157.77 176.708 157.809 176.758 157.852L176.328 158.789L176.172 158.711C175.987 158.588 175.77 158.52 175.547 158.516C175.391 158.555 175.274 158.672 175.156 158.906C175.117 159.062 175.078 159.219 175.156 159.375C175.156 159.492 175.274 159.609 175.43 159.687C175.625 159.805 175.938 159.727 176.367 159.453L176.953 159.063C177.27 158.853 177.631 158.719 178.008 158.672C178.324 158.657 178.638 158.739 178.906 158.906C179.1 159.013 179.269 159.158 179.403 159.333C179.538 159.507 179.634 159.708 179.688 159.922C179.802 160.394 179.747 160.892 179.531 161.328C179.258 161.836 178.946 162.188 178.594 162.305C178.203 162.422 177.774 162.305 177.266 162.031L176.992 161.875Z" fill="black"/>
</g>
</svg>
