<svg width="68" height="85" viewBox="0 0 68 85" fill="none" xmlns="http://www.w3.org/2000/svg">
<path d="M33.8216 3.63837C35.4857 2.50508 37.6484 0.423087 39.5422 0.252428C41.9914 0.348863 42.6963 1.90441 43.8178 3.75523L45.3728 6.29442C47.4322 6.02828 50.8979 4.9417 52.61 6.05018C54.6589 7.3766 54.2347 10.9919 54.7391 13.3069C59.6987 15.3627 63.404 15.0266 61.0488 21.444L60.0942 24.0064C61.4893 25.3959 64.0607 27.2169 64.6208 29.123C65.6379 32.585 61.3379 33.8243 60.1391 35.8863L60.0942 35.9646C60.2425 38.3387 62.5203 40.614 61.5108 43.0502C60.306 45.9577 55.7133 45.6892 54.9387 47.0816C54.6126 47.6677 55.7443 49.6059 55.9919 50.1517L66.4956 72.9272C66.8198 73.6147 67.4584 74.8731 67.6276 75.541L67.6479 75.6229C67.4761 76.244 67.2013 76.7839 66.4586 76.7118C63.3704 76.4116 59.3165 75.4898 56.1965 74.8133L53.1187 81.085C52.704 81.9196 50.8175 86.6066 49.4246 83.9335C45.6717 76.6818 42.4103 68.9301 38.9315 61.5241C38.6176 60.9852 38.1968 59.4493 37.7654 59.0362C36.7002 58.0167 34.9703 57.2044 33.8216 56.2487C31.6559 57.7365 30.2876 57.9481 29.1881 60.4041L19.5506 81.1262C19.1068 82.0891 17.5922 86.5064 16.1064 83.8914C14.4115 80.9084 12.8983 77.808 11.2259 74.8133C10.3125 74.9495 9.35647 75.1989 8.44911 75.4053L4.38878 76.3249C3.54516 76.5194 1.64832 77.1112 0.870579 76.7618C-0.902607 75.9657 1.6402 71.9255 2.19903 70.6772L10.9754 51.5219C11.5589 50.2807 12.3068 48.5254 12.9575 47.3696C12.9133 47.0778 12.8475 46.8211 12.7785 46.535C11.1044 45.6304 7.65251 45.7568 6.56802 43.7912C5.36776 41.7511 7.15646 38.1944 7.72317 35.9646C6.49999 34.7624 4.6633 33.5696 3.65831 32.2831C1.1334 29.0507 5.32574 26.1119 7.72317 24.3011C6.89029 21.8782 4.14577 16.9443 7.46989 15.358C8.95614 14.6488 10.9592 14.0784 12.5694 13.6047C13.0382 10.8786 12.9234 5.61629 16.4554 5.58853C18.1126 5.57548 20.5625 6.02757 22.2522 6.29442C22.9203 4.97826 23.9046 3.65722 24.5804 2.45297C27.2588 -2.3204 30.9636 1.89731 33.8216 3.63837ZM39.5422 2.78196C37.6265 3.59414 35.1192 6.91907 33.0617 6.07303C31.6753 5.50288 28.7978 2.43743 27.466 2.89967C26.3147 3.29926 24.9191 8.26715 22.547 8.63994C20.8612 8.90465 18.2119 8.01767 16.3334 8.07956C15.1143 9.18364 15.672 13.4474 14.4722 15.2713C12.8181 16.9593 8.85111 16.3585 8.21684 18.3634L8.24524 18.4636C8.72435 20.1299 10.7943 23.7914 10.001 25.3328C9.44909 26.4047 6.37777 28.3651 5.43603 29.6601C5.40189 31.8232 8.68974 32.8438 9.79881 34.6246C11.1235 36.7516 7.84134 41.6147 8.73604 42.5707C9.49493 43.3816 13.2884 43.746 14.4841 44.5573C16.6144 46.003 14.2929 52.3501 17.1744 52.2968C18.8042 52.2668 22.3615 50.8228 23.636 52.0466C24.3753 52.7565 25.7028 54.9453 26.3648 55.9259C27.0327 56.9147 27.3337 57.6129 28.6168 56.7867C29.8009 55.9778 32.66 53.5116 34.1357 53.7937C35.1603 53.9896 38.4207 56.5993 39.7697 57.2416C41.0759 56.9919 42.7142 53.4097 43.692 52.2294C44.5819 51.1549 49.3906 52.3132 51.0034 52.2594C53.3388 51.6014 51.5329 46.366 52.8196 45.1548C54.3753 43.6903 58.8813 43.7546 59.4645 41.6631C58.9243 39.7225 57.867 37.7569 57.3523 35.7892C56.8921 34.0285 62.8263 31.3864 62.3327 29.7631C61.9027 28.3496 57.7352 26.025 57.5505 24.2154C57.5975 22.9851 59.2864 19.8428 59.4645 18.3634C58.3633 15.9262 54.0769 16.8996 52.5009 14.4174C51.8862 13.504 52.165 8.25739 51.0965 8.06004C49.2503 7.71892 45.7753 9.38575 43.963 8.32238C42.533 7.48372 41.2886 2.6775 39.5422 2.78196ZM13.4509 52.1204C11.5233 56.1375 9.67349 60.3831 7.7881 64.4483L5.18824 70.1047C4.62702 71.324 3.95694 72.673 3.4807 73.9161C6.20971 73.4505 8.99434 72.5463 11.7427 72.1586C13.1306 71.9626 16.0909 78.5805 16.6906 79.7805C16.8574 80.1033 16.9524 80.3199 17.0878 80.6565C18.5719 76.756 20.739 72.533 22.5207 68.7432L25.7307 61.8548C26.1024 61.0749 26.445 60.2567 26.8489 59.4988C25.0793 58.8494 23.0433 55.8592 22.2522 54.0772C19.8586 54.3647 16.7097 55.4812 14.7412 53.9758C14.0248 53.4278 13.6238 52.2687 13.4509 52.1204ZM54.2313 52.2594C52.53 56.2608 48.7325 54.2231 45.3728 54.3424L45.3014 54.4233C43.7278 56.232 43.0935 58.4897 40.7742 59.4988C41.1623 60.5331 41.7013 61.652 42.1695 62.6651L48.2809 75.7186C49.0342 77.3333 49.7981 79.0718 50.5916 80.6565L51.0034 79.7805C52.0812 77.5283 53.2485 75.2251 54.3822 72.9986C55.1373 71.5161 57.311 72.5344 58.5703 72.7649C60.32 73.1431 62.5198 73.3393 64.1677 73.9161C63.6764 72.7523 63.0956 71.5908 62.568 70.4372L55.4426 54.8606C55.2829 54.5099 54.3932 52.4391 54.2313 52.2594Z" fill="#F39C12"/>
<path d="M26.4235 15.4692C25.0158 15.1071 24.8248 13.6836 25.8675 13.1629C28.0785 12.0589 30.3607 11.638 32.7975 11.4199C53.626 10.0557 60.8495 40.7338 39.9482 47.7432C24.0497 53.075 9.52572 36.964 16.8849 21.8623C17.8221 19.9362 20.7953 15.8424 22.8325 15.1997C23.7733 15.3963 24.2493 15.8465 24.1065 16.8535C23.7155 17.4993 22.858 18.0489 22.2889 18.6131C18.273 22.5952 16.4819 28.2542 17.8132 33.8222C21.0808 47.7405 40.4474 50.9933 47.9338 38.3778C55.2351 26.0736 43.7018 10.9169 29.9601 14.2865C28.7319 14.5796 27.6651 15.1435 26.5047 15.4485L26.4235 15.4692Z" fill="#F39C12"/>
<path d="M33.8216 3.63837C35.4857 2.50508 37.6484 0.423087 39.5422 0.252428C41.9914 0.348863 42.6963 1.90441 43.8178 3.75523L45.3728 6.29442C47.4322 6.02828 50.8979 4.9417 52.61 6.05018C54.6589 7.3766 54.2347 10.9919 54.7391 13.3069C59.6987 15.3627 63.404 15.0266 61.0488 21.444L60.0942 24.0064C61.4893 25.3959 64.0607 27.2169 64.6208 29.123C65.6379 32.585 61.3379 33.8243 60.1391 35.8863L60.0942 35.9646C60.2425 38.3387 62.5203 40.614 61.5108 43.0502C60.306 45.9577 55.7133 45.6892 54.9387 47.0816C54.6126 47.6677 55.7443 49.6059 55.9919 50.1517L66.4956 72.9272C66.8198 73.6147 67.4584 74.8731 67.6276 75.541L67.6479 75.6229C67.4761 76.244 67.2013 76.7839 66.4586 76.7118C63.3704 76.4116 59.3165 75.4898 56.1965 74.8133L53.1187 81.085C52.704 81.9196 50.8175 86.6066 49.4246 83.9335C45.6717 76.6818 42.4103 68.9301 38.9315 61.5241C38.6176 60.9852 38.1968 59.4493 37.7654 59.0362C36.7002 58.0167 34.9703 57.2044 33.8216 56.2487C31.6559 57.7365 30.2876 57.9481 29.1881 60.4041L19.5506 81.1262C19.1068 82.0891 17.5922 86.5064 16.1064 83.8914C14.4115 80.9084 12.8983 77.808 11.2259 74.8133C10.3125 74.9495 9.35647 75.1989 8.44911 75.4053L4.38878 76.3249C3.54516 76.5194 1.64832 77.1112 0.870579 76.7618C-0.902607 75.9657 1.6402 71.9255 2.19903 70.6772L10.9754 51.5219C11.5589 50.2807 12.3068 48.5254 12.9575 47.3696C12.9133 47.0778 12.8475 46.8211 12.7785 46.535C11.1044 45.6304 7.65251 45.7568 6.56802 43.7912C5.36776 41.7511 7.15646 38.1944 7.72317 35.9646C6.49999 34.7624 4.6633 33.5696 3.65831 32.2831C1.1334 29.0507 5.32574 26.1119 7.72317 24.3011C6.89029 21.8782 4.14577 16.9443 7.46989 15.358C8.95614 14.6488 10.9592 14.0784 12.5694 13.6047C13.0382 10.8786 12.9234 5.61629 16.4554 5.58853C18.1126 5.57548 20.5625 6.02757 22.2522 6.29442C22.9203 4.97826 23.9046 3.65722 24.5804 2.45297C27.2588 -2.3204 30.9636 1.89731 33.8216 3.63837ZM39.5422 2.78196C37.6265 3.59414 35.1192 6.91907 33.0617 6.07303C31.6753 5.50288 28.7978 2.43743 27.466 2.89967C26.3147 3.29926 24.9191 8.26715 22.547 8.63994C20.8612 8.90465 18.2119 8.01767 16.3334 8.07956C15.1143 9.18364 15.672 13.4474 14.4722 15.2713C12.8181 16.9593 8.85111 16.3585 8.21684 18.3634L8.24524 18.4636C8.72435 20.1299 10.7943 23.7914 10.001 25.3328C9.44909 26.4047 6.37777 28.3651 5.43603 29.6601C5.40189 31.8232 8.68974 32.8438 9.79881 34.6246C11.1235 36.7516 7.84134 41.6147 8.73604 42.5707C9.49493 43.3816 13.2884 43.746 14.4841 44.5573C16.6144 46.003 14.2929 52.3501 17.1744 52.2968C18.8042 52.2668 22.3615 50.8228 23.636 52.0466C24.3753 52.7565 25.7028 54.9453 26.3648 55.9259C27.0327 56.9147 27.3337 57.6129 28.6168 56.7867C29.8009 55.9778 32.66 53.5116 34.1357 53.7937C35.1603 53.9896 38.4207 56.5993 39.7697 57.2416C41.0759 56.9919 42.7142 53.4097 43.692 52.2294C44.5819 51.1549 49.3906 52.3132 51.0034 52.2594C53.3388 51.6014 51.5329 46.366 52.8196 45.1548C54.3753 43.6903 58.8813 43.7546 59.4645 41.6631C58.9243 39.7225 57.867 37.7569 57.3523 35.7892C56.8921 34.0285 62.8263 31.3864 62.3327 29.7631C61.9027 28.3496 57.7352 26.025 57.5505 24.2154C57.5975 22.9851 59.2864 19.8428 59.4645 18.3634C58.3633 15.9262 54.0769 16.8996 52.5009 14.4174C51.8862 13.504 52.165 8.25739 51.0965 8.06004C49.2503 7.71892 45.7753 9.38575 43.963 8.32238C42.533 7.48372 41.2886 2.6775 39.5422 2.78196ZM13.4509 52.1204C11.5233 56.1375 9.67349 60.3831 7.7881 64.4483L5.18824 70.1047C4.62702 71.324 3.95694 72.673 3.4807 73.9161C6.20971 73.4505 8.99434 72.5463 11.7427 72.1586C13.1306 71.9626 16.0909 78.5805 16.6906 79.7805C16.8574 80.1033 16.9524 80.3199 17.0878 80.6565C18.5719 76.756 20.739 72.533 22.5207 68.7432L25.7307 61.8548C26.1024 61.0749 26.445 60.2567 26.8489 59.4988C25.0793 58.8494 23.0433 55.8592 22.2522 54.0772C19.8586 54.3647 16.7097 55.4812 14.7412 53.9758C14.0248 53.4278 13.6238 52.2687 13.4509 52.1204ZM54.2313 52.2594C52.53 56.2608 48.7325 54.2231 45.3728 54.3424L45.3014 54.4233C43.7278 56.232 43.0935 58.4897 40.7742 59.4988C41.1623 60.5331 41.7013 61.652 42.1695 62.6651L48.2809 75.7186C49.0342 77.3333 49.7981 79.0718 50.5916 80.6565L51.0034 79.7805C52.0812 77.5283 53.2485 75.2251 54.3822 72.9986C55.1373 71.5161 57.311 72.5344 58.5703 72.7649C60.32 73.1431 62.5198 73.3393 64.1677 73.9161C63.6764 72.7523 63.0956 71.5908 62.568 70.4372L55.4426 54.8606C55.2829 54.5099 54.3932 52.4391 54.2313 52.2594Z" stroke="#F39C12" stroke-width="0.5"/>
<path d="M26.4235 15.4692C25.0158 15.1071 24.8248 13.6836 25.8675 13.1629C28.0785 12.0589 30.3607 11.638 32.7975 11.4199C53.626 10.0557 60.8495 40.7338 39.9482 47.7432C24.0497 53.075 9.52572 36.964 16.8849 21.8623C17.8221 19.9362 20.7953 15.8424 22.8325 15.1997C23.7733 15.3963 24.2493 15.8465 24.1065 16.8535C23.7155 17.4993 22.858 18.0489 22.2889 18.6131C18.273 22.5952 16.4819 28.2542 17.8132 33.8222C21.0808 47.7405 40.4474 50.9933 47.9338 38.3778C55.2351 26.0736 43.7018 10.9169 29.9601 14.2865C28.7319 14.5796 27.6651 15.1435 26.5047 15.4485L26.4235 15.4692Z" stroke="#F39C12" stroke-width="0.5"/>
</svg>
