<svg width="11" height="15" viewBox="0 0 11 15" fill="none" xmlns="http://www.w3.org/2000/svg">
<path d="M6.66342 11.4627C5.67073 11.4635 0.892086 11.5794 0.283905 11.3593C-1.25471 10.8022 3.94496 4.01304 4.30692 3.48547C4.76445 2.81882 6.19052 0.231659 6.83702 0C9.77257 0.0542734 8.98041 0.195346 8.97881 3.46711L8.97762 9.44257C9.46069 9.4278 10.2748 9.3434 10.6533 9.55032C11.0244 9.75304 10.9558 11.0718 10.686 11.3224C10.4165 11.573 9.29987 11.4734 8.97762 11.4627C8.92774 12.769 9.51457 14.7695 8.19485 14.9617C6.26335 15.2426 6.63209 13.9325 6.66342 12.4144C6.64326 12.1878 6.66102 11.7085 6.66342 11.4627ZM6.66342 3.21809C6.04705 4.09824 2.9002 9.09977 2.84313 9.40166L2.92454 9.44257H6.66342L6.66701 5.09411C6.66721 4.78623 6.69255 3.4272 6.66342 3.21809Z" fill="#1C001F"/>
</svg>
