<svg width="164" height="164" viewBox="0 0 164 164" fill="none" xmlns="http://www.w3.org/2000/svg">
<path d="M88.0588 138.091L48.3054 152.338L39.5279 155.484C36.8092 156.461 32.9777 158.234 30.1474 157.205C26.3384 155.82 25.871 151.943 25.0228 148.562L22.6791 139.001L15.6871 111.039L5.50657 70.9402C3.68778 63.8946 1.75947 56.8955 0.125453 49.7959C-0.422642 47.4147 0.873739 45.3132 3.0668 44.2782C4.43865 43.6307 6.13714 43.1297 7.57886 42.6099L16.1972 39.5156L45.5607 29.2505L129.156 0.000135609C130.353 -0.0176234 135.555 1.71404 136.856 2.15771C138.972 9.09579 140.723 17.9356 142.575 25.1481L159.303 90.8538L162.565 103.22C163.059 105.133 163.596 107.083 163.97 109.005C164.182 110.097 163.244 110.572 162.432 110.905C161.019 111.483 159.491 111.987 158.059 112.498L149.198 115.692C136.935 120.238 124.463 124.596 112.275 129.242C112.175 130.758 111.951 132.568 111.797 134.101C112.518 133.915 113.206 133.622 113.9 133.357C117.913 131.822 122.015 130.54 126.049 129.062C128.647 130.202 131.212 131.416 133.741 132.702C135.367 133.532 137.761 134.878 139.385 135.47L140.296 138.837C137.855 139.865 134.069 141.061 131.495 141.964L117.84 146.851C107.298 150.595 96.819 154.62 86.294 158.424C81.9128 160.007 77.5326 161.581 73.1918 163.272C72.5378 162.959 71.6924 162.494 71.0592 162.117C67.7034 160.122 63.9355 158.644 60.59 156.676C60.6103 155.554 60.3855 154.588 60.5567 153.483C61.0022 152.868 66.8195 150.884 67.9741 150.442L81.4497 145.291C82.8446 144.906 85.5676 143.804 87.1253 143.269C87.4024 141.412 87.6531 139.924 88.0588 138.091ZM129.261 0.622904C125.602 1.9803 121.898 3.18184 118.218 4.4806L87.7154 15.1327L41.2249 31.4797L14.6576 40.7945L7.24169 43.4603C4.81351 44.3402 2.06566 44.9454 0.79703 47.4557C0.470337 48.102 1.00894 50.4735 1.18024 51.2107C2.07257 54.9817 3.06991 58.7247 4.0404 62.4739L10.7536 88.6352L23.0582 137.604C24.2995 142.51 25.6771 149.433 27.4841 154.231C27.9324 155.422 30.1202 156.557 31.4602 156.855C31.5943 156.885 31.729 156.912 31.8638 156.937C31.9982 155.922 28.5484 143.614 28.04 141.568C20.4244 110.341 12.4431 79.2041 4.09775 48.1639C4.79242 47.3999 4.82713 47.2285 5.07934 46.2363C7.77125 45.4859 10.493 44.4413 13.1531 43.5577C16.8368 42.3346 20.5011 41.0989 24.1635 39.8107C33.759 36.4932 43.3365 33.1242 52.8959 29.7038L132.732 1.57536C131.598 1.2331 130.419 0.849856 129.261 0.622904ZM133.231 1.8431C130.66 3.25421 125.631 4.88351 122.642 5.94372L102.886 12.8454L37.8328 35.7776L18.2882 42.5279C14.6698 43.7424 9.0676 45.4292 5.70858 46.8755C5.45058 47.522 5.28372 47.9506 4.95629 48.5598C11.7514 74.0459 18.3547 99.5829 24.7657 125.168L30.4911 148.254C31.084 150.549 32.0626 154.915 32.7764 156.985L34.5717 156.507C43.6609 153.349 52.7199 150.105 61.7477 146.775L126.719 123.198C134.876 120.261 143.016 117.282 151.141 114.259C153.159 113.524 161.895 110.575 163.177 109.66C163.392 107.571 156.883 84.2142 155.955 80.5243L141.694 24.3887C140.632 20.2549 139.624 16.1072 138.671 11.9468C138.089 9.44336 137.163 5.12328 136.238 2.75399C135.429 2.41139 134.114 1.84927 133.231 1.8431ZM111.45 129.509C105.992 131.565 98.5305 133.919 93.4744 136.157C92.5578 140.672 91.9168 145.559 91.1883 150.123C89.5619 149.507 87.7986 148.866 86.2435 148.104C86.471 146.787 86.7204 145.44 86.9134 144.12C83.8309 144.902 77.6174 147.419 74.4318 148.684C70.5307 150.232 65.2064 152.013 61.4421 153.656C64.4966 155.184 69.6563 157.94 72.6347 159.116C78.1575 156.96 83.7134 154.889 89.3007 152.907C105.34 146.925 121.448 141.128 137.62 135.517C134.584 133.837 129.295 131.038 126.063 129.828C123.033 130.809 120.023 131.847 117.032 132.943C115.427 133.527 113.23 134.434 111.669 134.852C111.571 136.014 111.231 142.19 110.605 142.805C109.949 142.432 110.257 141.702 110.274 141.04C110.309 139.703 111.781 129.978 111.45 129.509ZM138.342 135.957C121.687 141.752 105.1 147.737 88.5821 153.911C83.5617 155.822 77.9815 157.596 73.1113 159.703C73.2485 160.512 73.3466 161.424 73.6731 162.16C73.9703 162.331 73.8343 162.316 74.0575 162.304C78.4779 160.339 84.6627 158.261 89.3494 156.553C98.795 153.112 108.326 149.495 117.791 146.142C122.237 144.587 126.672 143 131.095 141.383C133.959 140.359 136.579 139.521 139.408 138.328C139.199 137.552 139.042 136.743 138.629 136.069L138.342 135.957ZM92.596 136.44C91.3591 136.888 90.1498 137.313 88.9406 137.836C88.4664 139.139 86.9375 146.708 87.2498 147.725C87.5988 147.924 87.7049 147.991 88.0792 148.128L90.5577 149.147C90.7942 148.128 92.6848 136.916 92.596 136.44ZM61.205 154.187L61.3848 156.399C65.1774 158.239 68.9281 160.164 72.6344 162.172C72.593 161.426 72.5656 160.593 72.4894 159.858C69.7809 158.564 67.0908 157.231 64.4208 155.859C63.6306 155.459 61.8735 154.471 61.205 154.187Z" fill="black"/>
<path d="M31.8637 156.938C31.729 156.913 31.5942 156.885 31.4601 156.856C30.1202 156.557 27.9324 155.423 27.4841 154.232C25.677 149.434 24.2995 142.51 23.0582 137.604L10.7536 88.6358L4.04036 62.4745C3.06987 58.7253 2.07253 54.9824 1.1802 51.2113C1.0089 50.4742 0.470297 48.1026 0.796989 47.4564C2.06562 44.946 4.81346 44.3408 7.24165 43.4609L14.6576 40.7952L41.2248 31.4803L87.7153 15.1333L118.218 4.48123C121.897 3.18247 125.602 1.98093 129.261 0.623535C130.419 0.850487 131.598 1.23373 132.732 1.57599L52.8959 29.7044C43.3365 33.1249 33.7589 36.4938 24.1635 39.8113C20.501 41.0995 16.8367 42.3352 13.1531 43.5583C10.4929 44.4419 7.77121 45.4865 5.0793 46.237C4.82709 47.2291 4.79238 47.4006 4.09771 48.1646C12.443 79.2047 20.4244 110.342 28.04 141.569C28.5484 143.614 31.9981 155.923 31.8637 156.938Z" fill="#FEAF36"/>
<path d="M5.70859 46.8751C9.06761 45.4288 14.6698 43.742 18.2882 42.5276L37.8328 35.7773L102.886 12.8451L122.642 5.94339C125.631 4.88318 130.66 3.25388 133.231 1.84277C134.114 1.84894 135.429 2.41106 136.238 2.75366C137.163 5.12296 138.089 9.44303 138.671 11.9465C139.624 16.1069 140.632 20.2546 141.694 24.3884L155.955 80.5239C156.883 84.2139 163.392 107.57 163.177 109.66C161.895 110.575 153.159 113.524 151.141 114.259C143.016 117.281 134.876 120.261 126.719 123.197L61.7477 146.775C52.7199 150.105 43.6609 153.348 34.5717 156.506L32.7764 156.985C32.0626 154.915 31.084 150.549 30.4911 148.253L24.7657 125.168C18.3547 99.5825 11.7514 74.0456 4.9563 48.5595C5.28373 47.9502 5.45059 47.5217 5.70859 46.8751ZM130.646 10.154L52.8 37.6463L28.8364 46.0378C23.312 47.9675 17.889 49.9284 12.3025 51.6886C12.8526 55.0347 14.2372 59.3453 15.1456 62.7273C16.9643 69.7094 18.8343 76.6783 20.7555 83.6333C22.3132 89.4318 23.7236 95.4267 25.2149 101.26L34.0371 135.624L36.4364 145.102C36.618 145.84 37.2158 148.86 37.6358 149.203C41.0621 148.155 44.9509 146.636 48.3581 145.415L71.974 136.919C91.6224 130.051 111.194 122.965 130.686 115.663C138.571 112.751 146.529 109.957 154.409 107.024C155.007 106.801 155.341 106.533 155.772 106.079C156.068 105.081 150.149 83.1865 149.312 79.956L138.598 38.3234C136.909 31.5845 135.171 24.8579 133.384 18.1442C132.958 16.5691 131.719 11.6147 131.198 10.3979C130.885 10.136 131.072 10.2035 130.646 10.154Z" fill="#FEAF36"/>
<path d="M12.3025 51.6888C17.889 49.9287 23.312 47.9678 28.8364 46.038L52.8 37.6465L130.646 10.1543C131.072 10.2037 130.885 10.1363 131.198 10.3981C131.719 11.615 132.958 16.5693 133.384 18.1445C135.171 24.8582 136.909 31.5847 138.598 38.3236L149.312 79.9563C150.149 83.1868 156.068 105.082 155.772 106.079C155.341 106.533 155.007 106.802 154.409 107.025C146.529 109.957 138.571 112.751 130.686 115.663C111.194 122.965 91.6224 130.051 71.974 136.919L48.3581 145.415C44.9509 146.637 41.0621 148.156 37.6358 149.204C37.2159 148.86 36.618 145.84 36.4364 145.102L34.0371 135.624L25.2149 101.26C23.7236 95.427 22.3133 89.4321 20.7555 83.6336C18.8343 76.6785 16.9643 69.7097 15.1457 62.7275C14.2372 59.3456 12.8526 55.035 12.3025 51.6888ZM130.558 10.9503L54.4409 37.8007C46.6075 40.6381 38.7488 43.4056 30.8658 46.1031C25.2174 48.0954 18.7432 50.4355 13.0425 52.1951C13.7822 55.6304 15.0396 59.5928 15.969 63.0549L21.9775 85.6848L37.9839 148.454C68.6238 137.641 99.1792 126.59 129.647 115.302L145.741 109.485C147.755 108.752 153.642 106.773 155.036 105.744C155.332 104.691 149.756 84.3966 149.031 81.6067L138.163 39.5464L133.079 19.6C132.516 17.4729 131.433 13.0019 130.71 11.0726L130.558 10.9503Z" fill="black"/>
<path d="M13.0422 52.1964C18.7429 50.4369 25.2171 48.0968 30.8655 46.1044C38.7486 43.4069 46.6073 40.6395 54.4407 37.8021L130.558 10.9517L130.71 11.074C131.433 13.0033 132.515 17.4743 133.079 19.6013L138.163 39.5477L149.031 81.608C149.756 84.398 155.332 104.692 155.036 105.745C153.642 106.775 147.754 108.753 145.741 109.486L129.647 115.303C99.179 126.591 68.6236 137.642 37.9836 148.455L21.9772 85.6861L15.9687 63.0563C15.0394 59.5942 13.7819 55.6317 13.0422 52.1964ZM117.137 23.2809C113.26 24.4991 108.465 26.4039 104.456 27.771L76.7989 37.3186C74.3882 38.1634 65.9652 40.8803 64.1678 42.1509C65.2543 45.5285 71.2683 68.2493 72.0511 68.9932L72.2198 69.0016C88.4681 63.3181 104.723 57.5461 120.979 51.8709C122.424 51.3665 123.901 50.9012 125.31 50.308C124.009 46.9119 117.949 24.0468 117.32 23.3281L117.137 23.2809ZM46.5511 47.9207C39.1888 47.8831 33.1837 53.8083 33.1227 61.1706C33.0617 68.5326 38.9678 74.5565 46.3295 74.641C53.7244 74.7261 59.7816 68.7873 59.843 61.392C59.9044 53.997 53.9467 47.9586 46.5511 47.9207ZM125.456 52.5834C118.592 54.5696 110.045 57.8328 103.225 60.2654L72.3906 70.9575C73.2138 73.7478 79.5053 96.7186 79.8916 97.084L79.989 97.1117C93.8735 92.3828 107.658 87.1143 121.538 82.3511C125.285 81.0657 129.339 79.4039 133.064 78.2797C132.544 76.6364 132.068 74.9462 131.618 73.2816C129.761 66.4169 127.597 59.6149 125.905 52.7079C125.593 52.5553 125.745 52.5837 125.456 52.5834ZM53.41 79.1578C48.5866 79.386 44.2576 82.187 42.0735 86.4936C39.889 90.7999 40.1862 95.9479 42.8516 99.9742C45.517 104 50.1399 106.285 54.9574 105.956C62.2987 105.455 67.8679 99.1374 67.4439 91.7914C67.0197 84.4455 60.7602 78.8104 53.41 79.1578ZM133.338 80.1728C128.783 82.126 122.355 84.1085 117.518 85.8092L92.3131 94.8586L84.1781 97.7786C83.0904 98.168 81.1687 98.7767 80.1666 99.2336C82.2188 105.524 83.5902 112.467 85.532 118.833C85.93 120.137 86.8596 124.176 87.4938 125.138C90.4271 124.281 94.0825 122.837 96.994 121.765L112.682 116.054L130.744 109.497C133.236 108.603 138.268 106.994 140.48 105.995C139.951 103.737 133.871 80.8681 133.338 80.1728ZM61.0186 108.071C53.7966 108.398 48.1812 114.473 48.4226 121.698C48.664 128.924 54.6725 134.611 61.9004 134.455C66.6525 134.352 70.9825 131.703 73.2369 127.518C75.491 123.333 75.3217 118.26 72.7929 114.235C70.2644 110.21 65.767 107.856 61.0186 108.071Z" fill="#FEFEFE"/>
<path d="M64.168 42.1502C65.9655 40.8796 74.3884 38.1627 76.7991 37.3179L104.457 27.7703C108.465 26.4032 113.26 24.4984 117.137 23.2803L117.32 23.3274C117.949 24.0461 124.009 46.9112 125.31 50.3073C123.901 50.9005 122.424 51.3658 120.979 51.8702C104.724 57.5454 88.4683 63.3174 72.22 69.0009L72.0513 68.9926C71.2685 68.2486 65.2545 45.5278 64.168 42.1502ZM105.035 38.0684C101.015 39.3519 96.9892 40.8867 92.9962 42.2775C91.4774 42.8066 85.2356 44.6087 84.6535 45.6838C84.6658 46.4158 84.9371 46.9871 85.7535 46.988C87.9213 46.3371 105.213 40.6052 105.969 39.7558C106.136 39.0325 105.747 38.299 105.035 38.0684ZM98.1991 45.4591C94.3565 46.9063 89.4956 48.2928 85.8969 49.8532C86.0619 50.5179 86.1226 51.0464 86.5401 51.5754C86.7861 51.6131 86.7809 51.6485 86.9945 51.589C89.1786 50.9018 98.4954 48.0862 99.4249 46.6445C99.4767 46.0424 99.4999 46.2693 99.0725 45.661C98.6517 45.4264 98.6831 45.4409 98.1991 45.4591ZM76.7615 47.8004C75.502 48.3764 74.6218 49.0328 74.1503 50.4143C73.7927 51.4453 73.8645 52.5765 74.3495 53.5539C75.1736 55.2278 76.681 55.8712 78.4717 55.5506C83.4917 53.4176 82.2646 47.2097 76.7615 47.8004Z" fill="#FEAF36"/>
<path d="M85.7534 46.9885C84.937 46.9875 84.6657 46.4162 84.6533 45.6843C85.2354 44.6092 91.4773 42.8071 92.9961 42.278C96.9891 40.8872 101.015 39.3524 105.035 38.0688C105.747 38.2995 106.136 39.033 105.969 39.7563C105.213 40.6057 87.9212 46.3376 85.7534 46.9885Z" fill="#FEFEFE"/>
<path d="M85.897 49.8539C89.4956 48.2936 94.3566 46.907 98.1991 45.4598C98.6832 45.4416 98.6517 45.4271 99.0726 45.6618C99.4999 46.2701 99.4768 46.0431 99.425 46.6453C98.4954 48.087 89.1787 50.9025 86.9946 51.5898C86.7809 51.6493 86.7862 51.6138 86.5401 51.5762C86.1227 51.0471 86.0619 50.5187 85.897 49.8539Z" fill="#FEFEFE"/>
<path d="M46.3298 74.6399C38.9681 74.5554 33.062 68.5315 33.123 61.1695C33.1841 53.8072 39.1892 47.882 46.5515 47.9196C53.9471 47.9575 59.9047 53.9959 59.8433 61.3909C59.782 68.7862 53.7248 74.725 46.3298 74.6399ZM46.2678 48.4502C41.0233 49.037 37.0134 51.7976 34.8915 56.6977C32.6205 61.9431 34.409 68.3447 38.9764 71.746C40.8171 68.6734 41.865 67.1059 44.787 65.1114C42.1308 62.6874 39.6208 59.5601 40.4832 55.7185C41.1821 54.086 41.9061 52.8906 43.6619 52.158C46.5243 50.9636 49.7123 52.6057 50.6515 55.5098C51.615 58.2297 51.3489 60.2689 50.6508 62.9399C53.7254 63.522 55.5605 63.7631 58.2524 65.4496C58.8117 63.3669 59.0627 62.0075 58.8777 59.8546C58.3094 53.2412 52.9641 48.0636 46.2678 48.4502ZM44.8381 52.5814C37.7577 54.1899 41.5133 62.9938 46.9415 65.2668C47.4662 65.3389 48.1649 65.3993 48.578 64.9769C51.0455 62.4534 51.22 56.8836 49.0525 54.1325C47.9784 52.7691 46.4642 52.5462 44.8381 52.5814ZM50.4779 63.5895C49.683 65.7188 48.3049 66.5608 46.0708 65.711C45.7563 65.5899 45.4465 65.4573 45.1418 65.3133C42.2853 67.9081 41.6446 68.8571 39.5385 72.096C42.0235 73.4362 43.6665 74.0806 46.5397 74.137C52.3287 73.6928 55.4816 71.2114 57.9703 66.0585C55.0807 64.5339 53.6446 64.2783 50.4779 63.5895Z" fill="black"/>
<path d="M78.4715 55.5499C76.6808 55.8705 75.1734 55.227 74.3493 53.5532C73.8643 52.5758 73.7925 51.4446 74.1501 50.4136C74.6215 49.032 75.5018 48.3756 76.7612 47.7997C82.2644 47.209 83.4915 53.4169 78.4715 55.5499Z" fill="#FEFEFE"/>
<path d="M38.9763 71.7463C34.4089 68.345 32.6203 61.9434 34.8914 56.698C37.0132 51.7979 41.0232 49.0372 46.2677 48.4505C52.964 48.0639 58.3093 53.2414 58.8775 59.8548C59.0625 62.0078 58.8115 63.3672 58.2523 65.4499C55.5603 63.7634 53.7252 63.5223 50.6507 62.9402C51.3487 60.2692 51.6148 58.23 50.6513 55.51C49.7122 52.606 46.5242 50.9639 43.6618 52.1583C41.9059 52.8909 41.182 54.0862 40.483 55.7188C39.6207 59.5604 42.1307 62.6877 44.7868 65.1116C41.8649 67.1061 40.8169 68.6736 38.9763 71.7463Z" fill="#FFC071"/>
<path d="M46.9415 65.2674C41.5132 62.9944 37.7576 54.1905 44.8381 52.582C46.4642 52.5468 47.9783 52.7697 49.0525 54.1331C51.22 56.8842 51.0455 62.454 48.578 64.9775C48.1649 65.3999 47.4662 65.3395 46.9415 65.2674Z" fill="#3E4682"/>
<path d="M72.3906 70.9561L103.225 60.264C110.045 57.8314 118.593 54.5682 125.456 52.582C125.745 52.5823 125.593 52.5539 125.906 52.7065C127.597 59.6135 129.761 66.4155 131.618 73.2802C132.068 74.9448 132.544 76.635 133.064 78.2783C129.339 79.4025 125.285 81.0643 121.539 82.3497C107.658 87.1129 93.8735 92.3814 79.9891 97.1103L79.8917 97.0826C79.5054 96.7172 73.2138 73.7464 72.3906 70.9561ZM115.241 66.2808C113.396 66.8062 111.632 67.5172 109.799 68.1773C106.125 69.5006 102.645 70.7594 98.941 72.0809C98.1977 72.346 90.8727 74.0673 93.917 75.9965C93.9836 75.9986 94.0502 76.0005 94.1168 76.0027C101.213 73.4279 109.271 70.8723 116.226 68.0718C116.051 67.4765 115.921 66.779 115.52 66.3323L115.241 66.2808ZM107.625 73.8077C104.671 74.975 101.695 76.0853 98.6987 77.1376C97.3378 77.6299 95.1355 78.3505 93.933 78.9304C94.1183 79.5896 94.2071 80.1822 94.6453 80.6854C94.981 80.7008 94.8925 80.7193 95.0023 80.6795C96.9656 80.0105 107.95 76.4198 108.593 75.3755C108.761 74.4981 108.553 73.9323 107.625 73.8077ZM86.3195 76.4118C84.8738 76.3877 83.5292 77.1511 82.809 78.4047C82.0887 79.6581 82.1063 81.204 82.8549 82.4409C83.6035 83.6779 84.965 84.4101 86.4098 84.3534C88.5588 84.2686 90.2499 82.489 90.2255 80.3388C90.2012 78.1883 88.4697 76.4479 86.3195 76.4118Z" fill="#FEAF36"/>
<path d="M45.1417 65.3132C45.4463 65.4571 45.7562 65.5897 46.0706 65.7109C48.3047 66.5606 49.6829 65.7186 50.4777 63.5894C53.6444 64.2781 55.0806 64.5337 57.9701 66.0584C55.4814 71.2113 52.3286 73.6926 46.5396 74.1369C43.6664 74.0805 42.0234 73.4361 39.5383 72.0958C41.6444 68.857 42.2851 67.908 45.1417 65.3132Z" fill="#0A9673"/>
<path d="M94.1168 76.0036C94.0502 76.0014 93.9836 75.9996 93.917 75.9974C90.8727 74.0683 98.1977 72.347 98.9411 72.0818C102.645 70.7604 106.125 69.5015 109.799 68.1782C111.632 67.5181 113.396 66.8071 115.241 66.2817L115.521 66.3332C115.921 66.78 116.051 67.4774 116.226 68.0728C109.271 70.8732 101.213 73.4288 94.1168 76.0036Z" fill="#FEFEFE"/>
<path d="M93.9331 78.9318C95.1355 78.3518 97.3378 77.6313 98.6988 77.1389C101.695 76.0866 104.671 74.9764 107.625 73.8091C108.553 73.9336 108.761 74.4994 108.593 75.3769C107.95 76.4211 96.9657 80.0118 95.0023 80.6809C94.8926 80.7206 94.9811 80.7021 94.6453 80.6867C94.2072 80.1835 94.1184 79.591 93.9331 78.9318Z" fill="#FEFEFE"/>
<path d="M86.4097 84.3543C84.9649 84.411 83.6034 83.6788 82.8548 82.4418C82.1062 81.2048 82.0886 79.6589 82.8089 78.4056C83.5291 77.152 84.8737 76.3886 86.3194 76.4127C88.4696 76.4487 90.2011 78.1892 90.2254 80.3397C90.2498 82.4899 88.5587 84.2695 86.4097 84.3543Z" fill="#FEFEFE"/>
<path d="M54.9577 105.955C50.1402 106.284 45.5173 103.999 42.8519 99.9732C40.1865 95.9469 39.8893 90.7989 42.0738 86.4926C44.2579 82.1861 48.5869 79.385 53.4103 79.1568C60.7605 78.8094 67.02 84.4445 67.4442 91.7904C67.8682 99.1364 62.299 105.454 54.9577 105.955ZM52.6567 80.0466C49.2119 80.5658 46.1337 81.8642 44.01 84.7411C41.8656 87.5902 40.9718 91.1892 41.5345 94.7108C42.0556 97.9219 43.6258 100.449 45.9067 102.699C48.3705 98.9946 48.1192 98.4297 51.9399 95.9043C49.1444 93.414 46.0933 88.6764 48.4473 85.0142C49.6568 83.769 51.3325 82.688 53.1127 82.6458C54.3099 82.6229 55.4621 83.1021 56.2902 83.9666C57.8106 85.5424 58.3103 88.6903 58.2144 90.8214C58.1697 91.8706 58.006 92.9115 57.7264 93.924C60.6915 94.1327 64.0102 94.1118 65.943 96.738C69.1017 87.2579 62.6397 79.1063 52.6567 80.0466ZM52.7156 83.4199C44.6383 84.9914 49.4521 94.339 53.3951 95.8907C54.0405 95.9789 55.3483 96.1343 55.879 95.6657C57.8001 93.969 57.6928 90.1006 57.2738 87.803C56.791 85.1539 55.6246 83.2571 52.7156 83.4199ZM57.4618 94.6458C56.4718 96.15 56.1225 96.434 54.3543 96.8619C53.7895 96.6905 53.1118 96.5061 52.5692 96.3008C49.0334 98.8262 48.9014 99.3553 46.4574 103.08C49.0189 104.571 50.9539 105.462 53.9853 105.419C57.7603 105.019 61.1755 103.656 63.6155 100.627C64.3376 99.7373 64.9432 98.7587 65.4173 97.7154C64.2519 94.7746 60.1753 94.8511 57.4618 94.6458Z" fill="black"/>
<path d="M45.9067 102.699C43.6257 100.449 42.0555 97.9225 41.5344 94.7114C40.9717 91.1898 41.8656 87.5908 44.0099 84.7416C46.1336 81.8647 49.2118 80.5664 52.6566 80.0472C62.6396 79.1068 69.1017 87.2584 65.943 96.7386C64.0101 94.1123 60.6914 94.1333 57.7263 93.9246C58.0059 92.912 58.1697 91.8712 58.2144 90.822C58.3103 88.6909 57.8105 85.5429 56.2902 83.9671C55.462 83.1026 54.3098 82.6235 53.1127 82.6463C51.3324 82.6885 49.6567 83.7695 48.4472 85.0148C46.0932 88.677 49.1443 93.4146 51.9398 95.9049C48.1191 98.4303 48.3704 98.9951 45.9067 102.699Z" fill="#FFC071"/>
<path d="M80.1667 99.2326C81.1688 98.7757 83.0905 98.1671 84.1783 97.7777L92.3132 94.8576L117.518 85.8082C122.355 84.1075 128.783 82.1251 133.338 80.1719C133.872 80.8671 139.952 103.737 140.48 105.994C138.268 106.993 133.236 108.602 130.744 109.496L112.682 116.053L96.9941 121.764C94.0826 122.836 90.4272 124.28 87.4939 125.137C86.8597 124.175 85.9301 120.136 85.5321 118.832C83.5903 112.467 82.2189 105.523 80.1667 99.2326ZM124.231 94.3628C121.635 95.0735 102.501 101.638 101.822 102.8C101.825 103.368 101.847 103.35 102.112 103.823C102.186 103.852 102.56 104.002 102.625 104.014C107.586 102.66 112.838 100.405 117.737 98.7585C119.391 98.2022 124.286 97.0791 125.024 95.6247C125.074 95.0599 125.011 95.0472 124.733 94.5613C124.41 94.3424 124.582 94.3773 124.231 94.3628ZM115.971 102.047C113.099 103.039 105.509 105.606 103.044 106.92C103.282 107.503 103.462 108.114 103.905 108.545L104.28 108.529C107.341 107.373 113.693 105.095 116.995 103.76C117.044 103.656 117.093 103.552 117.142 103.448C117.109 102.851 117.146 102.813 116.852 102.276C116.327 101.969 116.607 102.054 115.971 102.047ZM94.3614 104.683C92.2259 104.861 90.6276 106.718 90.7701 108.856C90.9128 110.994 92.7436 112.623 94.8836 112.515C96.2994 112.444 97.5669 111.615 98.1993 110.346C98.8319 109.078 98.7311 107.566 97.9357 106.393C97.1405 105.22 95.7741 104.566 94.3614 104.683Z" fill="#FEAF36"/>
<path d="M53.395 95.8907C49.452 94.3389 44.6382 84.9914 52.7155 83.4199C55.6245 83.2571 56.7908 85.1539 57.2737 87.8029C57.6927 90.1005 57.8 93.9689 55.8788 95.6656C55.3482 96.1343 54.0403 95.9789 53.395 95.8907Z" fill="#3E4682"/>
<path d="M102.624 104.015C102.56 104.003 102.186 103.853 102.112 103.824C101.847 103.351 101.825 103.369 101.822 102.801C102.501 101.639 121.635 95.0744 124.231 94.3638C124.582 94.3783 124.409 94.3434 124.733 94.5623C125.011 95.0482 125.074 95.0609 125.024 95.6257C124.286 97.08 119.391 98.2032 117.737 98.7594C112.838 100.406 107.586 102.661 102.624 104.015Z" fill="#FEFEFE"/>
<path d="M54.3544 96.8622C56.1226 96.4342 56.472 96.1503 57.462 94.646C60.1755 94.8513 64.252 94.7749 65.4175 97.7156C64.9433 98.7589 64.3377 99.7375 63.6157 100.628C61.1756 103.656 57.7604 105.02 53.9854 105.419C50.954 105.462 49.019 104.571 46.4575 103.08C48.9015 99.3555 49.0335 98.8265 52.5693 96.301C53.1119 96.5064 53.7896 96.6908 54.3544 96.8622Z" fill="#0A9673"/>
<path d="M103.044 106.921C105.509 105.606 113.099 103.04 115.971 102.047C116.607 102.054 116.327 101.969 116.852 102.276C117.146 102.813 117.109 102.852 117.142 103.448C117.093 103.552 117.044 103.656 116.995 103.76C113.693 105.095 107.342 107.374 104.28 108.529L103.905 108.546C103.462 108.114 103.282 107.503 103.044 106.921Z" fill="#FEFEFE"/>
<path d="M94.8836 112.515C92.7436 112.622 90.9128 110.994 90.7701 108.856C90.6276 106.718 92.2259 104.86 94.3613 104.683C95.774 104.566 97.1405 105.219 97.9356 106.393C98.7311 107.566 98.8319 109.077 98.1993 110.346C97.5669 111.614 96.2994 112.444 94.8836 112.515Z" fill="#FEFEFE"/>
<path d="M61.9005 134.455C54.6727 134.611 48.6642 128.924 48.4228 121.698C48.1814 114.473 53.7967 108.397 61.0188 108.071C65.7671 107.856 70.2646 110.21 72.7931 114.235C75.3219 118.26 75.4912 123.333 73.2371 127.518C70.9826 131.703 66.6526 134.352 61.9005 134.455ZM60.3284 108.866C56.8139 109.396 53.5778 111.127 51.4409 114.005C49.4902 116.595 48.6549 119.858 49.1208 123.067C49.6687 126.676 51.5994 129.375 54.3668 131.633C55.7361 128.846 57.2622 126.888 59.9249 125.188C57.1707 122.433 54.3323 118.701 56.0919 114.66C57.0871 113.24 58.5294 112.054 60.2696 111.726C61.4763 111.492 62.7259 111.773 63.7171 112.5C66.6468 114.644 66.632 119.788 65.9336 122.988C67.8224 123.218 70.423 123.441 72.2119 124.279C72.4524 124.392 73.0638 125.107 73.2864 125.362C75.8941 120.509 72.6392 112.469 67.774 110.223C65.0253 108.954 63.3108 108.689 60.3284 108.866ZM60.2113 112.386C56.6635 113.752 55.2921 116.167 56.8272 119.775C57.6267 121.654 59.8462 124.695 61.698 125.495C62.7182 125.505 63.2988 125.576 64.0353 124.778C66.8065 121.775 66.2333 112 60.8637 112.318C60.6454 112.333 60.428 112.356 60.2113 112.386ZM65.6503 123.769C64.3181 126.427 62.9208 126.73 60.3442 125.54C57.3948 128.375 57.1503 128.373 54.9428 131.954C57.5326 133.19 59.1414 133.716 62.0738 133.642C66.0237 133.026 69.2499 132.071 71.7331 128.669C72.3867 127.784 72.8945 126.799 73.2374 125.754C70.826 124.417 68.37 124.048 65.6503 123.769Z" fill="black"/>
<path d="M54.3668 131.633C51.5994 129.375 49.6687 126.675 49.1208 123.066C48.655 119.857 49.4902 116.595 51.4409 114.004C53.5779 111.126 56.8139 109.395 60.3284 108.865C63.3108 108.688 65.0253 108.953 67.774 110.222C72.6392 112.468 75.8941 120.508 73.2864 125.361C73.0638 125.106 72.4524 124.391 72.2119 124.279C70.4231 123.44 67.8224 123.218 65.9337 122.987C66.632 119.787 66.6468 114.643 63.7172 112.499C62.7259 111.772 61.4763 111.492 60.2696 111.725C58.5294 112.053 57.0871 113.239 56.0919 114.66C54.3323 118.701 57.1707 122.432 59.9249 125.188C57.2622 126.887 55.7361 128.845 54.3668 131.633Z" fill="#FFC071"/>
<path d="M61.6981 125.495C59.8464 124.694 57.6268 121.654 56.8273 119.775C55.2922 116.166 56.6636 113.751 60.2114 112.386C60.4282 112.355 60.6455 112.333 60.8638 112.318C66.2335 111.999 66.8066 121.775 64.0355 124.777C63.2989 125.575 62.7183 125.504 61.6981 125.495Z" fill="#3E4682"/>
<path d="M60.3443 125.539C62.9209 126.729 64.3182 126.426 65.6504 123.768C68.3701 124.046 70.8261 124.416 73.2375 125.752C72.8946 126.798 72.3868 127.782 71.7332 128.668C69.25 132.07 66.0238 133.025 62.0739 133.641C59.1415 133.715 57.5327 133.189 54.9429 131.953C57.1504 128.372 57.3949 128.374 60.3443 125.539Z" fill="#0A9673"/>
<path d="M93.4744 136.157C98.5305 133.919 105.992 131.565 111.45 129.51C111.781 129.978 110.309 139.703 110.274 141.04C110.257 141.703 109.949 142.432 110.605 142.805C111.231 142.19 111.571 136.015 111.669 134.853C113.23 134.435 115.427 133.527 117.032 132.943C120.023 131.848 123.033 130.809 126.063 129.828C129.295 131.038 134.584 133.838 137.62 135.518C121.448 141.128 105.34 146.925 89.3007 152.907C83.7134 154.89 78.1575 156.96 72.6347 159.117C69.6563 157.941 64.4966 155.185 61.4421 153.657C65.2064 152.014 70.5307 150.232 74.4318 148.684C77.6174 147.42 83.8309 144.903 86.9134 144.121C86.7204 145.44 86.471 146.787 86.2435 148.104C87.7986 148.867 89.5619 149.508 91.1883 150.124C91.9168 145.559 92.5578 140.672 93.4744 136.157Z" fill="#FEAF36"/>
<path d="M73.1113 159.703C77.9815 157.596 83.5617 155.822 88.5821 153.912C105.1 147.737 121.687 141.752 138.342 135.957L138.629 136.069C139.042 136.743 139.199 137.552 139.408 138.328C136.579 139.521 133.959 140.359 131.095 141.383C126.672 143 122.237 144.587 117.791 146.143C108.326 149.495 98.7951 153.112 89.3495 156.554C84.6627 158.261 78.4779 160.339 74.0576 162.305C73.8343 162.316 73.9703 162.331 73.6731 162.16C73.3466 161.424 73.2485 160.512 73.1113 159.703Z" fill="#FEAF36"/>
<path d="M88.9405 137.837C90.1497 137.314 91.359 136.889 92.5959 136.441C92.6847 136.916 90.7941 148.128 90.5576 149.148L88.0791 148.128C87.7048 147.992 87.5987 147.925 87.2497 147.725C86.9374 146.708 88.4663 139.14 88.9405 137.837Z" fill="#FEAF36"/>
<path d="M61.3846 156.399L61.2048 154.187C61.8733 154.471 63.6304 155.459 64.4206 155.859C67.0906 157.231 69.7807 158.564 72.4892 159.858C72.5654 160.593 72.5928 161.426 72.6341 162.172C68.9279 160.164 65.1772 158.239 61.3846 156.399Z" fill="#FEAF36"/>
</svg>
