<svg width="100" height="100" viewBox="0 0 100 100" fill="none" xmlns="http://www.w3.org/2000/svg">
<path d="M27.8532 45.8254C19.1167 46.3955 11.5716 39.7766 10.9992 31.0403C10.4268 22.3041 17.0438 14.7573 25.7799 14.1827C34.5192 13.6079 42.0694 20.2278 42.6418 28.9672C43.2145 37.7067 36.5926 45.2549 27.8532 45.8254ZM26.1704 16.1131C18.4924 16.4706 12.5623 22.9918 12.9337 30.6692C13.3051 38.3463 19.837 44.2647 27.5135 43.8795C35.1706 43.4953 41.0706 36.9836 40.7002 29.3258C40.3297 21.6682 33.8288 15.7564 26.1704 16.1131Z" fill="#1C001F"/>
<path d="M50.3041 26.4081C50.9823 27.118 54.7905 30.2999 54.2952 31.1819C53.6282 32.3696 52.827 31.6483 52.2313 31.0692C50.5213 29.4067 48.9065 27.785 47.2225 26.1137C46.3684 25.2663 47.7645 24.2176 48.3082 23.6643L50.6643 21.2813C51.2721 20.6749 52.6096 19.1458 53.2957 18.8989C54.187 18.9012 54.6813 19.9618 54.2166 20.4868C53.0313 21.8256 51.5084 23.162 50.3041 24.4739C50.3596 24.4702 50.4221 24.4653 50.4776 24.4655L64.3022 24.4715C69.2477 24.47 73.8813 25.8946 74.9873 31.5819C75.3375 33.3825 75.1959 35.8825 75.1957 37.7985L75.1975 47.82C76.2502 47.084 79.1207 43.5616 80.151 44.4268C80.7153 44.9006 80.6672 45.511 80.1698 45.9686C79.3422 46.7301 74.9598 51.1303 74.102 51.3055C73.337 51.3036 69.187 46.8309 68.4545 46.0788C67.2577 44.8702 68.3006 43.2215 70.0911 44.988L73.2479 48.1645C73.3053 46.9057 73.2493 45.2005 73.2485 43.8919L73.2516 35.5149C73.2528 34.0436 73.3174 32.6721 72.8405 31.2477C71.4702 27.1563 68.2854 26.4042 64.576 26.4059L50.3041 26.4081Z" fill="#1C001F"/>
<path d="M25.8232 22.2396C25.8041 21.3696 25.5281 20.4079 26.4166 19.9755C28.017 19.8753 27.7209 21.0446 27.6902 22.2396C29.5791 22.7327 31.9148 25.5093 31.0822 27.1638C30.8957 27.5347 30.183 27.8481 29.8082 27.6022C29.1605 27.2022 29.3062 26.3612 29.1023 25.7722C27.7478 21.8565 22.032 25.378 24.8422 28.2442C25.8666 29.289 27.4713 28.7409 28.7455 29.4296C32.4662 31.4407 31.5793 36.4355 27.6902 37.5784C27.6865 38.2989 27.8453 39.206 27.4293 39.7312C25.633 40.6837 25.6436 38.7694 25.8232 37.5784C25.2602 37.3903 24.8205 37.2298 24.2572 36.87C22.9203 36.0157 21.5033 32.7612 23.2041 32.6073C24.3633 32.497 24.2154 33.5087 24.4949 34.228C25.7459 37.4474 30.8643 34.8239 28.6996 31.861C27.8527 30.7021 26.7143 30.9952 25.5084 30.7245C20.8754 29.6739 21.4209 22.8634 25.8232 22.2396Z" fill="#1C001F"/>
<path d="M57.0309 51.6018C57.1953 50.8572 57.2559 50.2094 57.1963 49.451C57.1375 47.2787 59.019 47.6684 59.1342 49.2545C59.7381 57.6225 49.8416 62.3654 43.6563 56.7016C37.9436 51.4707 41.2678 41.2024 49.1459 40.784C50.9717 40.2604 57.0135 42.241 56.3145 44.1953C55.7475 45.7801 54.1438 44.0182 53.3762 43.5861C49.4586 41.2053 44.0645 43.6547 42.9692 48.0277C40.4043 57.2692 54.3881 61.2455 57.0309 51.6018Z" fill="#1C001F"/>
<path d="M24.8092 52.6736C23.9133 53.4949 23.0666 54.4269 22.1629 55.2597C21.4302 55.9349 20.5672 57.2992 19.6174 55.9786C19.2922 55.5265 19.5269 55.0351 19.8851 54.7179C20.6843 53.906 24.9638 49.5415 25.6906 49.2255C25.8945 49.2234 26.224 49.2384 26.383 49.3753C28.2068 50.9492 30.2343 53.0798 31.9687 54.8025C32.9674 55.7945 31.8562 57.0708 30.8418 56.3818C29.8785 55.7273 27.6463 53.2818 26.7968 52.4007V62.1828C26.7933 69.2882 27.1713 73.4152 35.4804 73.4099L49.6318 73.4076C48.9541 72.9068 45.8775 70.0279 45.6597 69.3902C45.3795 68.5699 46.2492 67.7468 46.999 68.2404C47.755 68.7378 48.5761 69.7214 49.2425 70.3808L51.4488 72.5921C52.5195 73.6648 53.3877 73.9201 52.4492 75.3468C51.8592 75.8119 51.209 76.4964 50.6716 77.0445L48.3937 79.3599C48.0301 79.7249 47.189 80.6804 46.6963 80.7843C45.9801 80.9353 45.242 79.8531 45.7756 79.2579C46.9873 77.9068 48.3511 76.6497 49.6318 75.3468L35.3609 75.3486C31.2746 75.3509 28.3791 74.7613 26.0437 70.8429C24.0851 67.557 24.8552 56.924 24.8092 52.6736Z" fill="#1C001F"/>
<path d="M74.3422 85.7081C65.6331 86.4009 58.0133 79.8974 57.3293 71.1874C56.6454 62.4774 63.1565 54.8642 71.8672 54.1892C80.5655 53.5149 88.1653 60.0148 88.8483 68.7124C89.5313 77.4099 83.0391 85.0163 74.3422 85.7081ZM72.0135 56.1278C64.3793 56.7177 58.6715 63.389 59.2704 71.0224C59.8694 78.6558 66.5475 84.3556 74.1803 83.7474C81.8 83.1403 87.4877 76.4759 86.8899 68.8556C86.292 61.2351 79.6346 55.5394 72.0135 56.1278Z" fill="#1C001F"/>
<path d="M73.7324 62.2368C73.7308 61.2523 73.4746 60.081 74.5125 59.6277C76.0369 59.5577 75.6478 61.1902 75.6703 62.2368C77.2607 62.2952 78.58 62.4581 79.6836 63.7452C81.324 65.6587 81.0943 68.5349 79.1908 70.1611C82.4484 73.037 80.5607 77.9032 75.6703 78.0265C75.6744 78.5054 75.6675 78.9913 75.6601 79.4945C75.6466 80.4325 73.558 82.022 73.7324 78.0265H71.7228V79.7114C71.4937 80.4685 70.6004 80.8536 69.9912 80.2718C69.5496 79.8499 69.7029 78.6392 69.7361 78.0265C69.2383 78.0185 67.9173 78.1693 67.5054 77.7642C67.0199 77.2866 67.1388 76.2454 67.8931 76.0833C68.3959 75.9751 69.1634 76.0206 69.7361 76.0263L69.7365 68.1613C69.7367 66.9118 69.7783 65.4495 69.7361 64.2202C69.225 64.24 68.7631 64.2597 68.2334 64.2405C67.2144 64.2038 65.7902 62.2347 69.7361 62.2368C69.7334 61.6568 69.6398 60.5374 70.0318 60.0702C70.3677 59.6697 71.1172 59.588 71.4785 59.9943C71.8984 60.4665 71.7494 61.6337 71.7228 62.2368H73.7324ZM71.7228 64.2202V69.2995L74.6529 69.3042C75.8646 69.3062 77.0902 69.47 78.0437 68.5675C79.7851 66.7107 78.4472 64.1581 75.9793 64.22C74.5746 64.2552 73.131 64.1913 71.7228 64.2202ZM71.7228 71.2966V76.0263L74.5636 76.0308C75.9482 76.0351 76.8818 76.2361 78.0437 75.3468C78.4922 74.7509 78.9029 74.0193 78.7506 73.2515C78.3119 71.0404 76.4353 71.2868 74.7914 71.2948L71.7228 71.2966Z" fill="#1C001F"/>
</svg>
