<svg width="41" height="37" viewBox="0 0 41 37" fill="none" xmlns="http://www.w3.org/2000/svg">
<path d="M34.9204 23.8706C35.9864 20.8779 36.1169 17.4024 35.3164 14.3201C35.195 13.8525 34.8412 13.1369 35.1816 12.6995C36.6368 10.8302 37.1415 17.2146 37.1581 17.7025C37.5063 27.8931 29.5576 36.4085 19.3089 36.7289C10.6321 37.0001 2.58102 30.8106 0.649395 22.3899C-1.89834 11.2825 6.80332 0.556 18.0971 0.230833C22.155 -0.0297817 26.7349 1.55783 29.9169 4.01996C30.4589 4.43937 31.6375 5.25872 30.5602 5.85183C30.1588 6.0729 29.7223 5.64675 29.4408 5.41102C24.2721 1.15945 17.1069 0.404536 11.1149 3.3582C2.72556 7.49353 -0.927935 17.6081 3.41447 25.9928C10.4212 39.5222 30.2521 37.8822 34.9204 23.8706Z" fill="white"/>
<path d="M17.7489 20.3895C19.2946 18.9387 20.9536 17.2118 22.4667 15.7029L34.5283 3.72039C35.3232 2.92809 36.0654 1.83383 37.1648 1.58379C38.3883 1.48582 39.4637 2.70643 40.2555 3.58889C41.6818 5.17818 39.9541 6.46971 38.9353 7.48921L21.5968 24.7083C21.2279 25.0851 20.8342 25.5138 20.4232 25.8551C19.1031 26.9516 16.6855 27.03 15.3067 25.9991C14.5416 25.4271 13.6896 24.4645 12.9785 23.7662L11.1931 21.993C10.7608 21.5688 10.2454 21.1056 9.87015 20.6419C9.36595 20.2359 6.50012 17.4231 6.28356 17.0347C5.44491 15.1785 10.2971 12.514 13.402 16.0827C13.7327 16.463 14.276 16.9648 14.653 17.3424L17.7489 20.3895ZM37.347 2.93999C37.02 3.10961 36.2852 3.90011 35.9873 4.19546L18.7671 21.2959C17.5356 22.49 17.3941 21.9874 16.2355 20.8222L13.6318 18.2494C12.0253 16.6531 10.0118 14.2641 7.62218 16.548C8.36406 17.3126 9.10184 18.0321 9.87015 18.7706C11.2725 20.1022 12.6082 21.5123 14.0074 22.8498C16.5438 25.2745 17.6143 26.8069 20.6285 23.7635L38.1593 6.30454C38.4685 5.99812 39.1871 5.39888 39.3366 5.00003C39.4711 4.64072 37.9338 2.96344 37.347 2.93999Z" fill="white"/>
<path d="M34.9204 23.8706C35.9864 20.8779 36.1169 17.4024 35.3164 14.3201C35.195 13.8525 34.8412 13.1369 35.1816 12.6995C36.6368 10.8302 37.1415 17.2146 37.1581 17.7025C37.5063 27.8931 29.5576 36.4085 19.3089 36.7289C10.6321 37.0001 2.58102 30.8106 0.649395 22.3899C-1.89834 11.2825 6.80332 0.556 18.0971 0.230833C22.155 -0.0297817 26.7349 1.55783 29.9169 4.01996C30.4589 4.43937 31.6375 5.25872 30.5602 5.85183C30.1588 6.0729 29.7223 5.64675 29.4408 5.41102C24.2721 1.15945 17.1069 0.404536 11.1149 3.3582C2.72556 7.49353 -0.927935 17.6081 3.41447 25.9928C10.4212 39.5222 30.2521 37.8822 34.9204 23.8706Z" stroke="white" stroke-width="0.4"/>
<path d="M17.7489 20.3895C19.2946 18.9387 20.9536 17.2118 22.4667 15.7029L34.5283 3.72039C35.3232 2.92809 36.0654 1.83383 37.1648 1.58379C38.3883 1.48582 39.4637 2.70643 40.2555 3.58889C41.6818 5.17818 39.9541 6.46971 38.9353 7.48921L21.5968 24.7083C21.2279 25.0851 20.8342 25.5138 20.4232 25.8551C19.1031 26.9516 16.6855 27.03 15.3067 25.9991C14.5416 25.4271 13.6896 24.4645 12.9785 23.7662L11.1931 21.993C10.7608 21.5688 10.2454 21.1056 9.87015 20.6419C9.36595 20.2359 6.50012 17.4231 6.28356 17.0347C5.44491 15.1785 10.2971 12.514 13.402 16.0827C13.7327 16.463 14.276 16.9648 14.653 17.3424L17.7489 20.3895ZM37.347 2.93999C37.02 3.10961 36.2852 3.90011 35.9873 4.19546L18.7671 21.2959C17.5356 22.49 17.3941 21.9874 16.2355 20.8222L13.6318 18.2494C12.0253 16.6531 10.0118 14.2641 7.62218 16.548C8.36406 17.3126 9.10184 18.0321 9.87015 18.7706C11.2725 20.1022 12.6082 21.5123 14.0074 22.8498C16.5438 25.2745 17.6143 26.8069 20.6285 23.7635L38.1593 6.30454C38.4685 5.99812 39.1871 5.39888 39.3366 5.00003C39.4711 4.64072 37.9338 2.96344 37.347 2.93999Z" stroke="white" stroke-width="0.4"/>
</svg>
