<svg width="109" height="42" viewBox="0 0 109 42" fill="none" xmlns="http://www.w3.org/2000/svg">
<path d="M46.734 41.5824C44.3099 39.4492 41.7608 35.0787 39.3111 33.2867C38.4964 32.6908 32.9846 32.8648 31.6113 32.8648L13.9861 32.8658C11.246 32.8673 8.36822 32.9487 5.63161 32.8458C4.02045 32.7852 2.34669 31.3566 2.10983 29.7219C1.9203 28.4149 1.84368 27.0929 1.74678 25.7389L1.21674 18.5529L0.368465 9.20445C0.0414742 5.44206 -1.15156 1.13795 3.70647 0.0955624C3.81138 0.0903295 3.91654 0.0856971 4.02145 0.0817162C6.38249 -0.0104721 9.06426 0.0592828 11.4594 0.0613609L24.4193 0.0584565L66.372 0.0616866L92.9203 0.0651412L101.473 0.060359C103.444 0.0598583 106.321 -0.376821 107.772 1.10628C109.616 2.99126 108.881 6.50568 108.72 9.01394L108.2 17.4006C107.97 21.465 107.84 25.6115 107.412 29.6673C107.355 30.2059 106.642 31.2569 106.257 31.6453C105.727 32.1756 105.065 32.5541 104.34 32.7417C103.176 33.0424 98.057 32.8673 96.58 32.8608L71.5199 32.8683C68.9305 32.8688 59.2227 32.5561 56.8126 33.2719C55.4881 33.665 51.1902 39.8656 49.706 40.948C48.5154 41.8163 48.1409 41.7782 46.734 41.5824ZM3.97838 0.602447C2.02345 0.911586 0.515938 2.18672 0.607325 4.29854C0.738522 7.32763 1.10257 10.3646 1.31439 13.3959C1.54548 16.8363 1.80137 20.275 2.08179 23.7116C2.21474 25.4995 2.22175 27.4257 2.54599 29.1848C2.75154 30.3005 3.27633 31.2119 4.24177 31.8378C4.83967 32.2256 5.37548 32.3348 6.07478 32.3994C8.99315 32.6685 12.2363 32.3821 15.1879 32.3774C22.4799 32.3656 29.7866 32.2797 37.077 32.3553C38.033 32.3653 38.9954 32.6045 39.8076 33.1187C42.2463 34.6633 44.4361 39.2702 46.6278 40.7679C47.1657 41.1352 47.8064 41.2875 48.4416 41.1127C50.9511 40.4219 54.2393 33.7467 57.0084 32.6685C58.6807 32.0173 70.559 32.3723 73.1692 32.3721L96.3296 32.3673C98.3001 32.3734 100.285 32.3668 102.245 32.3999C103.611 32.4232 105.048 32.283 106.006 31.1966C107.298 29.7314 107.137 26.3088 107.242 24.3984C107.383 21.5957 107.541 18.794 107.715 15.993C107.882 13.5383 108.065 11.0849 108.265 8.63279C108.374 7.18354 108.508 5.669 108.479 4.21757C108.455 2.97032 107.843 1.74088 106.869 0.966768C106.539 0.70833 104.706 0.565392 104.225 0.563965C98.588 0.547515 92.9353 0.57075 87.2981 0.575106L54.2598 0.578036L21.3795 0.569998C15.732 0.570799 9.57127 0.448842 3.97838 0.602447Z" fill="#C95C02"/>
<path d="M96.3295 32.3669L73.1691 32.3717C70.5589 32.3719 58.6806 32.0169 57.0083 32.6681C54.2392 33.7462 50.951 40.4215 48.4415 41.1123C47.8063 41.287 47.1656 41.1348 46.6277 40.7675C44.436 39.2698 42.2462 34.6629 39.8075 33.1183C38.9953 32.604 38.0329 32.3649 37.0769 32.3549C29.7865 32.2793 22.4798 32.3652 15.1878 32.3769C12.2362 32.3817 8.99305 32.6681 6.07467 32.399C5.37537 32.3344 4.83956 32.2252 4.24167 31.8374C3.27622 31.2114 2.75144 30.3001 2.54588 29.1844C2.22164 27.4253 2.21463 25.4991 2.08168 23.7112C1.80126 20.2745 1.54537 16.8359 1.31428 13.3955C1.10246 10.3642 0.738413 7.32721 0.607216 4.29812C0.515829 2.1863 2.02334 0.911163 3.97827 0.602024C9.57116 0.448419 15.7319 0.570377 21.3794 0.569576L54.2597 0.577613L87.298 0.574684C92.9352 0.570327 98.5879 0.547093 104.225 0.563542C104.706 0.564969 106.539 0.707908 106.869 0.966345C107.843 1.74046 108.454 2.9699 108.479 4.21715C108.508 5.66857 108.374 7.18312 108.265 8.63237C108.065 11.0845 107.882 13.5379 107.715 15.9926C107.541 18.7936 107.383 21.5953 107.241 24.398C107.136 26.3083 107.297 29.731 106.006 31.1962C105.048 32.2825 103.611 32.4228 102.245 32.3995C100.285 32.3664 98.3 32.3729 96.3295 32.3669ZM60.2559 13.3471C60.982 13.263 61.7757 13.234 62.3904 12.8669C62.6485 12.4543 62.5639 12.6799 62.5884 12.1443C62.0093 11.434 61.4965 11.9315 60.4698 11.6904C59.9715 10.8717 61.0311 8.62526 60.3163 7.91464C59.7825 7.85678 60.0208 7.80493 59.5689 8.04111C59.0028 8.8 58.9542 10.7047 58.7452 11.8501L58.6147 11.9055L58.33 11.7865C57.8751 11.8469 57.8403 11.8178 57.461 12.0938C57.1525 13.0877 57.8321 13.3056 58.5228 13.5499C58.9217 15.2923 57.7667 20.0662 58.9697 21.1246C59.5146 21.1669 59.8879 20.4628 59.9172 20.0262C60.0661 17.7943 60.0737 15.5842 60.2559 13.3471ZM15.0146 6.72546C13.5942 7.04604 12.6883 7.42406 11.8736 8.71947C9.10346 13.1233 18.1515 13.5337 15.9895 17.8193C15.4089 18.9703 13.9007 20.0662 12.7204 19.1939C12.0586 18.7835 11.5481 17.8992 10.9187 17.6644C10.3706 17.8326 10.1455 18.5216 10.3669 19.0262C10.637 19.6418 11.305 20.1556 11.8541 20.5156C15.1721 22.0792 18.6588 18.9315 17.8984 15.5011C17.3336 12.9535 9.84106 10.4696 14.6831 8.36008C15.4385 8.42158 16.9507 8.74308 17.454 8.34163C17.3508 7.31837 15.9873 6.66023 15.0146 6.72546ZM73.1375 7.87408C71.7622 8.01422 66.8971 8.01214 66.293 8.36667C66.0434 8.79186 66.0574 8.76965 66.0191 9.26587C66.5081 10.1338 68.448 9.95806 69.3956 9.97308C69.3098 12.9328 69.118 15.8779 69.0096 18.8344C68.9955 19.4215 68.9252 19.893 69.1468 20.4253C69.4895 20.725 69.2972 20.6498 69.7359 20.6779C70.2048 20.3627 70.3971 19.7973 70.4617 19.2585C70.8183 16.2775 70.656 13.0307 70.9905 10.0529C72.1047 9.95755 74.3183 9.94904 74.633 8.57468C74.3666 7.76652 73.8976 7.75693 73.1375 7.87408ZM28.4259 12.4145C27.9164 13.9716 26.9718 23.4959 27.444 25.5662C27.4945 25.7885 27.9224 25.9771 28.1856 26.0547C29.4039 25.7963 28.9332 22.9841 28.955 21.9005L29.0016 20.6606C31.9905 19.564 34.2199 17.8832 34.0364 14.3449C33.447 13.3168 33.2712 13.1546 32.2276 12.5895C31.1192 12.5635 30.6423 12.6544 29.5616 12.7527C29.4107 12.7665 28.7479 12.4761 28.4259 12.4145ZM55.4607 12.4791C54.4372 12.6759 53.989 12.9122 53.0972 13.4591C52.8441 13.0489 52.7885 12.8642 52.3466 12.6791C51.0867 12.8965 51.7001 18.8066 51.5794 19.9641C51.5499 20.2477 51.8896 20.6058 52.1035 20.7735C53.9863 19.8985 52.3556 17.0532 53.4515 15.4468C54.13 14.452 56.8874 13.6441 56.5193 12.6266C56.0924 12.4122 55.9345 12.4583 55.4607 12.4791ZM76.2692 12.4791C72.6117 13.3534 71.6335 19.1824 74.8433 21.1286C76.0707 21.8729 77.5601 21.2455 78.4239 20.1599L78.31 19.728C77.0521 19.1619 75.4292 21.7798 74.459 17.8652C78.485 17.8158 80.323 12.8361 76.2692 12.4791ZM38.8774 12.5983C38.3649 12.7392 38.2802 12.7482 37.8341 13.0161C37.4232 13.0014 37.2855 12.8534 36.9455 12.6185C36.5263 12.618 36.7332 12.5702 36.3358 12.8657C35.943 14.4838 35.1595 23.6431 35.6195 25.6749C35.6555 25.8341 35.8982 25.9728 36.0489 26.0544C37.0649 26.0367 37.0364 25.2928 36.9402 24.5567C36.937 23.2407 36.971 21.925 37.0424 20.6113C39.658 19.9846 42.7404 17.5034 42.0344 14.5237C41.9027 13.953 41.5409 13.4623 41.0349 13.1681C40.3754 12.778 39.6375 12.606 38.8774 12.5983ZM82.9222 12.5978C82.1978 12.9403 80.5822 13.7227 80.9132 14.7527C82.134 15.0161 83.3163 13.1331 84.4179 14.1979C84.5964 15.8404 77.9159 16.918 80.6435 20.3777C82.0829 21.5011 83.2136 21.0387 84.5246 20.0347C84.7557 20.5943 84.6933 20.9743 85.0641 21.4283L85.2857 21.5176C86.1753 21.117 86.0979 19.5264 86.164 18.5943C86.3533 15.9205 86.7011 12.2467 82.9222 12.5978ZM46.7089 12.8389C42.9154 14.7247 42.2014 20.9813 46.8025 20.8331C50.3483 19.438 51.5218 12.6471 46.7089 12.8389ZM88.9728 12.7695C88.5651 13.8081 86.7161 22.4127 89.2264 20.2097C89.7331 19.7648 90.1252 14.7277 92.5591 14.7134C93.6811 15.723 91.7569 18.5136 92.8075 19.563C93.3258 19.7069 93.0737 19.7069 93.5922 19.562C94.8684 18.4135 93.9302 16.8912 96.1973 14.6907C96.6903 14.4838 96.467 14.4701 96.8919 14.6386C98.0887 16.1917 96.0186 20.5562 98.0061 20.9996C98.2459 20.9192 98.5313 20.8607 98.5899 20.573C99.2319 17.4255 99.2745 9.46331 94.2627 14.4345C92.7459 11.6744 91.5441 14.0464 90.2624 14.0995L90.0674 13.9661C90.0827 13.4102 90.1816 13.2853 89.832 12.8837C89.4104 12.7455 89.3991 12.7638 88.9728 12.7695ZM24.5834 12.905C24.2737 14.1288 23.156 18.9195 21.4272 18.5822C20.5827 17.4541 22.9465 11.7916 20.3065 13.2402C20.1798 13.4596 19.7529 16.8491 19.6651 17.4485C19.6943 20.8539 22.0081 21.6226 23.8648 18.6884C23.8914 19.4052 23.8208 20.1433 24.313 20.6684L24.5979 20.7199C25.0944 20.3406 25.3321 19.4566 25.3403 18.9205C25.3563 17.8644 26.0964 13.8992 25.6057 13.1984C25.1788 12.9375 25.0997 12.9576 24.5834 12.905Z" fill="#FEFDFC"/>
<path d="M11.854 20.5168C11.3049 20.1568 10.6369 19.643 10.3668 19.0273C10.1454 18.5228 10.3705 17.8338 10.9186 17.6655C11.548 17.9004 12.0585 18.7847 12.7203 19.1951C13.9006 20.0674 15.4088 18.9715 15.9894 17.8205C18.1514 13.5348 9.10336 13.1245 11.8735 8.72063C12.6882 7.42521 13.5941 7.04719 15.0145 6.72661C15.9872 6.66139 17.3507 7.31953 17.4539 8.34279C16.9506 8.74424 15.4384 8.42273 14.683 8.36124C9.84096 10.4707 17.3335 12.9547 17.8983 15.5023C18.6587 18.9327 15.172 22.0804 11.854 20.5168Z" fill="#E87401"/>
<path d="M58.7452 11.8511C58.9542 10.7056 59.0028 8.80094 59.5689 8.04205C60.0208 7.80587 59.7825 7.85772 60.3163 7.91559C61.0311 8.6262 59.9715 10.8726 60.4697 11.6913C61.4965 11.9325 62.0093 11.435 62.5884 12.1453C62.5639 12.6808 62.6485 12.4552 62.3904 12.8679C61.7757 13.2349 60.982 13.264 60.2559 13.3481C60.0737 15.5852 60.0661 17.7953 59.9172 20.0271C59.8879 20.4638 59.5146 21.1678 58.9697 21.1255C57.7667 20.0672 58.9217 15.2933 58.5228 13.5509C57.832 13.3065 57.1525 13.0887 57.461 12.0947C57.8403 11.8188 57.8751 11.8478 58.33 11.7875L58.6147 11.9064C58.6122 12.2269 58.5864 12.321 58.5396 12.6428L58.7572 12.6425C58.7462 12.9154 58.7499 12.8967 58.6265 13.1405L58.622 13.109L58.7146 13.1881C58.8951 12.786 58.9655 12.2517 58.7452 11.8511Z" fill="#E87401"/>
<path d="M69.3956 9.97375C68.4479 9.95873 66.508 10.1345 66.019 9.26654C66.0574 8.77032 66.0433 8.79253 66.293 8.36734C66.8971 8.01281 71.7621 8.01489 73.1375 7.87475C73.8976 7.7576 74.3666 7.76719 74.633 8.57535C74.3182 9.94971 72.1047 9.95823 70.9905 10.0536C70.656 13.0313 70.8182 16.2782 70.4617 19.2592C70.3971 19.798 70.2048 20.3633 69.7359 20.6786C69.2972 20.6505 69.4895 20.7256 69.1467 20.4259C68.9252 19.8936 68.9955 19.4222 69.0095 18.835C69.1179 15.8786 69.3097 12.9334 69.3956 9.97375Z" fill="#E87401"/>
<path d="M58.7451 11.8506C58.9654 12.2512 58.8951 12.7855 58.7146 13.1876L58.6219 13.1085L58.6264 13.14C58.7499 12.8962 58.7461 12.9149 58.7571 12.642L58.5396 12.6423C58.5864 12.3205 58.6122 12.2264 58.6147 11.9059L58.7451 11.8506Z" fill="#C95C02"/>
<path d="M28.9549 21.901C28.9331 22.9846 29.4038 25.7969 28.1855 26.0552C27.9223 25.9776 27.4944 25.7891 27.4438 25.5668C26.9716 23.4964 27.9163 13.9721 28.4258 12.415C28.7478 12.4766 29.4105 12.7671 29.5615 12.7533C30.6421 12.6549 31.1191 12.564 32.2275 12.5901C33.2711 13.1552 33.4468 13.3174 34.0362 14.3454C34.2198 17.8837 31.9904 19.5645 29.0014 20.6612L28.9549 21.901ZM30.7623 14.2115C29.8019 15.235 29.7055 16.6188 29.4529 18.0012C29.8399 17.875 30.3522 17.7275 30.701 17.5477C32.2353 16.5207 33.6955 14.1684 30.7623 14.2115Z" fill="#E87401"/>
<path d="M53.0972 13.4594C53.989 12.9126 54.4372 12.6762 55.4607 12.4794C55.9344 12.4587 56.0924 12.4126 56.5193 12.6269C56.8873 13.6444 54.13 14.4524 53.4514 15.4471C52.3555 17.0535 53.9862 19.8988 52.1034 20.7739C51.8896 20.6061 51.5498 20.2481 51.5794 19.9644C51.7001 18.8069 51.0866 12.8968 52.3465 12.6795C52.7884 12.8645 52.844 13.0493 53.0972 13.4594Z" fill="#E87401"/>
<path d="M78.4241 20.1607C77.5603 21.2464 76.0709 21.8738 74.8435 21.1295C71.6337 19.1833 72.6119 13.3543 76.2694 12.48C80.3233 12.837 78.4852 17.8167 74.4592 17.8661C75.4294 21.7807 77.0523 19.1628 78.3102 19.7289L78.4241 20.1607ZM76.0997 14.0719C75.2904 14.5293 74.4124 15.6312 74.7842 16.5836C75.169 16.814 74.9547 16.7449 75.471 16.7056C76.1695 16.1505 77.3085 15.1695 76.832 14.1943C76.517 14.0318 76.466 14.0706 76.0997 14.0719Z" fill="#E87401"/>
<path d="M36.9402 24.5571C37.0364 25.2932 37.0649 26.037 36.0489 26.0548C35.8982 25.9732 35.6555 25.8345 35.6195 25.6752C35.1595 23.6434 35.943 14.4842 36.3358 12.866C36.7332 12.5706 36.5263 12.6184 36.9455 12.6189C37.2855 12.8538 37.4232 13.0017 37.8341 13.0165C38.2802 12.7486 38.3649 12.7396 38.8774 12.5986C39.6375 12.6064 40.3754 12.7784 41.0349 13.1685C41.5409 13.4627 41.9027 13.9534 42.0344 14.524C42.7404 17.5037 39.658 19.985 37.0424 20.6117C36.971 21.9254 36.937 23.2411 36.9402 24.5571ZM39.0586 14.32C37.8776 15.2967 37.5511 16.645 37.3048 18.1249L38.4325 17.5786C39.4567 17.0523 40.9279 15.9201 40.2201 14.6274C39.7547 14.3014 39.6863 14.2972 39.0586 14.32Z" fill="#E87401"/>
<path d="M80.6436 20.378C77.916 16.9183 84.5965 15.8407 84.418 14.1983C83.3164 13.1334 82.1341 15.0165 80.9133 14.7531C80.5823 13.723 82.1979 12.9406 82.9223 12.5981C86.7012 12.2471 86.3534 15.9208 86.1641 18.5946C86.098 19.5267 86.1754 21.1174 85.2858 21.518L85.0642 21.4286C84.6934 20.9747 84.7558 20.5946 84.5247 20.035C83.2137 21.039 82.083 21.5015 80.6436 20.378ZM84.4941 16.4609C83.4563 17.0415 81.3602 18.2603 82.1078 19.6449C83.599 19.551 84.6008 18.1114 84.6326 16.7043L84.4941 16.4609Z" fill="#E87401"/>
<path d="M46.8026 20.8332C42.2014 20.9814 42.9155 14.7248 46.709 12.8389C51.5219 12.6472 50.3484 19.4381 46.8026 20.8332ZM46.9586 14.2794C46.0863 15.0948 44.5635 17.8179 45.591 18.8277C46.084 18.9654 45.9138 18.9313 46.4789 18.7516C47.6626 17.7944 49.8076 14.3998 46.9586 14.2794Z" fill="#E87401"/>
<path d="M96.1975 14.6908C93.9304 16.8914 94.8685 18.4137 93.5924 19.5621C93.0738 19.7071 93.3259 19.7071 92.8077 19.5631C91.7571 18.5138 93.6812 15.7231 92.5593 14.7136C90.1254 14.7279 89.7333 19.7649 89.2266 20.2099C86.7163 22.4129 88.5653 13.8083 88.9729 12.7697C89.3993 12.7639 89.4106 12.7457 89.8322 12.8839C90.1817 13.2855 90.0828 13.4104 90.0676 13.9662L90.2626 14.0997C91.5443 14.0466 92.7461 11.6746 94.2629 14.4347C99.2746 9.46349 99.2321 17.4257 98.5901 20.5732C98.5315 20.8608 98.2461 20.9194 98.0062 20.9998C96.0187 20.5564 98.0888 16.1918 96.892 14.6388C96.4672 14.4703 96.6905 14.484 96.1975 14.6908Z" fill="#E87401"/>
<path d="M19.665 17.4493C19.7529 16.8499 20.1798 13.4603 20.3065 13.241C22.9465 11.7923 20.5827 17.4548 21.4272 18.583C23.156 18.9203 24.2737 14.1296 24.5834 12.9058C25.0997 12.9583 25.1788 12.9383 25.6057 13.1992C26.0964 13.9 25.3563 17.8652 25.3403 18.9213C25.332 19.4573 25.0944 20.3414 24.5979 20.7207L24.313 20.6692C23.8208 20.1441 23.8914 19.406 23.8648 18.6892C22.008 21.6233 19.6943 20.8547 19.665 17.4493Z" fill="#E87401"/>
<path d="M75.471 16.705C74.9547 16.7443 75.169 16.8134 74.7842 16.5831C74.4124 15.6307 75.2904 14.5288 76.0997 14.0713C76.466 14.0701 76.517 14.0313 76.832 14.1938C77.3085 15.169 76.1695 16.1499 75.471 16.705Z" fill="#FEFDFC"/>
<path d="M29.4529 18.0012C29.7055 16.6189 29.8019 15.2351 30.7623 14.2115C33.6955 14.1685 32.2353 16.5207 30.701 17.5478C30.3522 17.7275 29.84 17.875 29.4529 18.0012Z" fill="#FEFDFC"/>
<path d="M37.3047 18.1255C37.5511 16.6456 37.8775 15.2973 39.0586 14.3206C39.6863 14.2978 39.7546 14.302 40.2201 14.628C40.9279 15.9207 39.4567 17.0529 38.4324 17.5792L37.3047 18.1255Z" fill="#FEFDFC"/>
<path d="M46.4788 18.7525C45.9137 18.9322 46.084 18.9663 45.591 18.8286C44.5635 17.8188 46.0862 15.0957 46.9586 14.2803C49.8076 14.4007 47.6626 17.7953 46.4788 18.7525Z" fill="#FEFDFC"/>
<path d="M82.1077 19.6454C81.3601 18.2609 83.4562 17.042 84.494 16.4614L84.6325 16.7048C84.6007 18.1119 83.5989 19.5516 82.1077 19.6454Z" fill="#FEFDFC"/>
</svg>
